<svg xmlns="http://www.w3.org/2000/svg" width="263.761" height="263.761" data-name="atlanta hawks basketball club"><path fill="#e03a3e" d="M131.881 263.761C59.184 263.761 0 204.578 0 131.881S59.184 0 131.881 0s131.88 59.184 131.88 131.881-59.183 131.88-131.88 131.88Z" data-name="Path 3741"/><path fill="#fff" d="M131.881 257.656a125.775 125.775 0 1 1 125.775-125.775 125.909 125.909 0 0 1-125.775 125.775Z" data-name="Path 3742"/><path fill="#e03a3e" d="M131.881 251.55a119.67 119.67 0 0 1 0-239.339c65.94 0 119.67 53.729 119.67 119.67a119.759 119.759 0 0 1-119.67 119.669Z" data-name="Path 3743"/><path fill="#fff" d="m89.142 30.69 2.279 5.21-6.431-3.337-3.582 1.628 7.49 16.851 3.582-1.547-4.8-10.746 6.594 3.582 2.361 5.292 3.582-1.628-7.497-16.851Zm78.314-2.768-2.686 8.629-4.4-1.384 2.768-8.629-3.741-1.221-2.768 8.629-1.3-.407.57 2.605-2.117 6.757 3.745 1.221 1.791-5.617 4.315 1.384-1.713 5.618 3.745 1.221 5.536-17.666Zm61.382 51.45c-.733-1.14-1.384-2.2-2.117-3.338a39.051 39.051 0 0 1-8.548 3.5l-1.628-2.524 7.652-4.884-2.117-3.338-7.652 4.884-.733-1.14-1.221 2.361-5.942 3.824 2.117 3.338 4.966-3.175 1.872 2.849a38.046 38.046 0 0 1-4.315 4.152c.733 1.14 1.384 2.2 2.117 3.338 1.221-.977 4.884-4.233 5.617-6.106a33.035 33.035 0 0 0 9.932-3.745Zm4.882 10.909c-3.175 0-5.21.9-7.9 1.954l-1.058 9.606a20.024 20.024 0 0 1-2.361.57l-1.547-4.07 1.384-.488-1.465-3.663-4.64 1.791s3.989 10.176 4.152 10.583c3.338-.081 5.536-.977 8.385-2.117l.9-9.606a18.463 18.463 0 0 1 2.035-.488l1.628 4.07-1.384.488 1.465 3.663 4.64-1.791c-.081.081-3.989-9.85-4.233-10.5ZM34.92 79.698l3.012 1.872 2.2-3.663 12.788 7.734 2.035-3.338-12.786-7.815 2.2-3.663-3.012-1.791Zm67.813-53.973.814 3.419 4.152-.977 3.338 14.572 3.826-.814-3.338-14.653 4.233-.9-.814-3.419ZM50.392 58.043l-2.605 2.931L61.463 73.43l6.35-7.082-2.605-2.361-3.745 4.152Zm-2.117 36.146-8.466-3.012a22.41 22.41 0 0 0-9.689-1.14c0 .081-2.605 7.082-2.686 7.49a23.9 23.9 0 0 0 7.815 5.21l-.488 1.3 2.605-.488 6.594 2.442 1.3-3.663-5.454-1.954 1.547-4.315 5.457 1.958 1.465-3.826Zm-16.689 2.035.9-2.605a21.442 21.442 0 0 1 5.617 1.058l-1.547 4.315a21.387 21.387 0 0 1-4.966-2.768Zm151.5-40.3 4.477-7.734a23.349 23.349 0 0 0 2.849-9.362c-.081-.081-6.513-3.826-6.838-3.989a23.293 23.293 0 0 0-6.513 6.757l-1.221-.651v2.686l-3.582 6.106 3.419 1.954 2.931-5.047 3.989 2.279-2.931 5.047Zm.977-16.77 2.361 1.384a23 23 0 0 1-2.035 5.292l-3.989-2.279a20.627 20.627 0 0 1 3.663-4.394ZM81.978 54.869l-5.458-7.164a23.812 23.812 0 0 0-7.567-6.188c-.081.081-6.024 4.559-6.268 4.8a24.382 24.382 0 0 0 3.745 8.629l-1.058.814 2.442.977 4.233 5.617 3.093-2.357-3.5-4.64 3.663-2.768 3.582 4.64 3.094-2.361Zm-15.142-7.327 2.2-1.628a21.09 21.09 0 0 1 4.15 3.903l-3.666 2.772a24.817 24.817 0 0 1-2.686-5.047Zm61.056-7.082-.081-5.861 4.559-.081.081 5.861 3.908-.081-.081-7 1.3-2.361h-1.384a22.305 22.305 0 0 0-2.361-9.118c-.326 0-7.815.081-7.9.081a24.031 24.031 0 0 0-2.117 9.525l.081 8.955 3.989.081Zm4.477-9.362-4.559.081a19.267 19.267 0 0 1 .9-5.617h2.768a25.346 25.346 0 0 1 .891 5.535Zm80.268 26.213-5.942 6.106a22.764 22.764 0 0 1-5.129 3.989l-1.14-1.14a20.626 20.626 0 0 1 3.5-5.292l6.106-6.268-2.849-2.768-6.024 6.187a24.791 24.791 0 0 1-5.292 3.745l-1.14-1.14a22.676 22.676 0 0 1 3.826-5.21l5.943-6.106-2.849-2.768-6.187 6.35a22.889 22.889 0 0 0-5.047 8.385c.081.081 4.559 4.4 4.8 4.64.57-.163 1.058-.407 1.547-.57-.163.488-.407 1.058-.57 1.628.244.244 4.722 4.559 4.8 4.64a22.377 22.377 0 0 0 8.3-5.292l6.187-6.35-2.849-2.768ZM54.706 181.376c-3.093.814-4.8 2.279-7.082 3.989l1.547 9.606c-.651.407-1.384.814-2.117 1.221l-2.605-3.5 1.14-.9-2.361-3.175-3.989 3.012s6.513 8.711 6.838 9.118c3.175-.977 5.047-2.442 7.49-4.233l-1.71-9.443a13.921 13.921 0 0 1 1.872-1.054l2.605 3.5-1.14.9 2.361 3.175 3.989-3.012c0-.081-6.431-8.629-6.838-9.2Zm42.088 35.168-1.14 3.338 4.07 1.384-4.884 14.165 3.663 1.3 4.884-14.165 4.07 1.384 1.14-3.338ZM43.72 156.71c-.163-.814-2.524-12.048-2.524-12.048l-7.327 1.547-.326-1.384-2.035 1.872-8.388 1.791s2.361 11.153 2.524 11.967a29.606 29.606 0 0 0 8.711-3.175c3.174.57 5.616.244 9.365-.57Zm-5.21-7.408.9 4.233a22.112 22.112 0 0 1-3.989.163l-.741-3.581 3.826-.814Zm-11.153 2.361 3.908-.814.733 3.5a35.575 35.575 0 0 1-3.745 1.465l-.9-4.152Zm62.765 65.7 1.71-3.093-10.664-6.106-3.663 6.513-1.3-.733.081 2.849-4.233 7.408 10.583 6.106 1.791-3.012-7.245-4.152 1.954-3.5 4.477 2.605 1.791-3.012-4.484-2.61 1.954-3.419Zm115.274-10.5.977 1.058-3.256 3.012-7.734-8.466 2.931-2.686c.407.326.733.733 1.14 1.058l2.931-2.605a48.84 48.84 0 0 0-3.908-3.338c-.407.326-8.385 7.652-8.385 7.652l12.451 13.669 9.036-8.222-3.338-3.663-2.849 2.524Zm-48.276 12.854-3.826 1.058 4.884 17.828 9.118-2.524-.9-3.419-5.373 1.465Zm-122.847-37.2 8.141-3.745a23.493 23.493 0 0 0 7.734-6.024c0-.081-3.175-6.92-3.338-7.164a22.622 22.622 0 0 0-9.2 1.791l-.57-1.221-1.547 2.2-6.431 2.931 1.628 3.582 5.292-2.442 1.954 4.152-5.291 2.44Zm10.42-13.107 1.14 2.442a21.834 21.834 0 0 1-4.722 3.175l-1.872-4.152a19.209 19.209 0 0 1 5.454-1.465Zm81.408 53.807c-.814-.081-12.211-1.628-12.211-1.628l-.977 7.408-1.384-.163 1.058 2.524-1.14 8.548s11.316 1.547 12.13 1.628a35.412 35.412 0 0 0 0-9.281c1.547-2.849 2.035-5.21 2.524-9.036Zm-8.711 2.361 4.315.57a18.986 18.986 0 0 1-1.14 3.826l-3.663-.488.488-3.908Zm-1.547 11.4.488-3.908 3.5.488a33.36 33.36 0 0 1 .163 3.989Zm106.807-92.235c-.163.814-2.686 11.967-2.686 11.967l7.327 1.628-.326 1.384 2.686-.9 8.385 1.872s2.442-11.153 2.605-11.967a34.92 34.92 0 0 0-9.281-.733c-2.604-1.704-4.965-2.437-8.709-3.251Zm1.628 8.955.9-4.233a29.767 29.767 0 0 1 3.745 1.465l-.814 3.582Zm11.234 2.442-3.908-.9.733-3.5a31.814 31.814 0 0 1 3.989.244Zm-88.165 84.583-.9-8.955a22.943 22.943 0 0 0-3.175-9.28c-.081 0-7.571.733-7.9.733a21.783 21.783 0 0 0-1.3 9.28l-1.384.163 1.547 2.2.651 7 3.908-.407-.57-5.78 4.559-.407.57 5.78 3.989-.326Zm-9.036-14.165 2.686-.244a22.263 22.263 0 0 1 1.465 5.536l-4.559.407a27.254 27.254 0 0 1 .409-5.699Zm67.243-40.378-2.361 3.094 14.816 11.071 5.7-7.571-2.849-2.117-3.338 4.477Zm-33.3 27.6-3.5 1.791 8.141 16.607 8.466-4.233-1.465-3.093-5.047 2.442Zm43.635-45.588 7.815 3.5a20.712 20.712 0 0 1 5.454 3.5l-1.221 2.605a21.791 21.791 0 0 1-6.187-1.791l-7.815-3.5-1.628 3.582 8.141 3.663a22.023 22.023 0 0 0 9.606 1.872c0-.081 3.175-7 3.338-7.327a22.967 22.967 0 0 0-7.815-6.024l-8.141-3.663Zm-140.1 36.064c-.977-.9-1.954-1.71-2.931-2.605a41.53 41.53 0 0 1-7.327 5.7l-2.2-1.954 6.106-6.757-2.931-2.605-6.106 6.757-.977-.9-.57 2.605-4.722 5.292 2.931 2.605 3.908-4.4 2.524 2.279a34.905 34.905 0 0 1-3.093 5.129c.977.9 1.954 1.791 2.931 2.605.9-1.221 3.582-5.373 3.826-7.408a35.864 35.864 0 0 0 8.629-6.35Zm137.823-72.372a81.733 81.733 0 1 1-81.731-81.737 81.733 81.733 0 0 1 81.733 81.733Z" data-name="Path 3744"/><g fill="#e03a3e" data-name="Group 1543"><path d="M131.881 56.09a76.044 76.044 0 0 0-61.138 30.691c2.035.57 5.861 1.71 10.583 3.012 7.49 2.2 32.238 9.443 36.878 10.99 13.514 4.315 17.1 6.024 20.922 10.095a108.449 108.449 0 0 0 15.223 12.781c5.7 3.908 8.385 8.3 8.385 15.142s-5.292 12.618-8.548 14.572c0 0 1.221-3.256-.407-4.722-1.547-1.465-6.594-4.233-19.294-3.256-12.781.9-29.877 7.082-41.437 13.269 0 0 5.536-8.711 13.839-12.618 0 0-6.838 0-45.019 16.607A76.279 76.279 0 1 0 131.881 56.09Zm0 135.625a59.528 59.528 0 0 1-42.495-17.825c30.772-15.875 49.984-11.8 49.984-8.711 0 3.175-4.722 10.5-4.722 10.5 25.074-3.582 43.39-18.642 43.39-39.076s-19.049-30.284-23.934-33.3c-5.21-3.256-2.768-7.652-19.864-14.084-10.42-3.908-24.992-7.815-30.691-9.28a59.467 59.467 0 1 1 28.33 111.773Z" data-name="Path 3745"/><path d="M131.23 112.506a17.7 17.7 0 0 1-8.792-1.872c-4.477-2.2-11.316-7.245-17.258-1.71 0 0 4.966-.651 4.64.651-.407 1.3-.9 8.955 5.943 11.8 6.837 2.935 14.734.821 15.467-8.869Z" data-name="Path 3746"/></g></svg>