<svg xmlns="http://www.w3.org/2000/svg" width="357.652" height="357.652" data-name="brooklyn nets"><path fill="rgba(255,255,255,0)" d="M0 0h357.652v357.652H0Z"/><path fill="#2e2a25" d="M100.8 303.515a8.365 8.365 0 0 0-2.934-1.607 6.722 6.722 0 0 0 3.423-4.121 11.959 11.959 0 0 0 .419-3.842v-8.243c-.07-2.235-.279-4.75-2.1-6.776-1.537-1.746-3.842-2.585-6.846-2.585H81.66a.807.807 0 0 0-.838.838v54.207a.807.807 0 0 0 .838.838h11.246a11.575 11.575 0 0 0 7.684-2.515c2.585-2.375 2.864-5.169 2.934-8.382v-9.291c.14-2.724.14-6.147-2.724-8.522m-14.39 1.257h3c3.842.14 7.195.559 8.382 3.912a11.5 11.5 0 0 1 .419 3.423v7.684c0 3.632-.279 5.379-1.746 6.5-.908.629-1.886.978-4.541 1.048h-5.518Zm9.918-11.313c0 1.677-.07 4.82-3.7 5.868a11.681 11.681 0 0 1-3.423.419h-2.864v-18.444h4.121c2.305.07 4.68.14 5.518 2.235a14.068 14.068 0 0 1 .349 2.934v6.988m25.986 12.015a5.942 5.942 0 0 0 1.188-.419 8.966 8.966 0 0 0 5.728-6.217 16.445 16.445 0 0 0 .349-3.632v-8.947c-.07-1.607-.21-5.309-3.283-7.754-2.515-1.956-5.309-2.026-8.173-2.1h-10.548a.807.807 0 0 0-.838.838v54.216a.807.807 0 0 0 .838.838h3.772a.807.807 0 0 0 .838-.838V305.89h4.471l9.71 25.846a.817.817 0 0 0 .768.559h3.982a.807.807 0 0 0 .838-.838l-.14-.489-9.5-25.5Zm1.607-17.743v8.452c0 1.118 0 3.493-2.724 4.471a8.364 8.364 0 0 1-2.934.419h-6.077v-19.631h6.217a7.412 7.412 0 0 1 3.493.629c1.816.978 1.956 3.353 2.026 5.658m28.361-9.78a12.078 12.078 0 0 0-7.4-2.165h-.279c-5.309 0-9.43 2.654-10.9 7.125a19.135 19.135 0 0 0-.838 5.728v31.295c.07 3 .14 6.5 2.585 9.5 2.724 3.283 7.265 3.632 9.081 3.632 6.566 0 9.36-3.563 10.269-5.1 1.467-2.375 1.676-4.82 1.746-7.474v-29.967c-.07-4.4-.07-9.36-4.261-12.574m-14.11 10.478c0-3.143.908-5.309 2.724-6.566a6.734 6.734 0 0 1 3.7-1.048 6.147 6.147 0 0 1 3.213.768 4.871 4.871 0 0 1 2.1 2.165c1.048 1.956 1.188 4.471 1.188 8.732v26.4c-.07 2.934-.14 6.007-2.724 7.824a5.837 5.837 0 0 1-3.7 1.118 6.034 6.034 0 0 1-5.938-3.632 19.062 19.062 0 0 1-.559-5.868v-29.9Zm41-10.478a12.078 12.078 0 0 0-7.4-2.165h-.279c-5.309 0-9.43 2.654-10.9 7.125a21.7 21.7 0 0 0-.838 5.728v.07l-.07.629v30.666c.07 3.074.14 6.5 2.585 9.5 2.724 3.283 7.265 3.632 9.081 3.632 6.566 0 9.36-3.563 10.269-5.1 1.467-2.375 1.676-4.82 1.746-7.474v-29.967c0-4.471 0-9.43-4.191-12.644m-14.041 10.478c0-3.143.908-5.309 2.724-6.566a6.734 6.734 0 0 1 3.7-1.048 6.4 6.4 0 0 1 3.213.768 4.871 4.871 0 0 1 2.1 2.165c1.048 1.956 1.188 4.471 1.188 8.732v26.4c-.07 2.934-.14 6.007-2.724 7.824a5.973 5.973 0 0 1-3.7 1.118 6.034 6.034 0 0 1-5.938-3.632 19.062 19.062 0 0 1-.559-5.868Zm33.038 10.132 11.316-21.236v-.838l-.7-.419h-4.191l-.768.489-11.945 23.4v-23.053a.807.807 0 0 0-.838-.838h-3.842a.807.807 0 0 0-.838.838v54.207a.849.849 0 0 0 .838.838h3.7a.849.849 0 0 0 .838-.838v-20.4l3-5.658 9.291 26.265a.817.817 0 0 0 .768.559h4.052a.807.807 0 0 0 .838-.838l-.14-.489-11.379-31.989Zm32.552 28.71h-13.273V277.25a.807.807 0 0 0-.838-.838h-3.772a.849.849 0 0 0-.838.838v54.208a.807.807 0 0 0 .838.838h17.882a.849.849 0 0 0 .838-.838v-3.353a.849.849 0 0 0-.838-.838m20.258-50.854h-4.121a.757.757 0 0 0-.768.559l-7.893 23.122-7.893-23.122a.817.817 0 0 0-.768-.559h-3.982l-.7.349-.07.768 10.618 30.107v23.821a.807.807 0 0 0 .838.838h3.7a.807.807 0 0 0 .838-.838v-23.82l11.043-30.109-.14-.768-.7-.349m24.938 0h-3.7l-.629.279-.279.559.349 39.607c0 1.048.07 2.026.07 3.213v1.888l-11.177-44.846a.839.839 0 0 0-.838-.629h-5.449a.849.849 0 0 0-.838.838v54.207a.807.807 0 0 0 .838.838h3.632l.629-.21.21-.629-.21-38.559v-5.17l10.827 43.868a.839.839 0 0 0 .838.629h5.729a.807.807 0 0 0 .838-.838V277.25a.849.849 0 0 0-.838-.838m19.416-219.481v-6.916l-2.794-1.4c-1.956-.978-48.129-23.96-112.255-23.96h-3c-64.126 0-110.369 22.982-112.255 23.96l-2.724 1.4v6.706c-.489 27.313 2.864 96.608 45.265 150.535 34.368 43.729 66.641 53.857 70.2 54.835l1.4.419 1.4-.349c1.4-.419 34.228-9.989 69.575-54.905 42.4-53.857 45.684-123.153 45.2-150.326" data-name="Path 3616"/><path fill="#fff" d="M247.004 204.882C288.497 152.14 291.779 84.24 291.291 57.42v-4.89l-.912-.419c-1.882-.978-47.078-23.471-110.086-23.471h-2.934c-62.938 0-108.2 22.493-110.09 23.471l-.908.419v4.68c-.489 26.824 2.794 94.862 44.287 147.6 33.53 42.611 64.615 52.46 68.038 53.368l.419.14.489-.14c1.327-.279 32.971-9.57 67.409-53.3m-67.824 50.229c-2.585-.768-33.32-10.2-66.291-52.111C69.435 147.811 69.225 75.582 69.579 58.54v-3.7l.14-.07v-.14l.978-.419c2.305-1.048 7.474-3.283 14.879-6.007a272.274 272.274 0 0 1 91.783-16.281h2.934a271.986 271.986 0 0 1 91.648 16.206c7.544 2.724 12.713 4.96 15.088 6.007l.978.419v.14l.14.07v3.7c.349 17.044.14 89.273-43.309 144.458-33.111 42.052-63.148 51.482-65.663 52.181" data-name="Path 3617"/><path fill="#fff" d="M127.833 46.592c-2.864.559-4.261.908-7.125 1.537a1.2 1.2 0 0 0-.908 1.188l.559 52.81q0 5.239.21 9.64c-7.125-18.232-14.6-37.162-22.144-56.232a1.19 1.19 0 0 0-1.537-.7c-4.191 1.4-6.217 2.1-10.408 3.7a1.2 1.2 0 0 0-.768 1.118v72.65a1.115 1.115 0 0 0 .559.978l.7.21.419-.07c2.585-.978 3.842-1.467 6.566-2.375a1.218 1.218 0 0 0 .838-1.188q-.21-25.776-.279-51.552c0-4.541-.07-7.055-.21-10.269 7.474 19 14.739 37.512 21.585 55.255a1.232 1.232 0 0 0 1.4.768c4.4-1.048 6.566-1.537 11.037-2.445a1.261 1.261 0 0 0 .978-1.188V47.783a1.126 1.126 0 0 0-.419-.908 1.221 1.221 0 0 0-1.048-.279m48.06-5.169a270.177 270.177 0 0 0-37.587 3.279 1.265 1.265 0 0 0-1.048 1.188v72.578a1.126 1.126 0 0 0 .419.908l.768.279h.21a264.167 264.167 0 0 1 37.092-3.283 1.224 1.224 0 0 0 1.188-1.188v-4.541l-.349-.838-.838-.349a217.558 217.558 0 0 0-28.92 2.1V82.85a216.481 216.481 0 0 1 23.68-1.956 1.224 1.224 0 0 0 1.188-1.188v-4.4l-.349-.838-.908-.419a229.667 229.667 0 0 0-23.471 1.886v-25.5a218.42 218.42 0 0 1 28.92-2.1 1.224 1.224 0 0 0 1.188-1.188V42.61l-.349-.838Zm52.181 4.191a260.657 260.657 0 0 0-44.782-4.335l-.838.349-.349.838v4.613a1.177 1.177 0 0 0 1.188 1.188c6.985.07 10.618.21 17.254.768v66.99a1.212 1.212 0 0 0 1.118 1.188c2.934.21 4.331.349 7.335.7h.14l.838-.279a1.126 1.126 0 0 0 .419-.908V50.015c6.636.768 10.338 1.257 17.324 2.585a1.037 1.037 0 0 0 .978-.279 1.23 1.23 0 0 0 .419-.908v-4.61a1.272 1.272 0 0 0-1.048-1.188m31.085 43.309c-15.438-16-17.184-18.581-17.184-25.147 0-6.5 2.864-7.4 5.658-7.4a18.73 18.73 0 0 1 5.309.908c11.177 3.213 11.177 9.291 11.177 13.831v6.5a1.361 1.361 0 0 0 .838 1.188c2.724.908 4.052 1.4 6.846 2.445a1.284 1.284 0 0 0 1.118-.14 1.2 1.2 0 0 0 .559-.978v-5.458c0-6.846 0-18.3-19.978-24.03-13.971-3.982-21.1.279-21.1 12.434 0 10.059 6.147 16.066 16.416 26.056l2.1 2.026c12.155 11.875 14.6 15.857 14.6 23.331 0 2.724-.419 4.61-1.257 5.8s-2.235 1.746-4.331 1.746a22.576 22.576 0 0 1-6.077-1.048c-5.309-1.537-9.151-3.632-11.456-6.217-2.794-3.143-2.794-5.8-2.794-11.107v-5.728a1.2 1.2 0 0 0-.908-1.188c-3-.7-4.4-.978-7.265-1.537a1.252 1.252 0 0 0-.978.279 1.126 1.126 0 0 0-.419.908v10.2c0 9.57 7.824 16.835 22.633 21.1a41.039 41.039 0 0 0 10.758 1.816c11.6 0 11.6-9.36 11.6-13.342-.21-10.618-5.588-16.625-15.857-27.243m-35.067 86.13a9.619 9.619 0 0 0 1.956-2.794c3.842-7.335.419-15.508-1.048-18.372a54.461 54.461 0 0 0-51.552-25.846c21.655 1.257 42.611 20.607 50.644 47.012m-70.692-21.445c5.239 2.165 12.085 5.868 19.28 9.78 11.386 6.147 23.192 12.5 31.225 14.46 7.125 1.746 12.993 1.607 17.044-.419l-.07-.21-.21-.908c-3.493-14.53-21.655-46.383-53.229-46.383a40.383 40.383 0 0 0-4.052.21 53.791 53.791 0 0 0-29.068 20.739 15.379 15.379 0 0 1 4.682-.7c3.982-.14 8.732 1.048 14.39 3.423m-7.893 43.938c12.783 4.191 19.908 5.588 29.269 5.588 3.423 0 7.265-.21 12.224-.629a115.6 115.6 0 0 0 35.835-9.43 63.358 63.358 0 0 0-1.048-11.386 15.021 15.021 0 0 1-8.1 2.026c-3.213 0-7.125-.629-13.412-2.165-7.474-1.746-18.092-8.1-27.522-13.691-5.169-3.074-10.059-6.007-14.041-7.963-15.368-7.614-24.1-6.566-26.4-6.007a53.524 53.524 0 0 0-7.544 30.875c1.118 1.467 6.357 8.033 20.747 12.783m80.961-6.566.349-.279a15.139 15.139 0 0 0 5.868-9.151 52.227 52.227 0 0 0-1.683-12.992l-.14-.489c-.419 3.982-2.375 7.684-5.868 11.037a46.084 46.084 0 0 1 1.467 11.875m1.327 2.934-.559.419-.908.629a49.807 49.807 0 0 1-1.886 10.129c1.676-.559 2.305.07 2.445.489l.07.21a53.524 53.524 0 0 0 5.379-17.673 13.014 13.014 0 0 1-4.541 5.8m-2.026 13.412-.21-.21a2.861 2.861 0 0 0-1.327.559l-.419.279-.349.279a49.319 49.319 0 0 1-5.169 9.919 53.444 53.444 0 0 0 7.684-10.408h-.07Zm-55.394 22.772a49.858 49.858 0 0 0 17.114-5.169l2.515-1.257c.7-.349 1.4-.768 2.1-1.118 4.96-2.585 10.2-5.379 16.625-8.8 2.235-1.188 4.54-2.515 6.706-3.772l2.515-1.4c.978-.559 1.956-1.048 2.864-1.607l.279-.21a51.227 51.227 0 0 0 1.607-9.71c-6.287 3.143-15.717 5.938-29.618 8.732-17.743 3.563-35.137 1.956-50.644-4.61-10.408-4.4-15.368-10.478-17.394-13.831a63.462 63.462 0 0 0 1.257 7.125 53.556 53.556 0 0 0 22.556 31.709l-.07-.07 1.537.908a25.418 25.418 0 0 0 4.54 1.886 36.08 36.08 0 0 0 10.2 1.537 45.161 45.161 0 0 0 5.309-.349m49.177-19.14c-.7.489-1.4.978-2.165 1.537-2.026 1.4-4.052 2.585-6.147 3.842-.978.629-2.026 1.188-3.074 1.886-7.195 4.471-15.857 9.43-25.147 12.294a49.727 49.727 0 0 1-7.614 1.816 41.057 41.057 0 0 1-6.427.489h-.419a42.749 42.749 0 0 1-7.963-.768 54.268 54.268 0 0 0 47.99-5.8 36.2 36.2 0 0 0 11.177-15.508l-.21.21Z" data-name="Path 3618"/><path fill="#fff" d="M200.132 192.517c0-3.912 0-9.78-4.68-14.32a17.745 17.745 0 0 0 1.257-2.864 21.632 21.632 0 0 0 .838-6.566v-10.968c-.14-4.052-.768-8.313-4.052-11.945-2.934-3.353-7.4-5.1-12.853-5.1h-14.669a5.966 5.966 0 0 0-4.331 1.816 6.256 6.256 0 0 0-1.816 4.331l.14 71.111a6.03 6.03 0 0 0 2.864 5.169 6.2 6.2 0 0 0 3.353.908h14.949a19.987 19.987 0 0 0 13.482-4.61h.07c4.96-4.4 5.449-9.64 5.588-14.669v-.07Z" data-name="Path 3619"/><path fill="#2e2a25" d="M196.29 193.006c0-3.982 0-8.871-4.121-12.294a11.274 11.274 0 0 0-3.143-1.816 9.839 9.839 0 0 0 3.982-5.309 17.177 17.177 0 0 0 .629-5.449v-11.316c-.14-3.143-.419-6.706-3-9.57-2.235-2.445-5.588-3.772-9.919-3.772l-15.3.07a2.176 2.176 0 0 0-1.257.489 1.636 1.636 0 0 0-.489 1.188l.14 74.255a1.568 1.568 0 0 0 .838 1.467 2.274 2.274 0 0 0 .978.279l15.577-.07a16.51 16.51 0 0 0 10.967-3.632c3.772-3.423 4.121-7.4 4.261-11.945l-.14-12.574Zm-10.827 18.861c-1.118.768-2.445 1.257-5.868 1.4h-6.357c-.559 0-.768-.279-.768-.838 0-4.331-.07-28.221-.07-28.361 0-.21.07-.559.489-.559h2.934c3.143.14 6.357.349 8.522 1.746a6.111 6.111 0 0 1 2.585 3.143 14.035 14.035 0 0 1 .559 4.471v10.548c.14 4.75-.21 7.055-2.026 8.452m-5.169-36.953a15.1 15.1 0 0 1-4.61.559h-2.724c-.489 0-.559-.21-.559-.559l-.07-22.842a.557.557 0 0 1 .489-.629h4.541c2.026.07 4.261.14 5.728 1.048a3.106 3.106 0 0 1 1.327 1.537 15.925 15.925 0 0 1 .489 3.842v9.57c0 2.235-.07 6.147-4.61 7.474" data-name="Path 3620"/></svg>