<svg xmlns="http://www.w3.org/2000/svg" width="222.247" height="253.092" data-name="boston celtics"><ellipse cx="110.223" cy="112.199" fill="#50a263" data-name="Ellipse 10" rx="110.223" ry="112.199" transform="translate(.9 6.522)"/><path d="M0 118.721c0 62.364 49.849 113.1 111.123 113.1s111.123-50.735 111.123-113.1S172.4 5.622 111.123 5.622 0 56.36 0 118.721Zm1.8 0c0-61.37 49.043-111.3 109.323-111.3s109.323 49.928 109.323 111.3-49.043 111.3-109.323 111.3S1.8 180.093 1.8 118.721Z" data-name="Path 3502"/><ellipse cx="82.778" cy="83.435" fill="#fff" data-name="Ellipse 11" rx="82.778" ry="83.435" transform="translate(29.443 35.507)"/><path d="M28.544 118.942c0 46.5 37.537 84.336 83.678 84.336s83.676-37.832 83.676-84.336-37.537-84.336-83.676-84.336-83.678 37.834-83.678 84.336Zm1.8 0c0-45.511 36.731-82.535 81.878-82.535S194.1 73.432 194.1 118.942s-36.731 82.537-81.878 82.537-81.878-37.027-81.878-82.537Z" data-name="Path 3503"/><g data-name="Group 1519"><path fill="#fff" d="M34.876 172.18a4.837 4.837 0 0 1 2.2-1.076 5.015 5.015 0 0 1 2.274.1 7.213 7.213 0 0 1 2.458 1.19 14.523 14.523 0 0 1 2.44 2.44l5.089 6.187-14.019 11.524-4.5-5.468a26.768 26.768 0 0 1-2-2.681 7.041 7.041 0 0 1-.862-2.053 3.71 3.71 0 0 1 .063-2.134 3.835 3.835 0 0 1 1.224-1.7 3.99 3.99 0 0 1 2.292-.937 4.229 4.229 0 0 1 2.456.6l.083-.068a5.589 5.589 0 0 1-.765-3.2 3.934 3.934 0 0 1 1.569-2.727Zm-1.7 9.7a1.94 1.94 0 0 0-.549.773 1.435 1.435 0 0 0-.027 1.023 3.611 3.611 0 0 0 .586 1.043q.417.537 1.27 1.577l.222.271 2.982-2.452-.4-.489q-.572-.7-1.164-1.385a3.079 3.079 0 0 0-.873-.667 1.561 1.561 0 0 0-1.084-.188 2.338 2.338 0 0 0-.961.494Zm4.933-5.659a2.129 2.129 0 0 0-.792 1.136 2.269 2.269 0 0 0 .155 1.329 4.094 4.094 0 0 0 .659 1.078q.5.623 1.347 1.659l.587.714 3.533-2.9-.17-.207q-.853-1.05-1.739-2.072a4.689 4.689 0 0 0-1.22-.972 1.959 1.959 0 0 0-1.246-.268 2.247 2.247 0 0 0-1.117.503Zm-17.367-23.976a9.2 9.2 0 0 1 7.358-.624 9.763 9.763 0 0 1 5.324 5.339 9.674 9.674 0 0 1 .748 7.511 9.239 9.239 0 0 1-5.117 5.283 9.268 9.268 0 0 1-7.358.639 9.688 9.688 0 0 1-5.342-5.33 9.751 9.751 0 0 1-.765-7.5 9.236 9.236 0 0 1 5.153-5.316Zm2.2 4.681a8.992 8.992 0 0 0-2.339 1.521 5.589 5.589 0 0 0-1.272 1.7 3.8 3.8 0 0 0-.334 1.776 4.734 4.734 0 0 0 1.422 3.058 3.936 3.936 0 0 0 1.6.852 5.249 5.249 0 0 0 2.121.1 9.016 9.016 0 0 0 2.693-.854 9 9 0 0 0 2.349-1.517 5.532 5.532 0 0 0 1.25-1.7 3.711 3.711 0 0 0 .343-1.786 4.64 4.64 0 0 0-.436-1.672 4.435 4.435 0 0 0-1.055-1.408 3.758 3.758 0 0 0-1.59-.84 5.785 5.785 0 0 0-2.1-.106 8.934 8.934 0 0 0-2.648.869Zm3.928-19.194a18.419 18.419 0 0 1 .433 4.04 22.132 22.132 0 0 1-.31 3.369l-4.225.877-.093-.448a11.525 11.525 0 0 0 1.068-3.617 10.873 10.873 0 0 0-.109-3.578 10.549 10.549 0 0 0-.31-1.1 4.047 4.047 0 0 0-.494-1.059 2.431 2.431 0 0 0-.748-.752 1.36 1.36 0 0 0-1.038-.157 1.3 1.3 0 0 0-.964.8 4.089 4.089 0 0 0-.324 1.511q-.029 1.119-.008 2.239a20.727 20.727 0 0 1-.079 2.239 6.8 6.8 0 0 1-1.275 3.675 4.86 4.86 0 0 1-2.88 1.629 4.764 4.764 0 0 1-4.517-1.5 10.571 10.571 0 0 1-2.755-5.509 19.421 19.421 0 0 1-.4-3.554 17.337 17.337 0 0 1 .218-3.284l4.066-.843.09.436a10.131 10.131 0 0 0-.881 2.97 9.481 9.481 0 0 0 .089 3.362 7.371 7.371 0 0 0 .325 1.144 5.126 5.126 0 0 0 .55 1.023 2.3 2.3 0 0 0 .737.681 1.242 1.242 0 0 0 .9.165 1.311 1.311 0 0 0 .975-.76 5.778 5.778 0 0 0 .289-2.213q.006-1.034.007-1.989a20.644 20.644 0 0 1 .113-2.067 6.957 6.957 0 0 1 1.166-3.412 4.418 4.418 0 0 1 2.774-1.614 5.056 5.056 0 0 1 4.726 1.417 10.921 10.921 0 0 1 2.889 5.878Zm-2.271-16.68-14.733-.136-.054 5.923-3.413-.031.155-16.871 3.412.031-.057 5.924 14.733.136Zm-3.858-34.531a9.2 9.2 0 0 1 6.088 4.182 9.76 9.76 0 0 1 .734 7.5 9.683 9.683 0 0 1-4.182 6.284 9.243 9.243 0 0 1-7.307.844 9.276 9.276 0 0 1-6.1-4.169 9.691 9.691 0 0 1-.754-7.508 9.738 9.738 0 0 1 4.164-6.288 9.233 9.233 0 0 1 7.357-.845Zm-1.265 5.016a9.05 9.05 0 0 0-2.777-.308 5.607 5.607 0 0 0-2.062.509 3.813 3.813 0 0 0-1.383 1.163 4.742 4.742 0 0 0-.837 3.267 3.932 3.932 0 0 0 .694 1.671 5.281 5.281 0 0 0 1.574 1.424 9.033 9.033 0 0 0 2.624 1.047 8.963 8.963 0 0 0 2.779.315 5.558 5.558 0 0 0 2.042-.52 3.725 3.725 0 0 0 1.4-1.164 4.569 4.569 0 0 0 .722-1.569 4.462 4.462 0 0 0 .076-1.758 3.742 3.742 0 0 0-.7-1.657 5.77 5.77 0 0 0-1.553-1.412 8.978 8.978 0 0 0-2.6-1.006Zm20.093-22.025-2.334 4.255-14.8.675 11.091 6.081-2.217 4.043-15.91-8.721 2.972-5.421 12.188-.59-9.123-5 2.217-4.043 15.916 8.721Z" data-name="Path 3504"/></g><g data-name="Group 1520"><path fill="#fff" d="M183.302 46.42c-.094-.443.1.233-.079-.264a8.7 8.7 0 0 0-.708-1.5 5.576 5.576 0 0 0-1.119-1.355 5.973 5.973 0 0 0-1.686-1.078 4.86 4.86 0 0 0-1.989-.335 5.119 5.119 0 0 0-2.147.586 7.36 7.36 0 0 0-2.19 1.757 7.143 7.143 0 0 0-1.5 2.436 5.132 5.132 0 0 0-.261 2.24 4.747 4.747 0 0 0 .64 1.875 6.249 6.249 0 0 0 1.22 1.483 5.97 5.97 0 0 0 1.6 1.027 7.267 7.267 0 0 0 1.563.5c.5.109.221.127.644.158s-.008.031.312.045v.312l-.96 3.258q-.56-.192-1.294-.451a13.683 13.683 0 0 1-1.446-.6q-.858-.439-1.556-.88a14.571 14.571 0 0 1-1.765-1.388 9.983 9.983 0 0 1-3.679-6.544 9 9 0 0 1 2.627-6.919 9.1 9.1 0 0 1 6.522-3.381 9.77 9.77 0 0 1 7.007 2.8 17.078 17.078 0 0 1 1.517 1.506 15.972 15.972 0 0 1 1.136 1.454 15.444 15.444 0 0 1 .775 1.358q.39.766.609 1.264m-8.258 16.279 14.623-10.617 7.907 10.892-2.761 2-4.988-6.849-2.579 1.872 4.581 6.311-2.791 2.026-4.581-6.31-3.73 2.709 4.978 6.857-2.76 2-7.906-10.892Zm15.816 27.509-5.453-12.1 16.475-7.426 2.049 4.545-13.366 6.024 3.406 7.553Zm2.025 7.721 14.312-3.173-1.272-5.746 3.331-.738 3.627 16.362-3.331.738-1.275-5.746-14.314 3.172-1.078-4.869Zm2.484 21.575.04-4.943 3.148-.086 11.769-.32-.106.014 3.148-.086.065 4.929-3.148.086.176.042-11.769.32-.176-.042-3.147.086Zm10.832 24.026a11.411 11.411 0 0 0 .984-1.087 8.789 8.789 0 0 0 .9-1.39 5.608 5.608 0 0 0 .562-1.665 5.977 5.977 0 0 0 .029-2 4.861 4.861 0 0 0-.765-1.867 5.118 5.118 0 0 0-1.629-1.517 7.388 7.388 0 0 0-2.646-.935 7.139 7.139 0 0 0-2.864.005 5.11 5.11 0 0 0-2.042.959 4.742 4.742 0 0 0-1.254 1.535 6.271 6.271 0 0 0-.618 1.818 6.013 6.013 0 0 0-.031 1.9 7.3 7.3 0 0 0 .4 1.594 9.764 9.764 0 0 0 .546 1.281l-.351.025-.218.029-3.186.651q-.133-.578-.3-1.337a13.791 13.791 0 0 1-.249-1.545q-.077-.891-.074-1.786a14.48 14.48 0 0 1 .249-2.23 9.987 9.987 0 0 1 3.622-6.577 9 9 0 0 1 7.259-1.423 9.1 9.1 0 0 1 6.31 3.761 9.768 9.768 0 0 1 1.31 7.433 17.119 17.119 0 0 1-.481 2.082 16.049 16.049 0 0 1-.637 1.731q-.3.637-.746 1.374t-.753 1.183m-20.837 7.1a18.334 18.334 0 0 1 1.9-3.558 21.865 21.865 0 0 1 2.135-2.593l3.961 1.644-.173.421a11.618 11.618 0 0 0-2.881 2.379 10.866 10.866 0 0 0-1.908 3 9.275 9.275 0 0 0-.353 1.077 4.18 4.18 0 0 0-.18 1.148 2.447 2.447 0 0 0 .188 1.033 1.347 1.347 0 0 0 .769.709 1.3 1.3 0 0 0 1.246-.12 4.051 4.051 0 0 0 1.114-1.058q.613-.848 1.26-1.83a18.152 18.152 0 0 1 1.329-1.788 6.761 6.761 0 0 1 3.109-2.3 4.87 4.87 0 0 1 3.287.278 4.776 4.776 0 0 1 2.9 3.766 10.422 10.422 0 0 1-.8 6.065 19.117 19.117 0 0 1-1.659 3.14 16.479 16.479 0 0 1-2.029 2.567l-3.826-1.586.17-.408a10.237 10.237 0 0 0 2.388-1.942 9.289 9.289 0 0 0 1.812-2.8 7.837 7.837 0 0 0 .377-1.118 4.419 4.419 0 0 0 .109-1.142 2.142 2.142 0 0 0-.219-.967 1.275 1.275 0 0 0-.673-.648 1.312 1.312 0 0 0-1.228.076 5.717 5.717 0 0 0-1.476 1.653q-.582.846-1.118 1.63t-1.249 1.631a6.855 6.855 0 0 1-2.877 2.145 4.453 4.453 0 0 1-3.2-.231 5.06 5.06 0 0 1-3.117-3.817 10.8 10.8 0 0 1 .9-6.45Z" data-name="Path 3505"/></g><path fill="#fff" d="m105.159 242.132 9.883-3.682s1.939-1.938 0-3.294-9.883 3.1-9.883 3.1v3.875Z" data-name="Path 3506"/><path d="m105.014 237.996-.153.086v4.483l10.349-3.853.046-.046a3.217 3.217 0 0 0 .942-2.215 2.087 2.087 0 0 0-.982-1.536c-2.034-1.423-9.374 2.62-10.2 3.086Zm9.858-2.594a1.515 1.515 0 0 1 .728 1.095c0 .038.005.078.005.117a2.634 2.634 0 0 1-.735 1.581l-9.41 3.506v-3.265c2.266-1.255 7.978-4.036 9.412-3.034Z" data-name="Path 3507"/><path fill="#fff" d="m67.952 240.776-.388 2.906s8.527 8.14 10.466 8.527a66.62 66.62 0 0 0 6.782.581s1.743-.193 1.743-1.551-18.6-10.463-18.6-10.463Z" data-name="Path 3508"/><path d="m67.655 240.737-.407 3.058.11.106c.88.839 8.647 8.211 10.613 8.6a65.741 65.741 0 0 0 6.83.587c.741-.079 2.056-.565 2.056-1.85 0-1.393-13.128-7.971-18.772-10.734l-.374-.182Zm.539.493c8.553 4.2 17.67 9.08 18.058 10.033-.022 1.048-1.415 1.224-1.475 1.231 0 0-4.8-.2-6.69-.577-1.5-.3-7.772-6.029-10.207-8.344Z" data-name="Path 3509"/><path fill="#fff" d="M99.347 225.079a32.242 32.242 0 0 0-3.486-16.472c-4.263-7.751 11.046-1.938 11.046-1.938l2.131 6.2s-.193 12.209.195 12.79-.195 3.489-.195 3.489l-7.557.388Z" data-name="Path 3510"/><path d="M95.232 205.118c-.664.765-.542 1.987.364 3.633 4.168 7.578 3.46 16.215 3.453 16.3l-.008.082 2.254 4.711 7.99-.41.046-.229c.142-.711.572-3.079.148-3.713-.237-.59-.215-8.057-.143-12.62v-.053l-2.195-6.383-.132-.05c-.991-.376-9.744-3.61-11.778-1.269Zm4.465 18.355a32.329 32.329 0 0 0-3.576-15.011 4.735 4.735 0 0 1-.714-2.12 1.22 1.22 0 0 1 .278-.831c1.469-1.691 8.309.389 10.983 1.39l2.068 6.016q-.05 3.029-.053 6.059c0 3.309.063 6.5.3 6.849a1.318 1.318 0 0 1 .086.592 15.2 15.2 0 0 1-.283 2.443l-7.12.365-2.011-4.2c.009-.183.042-.716.042-1.552Z" data-name="Path 3511"/><path fill="#fff" d="m63.495 200.469 4.457.193 1.938-11.239s-2.907-5.426-5.038-.775-1.357 11.821-1.357 11.821Z" data-name="Path 3512"/><path d="M66.828 186.464c-.878.027-1.635.719-2.248 2.057-2.142 4.672-1.415 11.683-1.382 11.979l.029.256 4.978.216 2-11.6-.049-.091c-.064-.118-1.561-2.872-3.328-2.817Zm-3.167 10.933a22.09 22.09 0 0 1 1.464-8.625c.511-1.114 1.089-1.688 1.721-1.708 1.121-.035 2.308 1.66 2.731 2.414l-1.875 10.873-3.931-.17q-.112-1.391-.111-2.784Zm9.137-53.516a20.055 20.055 0 0 0 .775 11.046c2.131 6.394 9.883 28.487 9.883 28.487s11.24 19.186 14.922 24.224 7.751 6.782 15.891 3.875 11.629-9.3 12.209-12.4 1.55-7.557 1.55-7.557 14.534-32.362 13.565-42.052-68.796-5.623-68.796-5.623Z" data-name="Path 3513"/><path d="M70.471 187.291s-4.457 10.076-3.1 13.953 4.454 6.977 1.937 14.34a27.642 27.642 0 0 0-1.163 13.565l.968 6.4s-1.55 3.877-.388 5.814 8.14 7.559 9.69 8.14 8.72 1.938 11.046.581 6.977-6.976 7.17-7.557 8.527-.388 8.527-.388v-2.712l9.883-4.263s3.294-2.519-4.845-9.69c0 0-5.814 5.038-10.852-.388 0 0-5.62-1.936-14.534 1.551 0 0 1.55-23.642-5.233-36.239a7.649 7.649 0 0 0-3.489-3.294c-2.322-.972-5.617.191-5.617.191Z" data-name="Path 3514"/><path fill="#927b5d" d="m75.704 202.795 9.3.193s1.938 1.163 1.938 2.131.193 6.2.193 6.2.193 2.132-1.163 2.132h-8.525s-2.907-1.163-2.907-2.714-.193-5.233-.193-5.233.194-2.904 1.357-2.709Z" data-name="Path 3515"/><path d="M75.056 202.754c-.771.61-.919 2.522-.933 2.737 0 .064.193 3.721.193 5.248 0 1.683 2.923 2.872 3.049 2.922l.039.016h8.57a1.169 1.169 0 0 0 .9-.384 3.02 3.02 0 0 0 .486-1.993l-.193-6.182c0-1.065-1.838-2.2-2.047-2.324l-.052-.03-9.361-.2h.033a.862.862 0 0 0-.685.184Zm-.29 7.986c0-1.539-.192-5.207-.195-5.245.035-.505.242-1.976.763-2.387a.4.4 0 0 1 .332-.091h.015l9.252.193c.532.327 1.784 1.235 1.784 1.908l.195 6.21c0 .007.008.109.008.261a2.245 2.245 0 0 1-.379 1.4.728.728 0 0 1-.568.237h-8.48c-.788-.325-2.727-1.36-2.727-2.489Z" data-name="Path 3516"/><path fill="#927b5d" d="m88.494 226.823 7.17-1.356a4.789 4.789 0 0 1 2.907.968c.968.968 2.907 3.1 2.907 3.1s.97 1.356-.968 1.938-4.845 1.551-4.845 1.551-3.294.775-4.263-.193-3.489-3.683-3.489-3.683-.195-2.324.58-2.324Z" data-name="Path 3517"/><path d="M88.452 226.602h-.027l.068-.008-.441.2c-.5.543-.38 2.183-.365 2.368l.007.079 3.546 3.745c1.028 1.028 4.124.336 4.474.255l4.858-1.555a1.785 1.785 0 0 0 1.309-1.019 1.533 1.533 0 0 0-.222-1.266c-.016-.02-2.93-3.128-2.93-3.128a4.95 4.95 0 0 0-3.065-1.035l-7.211 1.36Zm-.338 1.954a2.723 2.723 0 0 1 .27-1.453l.11-.056h.042l7.17-1.358a4.608 4.608 0 0 1 2.706.907l2.9 3.092a1.093 1.093 0 0 1 .144.84c-.11.316-.451.562-1.012.731l-4.85 1.552c-.863.2-3.312.581-4.033-.14l-3.426-3.617q-.019-.248-.02-.5Z" data-name="Path 3518"/><path fill="#fff" d="M76.867 200.274s-1.163-7.945 1.551-8.14 4.845 2.519 10.852-.193 10.464 1.163 10.271 6.589-.193 11.822-7.945 7.559-10.273-4.845-14.729-5.815Z" data-name="Path 3519"/><path d="M89.146 191.663c-3.988 1.8-6.16 1.168-8.079.611a7.576 7.576 0 0 0-2.672-.444 1.6 1.6 0 0 0-1.163.636c-1.516 1.885-.7 7.6-.663 7.846l.03.206.2.044c4.261.926 6.833 1.486 14.647 5.784 2.662 1.464 4.616 1.8 5.976 1.027 2.15-1.221 2.275-4.867 2.4-8.392l.016-.445a7.571 7.571 0 0 0-3.073-6.7c-2.077-1.387-4.783-1.45-7.619-.173Zm.246.546c2.64-1.193 5.14-1.146 7.04.128a6.976 6.976 0 0 1 2.808 6.178l-.015.445c-.11 3.205-.236 6.837-2.094 7.892-1.148.652-2.962.306-5.391-1.031-7.763-4.27-10.413-4.888-14.6-5.8a27.952 27.952 0 0 1-.219-3.322c0-1.506.169-3.091.783-3.856a1.01 1.01 0 0 1 .738-.414 7.042 7.042 0 0 1 2.463.422c1.914.556 4.3 1.249 8.49-.643Z" data-name="Path 3520"/><path fill="#fff" d="m77.448 206.281-.388 2.907 7.945.388-.193-2.907Z" data-name="Path 3521"/><path d="m77.15 206.242-.43 3.231 8.607.419-.233-3.509-7.907-.417-.037.275Zm.558.354 6.822.359.154 2.305-7.283-.355Z" data-name="Path 3522"/><path fill="#fff" d="m91.788 227.599 2.907-1.358s3.294 1.744 4.069 4.263l-2.907 1.163Z" data-name="Path 3523"/><path d="m94.568 225.97-3.3 1.537 4.511 4.513 3.347-1.339-.082-.264c-.8-2.609-4.077-4.367-4.216-4.44l-.132-.069-.133.063Zm.114.609c.55.315 2.915 1.78 3.685 3.762l-2.437.975-3.627-3.627Z" data-name="Path 3524"/><path fill="#fff" d="M70.859 215.773s2.712-4.069 1.938.581-1.356 12.209-.193 14.34.968 6.589-2.326 1.551.581-16.472.581-16.472Z" data-name="Path 3525"/><path d="m70.609 215.61-.022.033-.012.037c-.161.472-3.885 11.631-.547 16.732 1.3 1.995 2.278 2.76 2.978 2.341.9-.535.557-2.923-.139-4.2-1.114-2.042-.524-9.649.226-14.148.264-1.586.169-2.345-.323-2.539-.688-.273-1.649.977-2.161 1.744Zm1.935-1.178c.014.014.093.109.093.558a8.245 8.245 0 0 1-.136 1.319 64.615 64.615 0 0 0-.861 9.646 11.846 11.846 0 0 0 .7 4.886 5.412 5.412 0 0 1 .61 2.44c0 .492-.09.859-.253.957-.022.014-.565.3-2.168-2.154a10.309 10.309 0 0 1-1.276-5.558 39.128 39.128 0 0 1 1.879-10.612c.528-.782 1.187-1.473 1.415-1.481Z" data-name="Path 3526"/><path fill="#fff" d="m98.752 186.863-3.979 3.935 1.694.639 1.92-1.782 5.429 8.581 1.657-.561-.568-6.431a32.089 32.089 0 0 0 1.036-7.6c0-2.5-.429-5.071-1.829-6.8l-2.339-.591a15.572 15.572 0 0 1 2.386 7.3 27.784 27.784 0 0 1-.956 6.925l-1.43 1.113" data-name="Path 3527"/><path fill="#fff" d="M87.227 168.944c.4.408 8.9 10.158 27.341 8l2.066-1.882c-21.3 1.51-30.188-8.41-30.279-8.5l.873 2.386Z" data-name="Path 3528"/><path fill="#915a58" d="M163.035 181.099s-1.89 5.1-1.89 5.669-.189 2.835.945 3.969 6.614 5.669 5.291 13.6a87.075 87.075 0 0 1-3.023 12.85s4.724 1.7 5.479 5.669 3.97 26.27 3.97 26.27.189 6.992.945-1.134-1.511-33.446-1.89-35.715 1.89-7.746 1.89-7.746 3.968-2.269-.756-8.125a4.426 4.426 0 0 1-.945-3.779c.566-2.078-1.134-5.1-1.7-6.047s0-3.969.756-4.913 5.1-6.426 4.724-9.638-2.835-14.928-2.835-14.928l-11.526 6.614.566 17.384Z" data-name="Path 3529"/><path d="m173.696 156.578-11.84 6.793.576 17.628a45.888 45.888 0 0 0-1.886 5.765v.2c0 .143-.008.316-.008.512a5.251 5.251 0 0 0 1.133 3.675l.309.3c1.314 1.253 5.01 4.778 5.01 10.487a13.806 13.806 0 0 1-.195 2.3 87.348 87.348 0 0 1-3 12.752l-.193.558.556.2c.044.016 4.412 1.639 5.094 5.218.739 3.883 3.886 25.7 3.96 26.208.084 3.024.313 3.322.9 3.341.677.023.858-.361 1.24-4.474.109-1.17.157-2.682.157-4.424 0-10.58-1.746-29.609-2.052-31.445a2.933 2.933 0 0 1-.035-.485c0-1.864 1.236-5.323 1.825-6.774a4 4 0 0 0 1.59-2.542 4.533 4.533 0 0 0 .079-.852c0-1.633-.821-3.476-2.45-5.5a4.158 4.158 0 0 1-.937-2.459 2.973 2.973 0 0 1 .1-.786 4.066 4.066 0 0 0 .135-1.076 11.885 11.885 0 0 0-1.9-5.438 1.82 1.82 0 0 1-.146-.854 6.98 6.98 0 0 1 .855-3.376c1.506-1.883 4.879-6.45 4.879-9.613a3.763 3.763 0 0 0-.027-.468c-.377-3.2-2.742-14.5-2.843-14.981l-.17-.809-.718.413Zm-.12 1.453c.556 2.676 2.343 11.4 2.658 14.066a3.053 3.053 0 0 1 .02.358c0 2.836-3.5 7.443-4.617 8.834a7.91 7.91 0 0 0-1.111 4.074 3.056 3.056 0 0 0 .31 1.522 10.4 10.4 0 0 1 1.727 4.835 2.863 2.863 0 0 1-.09.745 4.227 4.227 0 0 0-.15 1.112 5.285 5.285 0 0 0 1.224 3.223 8.132 8.132 0 0 1 2.162 4.734 3.239 3.239 0 0 1-.052.592 2.836 2.836 0 0 1-1.209 1.882l-.172.1-.08.187c-.218.528-1.977 4.857-1.977 7.406a3.949 3.949 0 0 0 .05.669c.3 1.822 2.038 20.709 2.038 31.191q0 2.3-.129 3.945c-.733-5.054-3.115-21.427-3.751-24.764-.667-3.5-4.029-5.31-5.33-5.893a93.021 93.021 0 0 0 2.876-12.414 15.291 15.291 0 0 0 .212-2.523c0-6.191-3.971-9.98-5.384-11.328l-.287-.278a4.311 4.311 0 0 1-.78-2.866c0-.174 0-.324.007-.443v-.236c.039-.387.972-3.086 1.852-5.46l.041-.112-.56-17.142c.556-.316 9.272-5.317 10.5-6.02Z" data-name="Path 3530"/><path d="m174.264 155.908-.716.411-12 6.883.579 17.751a36.205 36.205 0 0 0-1.885 5.814l-.012.716a5.274 5.274 0 0 0 1.22 3.888l.312.3c1.347 1.284 4.918 4.69 4.918 10.271a13.642 13.642 0 0 1-.191 2.248 86.368 86.368 0 0 1-2.986 12.7l-.289.839.833.3c.042.016 4.255 1.595 4.9 4.992.735 3.858 3.826 25.283 3.957 26.194.079 2.923.29 3.569 1.187 3.6 1.017.034 1.178-.748 1.55-4.747.1-1.125.157-2.623.157-4.451 0-10.493-1.747-29.641-2.056-31.494l-.03-.436c0-1.731 1.147-5.029 1.776-6.593a4.281 4.281 0 0 0 1.634-2.667l.084-.908c0-1.7-.847-3.614-2.515-5.684a3.817 3.817 0 0 1-.871-2.27l.094-.707a4.376 4.376 0 0 0 .144-1.155 11.969 11.969 0 0 0-1.942-5.592 1.481 1.481 0 0 1-.1-.7 6.744 6.744 0 0 1 .79-3.188c1.487-1.857 4.944-6.531 4.944-9.8l-.029-.505c-.387-3.291-2.823-14.89-2.847-15.007l-.253-1.212Zm-.418.931.358-.206.084.4c.025.117 2.461 11.743 2.838 14.955l.025.433c0 3.08-3.365 7.617-4.812 9.425a7.251 7.251 0 0 0-.922 3.562 2.019 2.019 0 0 0 .189 1.009 11.716 11.716 0 0 1 1.857 5.283 3.812 3.812 0 0 1-.124 1l-.114.865a4.464 4.464 0 0 0 1.008 2.651c1.577 1.957 2.379 3.742 2.379 5.3l-.074.8a3.725 3.725 0 0 1-1.471 2.353l-.071.05-.033.082c-.685 1.693-1.846 5.046-1.846 6.887l.039.535c.308 1.846 2.048 20.93 2.048 31.4 0 1.811-.053 3.29-.155 4.4-.358 3.856-.541 4.216-.933 4.2-.282-.01-.526-.018-.61-3.051-.135-.945-3.227-22.384-3.965-26.255-.716-3.757-5.241-5.426-5.287-5.444l-.278-.1.1-.279a88.037 88.037 0 0 0 3.011-12.8 14.239 14.239 0 0 0 .2-2.346c0-5.839-3.84-9.5-5.1-10.7l-.306-.3a4.731 4.731 0 0 1-1.042-3.46l.012-.711c0-.15.135-.983 1.868-5.669l.02-.056-.571-17.507c.3-.17 11.683-6.7 11.683-6.7Z" data-name="Path 3531"/><path d="m173.427 157.772-10.65 6.113.564 17.263-.02.056c-.7 1.879-1.819 5.044-1.87 5.534l-.005.26-.007.448a4.32 4.32 0 0 0 .869 3.079l.291.282c1.449 1.382 5.291 5.049 5.291 11.111a15.042 15.042 0 0 1-.208 2.473 92.407 92.407 0 0 1-2.865 12.373l-.082.255.244.11c1.34.6 4.525 2.354 5.158 5.675s3.03 19.785 3.75 24.752l.6-.02c.086-1.117.129-2.452.129-3.968 0-10.394-1.735-29.4-2.042-31.24l-.046-.62c0-2.5 1.754-6.808 1.954-7.292l.039-.093.089-.053a3.145 3.145 0 0 0 1.352-2.086l.056-.645a8.431 8.431 0 0 0-2.229-4.922 4.984 4.984 0 0 1-1.159-3.035 3.921 3.921 0 0 1 .139-1.034l.1-.824a10.605 10.605 0 0 0-1.769-4.99 2.793 2.793 0 0 1-.267-1.368 7.629 7.629 0 0 1 1.044-3.887c1.1-1.371 4.683-6.076 4.683-9.021l-.022-.392c-.316-2.687-2.117-11.465-2.662-14.093l-.084-.4-.359.2Zm-.061.726c.615 2.974 2.27 11.081 2.569 13.636l.018.323c0 2.751-3.483 7.313-4.551 8.647a8.177 8.177 0 0 0-1.178 4.262 3.292 3.292 0 0 0 .353 1.676 10.186 10.186 0 0 1 1.683 4.681l-.08.666a4.54 4.54 0 0 0-.159 1.191 5.524 5.524 0 0 0 1.3 3.422 7.872 7.872 0 0 1 2.087 4.536l-.046.539a2.562 2.562 0 0 1-1.066 1.676l-.256.151-.118.278c-.206.5-2 4.909-2 7.525l.054.718c.306 1.837 2.034 20.775 2.034 31.142 0 .221-.008.406-.01.618-.984-6.755-2.746-18.709-3.276-21.5-.654-3.425-3.735-5.272-5.261-5.994a93.81 93.81 0 0 0 2.809-12.207 15.805 15.805 0 0 0 .218-2.572c0-6.319-3.979-10.116-5.477-11.544l-.287-.278a3.82 3.82 0 0 1-.689-2.651l.011-.671c.03-.293.888-2.81 1.834-5.362l.061-.166-.554-17.021 9.978-5.724Z" data-name="Path 3532"/><path fill="#e1ba9b" d="M178.908 174.485s.188 4.536 3.4 1.7 2.646-4.724 4.724-6.8 1.324-3.589 1.324-5.1v-4.724s-1.7-2.079-2.078-1.511l-3.9 2.62" data-name="Path 3533"/><path d="M186.422 157.347a.81.81 0 0 0-.643.365l.165-.166-3.9 2.62.669 1 3.811-2.559a6.44 6.44 0 0 1 1.236 1.176v4.5l.068 1.006c.033.325.065.64.065.953a3.588 3.588 0 0 1-1.281 2.719 9.036 9.036 0 0 0-1.855 2.861 10.329 10.329 0 0 1-2.842 3.916c-.7.614-1.285.885-1.618.745-.485-.206-.756-1.328-.787-2.021l-1.2.05c.011.253.143 2.489 1.514 3.073.809.345 1.778.026 2.883-.948a11.47 11.47 0 0 0 3.135-4.31 7.894 7.894 0 0 1 1.616-2.52 4.924 4.924 0 0 0 1.56-4.643l-.061-.882v-4.937l-.136-.166c-.7-.854-1.68-1.864-2.4-1.829Z" data-name="Path 3534"/><path fill="#e1ba9b" d="m158.938 154.56 1.732 5.632 10.108-3.61-2.309-6.642Z" data-name="Path 3535"/><path d="m168.205 149.402-9.993 4.845 2.068 6.722 11.258-4.021-2.726-7.842-.607.3Zm-.083 1.374 1.899 5.441-8.957 3.2-1.4-4.54 8.46-4.1Z" data-name="Path 3536"/><path fill="#e1ba9b" d="M163.035 157.103s-2.267 1.89-3.212 2.456a5.453 5.453 0 0 0-2.646 4.346c-.189 2.456 0 6.426-.377 7.18s.756 3.4 1.511 4.346 1.515 2.072 1.515 2.072v3.779s5.1 1.7 5.481-2.835-1.023-6.132-1.023-6.132a15.959 15.959 0 0 0 0-4.331c-.377-1.134 1.744-1.62 2.311-3.321s3.143-.944 3.9-2.455a7.732 7.732 0 0 0 2.166 4.476s-3.384 3.828-2.628 5.718 3.968 4.536 6.046 2.078l1.324-3.4-.189 3.212s1.7 1.324 3.78-1.889 2.644-7.559 2.834-8.5a23.551 23.551 0 0 1 2.079-5.291c.756-1.134-.566-4.346-1.511-5.1s-5.588-2.262-6.533.763l-4.333-2.311s-.66-1.475-2.361.226-3.969 3.591-3.969 3.591" data-name="Path 3537"/><path d="M170.736 151.762c-1.661 1.663-3.905 3.535-3.928 3.554l.768.922c.093-.078 2.308-1.927 4.009-3.627.441-.441.851-.679 1.1-.639a.482.482 0 0 1 .3.244l.084.172.176.1 4.97 2.651.216-.692a1.792 1.792 0 0 1 1.272-1.251 6.211 6.211 0 0 1 4.315.779c.859.688 1.89 3.547 1.388 4.3a23.835 23.835 0 0 0-2.168 5.505l-.083.455a22.137 22.137 0 0 1-2.668 7.84c-.888 1.374-1.638 1.77-2.109 1.86a1.081 1.081 0 0 1-.542-.029l.165-2.794-1.157-.253-1.273 3.273a1.918 1.918 0 0 1-1.837.709 4.816 4.816 0 0 1-3.144-2.666c-.426-1.063 1.217-3.621 2.52-5.1l.394-.447-.441-.4a7.173 7.173 0 0 1-1.97-4.09l-.211-2.049-.922 1.841c-.225.448-.73.609-1.533.818a2.907 2.907 0 0 0-2.4 1.716 3.689 3.689 0 0 1-1.254 1.541c-.648.554-1.381 1.183-1.057 2.158a14.475 14.475 0 0 1-.027 4.071l-.03.255.17.2c.012.015 1.227 1.537.881 5.693a2.646 2.646 0 0 1-1.061 2.147 4.414 4.414 0 0 1-3.222.275v-3.512l-1.644-2.258a8.561 8.561 0 0 1-1.462-3.551.465.465 0 0 1 .022-.158c.274-.546.3-1.849.334-4.1l.1-3.292a4.827 4.827 0 0 1 2.356-3.878c.974-.584 3.194-2.432 3.288-2.511l-.768-.922c-.023.019-2.243 1.867-3.137 2.4a6.082 6.082 0 0 0-2.934 4.815l-.108 3.369a19.783 19.783 0 0 1-.21 3.589 1.523 1.523 0 0 0-.132.674 9.2 9.2 0 0 0 1.712 4.315l1.381 1.9v4.017l.41.138c.114.038 2.817.918 4.669-.3a3.808 3.808 0 0 0 1.6-3.051c.046-.549.065-1.058.065-1.529a8.857 8.857 0 0 0-1.066-4.809 24.809 24.809 0 0 0 .147-2.514 6.5 6.5 0 0 0-.2-1.85.187.187 0 0 1-.01-.061c0-.178.241-.407.709-.807a4.747 4.747 0 0 0 1.612-2.074c.182-.549.712-.712 1.562-.934a5.61 5.61 0 0 0 1.394-.513 8.051 8.051 0 0 0 1.739 3.3c-.786.959-2.533 3.286-2.533 5.1a2.226 2.226 0 0 0 .147.822 6.007 6.007 0 0 0 4.066 3.4 3.118 3.118 0 0 0 3-1.161l.065-.076.064-.165.178.139a2.244 2.244 0 0 0 1.7.361 4.748 4.748 0 0 0 2.948-2.4 23.214 23.214 0 0 0 2.842-8.284l.076-.426a22.994 22.994 0 0 1 1.989-5.076c.974-1.461-.524-5.014-1.637-5.9a7.223 7.223 0 0 0-5.415-.99 2.988 2.988 0 0 0-1.777 1.389l-3.626-1.934a1.585 1.585 0 0 0-1.038-.714 2.542 2.542 0 0 0-2.169.972Z" data-name="Path 3538"/><path d="M177.21 154.335c.441.737.719 4.114.719 4.843v7.937a8.188 8.188 0 0 1-.17 1.744l1.164.29a9.149 9.149 0 0 0 .207-2.034v-7.937c0-.387-.206-4.318-.891-5.459l-1.029.615Z" data-name="Path 3539"/><path fill="#e1ba9b" d="M70.628 100.071s-6.962.553-8.51-.773-2.542-5.195-2.322-5.748 1.326-1.216 1.326-1.216-2.873 1.989-4.642 1.326-5.195-5.417-5.195-5.417-.553-4.2.884-5.636a18.437 18.437 0 0 0 1.658-1.769s-3.426-.884-.994-3.316 3.536-1.879 4.2-.884c0 0-2.432-3.205 0-4.421s3.758.11 3.758.11l1 1.328-5.968-9.726s-1.552-4.421-.229-5.967c0 0 1.658-3.758 4.974-2.542 0 0 .11 4.421 0 4.752a11.666 11.666 0 0 0 1.547 3.758c.663.994 4.642 5.305 5.527 5.748s2.983.994 3.536 1.989 1.55 1.988 1.329 3.647-.553 9.063-.11 9.726 1.437.553 1.547 2.542a3.63 3.63 0 0 0 1.769 2.873l.881 5.2-2.54 5.191-3.426-.775Z" data-name="Path 3540"/><path d="M55.059 57.696a3.821 3.821 0 0 0-.6 2.266 14.328 14.328 0 0 0 .79 4.163l.022.06 4.288 6.987a4.472 4.472 0 0 0-2.8.507 2.41 2.41 0 0 0-1.338 1.617 2.686 2.686 0 0 0-.067.607 3.961 3.961 0 0 0 .259 1.3c-.91.035-1.959.65-3.2 1.893a2.975 2.975 0 0 0-1.05 2.023 1.776 1.776 0 0 0 .064.47 2.49 2.49 0 0 0 1.4 1.481c-.241.257-.56.592-1.076 1.108-.963.963-1.17 2.821-1.17 4.251a15.7 15.7 0 0 0 .114 1.889l.02.15.089.123c.362.5 3.587 4.92 5.471 5.626a4.325 4.325 0 0 0 2.925-.221c.1 1.484 1.13 4.548 2.531 5.75 1.622 1.39 7.5 1.027 8.855.923l3.8.858 2.836-5.794-.965-5.671L76 89.92a3.011 3.011 0 0 1-1.454-2.38 2.821 2.821 0 0 0-1.292-2.533l-.336-.291a11.943 11.943 0 0 1-.135-2.379c0-2.343.153-5.685.321-6.953a4.013 4.013 0 0 0 .037-.546 5.1 5.1 0 0 0-1.059-2.869l-.373-.6c-.513-.926-1.87-1.457-2.958-1.885l-.835-.35a40.04 40.04 0 0 1-5.3-5.543 13.379 13.379 0 0 1-1.452-3.348 12.336 12.336 0 0 0 .056-1.618c0-.72-.014-1.75-.05-3.227l-.01-.407-.384-.14c-3.028-1.11-5.06 1.364-5.719 2.844Zm.6 2.226a2.486 2.486 0 0 1 .394-1.574l.057-.067.037-.082c.056-.125 1.358-2.876 3.834-2.294.023 1.042.039 2.106.039 2.9 0 .636-.01 1.095-.031 1.223a.621.621 0 0 0-.027.195 12.99 12.99 0 0 0 1.657 4.037c.611.916 4.679 5.411 5.757 5.952l.934.394c.813.319 2.042.8 2.347 1.351l.415.674a3.973 3.973 0 0 1 .861 2.215 2.978 2.978 0 0 1-.026.388c-.086.647-.331 4.179-.331 6.914a9.251 9.251 0 0 0 .316 3.223l.659.621c.406.289.727.516.788 1.622a4.164 4.164 0 0 0 1.821 3.2l.807 4.745-2.248 4.6-3.053-.689-.09.007c-2.6.206-7.085.216-8.073-.63-1.3-1.118-2.145-4.284-2.145-5.03a.352.352 0 0 1 0-.057 3.056 3.056 0 0 1 .869-.776l.229-.15-.651-1.008-.034.022c-.731.5-2.885 1.709-4.089 1.257-1.137-.426-3.517-3.286-4.824-5.078a14.107 14.107 0 0 1-.087-1.578c0-1.27.169-2.764.816-3.411a17.562 17.562 0 0 0 1.732-1.86l.466-.7-.814-.214c-.316-.084-1.253-.444-1.4-.983a.551.551 0 0 1-.019-.15 2.024 2.024 0 0 1 .7-1.179c1.353-1.353 2.116-1.59 2.518-1.551.173.016.44.1.76.575l.02.03.978-.7c-.007-.011-.018-.015-.025-.026a4.783 4.783 0 0 1-.96-2.371 1.439 1.439 0 0 1 .037-.336 1.219 1.219 0 0 1 .712-.817c1.91-.956 2.937-.113 3.049-.014l.956 1.275.993-.674-5.93-9.664a12.81 12.81 0 0 1-.711-3.75Z" data-name="Path 3541"/><path d="M62.895 92.244c1.765 4.035 8.034 1.419 8.3 1.306l-.47-1.1c-.054.023-5.441 2.269-6.732-.682-1.5-3.438-1.849-8.4.06-10.023l-.778-.914c-2.42 2.052-2.082 7.525-.38 11.413Z" data-name="Path 3542"/><path d="M63.284 72.838c-.294.025-2.9.268-3.911 1.279a5.478 5.478 0 0 1-.84.6c-1.089.685-2.734 1.721-2.539 3.971a6.2 6.2 0 0 1-.59 3.607l-.263.584a5.616 5.616 0 0 0-.581 3.347c.176 1.4.462 2.944 1.639 3.514.8.388 1.793.214 3.026-.535 3.272-1.987 4.532-7.228 4.583-7.45l-1.168-.274c-.012.049-1.2 4.974-4.037 6.7-.58.353-1.378.722-1.88.479-.689-.334-.88-1.853-.971-2.583a5.006 5.006 0 0 1-.039-.617 4.57 4.57 0 0 1 .517-2.072l.147-.33.113-.246a7 7 0 0 0 .743-3.3q0-.431-.042-.926-.01-.124-.011-.249c0-1.347 1.013-1.985 1.995-2.6a6.133 6.133 0 0 0 1.048-.763 6.6 6.6 0 0 1 3.122-.926l4.91.436.106-1.194-5.025-.447h-.053Z" data-name="Path 3543"/><circle cx="28.139" cy="28.139" r="28.139" fill="#935a59" data-name="Ellipse 12" transform="translate(18.642 .599)"/><path d="M18.042 28.738A28.738 28.738 0 1 0 46.781 0a28.771 28.771 0 0 0-28.739 28.738Zm1.2 0a27.539 27.539 0 1 1 27.54 27.539 27.571 27.571 0 0 1-27.54-27.539Z" data-name="Path 3544"/><path d="M45.365.662c-.151.21-3.706 5.219-3.5 11.147.474 13.706-3.815 21.247-12.746 22.411l-9.176.78a.9.9 0 0 0 .153 1.793l9.217-.784c6.92-.9 14.989-5.839 14.353-24.262-.182-5.3 3.132-9.985 3.166-10.033A.903.903 0 0 0 45.365.662Z" data-name="Path 3545"/><path d="M24.233 12.825a.9.9 0 0 0 .757 1.019c.057.008 5.73 1.019 14.7 12.983a.9.9 0 1 0 1.439-1.08c-9.53-12.706-15.641-13.652-15.896-13.686a.9.9 0 0 0-1 .764Zm38.691.941c-.065.15-6.679 14.988-14.656 21.634-7.821 6.514-17.579 10.975-21.335 11.569a.9.9 0 0 0 .281 1.778c4.058-.641 14.032-5.154 22.2-11.964 8.3-6.919 14.875-21.665 15.15-22.29a.9.9 0 0 0-1.646-.727Zm-7.24 25.845a.9.9 0 0 0 .4 1.208c2.324 1.163 5.432 7.7 6.434 10.128a.9.9 0 1 0 1.663-.688c-.395-.955-3.95-9.379-7.292-11.05a.9.9 0 0 0-1.208.4Z" data-name="Path 3546"/><path d="M55.285 38.96c-6.359 5.949-8.52 16.386-8.52 17.128a.884.884 0 0 0 .863.88.919.919 0 0 0 .935-.846c.076-.929 2.316-10.577 7.952-15.85a17.7 17.7 0 0 1 13.017-4.687 4.485 4.485 0 0 1 3.088 1.22.9.9 0 1 0 1.465-1.045c-.769-1.077-2.282-1.757-4.374-1.965a19.609 19.609 0 0 0-14.426 5.165Z" data-name="Path 3547"/><path fill="#fff" d="m79.304 111.649 6.875 6.875 51.024-4.161 6.152-12.847s4.7 11.4-.905 20.266l9.047 17.188 7.057 1.447 5.79-6.152s-2.895-9.409-3.076-12.847-.724-10.856-.724-10.856l-3.8 1.629s1.81-10.856 1.81-12.3a14.02 14.02 0 0 1 1.085-3.98l.181-7.237s-1.81-.542-1.81-1.989-5.065-11.038-5.609-11.943a2.545 2.545 0 0 0-3.257-1.085c-1.266.724-5.971 1.629-6.7.543s-1.447-3.076-3.076-2.895-31.117 13.383-31.117 13.383-7.961 9.046-8.865 13.027-2.714 4.886-2.714 4.886a23.511 23.511 0 0 0-10.856-3.619c-6.153-.36-6.512 12.667-6.512 12.667Z" data-name="Path 3548"/><path d="M139.308 70.704c-1.673.187-28.272 12.083-31.3 13.438l-.118.053-.086.1c-.33.374-8.073 9.209-9 13.291a7.728 7.728 0 0 1-2.148 4.289 23.959 23.959 0 0 0-10.8-3.493 4.453 4.453 0 0 0-3.373 1.234c-3.491 3.2-3.766 11.657-3.776 12.014l-.007.259 7.255 7.255 51.644-4.212 5.669-11.836a29.026 29.026 0 0 1 1.325 8.431 18.388 18.388 0 0 1-2.644 9.932l-.185.293 9.341 17.748 7.662 1.571 6.258-6.65-.1-.334c-.029-.093-2.876-9.376-3.05-12.7l-.788-11.712-.779.338-2.793 1.2c.459-2.8 1.639-10.1 1.639-11.321a13.008 13.008 0 0 1 1.038-3.745l.045-.106.2-7.808-.437-.135c-.014 0-1.385-.438-1.385-1.416 0-1.718-5.422-11.8-5.694-12.251a3.143 3.143 0 0 0-4.069-1.3c-1.351.772-5.485 1.284-5.9.731l-.406-.678c-.647-1.127-1.532-2.67-3.235-2.481Zm.136 1.191c.851-.094 1.39.722 2.057 1.886l.449.746c1.066 1.6 6.359.291 7.492-.355a1.951 1.951 0 0 1 2.444.874c.743 1.239 5.524 10.434 5.524 11.633a2.752 2.752 0 0 0 1.8 2.391l-.167 6.705a13.762 13.762 0 0 0-1.088 4.108c0 1.147-1.3 9.2-1.8 12.2l-.18 1.083 4.029-1.727.667 10c.166 3.155 2.488 10.965 3 12.657l-5.323 5.655-6.45-1.324-8.772-16.652a19.77 19.77 0 0 0 2.695-10.285 29.25 29.25 0 0 0-1.91-10.206l-.513-1.246-6.585 13.75-50.4 4.112-6.492-6.492c.069-1.367.556-8.324 3.377-10.911a3.249 3.249 0 0 1 2.49-.919 23.091 23.091 0 0 1 10.55 3.514l.291.2.317-.158c.084-.042 2.074-1.08 3.031-5.289.816-3.588 7.846-11.746 8.647-12.666 11.737-5.256 29.547-13.092 30.825-13.287Z" data-name="Path 3549"/><path fill="#fff" d="M66.096 103.688s8.92-12.894 9.616-13.233 1.42-1.786 2.868.2 4.342 5.251 4.342 5.251 1.81 3.98 1.085 7.418a14.352 14.352 0 0 1-3.076 6.875c-1.266 1.447-2.895 3.257-2.895 3.257s-1.991 1.81-3.257.181-6.7-7.962-7.418-8.322a3.844 3.844 0 0 1-1.265-1.627Z" data-name="Path 3550"/><path d="m75.787 89.669-.338.248c-.693.336-5.738 7.489-9.847 13.43l-.189.272.131.305a4.294 4.294 0 0 0 1.55 1.929 104.048 104.048 0 0 1 7.213 8.155 2.225 2.225 0 0 0 1.585.9 3.8 3.8 0 0 0 2.549-1.008c.042-.042 2.944-3.306 2.944-3.306a15.2 15.2 0 0 0 3.211-7.148c.756-3.589-1.05-7.62-1.127-7.79l-.038-.083-.057-.064c-.029-.031-2.892-3.258-4.306-5.2a2.678 2.678 0 0 0-1.7-1.265 2.057 2.057 0 0 0-1.578.626Zm.76.929c.287-.236.489-.388.666-.365.1.014.4.116.882.78 1.377 1.893 3.957 4.818 4.314 5.219a14.988 14.988 0 0 1 1.17 5.355 7.826 7.826 0 0 1-.158 1.615 13.87 13.87 0 0 1-2.941 6.6l-2.889 3.252a2.638 2.638 0 0 1-1.6.658 1.04 1.04 0 0 1-.738-.444c-.926-1.19-6.69-8.024-7.624-8.491a2.665 2.665 0 0 1-.84-1.04c3.309-4.778 8.583-12.239 9.25-12.783l-.065.039.575-.4Z" data-name="Path 3551"/><path fill="#fff" d="M153.306 138.247s9.228-2.533 10.132-3.257 1.811-.905 2.353.723 1.81 8.866 2.714 9.77.828 3.663-.038 4.455-9.53 4.621-9.53 4.621-5.449-.753-5.812-2.382-1.085-5.61-1.629-6.333-.542-3.257-.362-3.98-.9-3.435 2.172-3.618Z" data-name="Path 3552"/><path d="M163.065 134.521c-.536.413-5.464 1.924-9.917 3.147l.124-.02a3 3 0 0 0-2.184.9 3.457 3.457 0 0 0-.556 2.655l.022.519c-.187.742-.257 3.52.464 4.483a27.913 27.913 0 0 1 1.261 4.864l.261 1.239c.419 1.889 4.939 2.655 6.315 2.844l.169.023.157-.068c1.461-.647 8.8-3.911 9.692-4.726a3.7 3.7 0 0 0 .878-2.576 3.862 3.862 0 0 0-.82-2.746c-.481-.489-1.343-4.337-1.806-6.4-.308-1.373-.573-2.559-.765-3.132a2.221 2.221 0 0 0-1.339-1.607 2.161 2.161 0 0 0-1.958.606Zm-9.353 17.531-.257-1.221c-.546-2.639-1-4.707-1.476-5.342a5.667 5.667 0 0 1-.351-2.338 5.347 5.347 0 0 1 .091-1.136l.01-.905q-.032-.337-.037-.675a1.653 1.653 0 0 1 .3-1.095 1.886 1.886 0 0 1 1.348-.489h.063l.06-.018c1.56-.428 9.4-2.6 10.349-3.367.374-.3.692-.443.869-.391s.384.366.541.835c.172.516.43 1.673.731 3.015.847 3.784 1.453 6.315 2.127 6.989a2.752 2.752 0 0 1 .471 1.759v.112a2.69 2.69 0 0 1-.487 1.718 93.233 93.233 0 0 1-9.208 4.443c-2.342-.347-4.988-1.189-5.143-1.891Z" data-name="Path 3553"/><path fill="#a08470" d="M96.855 165.567c-.918.606-7.78-6.7-7.78-6.7l-5.428 3.981s-3.619-9.228-5.067-10.675-9.77-13.932-9.77-13.932l-3.438.181s5.428-13.57 13.932-19 17.732-17.907 19.723-22.068l5.248 10.494s15.922-15.742 17.552-18.456 6.513-18.818 6.513-18.818l3.98-4.161 8.685 4.161a44.923 44.923 0 0 0-9.409 18.818c-2.353 11.036-2.895 19.36-1.991 20.989s3.438 5.065 7.6 3.98c0 0-2.895 8.322-2.895 10.313s.542 8.324 2.533 10.494 7.056 12.847 5.428 13.931a49.135 49.135 0 0 0-16.465 1.447c-9.591 2.357-9.772 2.355-28.951 15.021Z" data-name="Path 3554"/><path d="m131.885 66-3.98 4.163a.589.589 0 0 0-.14.241c-.049.161-4.882 16.062-6.454 18.682-1.216 2.024-11.243 12.175-16.872 17.755l-4.877-9.754a.6.6 0 0 0-1.078.01c-1.874 3.917-11.028 16.417-19.5 21.827-8.568 5.468-13.942 18.72-14.167 19.281a.6.6 0 0 0 .588.821l3.1-.163c1.258 1.883 8.287 12.371 9.656 13.739 1 1 3.5 6.808 4.932 10.47a.6.6 0 0 0 .914.266l5-3.67c6.848 7.228 7.786 6.66 8.179 6.4 18.984-12.538 19.165-12.582 28.6-14.9l.161-.039a49.057 49.057 0 0 1 16.245-1.435.6.6 0 0 0 .41-.1 1.394 1.394 0 0 0 .565-1.051c.34-2.819-4.1-11.837-5.882-13.785-1.812-1.977-2.376-8.087-2.376-10.089 0-1.55 2.066-7.828 2.862-10.117a.6.6 0 0 0-.718-.778c-3.841 1-6.122-2.247-6.924-3.691-.679-1.221-.5-8.606 2.052-20.572a44.7 44.7 0 0 1 9.266-18.54.6.6 0 0 0-.185-.944l-8.685-4.161a.6.6 0 0 0-.689.125Zm.566 1.144 7.589 3.637a45.263 45.263 0 0 0-9.037 18.488 96.965 96.965 0 0 0-2.418 17.874 8.467 8.467 0 0 0 .49 3.529c.677 1.217 3.107 4.839 7.244 4.406-.775 2.286-2.614 7.894-2.614 9.6 0 1.682.456 8.463 2.691 10.9 2.021 2.2 5.613 10.477 5.613 12.62a.732.732 0 0 1-.06.27 50.786 50.786 0 0 0-16.291 1.5l-.161.04c-9.425 2.311-9.826 2.413-28.834 14.966-.874-.249-4.346-3.521-7.156-6.51a.6.6 0 0 0-.791-.074l-4.8 3.521c-.925-2.309-3.614-8.858-4.913-10.157-1.111-1.111-6.829-9.54-9.7-13.841a.6.6 0 0 0-.531-.267l-2.473.131c1.341-3.03 6.294-13.356 13.322-17.843 8.155-5.2 16.614-16.374 19.383-21.272l4.728 9.454a.6.6 0 0 0 .959.158c.652-.644 16-15.827 17.643-18.573 1.6-2.666 6.085-17.346 6.532-18.814l3.58-3.742Zm-35.927 97.925Z" data-name="Path 3555"/><path d="M103.351 107.635c-.61 1.589-3.659 9.587-3.659 11.072 0 1.255-2.271 6.393-3.166 7.824-.915 1.465-8.738 17.064-9.308 20.11-.474 2.527-1.585 8.449 1.367 12.582a.6.6 0 1 0 .976-.7c-2.655-3.717-1.611-9.285-1.166-11.664.505-2.689 8.189-18.162 9.148-19.695.82-1.313 3.347-6.754 3.347-8.46 0-.974 2.195-7.044 3.578-10.641a.6.6 0 0 0-1.118-.432Z" data-name="Path 3556"/><path fill="#a08470" d="M110.409 77.146c.9-.3 16.347-5.249 16.347-5.249s5.7-1.5 5.1 2.7-2.7 11.848-2.7 11.848-1.95 6.449-7.347 2.1-8.249-5.249-9-5.4-6.148-.451-6.148-.451l-10.5 5.1s-4.2 2.4-5.1-1.05-1.5-10.5-.6-12.147 1.349-3.449 3.6-2.549 6.9 1.349 8.248 1.5" data-name="Path 3557"/><path d="M126.6 71.317c-.03.008-16.383 5.26-16.383 5.26l.38 1.138 16.34-5.248c.742-.193 2.952-.532 3.893.308a1.831 1.831 0 0 1 .429 1.736c-.588 4.114-2.663 11.7-2.684 11.773 0 .01-.786 2.5-2.584 3.057-1.076.331-2.357-.1-3.809-1.265-5.621-4.528-8.506-5.369-9.257-5.52-.769-.154-5.675-.429-6.232-.46l-.155-.008L95.9 87.254c-.59.334-2.259 1.054-3.307.611a1.722 1.722 0 0 1-.948-1.273c-.92-3.527-1.422-10.3-.654-11.709l.374-.727c.754-1.507 1.114-2.1 2.475-1.552 2.16.863 6.292 1.31 8.057 1.5l.349.038.132-1.191-.353-.038a38.1 38.1 0 0 1-7.74-1.422c-2.44-.976-3.3.746-3.994 2.13l-.354.689c-1.07 1.961-.275 9.439.546 12.586a2.875 2.875 0 0 0 1.645 2.077c1.811.763 4.229-.6 4.331-.658l10.321-5.012c2.157.121 5.4.33 5.91.43.486.1 3.192.807 8.739 5.278 1.784 1.437 3.438 1.934 4.92 1.475 2.409-.743 3.34-3.742 3.378-3.868.09-.328 2.121-7.748 2.719-11.936a2.965 2.965 0 0 0-.82-2.8c-1.59-1.413-4.681-.652-5.029-.561Z" data-name="Path 3558"/><path fill="#a08470" d="M107.407 77.749s-1.2 6-.3 6.9 4.05.9 4.8.3 1.95-5.1 1.05-7.049" data-name="Path 3559"/><path d="M106.683 85.068c1.1 1.1 4.567 1.17 5.6.344.965-.772 2.237-5.564 1.22-7.768l-1.089.5c.776 1.682-.32 5.831-.881 6.33-.5.4-3.314.415-3.994-.255a2.457 2.457 0 0 1-.169-1.161 29.688 29.688 0 0 1 .628-5.2l-1.176-.236c-.471 2.358-1.117 6.461-.136 7.441Z" data-name="Path 3560"/><path fill="#e1ba9b" d="M131.857 65.148c0 3.3-3.449 5.1-5.1 6.748s-5.1 1.05-5.1 1.05c-1.8 3-3.9.15-3.9.15.749 2.4-4.65 6-8.1 5.7s-3.749-.6-7.048-3.6 1.649-3.6 1.649-3.6c-1.8-.3-2.1-1.05-2.1-1.05-6.149-.749-11.547-5.1-12.6-10.948s5.4-10.5 5.4-10.5l1.05-12.9 21.297-9.142 11.7 3.749 6 12.9-.749 16.5" data-name="Path 3561"/><path d="m117.068 26.506-21.627 9.291-1.057 12.99c-1.061.821-5.539 4.582-5.539 9.5a7.966 7.966 0 0 0 .127 1.42c1.047 5.836 6.307 10.47 12.832 11.381a2.309 2.309 0 0 0 .517.448 2.394 2.394 0 0 0-1.368 1.333 1.613 1.613 0 0 0-.079.5 3.3 3.3 0 0 0 1.332 2.271l.094.084c3.268 2.971 3.689 3.352 7.307 3.668 2.782.241 6.336-1.69 7.909-3.645a4.186 4.186 0 0 0 .738-1.368 2.668 2.668 0 0 0 1.634.539 2.715 2.715 0 0 0 2.044-1.329c.99.113 3.717.263 5.248-1.268l1.34-1.157c1.752-1.427 3.935-3.2 3.935-6.014a.6.6 0 1 0-1.2 0c0 2.243-1.856 3.753-3.493 5.084l-1.431 1.24c-1.407 1.408-4.541.888-4.572.882l-.4-.069-.212.351c-.417.694-.856 1.058-1.307 1.08a2.331 2.331 0 0 1-1.594-.979l-1.054.536a2.137 2.137 0 0 1-.6 1.72c-1.348 1.676-4.572 3.4-6.87 3.2-3.215-.28-3.406-.453-6.6-3.361l-.093-.084a2.374 2.374 0 0 1-.937-1.386.436.436 0 0 1 .02-.135c.172-.542 1.437-.941 2.236-1.04l.026-1.187c-1.362-.227-1.654-.712-1.657-.716l-.15-.26-.319-.076c-6.141-.749-11.108-5.049-12.079-10.459a6.629 6.629 0 0 1-.1-1.182c0-4.856 5.207-8.682 5.264-8.724l.225-.162 1.027-12.807 20.757-8.917 11.234 3.6 5.821 12.523-.743 16.377a.6.6 0 1 0 1.2.026l.757-16.644-6.168-13.265-12.161-3.9-.214.091Z" data-name="Path 3562"/><path d="m132.903 60.918-.3 5.7a.6.6 0 0 0 1.2.063l.3-5.7a.6.6 0 1 0-1.2-.063Z" data-name="Path 3563"/><path fill="#e1ba9b" d="M133.952 60.65s4.649-6.6 5.248-7.2 2.249-11.247-4.2-9.748-7.8 9.6-7.8 9.6" data-name="Path 3564"/><path d="M134.866 43.12c-6.761 1.573-8.2 9.736-8.254 10.083a.6.6 0 1 0 1.183.2c.014-.078 1.367-7.722 7.343-9.112a2.719 2.719 0 0 1 3.1.886 7.5 7.5 0 0 1 1.005 4.233 10.89 10.89 0 0 1-.509 3.663c-.726.784-4.8 6.56-5.272 7.229a.6.6 0 0 0 .98.69c1.786-2.534 4.773-6.709 5.182-7.12.658-.658 1.479-6.063-.1-8.913a3.832 3.832 0 0 0-4.654-1.841Z" data-name="Path 3565"/><path d="m132.152 52.701-1.05.3 2.7 2.249.3-3.749 2.4-2.7s.75-1.95-1.349-.6-2.4 1.649-2.549 2.4-.449 2.1-.449 2.1Z" data-name="Path 3566"/><path fill="#fff" d="M65.267 54.351c.451-.15 5.549-1.95 7.2-1.2l-.15 7.048s.451 1.05 1.2.9 11.4-4.2 21.145-3.449 2.4 1.8 1.05 1.95-13.8-.3-24.894 4.2c0 0-5.549 1.349-5.549-4.05s-.002-5.399-.002-5.399Z" data-name="Path 3567"/><path d="m65.166 53.752-.5.169v5.83a4.619 4.619 0 0 0 1.577 3.852c1.851 1.454 4.6.807 4.713.78l.042-.011.041-.016c9.4-3.809 19.969-4.036 23.442-4.111l1.292-.048c4.477-.5 4.465-1.232 4.458-1.626-.012-.681-.389-1.122-5.528-1.518-5.682-.437-12.6.65-20.571 3.228l-.738.23c-.153.03-.364-.253-.478-.467l.155-7.275-.361-.163c-1.475-.672-4.916.251-7.544 1.146Zm6.69-.15-.143 6.714.052.118c.238.557.9 1.446 1.87 1.251l.871-.266c7.817-2.531 14.583-3.6 20.11-3.174 1.671.129 2.711.259 3.388.372q-1.169.248-2.358.384l-1.185.041c-3.523.076-14.227.308-23.813 4.178a4.9 4.9 0 0 1-3.664-.566 3.5 3.5 0 0 1-1.115-2.906v-4.96c3.164-1.05 5.1-1.317 5.987-1.186Z" data-name="Path 3568"/><path d="M107.698 56.3a.6.6 0 1 0 .016 1.2c7.553-.106 9.423 1.668 9.884 2.477a21.763 21.763 0 0 0-6.551 4.431c-3.615 3.347-6.471 1.388-6.59 1.3a.527.527 0 0 0-.059-.037l-10.5-5.848a.6.6 0 0 0-.584 1.048l10.5 5.847a.573.573 0 0 1-.061-.038c.037.027 3.749 2.643 8.109-1.394 3.864-3.578 6.618-4.352 6.645-4.36a.6.6 0 0 0 .445-.579 2.563 2.563 0 0 0-.877-1.7c-1.137-1.121-3.862-2.439-10.379-2.347Z" data-name="Path 3569"/><path fill="#e1ba9b" d="m104.559 52.401 2.249 2.249s1.349 3.749-2.249 3.749a25.147 25.147 0 0 0-7.348 1.349s-7.349.9-2.7-4.649a44.983 44.983 0 0 1 4.05-2.249c1.649-.75 3.9-3.6 3.9-3.6" data-name="Path 3570"/><path d="M101.988 48.879a14.57 14.57 0 0 1-3.676 3.426 44.745 44.745 0 0 0-4.118 2.286l-.082.05-.061.074c-1.548 1.848-2.023 3.258-1.45 4.312.935 1.724 4.3 1.364 4.683 1.318l.067-.008.063-.023A24.716 24.716 0 0 1 104.56 59a2.968 2.968 0 0 0 2.6-1.118c.946-1.347.242-3.35.211-3.434l-.045-.127-2.344-2.344a.6.6 0 1 0-.848.85l2.138 2.138a4 4 0 0 1 .184 1.16 1.547 1.547 0 0 1-1.9 1.678 25.181 25.181 0 0 0-7.469 1.358c-.968.109-3.009.082-3.435-.7a.754.754 0 0 1-.084-.369 4.873 4.873 0 0 1 1.348-2.531 43.212 43.212 0 0 1 3.89-2.157c1.762-.8 4.026-3.653 4.122-3.773a.601.601 0 0 0-.942-.748Z" data-name="Path 3571"/><path d="M101.172 38.893a.6.6 0 0 0-.072.846l2.314 2.743a10.651 10.651 0 0 1 .331 2.439 3.511 3.511 0 0 1-.189 1.258 15.892 15.892 0 0 1-2.15 3.284.6.6 0 1 0 .916.775 16.812 16.812 0 0 0 2.349-3.614c.656-1.641-.048-4.285-.129-4.582l-.035-.125-2.493-2.949a.6.6 0 0 0-.846-.074Zm9.385 8.408c0 1.272 3.675 4.5 6.748 4.5 3.324 0 5.106-3.329 5.18-3.471l-1.062-.558c-.015.029-1.526 2.828-4.118 2.828-2.55 0-5.343-2.663-5.546-3.337.015-.6.538-4.446.891-6.925l-1.187-.169c-.093.649-.906 6.363-.906 7.133Z" data-name="Path 3572"/><path d="M124.582 43.383c-.042.033-4.319 3.309-12.955 3.02a.6.6 0 0 0-.039 1.2c9.114.3 13.555-3.132 13.739-3.279a.6.6 0 0 0-.745-.941Zm-2.373-4.788c-.03-.039-2.429-2.738-2.429-2.738-2.511-2.825-8.339-.479-8.587-.379l-5.328 2.663.05.229a12.252 12.252 0 0 0 1.691 3.546 1.9 1.9 0 0 0 1.354.895c1.6.245 3.687-1.258 4.79-2.177.746-.621 3.855-1.167 6.894.049.645.257 1.551.542 1.97.038.507-.609-.251-1.878-.406-2.126Z" data-name="Path 3573"/><path fill="#fff" d="M95.11 43.253s-1.349 6.6-.9 7.8 2.249 3.15 4.5 1.2 2.85-6.748 0-9-3.6 0-3.6 0Z" data-name="Path 3574"/><path d="M95.991 42.028a1.874 1.874 0 0 0-1.166 1.132l-.005.018v.018c-.14.684-1.353 6.718-.886 7.964a3.584 3.584 0 0 0 2.259 2.145 2.94 2.94 0 0 0 2.718-.824 6.7 6.7 0 0 0 2.019-5.078 5.6 5.6 0 0 0-2.032-4.382c-1.136-.897-2.113-1.232-2.907-.993Zm.178.573a2.909 2.909 0 0 1 2.354.888 5.012 5.012 0 0 1 1.8 3.926 6.082 6.082 0 0 1-1.814 4.611 2.384 2.384 0 0 1-2.177.7 3.014 3.014 0 0 1-1.841-1.783 2.236 2.236 0 0 1-.076-.7 46.767 46.767 0 0 1 .984-6.91 1.246 1.246 0 0 1 .771-.737Z" data-name="Path 3575"/><path d="m100.485 45.18-.41.2-.651.325-.038.042c-.116.129-2.83 3.2-1.083 6.057l.181.3 1.228-1.023.949-2.533-.177-3.369Zm34.564-5.588a44.831 44.831 0 0 1 .4-5 11.555 11.555 0 0 0 .084-1.378c0-6.634-6.043-9.4-6.108-9.429l-.08-.035-.086.012c-.391.057-9.583 1.446-11.166 4.022a1.508 1.508 0 0 0-.172 1.318c.955 2.865 4.553 3.069 5.67 3.064v.076c0 3.12 3.027 5.485 3.619 5.918.01.291.018.581.018.867a26.8 26.8 0 0 1-6.574 17.225l-.615.814a1.027 1.027 0 0 0-.116.464.929.929 0 0 0 .076.366 2.169 2.169 0 0 0 1.27.941l.042.012h.043a56.769 56.769 0 0 0 7.244-.6l.131-.019.074-.11a5.657 5.657 0 0 0 .95-2.266c0-.312.317-1.72.6-2.963a27.092 27.092 0 0 0 .752-3.949c-.139-3.2 3.972-4.941 4.014-4.959l.174-.072.21-3.772-.385.449a5.192 5.192 0 0 1-.067-.994Z" data-name="Path 3576"/><path d="M92.509 35.669s-5.98 4.6-7.359 7.59c0 0-4.139 4.37 2.644.8s23.112-15.863 23.112-15.863l17.132-6.784s-.229-10.118-3.563-14.028a25.026 25.026 0 0 0-8.279-5.979s-4.6-.8-6.668-.114-12.993 6.554-15.523 7.478-7.013 6.095-7.128 8.509a32.553 32.553 0 0 0 .919 10c1.034 3.679 4.713 8.393 4.713 8.393Z" data-name="Path 3577"/><path fill="#a08470" d="m90.487 31.412 4.725 7.3 30.074-16.326s1.718-9.882-1.718-13.747c0 0-14.178 4.725-19.762 8.592a56.083 56.083 0 0 0-13.319 14.181Z" data-name="Path 3578"/><path fill="#fff" d="M136.201 15.203s2.874-1.954 4.37-.459-.69 4.368-.69 4.368-6.095 3.794-8.165 4.714-8.968 3.1-11.153 3.795-6.093.8-12.417 5.865-11.958 10-13.223 11.038-5.4 3.563-6.209 3.679-1.84.689-3.335-.575-2.184-2.3.344-3.219 9.428-5.635 14.598-9.889 12.074-9.888 23-12.993 12.88-6.325 12.88-6.325Z" data-name="Path 3579"/><path d="m135.862 14.707-.1.068-.071.109c-.02.031-2.1 3.1-12.534 6.066-11.113 3.157-18.105 8.908-23.211 13.106-5.276 4.338-12.018 8.912-14.427 9.788-.8.291-1.89.79-2.057 1.733-.166.926.637 1.752 1.53 2.508a3.444 3.444 0 0 0 3.418.791l.389-.08c1.02-.146 5.3-2.824 6.5-3.809l1.9-1.608c2.505-2.142 6.7-5.728 11.322-9.427 5.064-4.051 8.52-4.858 10.806-5.394l1.417-.366c6.016-1.9 9.79-3.185 11.216-3.819 2.083-.926 7.986-4.6 8.237-4.752l.094-.059.067-.087c.1-.135 2.48-3.313.637-5.157-1.825-1.825-5 .3-5.132.388Zm4.284.46a1.258 1.258 0 0 1 .347.926 5.466 5.466 0 0 1-1.032 2.572c-.783.486-6.121 3.781-7.989 4.612-.953.423-3.649 1.42-11.091 3.77l-1.33.342c-2.391.56-6.008 1.405-11.283 5.625-4.638 3.711-8.841 7.3-11.352 9.451l-1.875 1.59a32.69 32.69 0 0 1-5.913 3.552l-.487.1a2.267 2.267 0 0 1-2.373-.538c-.916-.776-1.127-1.157-1.127-1.343v-.038c.011-.063.125-.395 1.287-.817 2.512-.914 9.419-5.581 14.779-9.989 5.025-4.131 11.906-9.789 22.779-12.879 9.959-2.831 12.643-5.8 13.132-6.456.43-.263 2.531-1.475 3.528-.478Z" data-name="Path 3580"/><g data-name="Group 1521"><path fill="#50a263" d="M100.499 33.597a9.543 9.543 0 0 1-.644-2.252c.106-.323.536-.429 2.574-1.181s2.36-1.287 1.181-3.539-1.912-3.889-3.647-1.287l-.752.645-.75-.108s-.536-5.255-3.11-2.038-2.471 2.786-2.471 2.786-3.11 3.324 2.145 3.753c0 0-5.147 1.073-3.218 3.539l1.929 2.467s1.181 1.287 2.681-2.789c0 0 .858-.964 1.073.108a1.941 1.941 0 0 0 .858 1.394Zm6.757-13.833s-5.362.429-2.575 3.11l2.789 2.681s1.5 1.393 3-1.609c.536-1.073.536-1.179 1.073-.429l.108 1.5.75.215 3.218-1.5-1.5-2.252 2.252-.75s1.3-.272 1.073-2.681c-.214-2.252-3.646-4.289-4.289-1.5 0 0 1.246-4.559-3-2.895a19.706 19.706 0 0 0-4.4 2.466s-1.826 2.037 1.5 3.647Zm17.8-1.609a2.907 2.907 0 0 1-2.681.965c-1.823-.215-1.823-1.5-1.823-2.36a2.417 2.417 0 0 0-.644-1.823c-.321-.214-1.716-1.823-.321-2.681a4.063 4.063 0 0 1 3.324 0s-1.5-2.252-.536-3.11 2.681-.858 3.11 2.145a16.047 16.047 0 0 0 1.394 4.826 20.731 20.731 0 0 1-.536 3l-.429 1.716-.856-2.681Zm-4.454 86.342c-.219-.8-2.335-.956-3.632-1.093 1.446-1.318 2.873-2.646 2.913-4.745.022-1.129-.9-3.224-2.4-2.65-2.3.88-3.915 3.122-5.56 4.864a65.539 65.539 0 0 1-6.62 6.234.35.35 0 0 0-.135.381.355.355 0 0 0 .226.325l2.821 1.283a12.073 12.073 0 0 1-1.736 3.419.463.463 0 0 0-.33.434c-.188 1.923 3.218 2.511 4.4 2.877a.454.454 0 0 0 .569-.433c.086-1.737.1-3.739 2.078-2.414a4.683 4.683 0 0 0 2.042.907c1.807.155 2.842-.893 2.618-2.642-.251-1.97 1.481-3.386 2.281-5.161.2-.438.6-1.08.463-1.586Zm14.157 10.639c-.622-.727-1.827-.621-2.659-.56-2.4.178-1.686-2.651-2.368-4.018a1.737 1.737 0 0 0-2.085-.836c-.609.121-5.583 1.281-5.813.851a.454.454 0 0 0-.707-.091c-1.9 1.806-1.426 3.077.587 4.428.745.5 1.407.984 1.407 2 0-.33-2.48.327-2.666.385a1.872 1.872 0 0 0-1.452 1.706c-.075.993 1.062 2.082 1.642 2.741a15.3 15.3 0 0 1 2.368 2.865 3.493 3.493 0 0 0 .968 1.363c2.889 1.8 4.89-1.778 4.828-4.263.008.012.01.024.019.037 1.83 2.271.5 3.979-.6 5.564a.447.447 0 0 0 .162.615c1.163.492 2.433.648 3.292-.527 1.164-1.593-.694-4.819 1.765-5.376 2.889-.654 2.978-4.939 1.313-6.883Zm-17.079 15.327c-1.044-2.169.1-3.719.208-5.782a2.954 2.954 0 0 0-1.059-2.489c-2.563-1.364-4.176 1.693-5.445 3.63-.576-2.156 2.678-5.064.361-6.634-.609-.413-1.673-.012-2.255.2-1.78.639-3.071 1.279-4.993 1.047a1.755 1.755 0 0 0-1.59 2.782 20.31 20.31 0 0 0 2.232 2.745c.384.44 2.015 1.618.545.892a16.383 16.383 0 0 0-1.891-.824c-.865-.3-3.148.042-3.472 1.136a5.2 5.2 0 0 0 .091 2.631c.377 1.746.711 3.377.969 5.144a1.64 1.64 0 0 0 2.586.978 9.213 9.213 0 0 0 1.619-2.2c.855-1.413 1.367-1.879 2.879-1.929a4.233 4.233 0 0 1-.673 4.961c-.274.276-.839.794-.835 1.238.008.955.478 1.8 1.516 1.687.895-.1 1.575-1.307 1.991-1.991a8.494 8.494 0 0 0 1.137-5.708c1.311 1.021 2.949 2.1 4.47 2.1 1.958 0 2.372-2.026 1.611-3.608Zm17.042 11.55c-.11-1.452.536-3.546-.251-4.911-1.535-2.667-3.44-.59-5.1.809a7.109 7.109 0 0 0 .758-4.88c-.524-2.083-2.993-1.261-4.119-.407-1.644 1.247-2.721 1.307-4.6 1.642-.626.112-1.627.558-1.807 1.272-.368 1.449.4 2.688 1.461 3.746a6.758 6.758 0 0 0-4.145-.275c-2.093.588.6 3.848.609 4.779.027 2.048-1.283 4.722 1.548 5.434 1.976.5 3.892-2.527 5.44-3.749a7.559 7.559 0 0 1-.534 4.717c-.12.283.01.705.389.678 3.23-.242 3.207-2.038 2.936-4.89-.32-3.385 3.653.6 4.816 1.264a2.428 2.428 0 0 0 2.866-.234c1.119-1.123-.177-3.807-.267-4.995Zm-26.257 6.957a7.994 7.994 0 0 1-.248-3.709 1.823 1.823 0 0 0-.067-1.025c-.365-.728-1.238-1.484-2.111-.885-.712.487-1.277 1.111-1.981 1.612-2.315 1.65-2.064-.418-.933-1.823a2.472 2.472 0 0 0 .2-2.817c-.546-1.121-2.226-.889-3.121-.571-1.042.372-1.784 1.091-2.885 1.419-1.242.37-2.471.2-3.7.675-2.994 1.148-.536 4.374.641 6.309-1.48-.425-3.51-.786-4.376.436-1.08 1.521-.143 2.659 1.013 3.819 1.119 1.123 1.2 2.134 1.7 3.542a1.4 1.4 0 0 0 .846.861c1.66.456 3.687-3.041 4.869-2.7.325 1.786-.625 5.27 1.379 6.152 2.044.9 2.753-1.985 2.576-3.3a16.677 16.677 0 0 0-.5-2c-.361-1.353.715-2.9 2.048-1.531a4.067 4.067 0 0 0 2.865 1.62c3.879.289 2.429-4.088 1.784-6.085Zm-25.843-14.273c-2.339-.844-4.623 1.6-6.772 2.87.92-1.239 1.95-2.375 1.989-4.025.029-1.174-1.239-1.558-2.161-1.379-2.234.433-4.175-.671-6.311-.3-1.528.267-2.206 3.294-2.755 4.38a.436.436 0 0 0-.046.23.39.39 0 0 0 .315.43c4.361 1.025 5.97 5.452 7.323 9.276a.454.454 0 0 0 .867 0 2.7 2.7 0 0 0-.037-1.931c1.976 1.264 2.992 3.543 5.95 2.79 2.589-.659 1.626-6.5 2-8.151.234-.99 1.135-3.65-.362-4.19Zm12.668-17.313c-.7-1.525-2.887-1.673-4.679-1.536 1.486-1.087 3.271-2.429 3.391-4.017.132-1.743-3.088-1.49-4-1.225-2.232.647-3.651 4.511-5.1 6.029a27.229 27.229 0 0 1-5.108 3.977c-.622.4-1.874.675-1.874 1.563a.459.459 0 0 0 .331.433c1.236.448 2.9-.1 3.832.722-.192 2.786-1.913 9.7 3.156 7.8a.456.456 0 0 0 .268-.662 7.227 7.227 0 0 1-.794-5.354c.666-3.768 1.281-.449 2.267.528 1.865 1.851 3.708 1.445 5.159-.571 1.518-2.106 4.432-4.91 3.152-7.692Zm5.483-40.178a1.954 1.954 0 0 0-1.283.162 2.046 2.046 0 0 0 .234-2.089c-1.533-2.256-3.03-.241-5-.072-.512.045-3.3-1.117-3.072.573a2.1 2.1 0 0 0 .569 1.147 4.207 4.207 0 0 0 .886 1.063 1.743 1.743 0 0 0-1.514.462c-1.336 1.336.848 2.869.688 4.244-.09.773-.162 2.018.967 2.018 1.167 0 2.094-1.117 2.847-2.079a5.039 5.039 0 0 1-.331 2.986c-.216.575.462.88.889.629a.527.527 0 0 0 .522-.027 2.171 2.171 0 0 0 1.034-2.42 1.909 1.909 0 0 0 2.315.479c1.381-.9.227-2.967.991-4.27.601-1.015.57-2.459-.741-2.806Zm25.965 1.427a3.277 3.277 0 0 0-2.052.372 3.305 3.305 0 0 0 .426-2.014c-.268-1.422-1.708-1.194-2.824-1.175-.983.016-3.263-.261-3.883.8-.483.825.227 1.593.961 2.259a2.3 2.3 0 0 0-2 .418c-.788.788-.34 2.105-.031 3.015.829 2.431 3.092 2.025 4.793.914a3.63 3.63 0 0 1-1.609 1.665.606.606 0 0 0 0 1.036 3.827 3.827 0 0 0 .549.242.589.589 0 0 0 .748.5 2.852 2.852 0 0 0 1.586-2.343 2.541 2.541 0 0 0 1.334 1.441c2.252.693 1.5-2.907 1.985-3.807.376-.7 1.683-2.986.022-3.321Z" data-name="Path 3581"/></g></svg>