<svg xmlns="http://www.w3.org/2000/svg" width="357.652" height="357.652" data-name="charlotte hornets"><path fill="rgba(255,255,255,0)" d="M0 0h357.652v357.652H0Z"/><path fill="#211646" d="M95.77 170.933H72.788v24.938l-13.761 6.706 13.831 7.195v22.144l15.228 9.36c5.588-.768 12.783-1.607 21.1-2.445l58.957 33.949 10.75 49.387c.07-.14 10.827-49.387 10.827-49.387l58.817-33.949c8.313.838 15.438 1.676 21.1 2.445l15.228-9.36v-22.144l13.831-7.055-13.831-6.916v-24.938h-22.913s3.563-3.423 8.033-11.177c1.886-3.213 3.632-7.265 5.868-12.085 16.7-5.1 29.059-15.787 34.368-26.2 14.32-26.2 25.078-58.328 25.078-58.328s-6.217 3-13.622 6.636c6.077-18.511 9.71-34.159 9.71-34.159s-66.221 43.874-117.634 84.948l-4.471-2.654c0-.419.14-4.191.14-4.471 0 0 .489-4.331-7.195-6.985a11.087 11.087 0 0 1-1.4-.489c3.7-2.794 9.5-7.055 13.761-9.989 6.706-4.61 5.938-9.71 5.938-9.71l-24.449 18.162a55.587 55.587 0 0 0-34.578 0L137.123 86.2s-.768 5.1 5.938 9.71c4.261 2.864 9.989 7.195 13.761 9.989-.419.14-.908.279-1.4.489-7.684 2.585-7.195 6.985-7.195 6.985 0 .279.14 4.052.14 4.471l-4.471 2.654C92.487 79.424 26.405 35.696 26.405 35.696s3.632 15.647 9.71 34.159c-7.964-3.982-13.622-6.637-13.622-6.637s10.758 32.063 25.147 58.328c5.309 10.408 17.6 21.1 34.368 26.2 0 0 2.864 6.5 5.239 11.107a72.458 72.458 0 0 0 8.522 12.085Z" data-name="Path 3670"/><path fill="#00758d" d="M206.559 133.561c-.21.7-.489 1.4-.7 2.1 23.122-15.088 63.567-41.493 108.832-70.9 0 0 .07.978 4.052-10.688-47.85 28.989-90.251 61.681-112.185 79.494Zm-55.464 0C129.16 115.748 86.759 82.987 38.909 54.137c3.982 11.666 4.052 10.688 4.052 10.688 45.265 29.409 85.711 55.813 108.832 70.9a19.636 19.636 0 0 0-.699-2.164Zm27.732 23.4c-3.982-1.537-13.9-6.5-19.908-19.489 4.89 4.191 11.177 5.588 16.206.7-6.147-2.654-6.916-13.552-8.1-16.416-2.375-5.8-6.217-8.732-9.221-9.989 1.467-.489 2.864-.978 4.191-1.327a17.9 17.9 0 0 1 9.148 12.227s.629-8.1-3.423-13.831a47.35 47.35 0 0 1 22.144 0c-4.055 5.725-3.423 13.831-3.423 13.831a17.924 17.924 0 0 1 9.151-12.224c1.327.419 2.654.838 4.191 1.327-3 1.257-6.776 4.191-9.151 9.989-1.188 2.864-1.956 13.831-8.033 16.416 1.4 8.313-.349 16.066-3.772 18.791Zm-69.718 15.229a58.924 58.924 0 0 1-17.743-22.982l4.541 1.327c14.809 3.912 43.1 7.824 43.1 7.824-13.622.279-25.147 1.4-31.714 2.1a23.4 23.4 0 0 1-3.563-5.449 42.921 42.921 0 0 0 1.676 8.452 50.55 50.55 0 0 0 3.703 8.728Zm143.131-8.732a42.007 42.007 0 0 0 1.676-8.452 23.4 23.4 0 0 1-3.563 5.449c-6.566-.7-18.092-1.816-31.714-2.1 0 0 28.291-3.912 43.1-7.824l4.54-1.327a59.648 59.648 0 0 1-17.743 22.982 50.549 50.549 0 0 0 3.707-8.728Zm-108.693 79-28.85-16.625q-3.143.314-6.077.629l40.026 23.122a50.924 50.924 0 0 1-5.096-7.117Zm70.553 0 28.85-16.625q3.143.314 6.077.629l-40.026 23.122a50.922 50.922 0 0 0 5.102-7.117Zm-48.129 3.912c-12.713-2.794-18.022-9.011-18.022-9.011a34.668 34.668 0 0 0 11.386 13.2c.074-.063 5.381-1.599 6.638-4.184Zm-7.754-13.622-2.724-2.724a23.609 23.609 0 0 0-7.614 4.052c2.794 2.654 8.173 6.217 17.813 8.243-1.116-3.279-4.119-6.213-7.472-9.566Z" data-name="Path 3671"/><path fill="#00758d" d="M178.547 262.791a20.056 20.056 0 0 0-8.243 2.1c-1.048-2.026-2.305-3.982-3.423-5.8a25 25 0 0 0 6.846-.21 42.073 42.073 0 0 1-10.618-5.239c.419-.21.908-.419 1.327-.629a14.178 14.178 0 0 0 3.772-2.654 7.25 7.25 0 0 0 2.165-5.03c0-6.357-4.261-8.452-9.011-13.2a124.542 124.542 0 0 0-3.074-2.934 75.953 75.953 0 0 1 18.372-2.235l1.956 26.824h.279l1.956-26.824a75.952 75.952 0 0 1 18.372 2.235c-1.048 1.048-2.1 2.026-3.074 2.934-4.75 4.75-9.011 6.846-9.011 13.2a7.25 7.25 0 0 0 2.165 5.03 12.752 12.752 0 0 0 3.772 2.654c.489.21.908.419 1.327.629a42.073 42.073 0 0 1-10.618 5.239 22.131 22.131 0 0 0 6.846.21 66.651 66.651 0 0 0-3.423 5.8 20.883 20.883 0 0 0-8.243-2.1Z" data-name="Path 3672"/><path fill="#00758d" d="M198.246 250.496a35.276 35.276 0 0 0 11.386-13.2s-5.239 6.287-18.022 9.011c1.257 2.652 6.636 4.189 6.636 4.189Zm-6.357-8.173c9.64-2.026 15.019-5.588 17.813-8.243a22.817 22.817 0 0 0-7.614-4.052l-2.724 2.724c-3.283 3.353-6.287 6.287-7.474 9.57Z" data-name="Path 3673"/><g data-name="Group 1542"><path fill="#fff" d="M170.164 138.87a13.9 13.9 0 0 1-5.449-9.64c.07 0-6.007 10.125 5.449 9.64Zm17.6 0a13.9 13.9 0 0 0 5.449-9.64s6.08 10.125-5.446 9.64Zm-3.423 133.7c-.838-.838-2.026-1.886-5.8-1.886-3.493 0-4.75.908-5.728 1.746l6.007 23.75Zm39.677-104.222v8.662h-2.934v-8.662h-2.445v-2.515h7.754v2.515Zm-13.552 0v8.662h-2.929v-8.662h-2.445v-2.515h7.754v2.515Zm-41.074 4.75h1.048v-6.007l-1.188-1.188h-7.4v11.177h2.724v-3.982h2.1l1.607 3.982h2.724l-1.607-3.982Zm-1.676-2.515h-3.143v-2.235h3.143Zm73.137-2.235v-2.445h-8.173v11.177h8.173v-2.515h-5.306v-1.886h5.309v-2.514h-5.309v-1.816Zm-60.494 6.217v-8.662h-2.934v11.177h7.055v-2.515Zm16.975-8.662h-7.4v9.919l1.257 1.257h7.4v-9.919Zm-1.537 8.662h-3.14v-6.217h3.143Zm-40.585 2.515v-9.919l-1.257-1.257h-7.544v11.177h2.794v-3.632h3.143v3.632Zm-6.007-6.147v-2.585h3.143v2.515Zm-11.666-5.029v5.029h-3.213v-5.029h-2.789v11.177h2.794v-3.632h3.213v3.632h2.793v-11.177Zm167.58-79.354c5.449-12.783 9.5-21.794 9.5-21.794-45.265 29.409-85.711 55.813-108.832 70.9a55 55 0 0 1-3 6.776l91.3-49.666-71.25 51.413 3.283-.559 37.651-3.632s25.427-2.445 39.607-21.515c6.636-10.2 18.022-40.1 18.022-40.1l-16.276 8.173ZM87.178 205.581l8.8-3.772v19.908c2.515-.349 5.1-.629 7.754-.978V177.01h-7.684v15.717l-8.8 3.7V177.01h-7.754v22.633l-6.357 3.143 6.357 3.143v18.372c2.515-.419 5.1-.908 7.754-1.327v-17.393h-.07Zm60.144-.14c1.956-.07 3.842-.14 5.728-.14 1.4 3.7 2.864 7.893 4.331 11.6l7.684-.21c-1.4-3.7-2.864-7.893-4.261-11.6.978 0 1.956-.07 2.934-.07v-17.882l-3.423-3.353h-23.678l2.934 3.493v30.316c2.585-.14 5.1-.279 7.754-.419Zm0-14.46h8.732v6.846c-2.934.07-5.8.07-8.732.14Zm30.177 0h8.871v25.706c2.654 0 5.449.07 8.033.14v-29.408l-3.493-3.493h-24.239l2.934 3.493v29.336c2.654 0 5.239-.07 7.894-.07v-25.704Zm45.824 19.489a537.193 537.193 0 0 0-14.949-.629v-5.518c5.029.14 9.989.279 14.949.559v-7.684c-5.029-.14-9.989-.279-14.949-.349v-5.868h14.949v-7.055h-25.986l2.864 3.493v29.548c7.893.21 15.647.559 23.122 1.048Zm19.489-19.489h6.636v-7.055h-21.864v7.055h6.776v27.8c2.794.21 5.658.489 8.382.7l.07-28.5Zm-108.9-3.632-3.495-3.494h-23.75l2.794 3.353v28.847l3.074 3.632c6.846-.7 14.041-1.257 21.375-1.746Zm-7.824 23.541c-3 .21-5.868.349-8.871.559v-20.538h8.871Zm151.3-5.1a327.388 327.388 0 0 0 7.195-3.283c-7.684-3.563-15.438-6.776-23.122-9.78v-8.8h8.176v3.213h7.754v-10.13h-26.615l2.934 3.423v18.092l15.857 6.916v10.129s-3.7-.489-8.173-1.048v-3.213l-7.684-.908v10.338a436.372 436.372 0 0 1 23.681 3.423Z" data-name="Path 3674"/><g data-name="Group 1541"><path fill="#fff" d="M122.454 173.588v.978h-2.515v-6.217h2.515v.908h2.794v-3.353h-8.033v9.919l1.257 1.257h6.776v-3.493Z" data-name="Path 3675"/></g><path fill="#fff" d="M52.53 86.549c-5.449-12.783-9.5-21.794-9.5-21.794 45.265 29.409 85.711 55.813 108.832 70.9a55 55 0 0 0 3 6.776l-91.3-49.666 71.251 51.413-3.283-.559-37.651-3.632s-25.427-2.445-39.607-21.515c-6.636-10.2-17.952-40.1-17.952-40.1Z" data-name="Path 3676"/></g><path fill="#8a8a8d" d="M333.483 77.748c-7.265 19.35-16.835 39.258-21.655 47.5-8.1 13.831-24.239 22.074-33.67 25.147 0 0-4.61 11.107-9.291 17.184h19.28v26.2l18.3 8.8-18.372 9.221v22l-17.813 10.9s-14.18-1.746-21.1-2.445l-56.372 32.552c-11.316 51.063-13.971 65.942-13.971 65.942s-2.654-14.041-13.971-65.942l-56.372-32.552c-6.916.7-21.1 2.445-21.1 2.445l-17.801-10.899v-22l-18.372-9.221 18.3-8.8v-26.2h19.282c-4.68-5.8-9.291-17.184-9.291-17.184a69 69 0 0 1-15.859-7.544 55.009 55.009 0 0 1-17.813-17.6c-7.684-13.552-16.7-33.949-21.655-47.5-3.211-8.247-7.332-20.891-7.332-20.891s10.478 5.03 13.691 6.567c-5.029-15.089-9.291-35.137-9.291-35.137s72.23 47.5 122.874 88.086l.768-.489c0-.838-.07-1.676-.07-2.585a7.938 7.938 0 0 1 .419-2.724 10.67 10.67 0 0 1 4.82-5.588c-3.7-2.724-10.408-7.335-11.037-8.033-4.89-4.261-5.728-9.011-5.379-11.386l.838-5.379 27.453 20.467a57.372 57.372 0 0 1 33.32 0l27.454-20.469.838 5.379c.349 2.375-.489 7.125-5.379 11.386-.559.629-7.335 5.309-11.037 8.033a10.67 10.67 0 0 1 4.82 5.588 6.631 6.631 0 0 1 .419 2.724c0 .908 0 1.746-.07 2.585l.838.489c51.832-41.561 122.874-88.084 122.874-88.084s-3.563 16.486-9.291 35.137c2.724-1.327 13.691-6.566 13.691-6.566-2.724 10.058-6.915 20.886-6.915 20.886ZM95.77 170.933H72.788v24.938l-13.761 6.706 13.831 7.195v22.144l15.228 9.36c5.588-.768 12.783-1.607 21.1-2.445l58.949 33.949 10.758 49.387c.07-.14 10.827-49.387 10.827-49.387l58.817-33.949c8.313.838 15.438 1.676 21.1 2.445l15.228-9.36v-22.144l13.831-7.055-13.831-6.916v-24.938h-22.912s3.563-3.423 8.033-11.177c1.886-3.213 3.632-7.265 5.868-12.085 16.7-5.1 29.059-15.787 34.368-26.2 14.32-26.2 25.078-58.328 25.078-58.328s-6.217 3-13.622 6.636c6.077-18.511 9.71-34.159 9.71-34.159s-66.222 43.868-117.634 84.942l-4.471-2.654c0-.419.14-4.191.14-4.471 0 0 .489-4.331-7.195-6.985a11.087 11.087 0 0 1-1.4-.489c3.7-2.794 9.5-7.055 13.761-9.989 6.706-4.61 5.938-9.71 5.938-9.71l-24.449 18.162a55.587 55.587 0 0 0-34.578 0L137.124 86.2s-.768 5.1 5.938 9.71c4.261 2.864 9.989 7.195 13.761 9.989-.419.14-.908.279-1.4.489-7.684 2.585-7.195 6.985-7.195 6.985 0 .279.14 4.052.14 4.471l-4.471 2.654C92.487 79.424 26.405 35.691 26.405 35.691s3.63 15.652 9.71 34.163c-7.963-3.982-13.622-6.636-13.622-6.636s10.758 32.063 25.147 58.328c5.309 10.408 17.6 21.1 34.368 26.2 0 0 2.864 6.5 5.239 11.107a72.458 72.458 0 0 0 8.522 12.085Z" data-name="Path 3677"/></svg>