<svg xmlns="http://www.w3.org/2000/svg" width="265.577" height="265.577" data-name="chicago bulls 1"><path fill="none" fill-rule="evenodd" d="M0 0h265.577v265.577H0Z" data-name="Path 3593"/><path fill="#fff" fill-rule="evenodd" stroke="#000" stroke-linecap="round" stroke-linejoin="round" stroke-miterlimit="2.613" stroke-width="6.768" d="M87.951 110.235c-9.2.576-23.95.769-32.572 0-10.729-.961-22.417-11.723-23.183-22.869-.767-10.955 1.724-21.139 2.3-31.325-9.2 14.223-23.757 43.24-14.56 61.5 9.771 19.219 33.53 24.6 58.82 25.944 3.066-11.146 6.131-22.293 9.2-33.246Zm89.673 0c9.2.576 23.951.769 32.574 0 10.729-.962 22.417-11.722 23.183-22.87.767-10.955-1.725-21.139-2.3-31.325 9.2 14.222 23.759 43.24 14.562 61.5-9.773 19.219-33.53 24.6-58.82 25.944-3.067-11.146-6.131-22.293-9.2-33.246Z" data-name="Path 3594"/><path fill="#fff" fill-rule="evenodd" stroke="#000" stroke-linecap="round" stroke-linejoin="round" stroke-miterlimit="2.613" stroke-width="6.768" d="M156.728 257.059c10.154-7.688 13.8-18.834 13.411-30.174-1.725-2.3-3.832-3.843-5.557-6.149 9.2-19.986 23.376-38.821 27.782-59.576 13.987 5 33.53 4.613 43.3-7.88-13.221-7.88-29.314-9.031-45.218-11.338-2.874-10.57-5.555-21.139-8.238-31.71H83.347c-2.683 10.569-5.365 21.139-8.239 31.71-15.9 2.306-32 3.458-45.218 11.338 9.771 12.491 29.315 12.877 43.3 7.88 4.406 20.756 18.586 39.591 27.783 59.577-1.724 2.306-3.832 3.845-5.555 6.149-.383 11.339 3.256 22.485 13.411 30.174a64.491 64.491 0 0 0 47.9 0Z" data-name="Path 3595"/><path fill-rule="evenodd" d="M54.559 3.905h7.345l6.886 6.907v6.447h-7.8l.459-6.447h-5.971v23.177h5.967l-.459-7.367h7.8v7.367L61.9 40.896h-7.341l-6.887-6.907V10.812Zm26.92 36.991h-7.807V3.905h7.805v14.428h5.2V3.905h7.8v36.991h-7.8V25.24h-5.2Zm27.378 0h-7.8V3.905h7.8Zm11.924-36.991h7.345l6.886 6.907v6.447h-7.805l.46-6.447h-5.969v23.177h5.969l-.46-7.367h7.805v7.367l-6.886 6.907h-7.345l-6.886-6.907V10.812Zm36.56 0 5.865 36.989h-7.651l-.97-7.674h-6.63l-.969 7.674h-7.652l5.867-36.989h12.14Zm-6.529 6.907-2.04 15.959h5l-2.041-15.959h-.92Zm16.718 23.177V10.914l6.886-7.009h7.345l6.886 7.009v5.424h-7.8l.459-5.424h-5.967v23.075h5.508v-6.037l-2.754.462v-6.807h10.558v12.382l-6.886 6.907h-7.345l-6.886-6.907Zm33.804-23.177v23.177h5.508V10.812Zm-.918 30.084-6.886-6.907V10.812l6.886-6.907h7.345l6.886 6.907v23.177l-6.886 6.907h-7.345Z" data-name="Path 3596"/><path fill="none" stroke="#000" stroke-miterlimit="2.613" stroke-width="5.182" d="M54.559 3.905h7.345l6.886 6.907v6.447h-7.805l.459-6.447h-5.972v23.177h5.969l-.459-7.367h7.805v7.367l-6.886 6.907h-7.342l-6.887-6.907V10.812ZM81.48 40.896h-7.808V3.905h7.805v14.428h5.2V3.905h7.8v36.989h-7.8V25.24h-5.2Zm27.378 0h-7.8V3.905h7.8Zm11.923-36.991h7.345l6.888 6.907v6.447h-7.805l.459-6.447h-5.969v23.177h5.973l-.459-7.367h7.805v7.367l-6.888 6.907h-7.345l-6.886-6.907V10.812l6.886-6.907Zm36.56 0 5.865 36.989h-7.651l-.97-7.674h-6.63l-.969 7.674h-7.652l5.867-36.989Zm-6.529 6.907-2.04 15.959h5l-2.04-15.959h-.92Zm16.718 23.177V10.914l6.886-7.009h7.345l6.886 7.009v5.424h-7.8l.459-5.424h-5.967v23.075h5.508v-6.037l-2.754.46v-6.8h10.558v12.376l-6.886 6.907h-7.345l-6.886-6.905Zm33.805-23.177v23.177h5.508V10.812Zm-.918 30.084-6.886-6.907V10.812l6.886-6.907h7.345l6.886 6.907v23.177l-6.886 6.907h-7.345Z" data-name="Path 3597"/><path fill-rule="evenodd" d="m80.306 66.782 4.948-.46v-7.06h-4.948Zm0 5.986v9.671h5.2v-9.211Zm-7.8 16.576V52.356h13.768l6.784 6.907v7.06l-3.214 3.121 3.775 3.786v9.211l-6.988 6.905H72.502Zm33.092 0-6.888-6.907V52.356h7.805v30.082h5.2V52.356h7.8v30.082l-6.886 6.907Zm18.961 0V52.356h7.8v30.542l9.182-.46v6.907Zm21.819 0V52.356h7.8v30.542l9.182-.46v6.907Zm36.709-36.988 6.886 6.907v4.758h-7.805l.46-4.758h-5.968v7.827h6.427l6.886 6.908v8.44l-6.886 6.907h-7.345l-6.886-6.907v-4.6h7.8l-.459 4.6h5.967v-8.44h-6.426l-6.886-6.908v-7.828l6.89-6.906h7.345Z" data-name="Path 3598"/><path fill="none" stroke="#000" stroke-miterlimit="2.613" stroke-width="5.182" d="m80.306 66.783 4.948-.46v-7.06h-4.948Zm0 5.985v9.671h5.2v-9.211Zm-7.8 16.576V52.356h13.768l6.784 6.907v7.06l-3.214 3.121 3.775 3.786v9.211l-6.988 6.905H72.502Zm33.092 0-6.888-6.907V52.356h7.805v30.082h5.2V52.356h7.8v30.082l-6.886 6.907Zm18.961 0V52.356h7.805v30.542l9.182-.46v6.907Zm21.819 0V52.356h7.8v30.542l9.182-.46v6.907Zm36.709-36.988 6.886 6.907v4.758h-7.805l.46-4.758h-5.968v7.827h6.427l6.886 6.907v8.442l-6.886 6.907h-7.345l-6.886-6.907v-4.6h7.8l-.459 4.6h5.967v-8.443h-6.426l-6.886-6.907v-7.827l6.89-6.906h7.345Z" data-name="Path 3599"/><path fill-rule="evenodd" d="M54.559 3.905h7.345l6.886 6.907v6.447h-7.8l.459-6.447h-5.971v23.177h5.967l-.459-7.367h7.8v7.367L61.9 40.896h-7.341l-6.887-6.907V10.812Zm26.92 36.991h-7.807V3.905h7.805v14.428h5.2V3.905h7.8v36.991h-7.8V25.24h-5.2Zm27.378 0h-7.8V3.905h7.8Zm11.924-36.991h7.345l6.886 6.907v6.447h-7.805l.46-6.447h-5.969v23.177h5.969l-.46-7.367h7.805v7.367l-6.886 6.907h-7.345l-6.886-6.907V10.812Zm36.56 0 5.865 36.989h-7.651l-.97-7.674h-6.63l-.969 7.674h-7.652l5.867-36.989h12.14Zm-6.529 6.907-2.04 15.959h5l-2.041-15.959h-.92Zm16.718 23.177V10.914l6.886-7.009h7.345l6.886 7.009v5.424h-7.8l.459-5.424h-5.967v23.075h5.508v-6.037l-2.754.462v-6.807h10.558v12.382l-6.886 6.907h-7.345l-6.886-6.907Zm33.804-23.177v23.177h5.508V10.812Zm-.918 30.084-6.886-6.907V10.812l6.886-6.907h7.345l6.886 6.907v23.177l-6.886 6.907h-7.345Z" data-name="Path 3600"/><path fill="none" stroke="#fff" stroke-miterlimit="2.613" stroke-width="2.591" d="M54.559 3.905h7.345l6.886 6.907v6.447h-7.805l.459-6.447h-5.972v23.176h5.969l-.459-7.367h7.805v7.367l-6.886 6.907h-7.342l-6.887-6.907V10.812ZM81.48 40.896h-7.808V3.905h7.805v14.428h5.2V3.905h7.8v36.989h-7.8V25.24h-5.2Zm27.378 0h-7.8V3.905h7.8Zm11.923-36.991h7.345l6.888 6.907v6.447h-7.805l.459-6.447h-5.969v23.176h5.973l-.459-7.367h7.805v7.367l-6.888 6.907h-7.345l-6.886-6.907V10.812l6.886-6.907Zm36.56 0 5.865 36.989h-7.651l-.97-7.674h-6.63l-.969 7.674h-7.651L145.2 3.905h12.14Zm-6.529 6.907-2.04 15.959h5l-2.04-15.959h-.92Zm16.718 23.176V10.914l6.886-7.009h7.345l6.886 7.009v5.423h-7.8l.459-5.423h-5.967v23.074h5.508V27.95l-2.754.46v-6.8h10.558v12.376l-6.886 6.907h-7.345l-6.886-6.905Zm33.805-23.176v23.176h5.508V10.812Zm-.918 30.084-6.886-6.907V10.812l6.886-6.907h7.345l6.886 6.907v23.176l-6.886 6.907h-7.345Z" data-name="Path 3601"/><path fill-rule="evenodd" d="m80.306 66.782 4.948-.46v-7.06h-4.948Zm0 5.986v9.671h5.2v-9.211Zm-7.8 16.576V52.356h13.768l6.784 6.907v7.06l-3.214 3.121 3.775 3.786v9.211l-6.988 6.905H72.502Zm33.092 0-6.888-6.907V52.356h7.805v30.082h5.2V52.356h7.8v30.082l-6.886 6.907Zm18.961 0V52.356h7.8v30.542l9.182-.46v6.907Zm21.819 0V52.356h7.8v30.542l9.182-.46v6.907Zm36.709-36.988 6.886 6.907v4.758h-7.805l.46-4.758h-5.968v7.827h6.427l6.886 6.908v8.44l-6.886 6.907h-7.345l-6.886-6.907v-4.6h7.8l-.459 4.6h5.967v-8.44h-6.426l-6.886-6.908v-7.828l6.89-6.906h7.345Z" data-name="Path 3602"/><path fill="none" stroke="#fff" stroke-miterlimit="2.613" stroke-width="2.591" d="m80.306 66.782 4.948-.46v-7.066h-4.948Zm0 5.986v9.671h5.2v-9.211Zm-7.8 16.576V52.356h13.768l6.784 6.907v7.061l-3.213 3.121 3.774 3.786v9.211l-6.988 6.907H72.502Zm33.092 0-6.888-6.907V52.356h7.805v30.082h5.2V52.356h7.8v30.082l-6.886 6.907Zm18.961 0V52.356h7.805v30.542l9.182-.46v6.907Zm21.819 0V52.356h7.8v30.542l9.182-.46v6.907Zm36.709-36.988 6.886 6.907v4.759h-7.805l.46-4.759h-5.968v7.827h6.427l6.886 6.908v8.442l-6.886 6.907h-7.345l-6.886-6.907v-4.6h7.8l-.459 4.6h5.967v-8.443h-6.426l-6.886-6.908v-7.827l6.89-6.906h7.345Z" data-name="Path 3603"/><path fill="#492424" fill-rule="evenodd" d="M54.559 3.905h7.345l6.886 6.907v6.447h-7.8l.459-6.447h-5.971v23.177h5.967l-.459-7.367h7.8v7.367L61.9 40.896h-7.341l-6.887-6.907V10.812Zm26.92 36.991h-7.807V3.905h7.805v14.428h5.2V3.905h7.8v36.991h-7.8V25.24h-5.2Zm27.378 0h-7.8V3.905h7.8Zm11.924-36.991h7.345l6.886 6.907v6.447h-7.805l.46-6.447h-5.969v23.177h5.969l-.46-7.367h7.805v7.367l-6.886 6.907h-7.345l-6.886-6.907V10.812Zm36.56 0 5.865 36.989h-7.651l-.97-7.674h-6.63l-.969 7.674h-7.652l5.867-36.989h12.14Zm-6.529 6.907-2.04 15.959h5l-2.041-15.959h-.92Zm16.718 23.177V10.914l6.886-7.009h7.345l6.886 7.009v5.424h-7.8l.459-5.424h-5.967v23.075h5.508v-6.037l-2.754.462v-6.807h10.558v12.382l-6.886 6.907h-7.345l-6.886-6.907Zm33.804-23.177v23.177h5.508V10.812Zm-.918 30.084-6.886-6.907V10.812l6.886-6.907h7.345l6.886 6.907v23.177l-6.886 6.907h-7.345ZM80.306 66.782l4.948-.46v-7.06h-4.948Zm0 5.986v9.671h5.2v-9.211Zm-7.8 16.576V52.355h13.766l6.784 6.907v7.06l-3.214 3.121 3.775 3.786v9.211l-6.988 6.907H72.502Zm33.092 0-6.888-6.907V52.355h7.805v30.082h5.2V52.355h7.8v30.082l-6.886 6.907Zm18.961 0V52.355h7.8v30.543l9.182-.46v6.907Zm21.819 0V52.355h7.8v30.543l9.182-.46v6.907Zm36.714-36.989 6.886 6.907v4.757h-7.806l.46-4.757h-5.969v7.827h6.427l6.886 6.908v8.44l-6.886 6.907h-7.348l-6.886-6.907v-4.6h7.8l-.459 4.6h5.975v-8.44h-6.43l-6.886-6.908v-7.827l6.886-6.907h7.345Z" data-name="Path 3604"/><path fill="#fff" fill-rule="evenodd" stroke="#000" stroke-linecap="round" stroke-linejoin="round" stroke-miterlimit="2.613" stroke-width="2.225" d="M87.951 110.235c-9.2.576-23.95.769-32.572 0-10.729-.961-22.417-11.723-23.183-22.869-.767-10.955 1.724-21.139 2.3-31.325-9.2 14.223-23.757 43.24-14.56 61.5 9.771 19.219 33.53 24.6 58.82 25.944 3.066-11.146 6.131-22.293 9.2-33.246Zm89.673 0c9.2.576 23.951.769 32.574 0 10.729-.962 22.417-11.722 23.183-22.87.767-10.955-1.725-21.139-2.3-31.325 9.2 14.222 23.759 43.24 14.562 61.5-9.773 19.219-33.53 24.6-58.82 25.944-3.067-11.146-6.131-22.293-9.2-33.246Z" data-name="Path 3605"/><path fill="#cc2229" fill-rule="evenodd" stroke="#000" stroke-linecap="round" stroke-linejoin="round" stroke-miterlimit="2.613" stroke-width="1.728" d="M33.728 93.707a18.821 18.821 0 0 1-1.536-6.341c-.193-10.955 1.724-21.139 2.3-31.325-5.748 8.84-13.413 23.637-16.287 37.859l7.09-5.189Zm198.119 0a18.82 18.82 0 0 0 1.532-6.341c.192-10.955-1.725-21.139-2.3-31.325 5.748 8.84 13.411 23.637 16.285 37.859l-7.09-5.189Z" data-name="Path 3606"/><path fill="#cc2229" fill-rule="evenodd" stroke="#000" stroke-linecap="round" stroke-linejoin="round" stroke-miterlimit="2.613" stroke-width="2.225" d="M156.728 257.059c10.154-7.688 13.8-18.834 13.411-30.174-1.725-2.3-3.832-3.843-5.557-6.149 9.2-19.986 23.376-38.821 27.782-59.576 13.987 5 33.53 4.613 43.3-7.88-13.221-7.88-29.314-9.031-45.218-11.338-2.874-10.57-5.555-21.139-8.238-31.71H83.347c-2.683 10.569-5.365 21.139-8.239 31.71-15.9 2.306-32 3.458-45.218 11.338 9.771 12.491 29.315 12.877 43.3 7.88 4.406 20.756 18.586 39.591 27.783 59.577-1.724 2.306-3.832 3.845-5.555 6.149-.383 11.339 3.256 22.485 13.411 30.174a64.491 64.491 0 0 0 47.9 0Z" data-name="Path 3607"/><path fill="none" stroke="#000" stroke-linecap="round" stroke-linejoin="round" stroke-miterlimit="2.613" stroke-width="1.44" d="M101.329 220.397c5.174-14.6 3.449-32.093-1.916-46.314-1.149 9.034-9.387 12.877-16.094 12.491m80.927 33.823c-5.174-14.6-3.449-32.093 1.917-46.314 1.149 9.034 9.388 12.877 16.1 12.491m-83.551-12.508c-4.791 5.958-10.154 7.494-19.16 5.958m87.317-5.958c4.791 5.958 10.156 7.494 19.16 5.958m-77.554 4.2c.766 13.258 10.922 22.293 24.908 24.4m23.759-24.4c-.767 13.258-10.922 22.293-24.909 24.4m29.292-56.051c-8.622 2.306-17.627 3.075-28.739 3.075s-20.118-.77-28.739-3.075m57.479-9.792c-8.622 2.306-17.627 3.075-28.739 3.075s-20.118-.77-28.739-3.075m57.479-9.792c-8.622 2.305-17.627 3.074-28.739 3.074s-20.118-.77-28.739-3.074" data-name="Path 3608"/><path fill-rule="evenodd" d="M132.61 129.457c-.383 8.841-.958 17.873-1.533 26.905-1.916 10.186-8.238 15.759-17.244 15.373-10.537-3.075-17.819-12.3-26.824-18.45-2.874-1.536-6.706-2.691-10.537-1.536-.192 1.922-.192 3.843-.575 5.955 12.645 4.613 21.651 19.41 36.787 21.141 7.856 1.536 16.861-1.73 19.927-7.494Z" data-name="Path 3609"/><path fill-rule="evenodd" d="M132.608 129.457c.383 8.841.958 17.873 1.533 26.905 1.917 10.186 8.238 15.759 17.244 15.373 10.537-3.075 17.819-12.3 26.824-18.45 2.874-1.536 6.706-2.691 10.537-1.536.192 1.922.192 3.843.575 5.955-12.645 4.613-21.651 19.41-36.787 21.141-7.855 1.536-16.86-1.73-19.926-7.494v-41.894Z" data-name="Path 3610"/><path fill="#fff" fill-rule="evenodd" stroke="#000" stroke-linecap="round" stroke-linejoin="round" stroke-miterlimit="2.613" stroke-width="1.44" d="M80.263 158.516c-.766 5.765-.383 11.722 4.982 15.565 4.791 2.306 9.388 2.691 13.411 0-6.706-5.573-11.879-10.186-18.393-15.565Zm105.049 0c.767 5.765.383 11.722-4.981 15.565-4.791 2.306-9.388 2.691-13.413 0 6.708-5.573 11.88-10.186 18.395-15.565Z" data-name="Path 3611"/><path fill-rule="evenodd" stroke="#000" stroke-linecap="round" stroke-linejoin="round" stroke-miterlimit="2.613" stroke-width=".576" d="M84.982 161.788c-.413 3.114-.207 6.33 2.689 8.4 2.586 1.246 5.07 1.454 7.243 0-3.62-3.005-6.414-5.494-9.932-8.4Zm95.612 0c.415 3.114.207 6.33-2.689 8.4-2.587 1.246-5.07 1.454-7.243 0 3.622-3.005 6.414-5.494 9.932-8.4Z" data-name="Path 3612"/><path fill-rule="evenodd" d="M121.312 242.725c.767-2.306 2.683-4.8 2.3-7.109a8.034 8.034 0 0 0-8.238-6.728c-3.257.194-7.282 3.267-7.282 6.728 0 2.688 4.6 3.651 6.9 3.651a7.477 7.477 0 0 0 5.94-2.5c1.341-1.346.383 3.845.383 5.958Zm22.953 0c-.766-2.306-2.681-4.8-2.3-7.109a8.035 8.035 0 0 1 8.239-6.728c3.256.194 7.28 3.267 7.28 6.728 0 2.688-4.6 3.651-6.9 3.651a7.477 7.477 0 0 1-5.94-2.5c-1.337-1.346-.38 3.846-.38 5.958Z" data-name="Path 3613"/><path fill="none" stroke="#000" stroke-linecap="round" stroke-linejoin="round" stroke-miterlimit="2.613" stroke-width="1.44" d="M156.013 252.858c-6.7-2.691-13.22-3.651-23.183-3.651s-16.477.96-23.184 3.651" data-name="Path 3614"/><path fill="none" stroke="#000" stroke-linecap="round" stroke-linejoin="round" stroke-miterlimit="2.613" stroke-width="2.225" d="M169.164 227.29c-9.2-7.685-21.842-11.338-36.4-11.338s-27.207 3.651-36.4 11.338" data-name="Path 3615"/></svg>
