<svg xmlns="http://www.w3.org/2000/svg" width="357.652" height="357.652" data-name="cleveland cavaliers"><defs><clipPath id="a"><path d="M171.45 180.361a5.115 5.115 0 0 0 .559-1.746c-.21.559-.349 1.188-.559 1.746m-.279.978a78.411 78.411 0 0 0-2.934 26.614 80.109 80.109 0 0 0 11.945 37.647c-3.842-16.276-4.052-35.7 2.794-52.46 4.261-10.478 11.666-19.769 14.6-30.945l.07-.349a122.746 122.746 0 0 0-26.475 19.489m32.552-22.423c-.629 2.724-1.537 5.658-2.515 9.151-2.724 9.43-11.526 22.074-14.6 31.364-5.658 17.394-4.052 43.379 4.331 59.935a79.647 79.647 0 0 0 61.611 23.82 90.5 90.5 0 0 0 10.758-1.327c-44.5-32.063-51.692-90.6-46.8-127.763a91.845 91.845 0 0 0-12.783 4.82m18.372-6.427c-4.541 36.324 3.353 95 47.92 127.693A80 80 0 0 0 310.18 253.5c-6.636-20.467-30.317-44.567-49.526-62.869-17.533-15.857-24.449-29.409-25.427-40.376a109.8 109.8 0 0 0-13.133 2.235m19.489-2.585c1.188 9.78 8.1 22.283 25.008 37.581 18.861 17.952 41.284 39.887 48.2 59.795a79.647 79.647 0 0 0 12.992-48.481c-.14-2.515-.419-5.029-.768-7.474-21.794-26.4-51.692-41.423-82.567-41.423h-2.864m-66.711 21.237a125.823 125.823 0 0 1 23.89-15.927c.419-4.75.07-9.989-2.654-12.574a80.11 80.11 0 0 0-21.236 28.5m25.706-32.063c2.794 5.379 3.842 9.5 3.842 13.412a104.4 104.4 0 0 1 13.063-4.68c1.537-8.592 3.772-15.717 6.217-20.537a79.51 79.51 0 0 0-23.122 11.805m41 5.029c30.177-.908 59.376 12.294 82.428 34.717a80.05 80.05 0 0 0-65.244-54.556c-7.963 3.143-15.927 9.71-17.184 19.839m1.821-20.465a78.216 78.216 0 0 0-13.552 1.956c-2.794 4.4-5.239 11.666-6.846 20.816a108.239 108.239 0 0 1 12.364-1.956c1.118-9.64 7.125-16.765 13.831-20.956h-1.047c-1.607 0-3.143 0-4.75.14" data-name="Path 3626" transform="translate(-168.09 -123.5)"/></clipPath><clipPath id="b"><path d="M169.176 175.781a5.115 5.115 0 0 1-.559 1.746c.21-.559.349-1.188.559-1.746M165.4 205.19a79.994 79.994 0 0 1 2.934-26.614 121.371 121.371 0 0 1 26.4-19.419l-.07.349c-2.934 11.177-10.338 20.537-14.6 30.945-6.846 16.765-6.636 36.115-2.794 52.46a80.82 80.82 0 0 1-11.87-37.721m22.7 51.343c-8.382-16.555-9.989-42.611-4.331-59.935 3-9.291 11.875-21.934 14.6-31.364.978-3.493 1.886-6.427 2.515-9.151a103.037 103.037 0 0 1 12.853-4.89c-4.89 37.162 2.305 95.77 46.8 127.763a76.731 76.731 0 0 1-10.758 1.327c-1.537.07-3.074.14-4.61.14a79.671 79.671 0 0 1-57.071-23.89m31.155-106.877a108.577 108.577 0 0 1 13.2-2.235c.978 10.9 7.893 24.449 25.427 40.376 19.21 18.232 42.89 42.4 49.526 62.869a80 80 0 0 1-40.166 26.684c-44.637-32.692-52.53-91.369-47.99-127.693m44.5 35c-16.9-15.3-23.82-27.8-25.008-37.581 31.853-.978 62.938 14.18 85.362 41.423.349 2.445.629 4.96.768 7.474a79.179 79.179 0 0 1-12.993 48.479c-6.846-19.908-29.269-41.843-48.129-59.795m-70.483-44.846c2.724 2.585 3.074 7.824 2.654 12.574a122.584 122.584 0 0 0-23.89 15.927 80.11 80.11 0 0 1 21.236-28.5m4.471-3.563a79.51 79.51 0 0 1 23.122-11.805c-2.445 4.89-4.68 11.945-6.217 20.537a108.536 108.536 0 0 0-13.063 4.68c0-3.912-1.048-8.033-3.842-13.412m58.188-14.879a80.05 80.05 0 0 1 65.244 54.556C298.127 153.5 268.928 140.3 238.751 141.2c1.257-10.059 9.221-16.625 17.184-19.839m-28.92 1.4a78.216 78.216 0 0 1 13.552-1.956c1.956-.14 3.842-.14 5.8-.14-6.706 4.191-12.713 11.316-13.831 20.956a94.732 94.732 0 0 0-12.364 1.956c1.607-9.151 4.052-16.416 6.846-20.816m13.2-8.522a86.457 86.457 0 1 0 4.96-.14c-1.607 0-3.283.07-4.96.14" data-name="Path 3628" transform="translate(-158.695 -114.1)"/></clipPath><clipPath id="c"><path d="M387.7 274.445c-5.449 3.074-12.993 10.967-12.993 10.967a3.67 3.67 0 0 0 .629 3.074 25.067 25.067 0 0 0 1.467 2.235 4.537 4.537 0 0 1 .978-2.445c5.1-6.566 14.041-13.622 25.846-13.133-11.666 2.026-19.559 9.57-24.519 16.346-.768.838-1.327.978-1.746.7-.14 1.4-1.048 3.143-2.235 3.353-1.327.21-6.427 4.4-6.427 4.4v2.515l.489 7.824s.978 5.588 2.724 7.824c1.816 2.305 6.985 9.78 15.228 10.618 0 0 .629-19.978 3.074-25.916 2.515-5.938 5.868-12.853 11.177-15.717 5.379-2.864 13.552-5.728 17.813-7.963a20.2 20.2 0 0 0 6.217-4.75 152.014 152.014 0 0 1-15.927-1.537 63.669 63.669 0 0 0-9.78-.838c-4.471 0-8.871.629-12.015 2.445" data-name="Path 3631" transform="translate(-368.7 -272)"/></clipPath><clipPath id="d"><path d="M61.119 228.339a208.946 208.946 0 0 1 14.949-10.967l24.169 6.636c-.419.349-.768.768-1.188 1.188-53.718 56.093-18.372 65.453 20.747 43.868.838-.419-5.518 5.518-5.518 5.518-43.519 42.681-90.95 10.548-33.041-50.854-6.217 1.746-18.651 4.61-20.048 4.61-.07.07-.07 0-.07 0m33.739-21.864c36.045-18.162 69.644-19.07 84.034-5.029-.489-.21-28.431 16.276-31.295 18.441 13.831-27.033-11.037-20.886-31.784-7.893Zm161.782 29.549c31.295-4.68 64.755-12.434 52.879-30.317-2.235-2.1-3.423-2.654-5.239-5.1-7.754-10.408 5.518-22.283 20.4-21.305a25.181 25.181 0 0 1 3.632.559l-3.632 9.291c-3-4.75-12.713-5.868-13.971-.14-.978 4.331 5.868 5.868 9.919 13.482 5.449 10.269-.21 20.677-10.129 25.776a103.712 103.712 0 0 1-11.805 5.1c-3.283.838-6.706 1.816-11.037 3-3.912 1.118-5.1 1.816-20.118 4.191-25.5 3.842-52.39 5.029-74.814 15.577 9.71-10.059 35.486-15.787 63.916-20.118m-76.979-48.129c-30.806-13.412-68.177-2.864-97.586 14.46l-22.633-5.728C38.9 191.316 20.813 186.845 3 190.9c13.622 12.155 31.644 16.975 52.181 22.283l7.963 2.1a128.48 128.48 0 0 0-19.7 18.93l-5.1 6.217 18.511-2.934c-42.82 67.619 27.592 92.766 75.023 33.67l49.177-12.923c-6.846 9.081-6.846 22.563-6.846 22.563l2.934-2.305c14.879-12.5 32.063-18.791 45.405-21.515l31.574 8.243-.07.559c-1.118 17.394 6.916 29.2 24.868 32.063 1.048.21 1.816.349 3.143.559a72.972 72.972 0 0 1-.14-10.338c13.552 9.71 28.5 7.963 40.865-2.794l.908 2.235c13.272 3.283 19.908-19.14 18.861-24.169 0-.14-7.125-1.187-15.019 1.537l-33.39-8.941c6.147-4.61 26.545-9.64 26.824-20.467v-.489c10.967-8.732 14.809-20.956 11.037-37.721l14.041-35.067s-36.324 8.732-42.192 10.129l5.452-16.425-129.649 31.993Z" data-name="Path 3634" transform="translate(-3 -155.9)"/></clipPath><clipPath id="e"><path d="M377.317 288.052c1.537.978 2.515 3.283 2.375 5.938-.21 3.283-2.1 5.8-4.331 5.868l.07.21c.279 4.89 1.956 9.64 4.4 12.155a35.181 35.181 0 0 1 18.232-27.173c-12.713 11.037-15.228 26.964-14.32 37.861-5.938-1.188-10.9-11.177-12.644-16.486 1.327 9.011 6.985 19.769 15.577 20.4-1.746-17.324 4.96-35.276 16.276-41.214 4.68-2.445 11.177-4.121 18.372-8.732a93.018 93.018 0 0 1-12.853-1.816 38.23 38.23 0 0 0-6.287-.559c-9.57 0-18.3 4.261-24.868 13.552" data-name="Path 3638" transform="translate(-371.1 -274.5)"/></clipPath><clipPath id="f"><path d="M197.861 193.255c-28.78-13.063-64.266-3.982-92.906 12.085l55.534 13.971a8.807 8.807 0 0 1-.838 2.026l-24.519 7.474a33.867 33.867 0 0 0-3.143 1.467L85.4 218.053a124.177 124.177 0 0 0-21.1 19.908l16.625-2.161c-47.571 76.281 29.409 85.92 65.872 34.648l60.494-15.158c-5.518 5.449-8.8 13.342-10.548 20.188 17.883-15.438 41.284-20.258 55.255-21.305a650.835 650.835 0 0 0 25.147-2.375l2.026-2.585c6.636-9.081 16.276-13.552 26.475-14.53 7.963-.768 10.758.419 14.041.978a64.3 64.3 0 0 0 12.783 2.165c14.669-8.522 19-20.956 14.739-38.909l11.386-30.317c-.07.07-28.71 6.985-40.934 9.919l5.449-16.416-125.249 31.152Z" data-name="Path 3641" transform="translate(-64.3 -162.1)"/></clipPath></defs><path fill="rgba(255,255,255,0)" d="M0 0h357.652v357.652H0Z"/><path fill="#ffb819" d="M106.737 171.347a90.715 90.715 0 1 1 95.77 85.362 90.719 90.719 0 0 1-95.77-85.362" data-name="Path 3621"/><path fill="#041e41" d="M283.607 161.223a86.449 86.449 0 1 1-91.3-81.31 86.525 86.525 0 0 1 91.3 81.31" data-name="Path 3622"/><path fill="#860038" d="M208.096 86.97a80.05 80.05 0 0 1 65.244 54.556c-23.052-22.423-52.251-35.626-82.428-34.717 1.257-10.059 9.221-16.625 17.184-19.839m-28.92 1.4a79.2 79.2 0 0 1 13.55-1.96c1.956-.14 3.912-.14 5.8-.14-6.706 4.191-12.713 11.316-13.831 20.956a94.729 94.729 0 0 0-12.369 1.956c1.607-9.151 4.052-16.416 6.846-20.816m-29.269 13.482a79.509 79.509 0 0 1 23.123-11.806c-2.445 4.89-4.68 11.945-6.217 20.537a108.539 108.539 0 0 0-13.063 4.68c0-3.912-1.048-8.033-3.842-13.412m-25.703 32.063a80.727 80.727 0 0 1 21.236-28.5c2.724 2.585 3.074 7.824 2.654 12.574a122.583 122.583 0 0 0-23.89 15.927m-3.423 9.221c.21-.559.349-1.188.559-1.746a3.953 3.953 0 0 1-.559 1.746m8.732 65.313a80.112 80.112 0 0 1-9.011-64.266 121.371 121.371 0 0 1 26.4-19.419l-.07.349c-2.934 11.177-10.338 20.537-14.6 31.015-6.776 16.625-6.566 35.975-2.724 52.321m83.126 36.115a76.726 76.726 0 0 1-10.758 1.327 79.9 79.9 0 0 1-61.611-23.82c-8.382-16.555-9.989-42.611-4.331-59.935 3-9.291 11.875-21.934 14.6-31.364.978-3.423 1.886-6.427 2.515-9.151a103.035 103.035 0 0 1 12.853-4.89c-4.96 37.232 2.235 95.77 46.732 127.833m46.947-28.29a80 80 0 0 1-40.166 26.684c-44.637-32.692-52.53-91.369-47.99-127.693a108.574 108.574 0 0 1 13.2-2.235c.978 10.9 7.893 24.449 25.427 40.376 19.21 18.3 42.89 42.4 49.526 62.869m17.533-54.7a79.179 79.179 0 0 1-12.993 48.479c-6.916-19.839-29.339-41.843-48.2-59.795-16.9-15.3-23.82-27.8-25.008-37.581 31.853-.978 62.869 14.18 85.362 41.354.419 2.515.629 5.029.838 7.544" data-name="Path 3623"/><path fill="#ffb819" d="m326.637 217.944-33.39-8.941c6.147-4.61 26.545-9.64 26.824-20.467v-.489c10.967-8.732 14.809-20.956 11.037-37.721l14.041-35.067s-36.324 8.732-42.192 10.129l5.449-16.416-129.719 31.923c-30.806-13.412-68.177-2.864-97.586 14.46l-22.633-5.728c-20.537-5.309-38.629-9.78-56.442-5.728 13.622 12.155 31.644 16.973 52.181 22.283l7.963 2.1a128.48 128.48 0 0 0-19.7 18.93l-5.1 6.217 18.511-2.934c-42.82 67.619 27.592 92.766 75.023 33.67l49.177-12.923c-6.846 9.081-6.846 22.563-6.846 22.563l2.934-2.305c14.879-12.5 32.063-18.791 45.405-21.515l31.574 8.243-.07.559c-1.118 17.394 6.916 29.2 24.868 32.063 1.048.21 1.816.349 3.143.559a72.976 72.976 0 0 1-.14-10.338c13.552 9.71 28.5 7.963 40.865-2.794l.908 2.235c13.272 3.283 19.908-19.14 18.861-24.169a35.523 35.523 0 0 0-14.949 1.607" data-name="Path 3624"/><g clip-path="url(#a)" data-name="Group 1522" transform="translate(117.418 86.27)"><path fill="#ffb819" d="m209.219 131.675-33.39-8.941c6.147-4.61 26.545-9.64 26.824-20.467v-.489c10.967-8.732 14.809-20.956 11.037-37.721l14.041-35.067s-36.324 8.732-42.192 10.129l5.449-16.416L61.269 54.626c-30.806-13.412-68.177-2.864-97.586 14.46l-22.633-5.728c-20.537-5.309-38.629-9.78-56.442-5.728 13.622 12.155 31.644 16.973 52.181 22.283l7.963 2.1a128.48 128.48 0 0 0-19.7 18.93l-5.1 6.217 18.511-2.934c-42.82 67.619 27.592 92.766 75.023 33.67l49.177-12.923c-6.846 9.081-6.846 22.563-6.846 22.563l2.934-2.305c14.879-12.5 32.063-18.791 45.405-21.515l31.574 8.243-.07.559c-1.118 17.394 6.916 29.2 24.868 32.063 1.048.21 1.816.349 3.143.559a72.976 72.976 0 0 1-.14-10.338c13.552 9.71 28.5 7.963 40.865-2.794l.908 2.235c13.272 3.283 19.908-19.14 18.861-24.169a35.523 35.523 0 0 0-14.949 1.607" data-name="Path 3625"/></g><g clip-path="url(#b)" data-name="Group 1523" transform="translate(110.855 79.703)"><path fill="#ffb819" d="m215.782 138.241-33.39-8.941c6.147-4.61 26.545-9.64 26.824-20.467v-.489c10.967-8.732 14.809-20.956 11.037-37.721l14.041-35.067s-36.324 8.732-42.192 10.129l5.449-16.416L67.832 61.192C37.026 47.78-.345 58.328-29.754 75.652l-22.633-5.728c-20.537-5.309-38.629-9.78-56.442-5.728 13.622 12.155 31.644 16.973 52.181 22.283l7.963 2.1a128.48 128.48 0 0 0-19.7 18.93l-5.1 6.217 18.511-2.934c-42.82 67.619 27.592 92.766 75.023 33.67l49.177-12.923c-6.846 9.081-6.846 22.563-6.846 22.563l2.934-2.305c14.879-12.5 32.063-18.791 45.405-21.515l31.574 8.243-.07.559c-1.118 17.394 6.916 29.2 24.868 32.063 1.048.21 1.816.349 3.143.559a72.976 72.976 0 0 1-.14-10.338c13.552 9.71 28.5 7.963 40.865-2.794l.908 2.235c13.272 3.283 19.908-19.14 18.861-24.169a35.523 35.523 0 0 0-14.949 1.607" data-name="Path 3627"/></g><path fill="#041e41" d="M339.421 219.201a19.121 19.121 0 0 0-12.364 1.746c-.14 0-25.567-6.846-34.927-9.36l-4.96-1.327c3.143-4.331 9.291-6.147 15.438-8.871 2.654-1.187 6.287-2.585 9.011-4.471 4.89-3.423 5.588-5.728 5.658-5.728-8.941.279-17.464-2.165-18.93-2.445a36.715 36.715 0 0 0-11.666-.559l-.419.07a35.234 35.234 0 0 0-24.8 14.6l-.908 1.118c-.7.768-1.746 2.026-1.746 2.026l3 .768c2.026.349.908 4.82-1.816 4.121l-13.133-3.423c-5.1.419-10.478.838-14.111 1.118-1.886.14-3.912.349-6.147.7l29.059 7.684c-2.1 19 8.1 30.666 22.493 31.853-.07-1.956-.07-6.007 0-13.272 0 0 20.677 22.214 44.427-1.677l2.026 4.541c10.618.978 15.228-19.14 14.809-19.21" data-name="Path 3629"/><g clip-path="url(#c)" data-name="Group 1524" transform="translate(257.552 190.003)"><path fill="#ffb819" d="M39.049 2.305C26.964.14 15.857 3.981 7.894 15.298c1.537.978 2.515 3.283 2.375 5.938-.21 3.283-2.1 5.8-4.331 5.868l.07.21c.279 4.89 1.956 9.64 4.4 12.155A35.181 35.181 0 0 1 28.64 12.296C15.927 23.331 13.412 39.254 14.321 50.154c-5.938-1.188-10.9-11.177-12.644-16.486 1.327 9.011 6.985 19.769 15.577 20.4-1.746-17.324 4.96-35.276 16.276-41.214 4.68-2.445 11.177-4.052 18.441-8.732a94.716 94.716 0 0 1-12.923-1.816" data-name="Path 3630"/></g><g data-name="Group 1525"><path fill="#041e41" d="M339.281 119.803c-.07.07-28.71 6.985-41 9.919l5.449-16.416-125.323 31.082c-28.78-13.063-64.266-3.982-92.906 12.085l55.534 13.971a8.807 8.807 0 0 1-.838 2.026l-84.244-21.167c-17.114-4.4-32.622-8.592-47.361-5.728 11.526 9.71 27.1 13.412 44.218 17.883l63.008 16.555c-1.118.489-2.235.978-3.143 1.467l-46.593-12.224a126.869 126.869 0 0 0-21.1 19.908l16.629-2.161c-47.571 76.281 29.409 85.92 65.872 34.648l60.494-15.158c-5.518 5.449-8.8 13.342-10.548 20.188 17.883-15.438 41.284-20.258 55.255-21.305a650.835 650.835 0 0 0 25.147-2.375l2.026-2.585c6.636-9.081 16.276-13.552 26.475-14.53 7.963-.768 10.758.419 14.041.978a64.3 64.3 0 0 0 12.783 2.165c14.669-8.522 19-20.956 14.739-38.909l11.386-30.317Zm-211.589 56.438-62.588-16.345c-17.883-4.96-22.493-8.941-23.681-9.989l36.394 9.36 59.1 15.158c-2.724.7-6.776 1.4-9.221 1.816" data-name="Path 3632"/></g><g data-name="Group 1527"><g clip-path="url(#d)" data-name="Group 1526" transform="translate(2.096 108.902)"><path fill="#041e41" d="M337.185 10.901c-.07.07-28.71 6.985-41 9.919l5.449-16.416-125.323 31.082c-28.78-13.063-64.266-3.982-92.906 12.085l55.534 13.971a8.807 8.807 0 0 1-.838 2.026L53.857 42.401c-17.114-4.4-32.622-8.592-47.361-5.728 11.526 9.71 27.1 13.412 44.218 17.883l63.008 16.555c-1.118.489-2.235.978-3.143 1.467L63.986 60.354a126.869 126.869 0 0 0-21.1 19.908l16.629-2.161c-47.571 76.281 29.409 85.92 65.872 34.648l60.494-15.158c-5.518 5.449-8.8 13.342-10.548 20.188 17.883-15.438 41.284-20.258 55.255-21.305a650.835 650.835 0 0 0 25.147-2.375l2.026-2.585c6.636-9.081 16.276-13.552 26.475-14.53 7.963-.768 10.758.419 14.041.978a64.3 64.3 0 0 0 12.783 2.165c14.669-8.522 19-20.956 14.739-38.909l11.386-30.317ZM125.596 67.339 63.008 50.994c-17.883-4.96-22.493-8.941-23.681-9.989l36.394 9.36 59.1 15.158c-2.724.7-6.776 1.4-9.221 1.816" data-name="Path 3633"/></g></g><g fill="#ffb819" data-name="Group 1528"><path d="M328.454 223.463a27.185 27.185 0 0 1 8.173-2.165c-3.912 1.467-5.8 3.7-6.077 3.632-.838 2.165-.838 4.4-5.8 6.846 1.607-2.445 3.842-5.239 3.7-8.313m-48.9 4.121c5.309 11.666 20.747 14.39 30.037 12.364-4.121 3.632-24.379 2.864-30.526-9.011l.489-3.353Zm5.658-14.809 40.026 10.338c1.327.349.768 3.982-.978 3.563l-41.144-10.478a11.584 11.584 0 0 1 2.1-3.423" data-name="Path 3635"/><path d="M319.303 230.448c-14.46 14.25-37.092 4.471-37.023-7.125a53.906 53.906 0 0 0 37.023 7.125" data-name="Path 3636"/></g><g data-name="Group 1530"><g clip-path="url(#e)" data-name="Group 1529" transform="translate(259.228 191.749)"><path fill="#fff" d="M7.405 14.529c-1.816 2.165-.908 5.658 1.257 3.283 4.96-6.846 12.853-14.32 24.519-16.346-11.735-.559-20.677 6.5-25.776 13.063" data-name="Path 3637"/></g></g><g data-name="Group 1531"><path fill="#fff" d="m221.856 140.267 2.654-.559.279 6.776 5.309-8.033 3.563-.978-10.408 13.971Zm68.736-16.066-.419-.07-2.1.489-3.912 9.919 1.676-.419a7.262 7.262 0 0 0 .838-.349l.629-.279 3.632-9.151-.349-.14Zm-4.96 11.246-5.309 1.327 4.96-12.713 5.379-1.327a8.16 8.16 0 0 1 2.585-.14c.838.07 1.327.279 1.118.7l-3.632 9.36c-.14.419-.908.978-2.026 1.537a15.035 15.035 0 0 1-3.074 1.257m-97.516 24.379a10.475 10.475 0 0 1-2.585.279c-1.188 0-1.816-.21-1.607-.768l3.772-9.57c.14-.419.978-.908 2.026-1.467a14 14 0 0 1 3-1.188l5.309-1.327-.908 2.235-3.283.768.349-.838-.908.21a9.162 9.162 0 0 0-1.956.629c-.349.14-.489.279-.489.349l-3.632 9.36s0 .14.559.07c.419 0 .7-.07.838-.07a9.328 9.328 0 0 0 1.257-.489 2.116 2.116 0 0 0 .7-.629l-.21-.419 3.563-.838-.419 1.048a4.919 4.919 0 0 1-2.445 1.676 28.866 28.866 0 0 1-2.934.978m13.691-14.739 3.283-.768-4.4 11.247 5.379-1.327-.559 1.4-8.662 2.1 4.96-12.644Zm11.177-2.864 7.474-1.816-.559 1.327-4.191 1.048-1.537 3.842 4.191-1.048-.559 1.4-4.191 1.048-1.816 4.68 4.191-1.048-.559 1.4-7.474 1.816 5.029-12.644Zm23.331-5.728 7.474-1.816-.559 1.4-4.191 1.048-1.537 3.842 4.191-1.048-.559 1.4-4.191 1.048-1.816 4.68 4.191-1.048-.559 1.4-7.474 1.816 5.03-12.713Zm10.548-2.724 3.283-.768-4.4 11.246 5.379-1.327-.559 1.4-8.662 2.1 4.96-12.644Zm14.669 3.283-3.074.768-1.887 4.75-3.353.838 4.4-11.107c.21-.559 1.118-1.118 2.375-1.746a22.7 22.7 0 0 1 3.213-1.188 9.74 9.74 0 0 1 2.794-.279c.978.07 1.467.279 1.327.768l-4.4 11.177-3.283.838 1.886-4.82Zm2.375-6.217-.419-.07a2.191 2.191 0 0 0-.838.07c-.21.07-.559.21-1.188.489l-.489.279-2.026 4.89 3.074-.768Zm10.688 3.772-1.327-4.96-3.283 9.78-3.283.838 4.96-12.644 3.283-.838 1.048 4.4 2.026-5.169 3.283-.768-4.96 12.644-3.283.838Zm-121.264 41.214 5.169 3.143c-2.654 7.544-14.18 23.541-20.747 28.431l11.526-30.6-8.8 2.375-14.46 36.883 18.581-4.75c.419-.14 16.7-13.063 25.986-39.747l-17.254 4.261Zm-53.86 32.342c-.07 0-6.776 13.761-8.1 16.555l9.151-2.375 6.217-12.853 7.4-2.165-5.1 12.923 9.78-2.515 15.019-37.232c-5.029 1.676-22.912 1.956-34.368 27.662m17.114-5.938-7.265 2.1s6.077-11.875 12.294-13.761l-5.029 11.666Zm168.562-40.375a8.672 8.672 0 0 1-.908-2.305 5.773 5.773 0 0 0 .908-.489c5.938-3.423 12.5-13.552 12.294-20.467-8.382 2.235-22.423 5.868-22.493 6.007l-13.412 36.953 8.736-2.239 5.8-15.857c.7 1.467 4.54 10.618 12.015 11.386 8.662.908 13.691-7.684 13.691-7.684-2.305 1.956-12.644 2.654-16.625-5.309m-7.055-3.493 4.261-11.805 6.636-1.746c-.978 2.515-2.724 9.36-10.9 13.552M165.763 191.4c-.14 0-6.706 13.482-8.033 16.346l9.291-2.375 6.007-12.644 7.4-2.165-5.1 12.783 9.71-2.445 15.088-37.023c-4.471 1.118-22.912 1.816-34.368 27.522m17.184-6.007-7.265 2.1s6.077-11.875 12.294-13.691Zm50.644-30.526-14.46 37.092 9.151-2.305 14.46-37.092Zm9.849 26.545 4.61-10.827 12.644-6.846-10.12.768 4.4-11.805c5.518-1.746 8.313-.07 10.688 3.423l4.191-10.408-22.283 5.658-14.32 37.023 22.7-5.938 4.89-11.456c-5.03 5.658-10.688 9.291-17.394 10.408m-40.795 10.408 12.085-32.133-9.64 2.445-14.25 37.092 24.449-6.287 5.379-13.133c-6.5 7.754-9.919 10.688-18.022 12.015" data-name="Path 3639"/></g><g data-name="Group 1535"><g clip-path="url(#f)" data-name="Group 1532" transform="translate(44.916 113.233)"><path fill="#fff" d="m282.49 19.698-3.632 9.291c-3-4.75-12.713-5.868-13.971-.14-.978 4.331 5.868 5.868 9.919 13.482 5.449 10.269-.21 20.677-10.129 25.776a103.71 103.71 0 0 1-11.805 5.1c-3.283.838-6.706 1.816-11.037 3-3.912 1.118-5.1 1.816-20.118 4.191-25.5 3.842-52.39 5.029-74.814 15.577 9.78-9.989 35.486-15.717 63.916-20.118 31.295-4.68 64.755-12.434 52.879-30.317-2.235-2.1-3.423-2.654-5.239-5.1-7.754-10.408 5.518-22.283 20.4-21.305a14.551 14.551 0 0 1 3.632.559" data-name="Path 3640"/></g><g data-name="Group 1534"><g clip-path="url(#f)" data-name="Group 1533" transform="translate(44.916 113.233)"><path fill="#fff" d="M133.072 41.213c-.14-.489-28.431 16.276-31.295 18.441 18.092-35.346-30.107-13.9-48.549 5.309-53.718 56.093-18.372 65.453 20.747 43.868.838-.419-5.518 5.518-5.518 5.518-43.519 42.682-90.95 10.55-33.041-50.85-6.566 1.886-20.118 4.96-20.188 4.61 47.221-38.07 98.983-45.335 117.844-26.894" data-name="Path 3642"/></g></g></g></svg>