<svg xmlns="http://www.w3.org/2000/svg" width="301.164" height="301.165" data-name="Denver Nuggets"><path fill="#ffc52f" d="M150.594 301.165a150.586 150.586 0 1 1 150.571-150.571c-.181 83.115-67.516 150.45-150.571 150.571"/><path fill="#8a2433" d="M150.594 7.732A142.892 142.892 0 1 1 7.672 150.654 142.927 142.927 0 0 1 150.594 7.732"/><path fill="#0a233f" d="M286.107 151.02a135.923 135.923 0 1 1-39.811-96.185 136 136 0 0 1 39.811 96.185"/><path fill="#8a2433" d="M150.112 251.175a98.865 98.865 0 1 0-98.895-98.895 98.858 98.858 0 0 0 98.895 98.895"/><path fill="#0a233f" d="M57.842 152.28a92.27 92.27 0 1 1 92.27 92.27 92.278 92.278 0 0 1-92.27-92.27"/><path fill="#ffc52f" d="M231.24 173.119c0-15.9-8.372-37.522-15.9-52.037l-11.2 6.384-1.084-1.747-2.831 1.807L88.8 197.511l-5.059 6.2v-.181a12.581 12.581 0 0 1-7.408-11.2v-.181l7.649-2.048 57.281-37.219-38.546-24.152-4.818-3.011-1.144 1.747-11.142-6.384c-7.649 14.455-16.141 36.2-15.9 52.037-5.9-18.309.181-43.3 8.372-59.445l-2.048-1.2 6.625-10.3 1.927 1.385c11.142-14.214 31.2-30.054 50.23-32.4-14.395 6.565-30.476 23.248-40.353 36.137l10.48 7.529-1.265 1.927 2.65 1.747 44.027 28.608 43.425-28.247 3.192-2.168-1.265-1.927 10.359-7.529c-9.877-12.889-26.019-29.572-40.353-36.137 19.092 2.409 39.088 18.249 50.351 32.463l1.867-1.325 6.625 10.3-1.927 1.144c8.372 16.141 14.515 41.136 8.613 59.445Zm-14.395 16.924-52.82-34.089s-21.215-4.863-9.215 5.481 57.217 35.9 57.217 35.9l5 6.384v-.181a9.348 9.348 0 0 0 5.24-4.577 10.091 10.091 0 0 0 1.927-6.625v-.181Z"/><path fill="#ffc52f" d="m159.447 80.307-3.915 5.18-5.541-13.13v60.469l18.43-23.609 18.55 4.818Z"/><path fill="#fff" d="M159.447 94.461V80.307l-3.915 5.18ZM150.052 72.357l-33.487 40.775 14.816-3.794 18.671 23.489Z"/><path fill="#ffc52f" d="M129.574 226a29.219 29.219 0 0 1 17.647-8.071v-9.275h-25.477a28.966 28.966 0 0 0 7.83 17.346M147.22 234.613v-10.962a23.825 23.825 0 0 0-13.31 6.083 29.491 29.491 0 0 0 13.31 4.879"/><path fill="#fff" d="M152.882 177.877v10.9a23.357 23.357 0 0 0 13.25-6.023 28.34 28.34 0 0 0-13.25-4.877M170.469 186.49a29.4 29.4 0 0 1-17.587 8.071v8.429h25.477a28.366 28.366 0 0 0-7.89-16.5M147.221 188.777v-10.9a28.34 28.34 0 0 0-13.25 4.879 23.357 23.357 0 0 0 13.25 6.023"/><path fill="#ffc52f" d="M152.882 208.654v9.275A28.9 28.9 0 0 1 170.469 226a28.279 28.279 0 0 0 7.95-17.346Z"/><path fill="#fff" d="M121.805 202.932h25.477v-8.372a29.919 29.919 0 0 1-17.647-8.07 27.939 27.939 0 0 0-7.83 16.442"/><path fill="#ffc52f" d="M152.882 234.611a29.176 29.176 0 0 0 13.25-4.818 23.436 23.436 0 0 0-13.25-6.082ZM259.788 138.789l3.553 6.143-8.854 8.312 11.564-4.276 3.674 6.264.542-7.047 7.769-.482-6.384-3.855 7.83-12.226-12.889 10.3ZM40.557 138.608l-3.614 6.2 8.914 8.311-11.564-4.276-3.674 6.264-.6-7.047-7.709-.482 6.384-3.855-7.832-12.222 12.829 10.359Z"/><path fill="#fff" d="M60.191 94.822 42.243 82.114l3.975-5.661a18.567 18.567 0 0 1 2.349-2.53 11.386 11.386 0 0 1 1.626-1.2l.3-.361c.06-.06.12-.181.181-.241l.181-.361 15.961 11.082a11.911 11.911 0 0 1-.843 3.192 16.446 16.446 0 0 1-1.506 2.891ZM48.928 78.5a1.447 1.447 0 0 0 0 1.686.6.6 0 0 0 .241.3l11.022 7.83a1.473 1.473 0 0 0 1.506-.6 1.422 1.422 0 0 0-.181-1.988l-10.6-7.649a1.493 1.493 0 0 0-1.927.422ZM86.872 65.852 76.633 50.313l-1.024.723-1.867-2.831 11.443-7.529 1.867 2.831-5.6 3.674 3.072 4.7 4.336-2.831 1.084 3.011-3.734 2.469 3.614 5.36 5.6-3.674 1.867 2.831ZM129.634 47.302l-4.457-7.408-.422.181 1.686 7.89-5.24 1.084-3.734-18.249-1.144.241-.663-3.313 5.481-1.144 5.18 7.348.422-.181-1.686-7.95 5.24-1.084 4.457 21.5ZM164.687 46.098l.482-22.285 4.878.843-.723 13.612h.482l4.035-13.07 4.879.783c-1.927 5.9-6.685 19.394-7.348 21.08ZM242.683 83.921l-1.2-1.566-6.384 4.879-3.192-4.1 17.461-13.427 4.216 5.481a23.369 23.369 0 0 1 1.807 2.891 9.989 9.989 0 0 1 .723 1.867l.241.361.181.181.3.361-9.275 7.107a8.129 8.129 0 0 1-1.566-.9h-.181l-4.878 7.529-3.192-3.855Zm8.191-6.806a1.58 1.58 0 0 0-1.445-.723h-.3l-4.1 3.192a1.31 1.31 0 0 0 0 1.807 1.427 1.427 0 0 0 1.807.6l4.216-3.192a1.387 1.387 0 0 0 0-1.867ZM201.185 58.023l9.637-15.9-1.084-.663 1.747-2.891 11.745 7.107-1.745 2.893-5.782-3.493-2.831 4.7 4.4 2.65-2.409 2.59-3.794-2.289-3.252 5.36 5.782 3.493-1.814 2.889ZM113.071 275.206a14.091 14.091 0 0 1-3.373-1.506 11.461 11.461 0 0 1-2.71-2.048l5.661-18.791a11.019 11.019 0 0 1 3.433-.241 14.711 14.711 0 0 1 3.614.663 16.8 16.8 0 0 1 3.192 1.445l1.385.9a1.867 1.867 0 0 0 .783.361h.723v.482l-1.626 5.541-5-1.506.723-2.409a1.3 1.3 0 0 0-.843-1.566h-.3a1.671 1.671 0 0 0-1.084 0 1.426 1.426 0 0 0-.783.783l-4.1 13.431a1.175 1.175 0 0 0 0 .9 2.354 2.354 0 0 0 1.024.843 1.442 1.442 0 0 0 1.867-.783l1.747-5.722-1.626-.843 1.626-2.71 5.963 1.807-3.313 11.263a13.2 13.2 0 0 1-3.433.241 11.829 11.829 0 0 1-3.553-.542M157.038 280.205a18.794 18.794 0 0 1-3.674-.181 12.333 12.333 0 0 1-3.192-1.024l-1.084-19.574a10.08 10.08 0 0 1 3.192-1.385 16.281 16.281 0 0 1 7.227-.361l1.626.361a1.99 1.99 0 0 0 .843 0h.723v.482l.3 5.6-5.24.3v-2.469a1.41 1.41 0 0 0-1.325-1.2h-.542a1.509 1.509 0 0 0-1.506 1.385l.723 14.093a1.26 1.26 0 0 0 .422.783 1.891 1.891 0 0 0 1.265.422 1.509 1.509 0 0 0 1.506-1.385l-.3-5.963-1.807-.241.663-3.192 6.2-.361.663 11.925a11.656 11.656 0 0 1-3.192 1.385 18.871 18.871 0 0 1-3.614.6M73.445 255.09a12.887 12.887 0 0 1-2.59-2.53 13.37 13.37 0 0 1-1.81-2.956l10.721-13.732-.9-.723 2.048-2.65 5 3.975-11.328 14.58a1.447 1.447 0 0 0 .422 1.988 1.418 1.418 0 0 0 1.988 0l11.323-14.515 4.156 3.192-12.648 16.322a12.331 12.331 0 0 1-3.192-1.024 15.523 15.523 0 0 1-3.192-1.927M231.6 250.874l-12.106-14.154-3.192 2.771-2.228-2.59 10.6-8.974 2.228 2.53-3.252 2.77 12.046 14.154ZM258.824 220.398a14.367 14.367 0 0 1-2.289 2.771 11.242 11.242 0 0 1-2.71 1.988l-4.517-2.891 2.771-4.4 2.409 1.506a1.035 1.035 0 0 0 1.024 0 1.661 1.661 0 0 0 .843-.723 1.417 1.417 0 0 0-.361-1.927l-5.059-3.192-2.771 4.758a2.434 2.434 0 0 1-3.192 1.265l-.422-.3-7.107-4.457a11.6 11.6 0 0 1 .662-3.192 15.752 15.752 0 0 1 3.734-6.324 15.5 15.5 0 0 1 1.445-1.265 2.25 2.25 0 0 0 .361-.422v-.241l.241-.422 5.18 3.192-2.771 4.457-2.108-1.325h-.3a1.644 1.644 0 0 0-1.566.783 1.5 1.5 0 0 0 .361 1.988l3.614 2.289 3.252-4.276a2.658 2.658 0 0 1 3.433-1.265l.9.6h.181l6.926 4.457a11.594 11.594 0 0 1-.662 3.192 17.4 17.4 0 0 1-1.566 3.192M187.453 255.09l-1.2.482-1.269-3.132 12.648-5.24 1.325 3.072-6.2 2.59 2.108 5.059 4.758-1.988.6 3.493-4.039 1.687 2.409 5.782 6.143-2.59 1.325 3.192-11.443 4.758ZM44.29 224.072l5.119-6.926-.3-.3-6.685 4.517-2.951-4.4 15.479-10.419-.723-1.024 2.831-1.807 3.132 4.638-4.878 7.589.361.3 6.806-4.577 2.951 4.4-18.249 12.287Z"/></svg>