<svg xmlns="http://www.w3.org/2000/svg" width="565.572" height="302.916" data-name="houston rockets"><path d="M358.212 95.07c1.213 8-7.276 10.671-12.369 11.4l-.243-16.007v-1.214c6.306.728 12.127 2.183 12.612 5.821Zm-18.432-6.063c0 .485-.242.97-.242 1.455l-.243 41.956 6.548-3.638-.243-22.07c4.608.243 11.4 1.213 11.4 4.851v17.22l6.306 3.638-.243-22.07c0-6.548-9.7-4.365-9.7-4.365s12.126-2.668 11.4-12.611c-.485-6.063-6.791-8.973-18.189-7.761h-1.7a41.129 41.129 0 0 0-2.425-8.973 50.4 50.4 0 0 0-2.668 9.944 64.956 64.956 0 0 0-11.884 3.153 109.093 109.093 0 0 1 11.884-.728Z" data-name="Path 3960"/><path d="M392.165 120.05c0 3.88-2.183 6.306-5.821 6.306s-5.821-1.94-5.821-6.306V96.04c0-4.365 2.425-6.306 5.821-6.306a5.874 5.874 0 0 1 5.821 6.306Zm-1.7-33.226h-8s-8.488 0-8.488 8v26.44c0 8 8.488 8 8.488 8h8s8.488.243 8.488-8V94.827c.003-8.003-8.485-8.003-8.485-8.003Z" data-name="Path 3961"/><path d="M424.663 86.824h-8s-8.731 0-8.731 8v26.44c0 8 8.731 8 8.731 8h8s8.488.243 8.488-8v-3.4h-6.548v2.183a5.8 5.8 0 0 1-6.063 6.306c-3.638 0-5.821-1.94-5.821-6.306V96.04c0-4.365 2.425-6.306 5.821-6.306a5.923 5.923 0 0 1 6.063 6.306v2.183h6.548v-3.4c.243-7.999-8.488-7.999-8.488-7.999Z" data-name="Path 3962"/><path d="M552.717 104.043c-5.578 0-7.276-.243-7.276-4.851v-4.365c0-3.4.728-5.336 6.063-5.336 5.578 0 6.063 2.668 6.063 6.063v2.183l6.063-3.153v-.728a7.049 7.049 0 0 0-7.033-7.518h-9.459s-8 0-8 7.033v6.306c0 5.821.242 7.761 8.488 7.761 6.306 0 10.186.243 10.186 5.578v6.063c0 4.851-.728 7.033-6.063 7.033-5.578 0-6.306-2.668-6.306-7.761v-2.91l-6.067 2.426v4.608c0 6.548 8 6.548 8 6.548h9.216a7.611 7.611 0 0 0 7.518-8.246v-9.215c-.234-7.034-3.634-7.519-11.393-7.519Z" data-name="Path 3963"/><path d="M482.627 119.808v-10.186h2.183a49.977 49.977 0 0 0 15.279-2.91 53.474 53.474 0 0 0-15.279-2.91h-2.183v-7.036c-.243-1.213.97-3.4 1.213-4.123a6.72 6.72 0 0 1 4.851-1.7h11.4c-.728-4.608-8.488-3.88-8.488-3.88h-6.791s-9.216 0-9.216 8.488v25.715c0 8.246 9.216 8 9.216 8h6.791s7.761.728 8.488-3.638h-11.4c-.243-.242-6.064.243-6.064-5.82Z" data-name="Path 3964"/><path d="M504.94 86.824v5.578h10.186v35.162l6.306 4.123V92.402h2.425a35.878 35.878 0 0 0 12.369-2.668 30.962 30.962 0 0 0-12.369-2.91Z" data-name="Path 3965"/><path d="M467.834 86.824h-6.068l-13.1 18.675V86.824l-6.54-4.365v49.233l6.548-4.123v-21.1l13.824 22.07h7.033l-14.794-23.525Z" data-name="Path 3966"/><path d="M52.629 120.05c0 3.88-2.183 6.306-5.821 6.306s-5.821-1.94-5.821-6.306V96.04c0-4.365 2.425-6.306 5.821-6.306a5.874 5.874 0 0 1 5.821 6.306Zm-1.941-33.226h-8s-8.731 0-8.731 8v26.44c0 8 8.731 8 8.731 8h8s8.731.243 8.731-8V94.827c0-8.003-8.731-8.003-8.731-8.003Z" data-name="Path 3967"/><path d="M86.582 90.704v29.589c0 6.063-4.851 6.063-4.851 6.063h-1.94a5.365 5.365 0 0 1-4.608-6.063V90.947l-6.548-4.123v34.681c0 7.518 8 8 8 8h8.246s8.973-.243 8.973-8v-15.764s-.239-18.677-.239-18.917Z" data-name="Path 3968"/><path d="m200.084 132.176 5.578-4.123v-23.767l19.16 25.223V97.738a67.6 67.6 0 0 0-2.91-16.007 76.1 76.1 0 0 0-2.668 16.007v14.066l-19.16-24.98Z" data-name="Path 3969"/><path d="M115.2 104.043c-5.578 0-7.276-.243-7.276-4.851v-4.365c0-3.4.728-5.336 6.063-5.336 5.578 0 6.063 2.668 6.063 6.063v2.183l6.063-3.153v-.728a7.049 7.049 0 0 0-7.033-7.518h-9.458s-8 0-8 7.033v6.306c0 5.821.243 7.761 8.488 7.761 6.306 0 10.186.243 10.186 5.578v6.063c0 4.851-.728 7.033-5.821 7.033-5.821 0-6.548-2.668-6.548-7.761v-2.91l-6.063 2.425v4.608c0 6.548 7.761 6.548 7.761 6.548h9.459a7.611 7.611 0 0 0 7.518-8.246v-9.214c-.003-7.034-3.641-7.519-11.402-7.519Z" data-name="Path 3970"/><path d="M130.964 88.037v5.335h10.186v34.682l6.306 4.118v-38.8h2.183a28.915 28.915 0 0 0 12.125-2.665 25.634 25.634 0 0 0-12.121-2.67Z" data-name="Path 3971"/><path d="M172.194 120.051V96.042c0-4.365 2.425-6.306 5.821-6.306a5.923 5.923 0 0 1 6.063 6.306v24.01a5.8 5.8 0 0 1-6.063 6.306c-3.639-.002-5.821-1.699-5.821-6.307Zm9.7 9.216s8.731 0 8.731-8.246V94.828c0-8.246-8.731-8.246-8.731-8.246h-8s-8.488 0-8.488 8.246v26.193c0 8.246 8.488 8.246 8.488 8.246Z" data-name="Path 3972"/><path d="M22.312 81.246a37.856 37.856 0 0 0-2.668 12.611v11.4H5.821v-11.4A43.5 43.5 0 0 0 2.91 81.246 48.923 48.923 0 0 0 .243 93.857L0 132.904l6.063-3.4v-19.882h13.824v19.887l6.063 3.4-.243-39.047a65.191 65.191 0 0 0-3.4-12.611Z" data-name="Path 3973"/><path d="m320.135 174.134.242-31.043c28.618 3.638 52.143 7.518 52.143 14.552.243 7.517-21.342 13.58-52.385 16.491Zm-55.054 1.213.243-6.548c-.485-17.7.485-40.017.728-63.542 14.309 1.455 32.5 5.336 32.256 15.522l-.485 54.811c-5.336.243-10.671.243-16.007.243-5.821 0-11.4-.243-16.734-.485Zm-73.485-17.7c0-7.033 25.95-10.914 51.9-14.794 0 8.246-.243 17.462-.485 27.405v3.88c-30.801-2.915-51.413-8.978-51.413-16.496ZM303.398 70.09c3.153 23.04-20.372 30.558-37.107 32.984a503.213 503.213 0 0 0-1.7-50.446c19.892 1.94 37.354 6.791 38.807 17.462Zm17.219 72.515.243-27.163c0-16.734-23.283-15.037-30.8-14.067 8.973-1.7 39.289-8.973 37.349-36.864-1.211-18.189-24.251-27.405-62.085-23.767-.728 0-1.213.243-1.94.243a203.251 203.251 0 0 0-8.732-39.047 244.515 244.515 0 0 0-10.186 41.714 303.031 303.031 0 0 0-40.259 9.216 380.438 380.438 0 0 1 39.291-1.212c-2.425 24.253.242 47.05 0 90.947-40.017-1.213-74.941 6.548-74.456 18.189.485 10.429 31.286 19.887 74.456 23.525l1.94 58.934 2.91-40.017c.243-4.851 3.88-4.365 3.88-.243l1.213 52.386 3.4-42.685c0-5.821 3.88-5.336 3.638-.243l1.455 54.568 2.668-81.489c5.578.243 11.156.243 16.977.243 5.578 0 10.914 0 16.007-.243l2.668 83.187 2.183-43.655c0-5.578 3.88-5.336 3.88-.243l2.183 60.874 2.425-52.628c0-5.093 4.123-4.851 4.365 0l1.7 69.848 2.91-118.6c43.647-3.633 75.418-13.333 75.418-23.518-.243-11.4-34.439-20.13-74.7-18.189Z" data-name="Path 3974"/><path fill="#ce1141" d="M359.914 93.615c.97 8-7.518 10.671-12.611 11.4V88.764a1.458 1.458 0 0 0-.243-.97c6.544.728 12.365 2.183 12.854 5.821Zm-18.675-6.063v1.213l-.485 42.2 6.548-3.638v-22.071c4.365.243 11.4.97 11.156 4.608l.243 17.462 6.063 3.638v-22.312c0-6.548-9.7-4.123-9.7-4.123s11.884-2.668 11.156-12.854c-.243-5.821-6.791-8.973-18.189-7.761-.485 0-1.213.243-1.455.243a31.577 31.577 0 0 0-2.668-8.973 46.29 46.29 0 0 0-2.668 9.944 83.263 83.263 0 0 0-11.641 2.91s5.573-.486 11.636-.486Z" data-name="Path 3975"/><path fill="#ce1141" d="M393.863 118.596a5.8 5.8 0 0 1-6.063 6.306c-3.638 0-5.821-1.94-5.821-6.306v-24.01c0-4.608 2.425-6.306 5.821-6.306a5.923 5.923 0 0 1 6.063 6.306Zm-1.94-33.469h-8s-8.731 0-8.731 8.246v26.193c0 8.246 8.731 8.246 8.731 8.246h8s8.488.243 8.488-8.246V93.373c0-8.246-8.489-8.246-8.489-8.246Z" data-name="Path 3976"/><path fill="#ce1141" d="M426.119 85.127h-8s-8.488 0-8.488 8.246v26.193c0 8.246 8.731 8.246 8.731 8.246h8s8.488.243 8.488-8.246v-3.153h-6.791v2.183c0 3.88-2.183 6.306-5.821 6.306s-5.821-1.94-5.821-6.306v-24.01c0-4.608 2.425-6.306 5.821-6.306a5.873 5.873 0 0 1 5.821 6.306v2.183h6.788v-3.4c0-8.242-8.728-8.242-8.728-8.242Z" data-name="Path 3977"/><path fill="#ce1141" d="M554.173 102.584c-5.578 0-7.276-.243-7.276-4.851v-4.361c0-3.4.728-5.336 6.063-5.336 5.578 0 6.063 2.668 6.063 6.063v2.185l6.063-3.153v-.728a7.049 7.049 0 0 0-7.032-7.519h-9.458s-8 0-8 6.791v6.548c0 5.821.242 7.761 8.488 7.761 6.306 0 10.186.243 10.186 5.578v6.063c0 4.851-.728 7.033-5.821 7.033-5.821 0-6.548-2.668-6.548-7.761v-2.913l-6.063 2.425v4.608c0 6.548 8 6.548 8 6.548h9.459s7.276 0 7.276-8.488v-8.97c-.001-7.034-3.639-7.523-11.4-7.523Z" data-name="Path 3978"/><path fill="#ce1141" d="M484.083 118.353v-10.186h2.183a49.093 49.093 0 0 0 15.279-3.153 53.47 53.47 0 0 0-15.279-2.91h-2.183v-6.791a7.668 7.668 0 0 1 1.455-4.123 7.2 7.2 0 0 1 4.851-1.94h11.4c-.97-4.365-8.488-3.638-8.488-3.638h-7.033s-9.216 0-9.216 8.488v25.466c0 8.488 9.216 8.246 9.216 8.246h7.033s7.518.728 8.488-3.88h-11.643a5.34 5.34 0 0 1-6.063-5.578Z" data-name="Path 3979"/><path fill="#ce1141" d="M506.395 85.369v5.578h10.186v35.166l6.548 4.123V90.947h2.425a34.26 34.26 0 0 0 12.126-2.91 29.834 29.834 0 0 0-12.125-2.668Z" data-name="Path 3980"/><path fill="#ce1141" d="M469.289 85.369h-6.063l-13.1 18.675v-18.92l-6.545-4.12v49.233l6.548-4.123v-21.342l13.824 22.07h7.033l-14.794-23.526Z" data-name="Path 3981"/><path fill="#ce1141" d="M54.326 118.596a5.8 5.8 0 0 1-6.063 6.306c-3.638 0-5.821-1.94-5.821-6.306v-24.01c0-4.608 2.425-6.306 5.821-6.306a5.923 5.923 0 0 1 6.063 6.306Zm-1.941-33.469h-8s-8.731 0-8.731 8.246v26.193c0 8.246 8.731 8.246 8.731 8.246h8s8.731.243 8.731-8.246V93.373c-.242-8.246-8.731-8.246-8.731-8.246Z" data-name="Path 3982"/><path fill="#ce1141" d="M88.279 89.25v29.346c0 6.306-5.093 6.306-5.093 6.306h-1.94a6 6 0 0 1-4.851-6.306v-13.339l.243-16.007-6.548-4.123v34.924c0 7.276 8 7.761 8 7.761h8.246s8.731-.243 8.731-7.761V85.127Z" data-name="Path 3983"/><path fill="#ce1141" d="m201.782 130.48 5.578-4.123v-23.768l19.16 25.223V96.041a67.6 67.6 0 0 0-2.91-16.007 76.919 76.919 0 0 0-2.91 16.007v14.066l-18.918-24.98Z" data-name="Path 3984"/><path fill="#ce1141" d="M116.655 102.584c-5.336 0-7.276-.243-7.276-4.851v-4.36c0-3.4.728-5.336 6.063-5.336 5.578 0 6.306 2.668 6.306 6.063v2.184l6.063-3.153v-.728a7.2 7.2 0 0 0-7.275-7.519h-9.216s-8.246 0-8.246 6.791v6.548c0 5.821.485 7.761 8.488 7.761 6.548 0 10.186.243 10.186 5.578v6.063c0 4.851-.728 7.033-5.821 7.033-5.821 0-6.306-2.668-6.306-7.761v-2.913l-6.063 2.425v4.608c0 6.548 7.761 6.548 7.761 6.548h9.455a7.7 7.7 0 0 0 7.523-8.481v-8.977c-.243-7.033-3.638-7.523-11.642-7.523Z" data-name="Path 3985"/><path fill="#ce1141" d="M132.662 86.339v5.58h10.186v34.437l6.063 4.363v-38.8h2.425a30.79 30.79 0 0 0 12.127-2.67 29.753 29.753 0 0 0-12.126-2.91Z" data-name="Path 3986"/><path fill="#ce1141" d="M173.649 118.596v-24.01c0-4.608 2.425-6.306 5.821-6.306a5.923 5.923 0 0 1 6.063 6.306v24.01a5.8 5.8 0 0 1-6.063 6.306c-3.639-.001-5.821-1.941-5.821-6.306Zm9.944 8.973s8.488.243 8.488-8V93.373c0-8.246-8.488-8.246-8.488-8.246h-8s-8.731 0-8.731 8.246v26.193c0 8 8.731 8 8.731 8Z" data-name="Path 3987"/><path fill="#ce1141" d="M24.01 79.549a47.063 47.063 0 0 0-2.91 12.854v11.4H7.276v-11.4a46.685 46.685 0 0 0-2.668-12.854 42.608 42.608 0 0 0-2.91 12.854v39.047l6.063-3.4-.242-19.883h14.066l-.243 19.887 6.063 3.4-.243-39.047a90.06 90.06 0 0 0-3.152-12.858Z" data-name="Path 3988"/><path fill="#ce1141" d="m322.079 172.194.243-31.286c28.618 3.638 52.143 7.761 52.143 14.552-.004 7.76-21.346 14.066-52.386 16.734Zm-22.312 1.455c-5.093 0-10.671.243-16.007.243-5.821 0-11.156-.243-16.734-.243l.243-6.791c-.485-17.462.485-39.774.728-63.542 14.309 1.7 32.5 5.336 32.256 15.522Zm-33.23-122.961c19.645 1.94 37.349 6.548 38.8 17.462 2.91 23.04-20.372 30.558-37.349 32.984a502.657 502.657 0 0 0-1.455-50.446Zm-21.585 121.506c-30.8-2.668-51.658-8.973-51.658-16.734 0-6.791 25.95-10.671 51.9-14.552 0 8.246-.243 17.462-.485 27.405Zm77.366-31.528.243-27.163c0-16.734-23.04-15.037-30.558-14.067 8.731-1.7 39.047-8.973 37.349-36.864-1.213-18.19-24.253-27.406-62.33-23.772-.485 0-1.213.243-1.7.243A203.5 203.5 0 0 0 256.351 0a267.757 267.757 0 0 0-10.186 41.472 339.5 339.5 0 0 0-40.259 9.459 387.469 387.469 0 0 1 39.532-1.213c-2.425 24.253 0 47.05 0 90.947-40.017-1.213-74.941 6.306-74.456 18.189.243 10.429 31.286 19.887 74.456 23.525l1.7 58.934 3.153-40.017c0-4.851 3.638-4.608 3.638-.243l1.45 52.387 3.153-42.685c0-5.821 3.88-5.578 3.88-.243l1.455 54.568 2.668-81.489c5.578.243 11.156.243 16.977.243 5.336 0 10.914 0 16.007-.243l2.425 83.187 2.425-43.655c0-5.336 3.638-5.336 3.638-.243l2.425 60.874 2.183-52.628c.243-5.093 4.365-4.851 4.365 0l1.94 69.848 2.668-118.6v-.243c43.9-3.638 75.426-13.1 75.426-23.283.002-11.148-34.435-19.88-74.696-18.183Z" data-name="Path 3989"/></svg>