<svg xmlns="http://www.w3.org/2000/svg" width="379.046" height="379.046" data-name="indiana pacers"><path fill="#fff" fill-rule="evenodd" d="M0 0h379.046v379.046H0Z" data-name="Path 3735"/><path fill="#24385d" fill-rule="evenodd" d="M247.236 269.662c-9.74 0-15.938 2.067-18.6 13.873l-2.067 10.328a11.82 11.82 0 0 0 1.774 9.148c2.358 2.659 6.194 4.133 10.92 4.133 2.655 0 11.215-.588 14.461-6.2a53.26 53.26 0 0 0 3.249-8.853v-.592h-10.624v1.184c-.592 2.655-1.475 6.491-5.016 6.491a2.226 2.226 0 0 1-2.067-1.18 3.323 3.323 0 0 1-.887-3.245l3.249-13.281c.588-3.249 1.77-4.723 4.13-4.723a3.34 3.34 0 0 1 2.362.887 2.25 2.25 0 0 1 .592 1.475l-.295 2.067a4.382 4.382 0 0 0-.295 2.067v.295h10.627v-.295c1.475-5.02 1.18-8.265-.295-10.332-1.774-2.366-5.313-3.249-11.217-3.249Zm71.125 11.215 2.954-10.92h-.592c-4.723 0-8.853 2.067-10.92 5.311h-.295l.883-4.133h-11.215l-8.261 35.123h11.807l5.311-21.546c.588-2.95 3.837-4.134 6.491-4.134a11.081 11.081 0 0 1 3.249.295h.588Zm29.813-7.083c-2.362-3.249-7.382-3.837-10.332-3.837-9.148 0-15.051 3.837-16.823 11.215a6.838 6.838 0 0 0 1.77 6.491c2.067 2.659 5.9 4.428 10.037 5.9l1.475.887c1.475.588 1.475 1.77.883 2.95a3.537 3.537 0 0 1-3.542 2.954 3.632 3.632 0 0 1-2.358-1.184 3.217 3.217 0 0 1-.592-2.95v-.59h-11.214v.295c-.295 3.542.295 5.9 2.067 7.97 2.063 2.067 5.608 3.245 10.033 3.245 7.673 0 15.643-1.475 17.118-10.92 1.184-7.673-4.425-10.037-10.92-12.986l-.295-.295h-.295c-2.358-1.18-3.245-1.77-2.95-3.837.592-1.77 3.245-2.659 4.133-2.659a2.3 2.3 0 0 1 2.067.887c.883.592.883 1.77.883 3.245v.295h9.74v-.295c.885-2.649.59-5.011-.885-6.782Zm-122.19 6.788c.883-3.542.588-6.2-.592-7.673-1.475-2.067-5.016-2.95-11.512-2.95-9.74 0-15.051 3.542-16.526 10.328v.592h10.328v-.295c.887-2.95 2.067-4.133 4.723-4.133a2.541 2.541 0 0 1 1.77.887 2.731 2.731 0 0 1 .887 2.655c0 3.249-3.837 3.84-7.97 4.723-1.184.295-2.067.592-3.249.883-5.9 1.479-9.445 2.362-11.8 12.1-.592 2.659-.295 5.02 1.18 6.5 1.18 1.77 3.245 2.362 6.2 2.362 4.425 0 7.083-1.479 10.033-3.837v3.542h11.512v-.295a8.539 8.539 0 0 1 0-3.837l5.02-21.548Zm-18.593 18.3a2.3 2.3 0 0 1-2.067-.883 2.65 2.65 0 0 1-.592-2.659 6.2 6.2 0 0 1 2.067-4.13 18.1 18.1 0 0 1 5.311-2.071l-.592 4.723c0 1.182-1.178 5.018-4.128 5.018Zm66.405-8.853h17.118l2.067-10.037a6.6 6.6 0 0 0-1.184-6.194c-2.067-2.362-6.2-3.837-11.512-3.837-9.736 0-15.936 4.134-17.706 11.807l-2.659 13.572q-.888 4.873 1.77 7.97 3.1 3.543 10.623 3.542c10.332 0 15.938-3.542 17.71-11.807v-.588h-10.92v.295c-.887 3.542-1.77 5.311-4.134 5.311a2.683 2.683 0 0 1-2.067-.887 3.688 3.688 0 0 1-.295-2.655c.006 0 .893-5.018 1.188-6.493Zm7.966-10.918s-.588 3.542-.883 4.723h-5.9c0-.887.295-3.249.295-3.249.295-1.475.883-4.133 3.542-4.133a3.6 3.6 0 0 1 2.659.887 4.447 4.447 0 0 1 .291 1.772Zm-87.948-11.512c-1.77-2.659-5.9-3.837-12.4-3.837h-15.638l-10.034 42.498h13.28l3.542-13.576h1.478a39.3 39.3 0 0 0 11.8-1.475q6.64-2.661 8.853-11.514c.595-3.246 1.478-9.15-.879-12.099Zm-16.825 4.719h1.77a3.163 3.163 0 0 1 2.36 1.774 4.725 4.725 0 0 1 1.182 4.425c-1.182 5.02-3.542 5.315-7.968 5.315.295-2.065 2.362-9.738 2.657-11.514Z" data-name="Path 3736"/><path fill="#24385d" fill-rule="evenodd" d="m148.953 248.116-13.871 57.557H40.34l54.6-247.329h121.6c30.4 0 56.37 12.1 74.668 34.236 27.155 32.761 29.811 86.772-2.358 122.19-19.777 23.316-49 33.349-81.165 33.349Z" data-name="Path 3737"/><path fill="#f2ca44" fill-rule="evenodd" d="M82.432 115.006h53.24c6.2 0 12.692 5.018 9.74 12.692a73.415 73.415 0 0 0-3.544 15.936c-.59 3.839 4.133 6.493 6.79 6.493h108.61c2.067 0 3.249-.59 3.249-1.477a35.235 35.235 0 0 0-.592-7.083c-.295-2.362-.592-2.952-2.659-2.952-13.572 0-19.185-5.9-33.349-15.051s-35.123-14.461-52.831-14.461h-87.35l-1.3 5.9Zm65.929 70.246a50.8 50.8 0 0 1-4.721-13.281c-1.477-5.608-6.2-10.035-14.461-10.035H72.071l1.434-6.493h185.533c1.774 0 1.479.887 1.479 2.952-.295 1.77-.592 5.608-.887 7.97s-2.362 1.77-4.133 1.77c-4.13 0-11.8 1.182-16.231 4.426-7.673 5.9-24.2 15.938-33.353 18.89-10.033 3.245-46.927 14.461-57.847-6.2h.3Z" data-name="Path 3738"/><path fill="#f2ca44" fill-rule="evenodd" d="M61.778 208.566h96.915a16.743 16.743 0 0 1 10.922 3.542c7.968 6.79 18.595 11.512 30.106 14.756 5.016 1.479 13.576-.291 21.543-4.72 19.185-10.92 31.878-31.874 35.715-45.453 1.18-3.542-.887-3.247-3.546-2.952-8.261.59-16.823 7.968-28.038 15.346-11.215 7.083-34.236 13.873-56.077 13.873H63.062l-.319 1.213Zm142.069-129.86c1.479-.295 6.2-.59 9.152.59 18.3 7.083 35.711 26.268 43.089 46.631 1.475 4.133 1.77 6.493 0 6.788-8.558.887-12.395-3.247-22.429-10.035-9.74-6.788-19.185-11.217-31.583-15.348-12.395-3.837-35.121-4.428-38.073-4.428-2.657-.293-2.362-1.475-1.18-2.655a79.112 79.112 0 0 1 41.024-21.543Zm88.543 69.946a1.916 1.916 0 0 1-1.77 1.477h-21.251c-2.95 0-2.95-1.182-2.95-2.657 0-1.772-.592-4.723-.592-6.788 0-1.77-.887-3.839 1.475-4.721a32.6 32.6 0 0 0 14.168-13.281c.883-1.772 2.067-4.426 3.542-2.067 5.016 7.97 6.788 18.005 7.378 28.037Zm-7.673 38.075c-.295.59-1.77 1.18-2.067 0-3.245-8.265-10.623-13.871-15.643-16.823a2.629 2.629 0 0 1-1.475-3.247 69.6 69.6 0 0 0 .887-8.56c0-1.475.883-2.657 2.063-2.657h22.138c.588 0 1.77.59 1.77 1.182 0 10.63-3.244 20.955-7.673 30.105Z" data-name="Path 3739"/><path fill="#f2ca44" fill-rule="evenodd" d="M227.165 228.342c-1.475 0-5.016-.295.295-3.546 16.235-9.445 30.4-31.282 34.236-43.974 1.475-4.723 1.77-5.018 3.542-4.426 2.362.59 6.2 4.132 9.445 8.263 2.954 3.837 4.134 11.8 2.362 14.166-11.513 15.644-29.809 26.566-49.88 29.517Zm40.729-99.463c-3.542 2.067-4.428 1.772-5.02-1.18-7.083-24.5-27.741-42.5-36.3-47.812-1.475-1.182-1.18-1.772 0-1.772 20.367 2.657 40.139 13.871 49.879 28.923 5.905 8.56-4.718 20.07-8.556 21.841Z" data-name="Path 3740"/></svg>