<svg xmlns="http://www.w3.org/2000/svg" width="376.398" height="286.074"><g data-name="los angeles clippers"><path d="M5.438 124.037a16.535 16.535 0 0 0-5.431 12.831v94.257a16.887 16.887 0 0 0 5.429 13 16.569 16.569 0 0 0 13.325 4.113c8.554-.658 16.944-1.316 25.334-1.974v-17.767c-8.39.494-16.78.987-25.334 1.481V138.02c8.554.494 16.944.987 25.334 1.481v-17.932c-8.39-.658-16.78-1.316-25.334-1.974a16.582 16.582 0 0 0-13.323 4.442Z" data-name="Path 3933"/><path d="M66.799 123.05c-6.251-.494-12.5-.823-18.754-1.316V246.1c13.654-.987 27.472-1.81 41.126-2.468v-17.108c-7.4.329-14.97.493-22.373.823Z" data-name="Path 3934"/><path d="M92.791 243.468c6.416-.329 13-.658 19.247-.823V125.189c-6.251-.165-12.831-.494-19.247-.823Z" data-name="Path 3935"/><path d="M147.735 175.692h-13v-33.066c4.442 0 8.554 0 13 .165Zm0-49.516c-10.694-.163-21.221-.494-31.914-.823v117.128c6.416-.329 12.667-.494 18.918-.658v-49.68h13a19.611 19.611 0 0 0 13.16-4.771 14.642 14.642 0 0 0 5.758-11.515v-32.9a14.641 14.641 0 0 0-5.758-11.515 19.253 19.253 0 0 0-13.164-5.266Z" data-name="Path 3936"/><path d="M288.387 141.31c4.277-.165 8.39-.329 12.831-.658v34.55c-4.277 0-8.554.165-12.831.165Zm25.992 46.226a15.981 15.981 0 0 0 5.43-12.334v-35.2a15.308 15.308 0 0 0-5.429-12.009 17.367 17.367 0 0 0-13.325-4.442q-15.793.987-31.585 1.481v117.777c6.251.164 12.5.494 18.918.823v-50.668c5.1 16.944 10.364 34.053 15.628 51.49 6.251.494 12.5.658 18.754 1.152-5.429-18.26-11.022-36.191-16.451-53.793a16.083 16.083 0 0 0 8.061-4.277Z" data-name="Path 3937"/><path d="M202.022 175.691h-12.831v-32.737h12.831Zm0-49.187c-10.528.165-21.221.165-31.75 0v114.825c6.251-.165 12.667-.165 18.918-.165v-49.187h12.831a19.617 19.617 0 0 0 13.325-4.606 15.628 15.628 0 0 0 5.593-11.844v-32.904a14.7 14.7 0 0 0-5.593-11.515 20.468 20.468 0 0 0-13.325-4.606Z" data-name="Path 3938"/><path d="M224.724 241.493c13.818.165 27.637.658 41.291 1.152v-16.777c-7.4-.165-14.97-.494-22.373-.494v-33.23c4.442 0 12.009 0 16.122.164v-16.78c-4.277 0-11.844 0-16.122.165v-33.23c7.567-.165 14.97-.329 22.373-.494v-16.781c-13.818.494-27.637.987-41.291 1.152Z" data-name="Path 3939"/><path d="M376.233 155.623v-18.919a15.8 15.8 0 0 0-5.593-12.667 16.049 16.049 0 0 0-13.16-4.442c-5.264.329-10.528.823-15.793 1.152a20.326 20.326 0 0 0-13.325 6.251 17.544 17.544 0 0 0-5.429 12.831v35.2a16.325 16.325 0 0 0 5.429 12.5 18.636 18.636 0 0 0 13.325 5.264c5.264.165 10.528.165 15.793.329v36.685c-5.264-.329-10.528-.494-15.793-.823v-18.1l-18.754-.494v17.6a17.544 17.544 0 0 0 5.429 12.831 19.415 19.415 0 0 0 13.325 6.087c5.264.494 10.528.823 15.793 1.316a17.1 17.1 0 0 0 13.16-4.277 16.244 16.244 0 0 0 5.593-13v-37.653a17.647 17.647 0 0 0-5.593-13.325 17.245 17.245 0 0 0-13.16-5.264c-5.264 0-10.528 0-15.793.164v-36.027l15.793-.987v18.425c6.25-.165 12.501-.494 18.753-.657Z" data-name="Path 3940"/><path fill="#bec0c2" d="M19.915 121.565c7.4.658 15.134 1.316 23.031 1.81v-.658c-8.061-.652-16.122-1.152-24.184-1.806a6.749 6.749 0 0 0-1.81-.165 15.036 15.036 0 0 0-10.69 4.113 15.751 15.751 0 0 0-4.937 12.006v94.261a15.507 15.507 0 0 0 3.29 10.2 16.581 16.581 0 0 1-2.468-9.048V138.02a15.668 15.668 0 0 1 5.1-12.173 14.511 14.511 0 0 1 10.694-4.282Z" data-name="Path 3941"/><path fill="#bec0c2" d="M65.483 125.024v-.823c-5.429-.165-10.857-.658-16.286-.987v121.569l.823-.164V124.034c5.097.167 10.197.5 15.463.99Z" data-name="Path 3942"/><path fill="#bec0c2" d="M110.886 127.163v-.823c-5.429-.165-11.186-.494-16.615-.658v116.305h.823V126.502c5.099.167 10.363.5 15.792.661Z" data-name="Path 3943"/><path fill="#bec0c2" d="M148.722 128.314a19.356 19.356 0 0 1 10.2 2.8 20.819 20.819 0 0 0-11.352-3.79c-10.035-.165-20.4-.494-30.433-.823v114.5h.823v-113.51h.165c10.034.333 20.562.658 30.597.823Z" data-name="Path 3944"/><path fill="#bec0c2" d="M303.522 125.517a16.581 16.581 0 0 1 9.048 2.468 15.062 15.062 0 0 0-10.035-3.29h-1.316c-9.87.494-20.234.987-30.433 1.481v115.482h.823v-114.66c10.364-.329 20.728-.823 30.762-1.316a2.8 2.8 0 0 1 1.151-.165Z" data-name="Path 3945"/><path fill="#bec0c2" d="M189.356 128.643h13.983a18.94 18.94 0 0 1 10.2 2.8 17.7 17.7 0 0 0-11.351-3.619h-30.6v112.189h.823v-111.37Z" data-name="Path 3946"/><path fill="#bec0c2" d="M264.699 126.504c-12.831.494-25.663.823-38.659.987v112.851h.823V128.314c12.5-.165 25.334-.494 37.836-.987Z" data-name="Path 3947"/><path fill="#bec0c2" d="M358.631 121.566h1.645a15.353 15.353 0 0 1 8.225 2.139 15.186 15.186 0 0 0-9.377-2.961h-1.645c-5.264.494-10.528.823-15.793 1.316a18.564 18.564 0 0 0-12.5 5.758 16.4 16.4 0 0 0-5.266 11.848v35.369a15.256 15.256 0 0 0 3.29 9.541 14.937 14.937 0 0 1-2.468-8.554v-35.2a15.874 15.874 0 0 1 5.264-12.009 18.743 18.743 0 0 1 12.667-5.922c5.429-.334 10.693-.825 15.958-1.325Z" data-name="Path 3948"/><path fill="#006bb6" d="M.174 268.804a1515.376 1515.376 0 0 1 376.223 0v-6.58a1635.028 1635.028 0 0 0-376.223 0Z" data-name="Path 3949"/><path fill="#ed174c" d="M45.413 286.075a566.784 566.784 0 0 1 285.416 0v-6.087a578.137 578.137 0 0 0-285.416 0Z" data-name="Path 3950"/><path fill="#006bb6" d="M150.861 108.08A1486.692 1486.692 0 0 1 .174 96.894v6.58c53.135 6.251 106.6 9.706 160.228 10.693a105.678 105.678 0 0 1-9.541-6.087Z" data-name="Path 3951"/><path fill="#006bb6" d="M225.545 108.08a57.518 57.518 0 0 1-9.541 5.922c53.464-.987 107.093-4.442 160.228-10.528v-6.58a1486.847 1486.847 0 0 1-150.687 11.186Z" data-name="Path 3952"/><path fill="#ed174c" d="M138.358 95.578a584.3 584.3 0 0 1-92.945-15.957v6.087a576.773 576.773 0 0 0 98.21 16.121 62.313 62.313 0 0 1-5.265-6.251Z" data-name="Path 3953"/><path fill="#ed174c" d="M238.049 95.578a64.2 64.2 0 0 1-5.429 6.251 608.285 608.285 0 0 0 98.21-16.122v-6.086a582.325 582.325 0 0 1-92.781 15.957Z" data-name="Path 3954"/><path fill="#fff" d="M130.133 58.07a57.988 57.988 0 1 1 58.07 57.906 57.988 57.988 0 0 1-58.07-57.906Z" data-name="Path 3955"/><path d="M230.152 90.313a51.926 51.926 0 0 1-10.857-29.775h21.879a54.079 54.079 0 0 1-11.022 29.775Zm-39.481 20.563V95.742h-4.935v15.134a52.84 52.84 0 0 1-36.023-16.615A57.133 57.133 0 0 0 162.376 60.7v-5.1a56.727 56.727 0 0 0-12.663-33.556 52.318 52.318 0 0 1 36.027-16.78V20.4h4.935V5.264a51.825 51.825 0 0 1 36.027 16.615 57.134 57.134 0 0 0-12.667 33.559v5.1A56.728 56.728 0 0 0 226.697 94.1a52 52 0 0 1-36.027 16.78Zm-44.417-20.563a51.926 51.926 0 0 1-10.857-29.775h21.879a52.855 52.855 0 0 1-11.022 29.775Zm0-64.486A53.112 53.112 0 0 1 157.113 55.6h-21.88a54.549 54.549 0 0 1 11.022-29.775Zm83.9 0A53.112 53.112 0 0 1 241.013 55.6H219.13a52.113 52.113 0 0 1 11.022-29.775ZM188.203 0a57.988 57.988 0 1 0 57.91 58.07A57.988 57.988 0 0 0 188.203 0Z" data-name="Path 3956"/><path fill="#ed174c" d="M175.208 33.724v48.365H201.2v-6.58h-18.918V33.724Z" data-name="Path 3957"/><path fill="#006bb6" d="M209.918 50.009V30.104c0-2.961-1.316-4.277-4.113-4.277h-35.2c-2.961 0-4.113 1.316-4.113 4.277v56.1c0 2.961 1.152 4.113 4.113 4.113h35.2c2.961 0 4.113-1.152 4.113-4.113V66.131h-7.069v18.1h-29.451V31.914h29.451v18.1Z" data-name="Path 3958"/><path fill="#ed174c" d="M194.29 54.616H191V40.469h3.29Zm6.909 19.083V33.724h-16.78l-.329 39.975h6.745l.165-12.5h3.29v12.5Z" data-name="Path 3959"/></g></svg>