<svg xmlns="http://www.w3.org/2000/svg" width="357.652" height="357.652" data-name="memphis grizzlies"><path fill="rgba(255,255,255,0)" d="M0 0h357.652v357.652H0Z"/><path fill="#23375b" d="M228.632 278.159h4.75v-20.887h6.147v20.887h5.309v-25.986h-16.206m18.511 25.986h4.89v-52.95h-4.89Zm-46.1-32.2v-8.941h3.213a3.314 3.314 0 0 1 3 3.563v1.746c0 2.026-1.327 3.563-3 3.563l-3.213.07Zm11.107-1.4v-5.588a6.264 6.264 0 0 0-6.5-6.357h-9.849v18.022h9.849c3.143.07 6.5-1.886 6.5-6.077m8.8-11.177v44.777h5.379v-52.88h-8.243l2.864 8.1Zm74.115 4.61-2.585-.14c-2.375 0-3.7-.978-3.7-3.423v-6.985a2.2 2.2 0 0 1 1.956-2.375h.768a2.209 2.209 0 0 1 1.956 2.375v5.309h6.007v-5.1a8.584 8.584 0 0 0-1.961-5.936c-1.467-1.607-3.632-2.375-6.566-2.375-2.724 0-4.75.7-6.077 2.165a6.957 6.957 0 0 0-1.676 4.89v.14c0 4.75 0 10.269.07 10.9.21 1.257.7 3.982 4.96 5.169a19.783 19.783 0 0 0 3.772.489c4.191.349 9.849.768 9.849 8.8v11.944c0 .14-.349 8.732-10.9 8.732-10.2 0-10.2-7.684-10.2-11.037v-5.728h-6.212v8.382c0 9.989 7.614 13.761 14.6 13.761h3.563c8.8 0 15.158-5.379 15.158-14.111v-13.062c0-9.43-6.357-12.783-12.783-12.783m-88.645-12.294h-20.468l2.794 7.824v44.356h4.68v-47.5h12.155a8.5 8.5 0 0 1 8.8 8.662v5.588c0 5.588-4.471 8.452-8.8 8.452h-9.849v24.868h5.309v-20.607l6.566-.14c7.335 0 11.247-6.427 11.247-12.5l.14-7.754c-.07-7.4-6.5-11.246-12.574-11.246m82.987 24.727c4.89 0 4.121 3.074 4.121 6.287v5.449a2.2 2.2 0 0 1-1.956 2.375h-.765a2.161 2.161 0 0 1-1.956-2.375v-6.427h-5.944v5.728c0 3.423 0 8.732 7.963 8.732 8.243 0 8.592-6.217 8.592-6.427v-11.947c0-5.658-2.934-6.147-7.754-6.5a20.886 20.886 0 0 1-4.261-.629c-5.658-1.537-6.357-5.449-6.636-6.916-.14-.978-.14-8.732-.07-11.177a9.652 9.652 0 0 1 2.305-6.636c1.746-1.886 4.331-2.864 7.754-2.864 3.563 0 6.357 1.048 8.243 3.143a10.836 10.836 0 0 1 2.585 7.125v5.449h6.079v-8.452c0-8.033-6.427-13.342-14.879-13.342h-2.721c-8.243 0-15.787 4.4-15.787 13.552v12.224c.07 9.011 8.452 13.622 15.088 13.622m-31.923-16.486v43.942h5.658v-52.46h-8.8Zm7.963 43.938h5.659v-52.456h-5.658v52.46ZM88.016 211.239h-38.21l3.213 8.662v57.56h5.587v-60.844l28.64.07c4.75 0 8.941 3.493 8.941 10.269v50.5h5.1l-.07-54.067c-.07-7.684-6.566-12.155-13.2-12.155M60.843 277.46h5.449v-52.67h4.4v52.67h5.658v-58.468H60.843v58.468Zm58.468-19.21h10.195v-5.588h-15.015v17.114c1.886 0 17.394-.07 20.747-.07v-4.96h-15.857v-6.5Zm120.219-12.294h-6.147v-20.607h-4.75v24.589h16.206v-24.659h-5.309v20.677Zm-67.34-20.327h-34.717l2.934 7.893v44.218h4.89v-47.361l26.125.07c4.331 0 8.1 3.213 8.1 9.43v37.861h4.61l-.07-41.074c0-6.916-5.938-11.037-11.875-11.037m-57.769 24.728h15.019v-5.309h-10.2v-6.219h15.857v-5.309h-20.743v16.835Zm-27.243-31.364s-3.842 0-8.522-.07v58.468h5.379v-52.67l1.886-.07c1.118 0 1.956 1.188 1.956 2.585v50.155h5.938v-50.5c0-5.169-3.074-7.893-6.636-7.893m60.43 58.742h4.82v-39.817h4.052v39.817h4.96v-44.917c-6.007 0-12.713-.07-13.831-.07v44.986Zm23.75-44.916h-7.684v44.916h4.75v-39.817l1.746-.07c.978 0 1.816 1.118 1.816 2.375v37.512h5.1v-37.861c.07-4.82-2.654-7.055-5.728-7.055m-64.824 0v44.705h28.64v-5.518h-23.056v-40.794h23.052v-5.8h-31.362l2.724 7.4Z" data-name="Path 3716"/><path fill="#6189b9" d="M226.327 278.159V225.28h2.305v24.588h16.206V225.21h2.305v52.949h-2.305v-25.985h-16.206v25.986m-16.486-33.6v-5.588a6.205 6.205 0 0 0-6.5-6.287h-9.849v18.022h9.849c3.143 0 6.5-1.956 6.5-6.147m70.762 11.246v5.728c0 3.423 0 8.732 7.963 8.732 8.243 0 8.592-6.217 8.592-6.427v-11.945c0-5.658-2.934-6.147-7.754-6.5a20.884 20.884 0 0 1-4.261-.629c-5.658-1.537-6.357-5.449-6.636-6.916-.14-.978-.14-8.732-.07-11.246a9.429 9.429 0 0 1 2.305-6.566c1.746-1.886 4.331-2.864 7.754-2.864 3.563 0 6.357 1.048 8.243 3.143a10.836 10.836 0 0 1 2.585 7.125v5.449h-2.235v-5.1a8.584 8.584 0 0 0-1.956-5.938c-1.467-1.607-3.632-2.375-6.566-2.375-2.724 0-4.75.7-6.077 2.165a6.957 6.957 0 0 0-1.676 4.89v.14c0 4.75 0 10.269.07 10.9.21 1.257.7 3.982 4.96 5.169a19.783 19.783 0 0 0 3.772.489c4.191.349 9.849.768 9.849 8.8v11.945c0 .14-.349 8.732-10.9 8.732-10.2 0-10.2-7.684-10.2-11.037v-5.728h2.235v-.14Zm-89.413 22.074v-47.5h12.155c4.4 0 8.8 3.074 8.8 8.592v5.588c0 5.588-4.471 8.452-8.8 8.452h-9.849v24.868Zm69.643-52.462h2.305v52.46h-2.305Zm-204.6 52.043v-60.843l28.64.07c4.75 0 8.941 3.493 8.941 10.269v50.5h-2.305v-50.5c0-5.169-3.074-7.963-6.636-7.963 0 0-3.842 0-8.522-.07v58.468h-2.305v-58.469H60.843v58.538h-2.305Zm76.63-43.943h-20.747v16.835h15.017v2.305h-15.017v17.114c1.886 0 17.394-.07 20.747-.07v2.305h-23.052v-40.789h23.052v2.3Zm10.129 44.218v-47.357l26.125.07c4.331 0 8.1 3.213 8.1 9.43v37.861h-2.305v-37.861c0-4.89-2.654-7.125-5.728-7.125h-7.681v44.916h-2.305v-44.986h-13.831v45.056Z" data-name="Path 3717"/><path fill="#23375b" d="M270.754 65.942a159.942 159.942 0 0 0-2.515-3.632c20.886-34.228-28.361-60.494-46.243-31.434-22-4.052-40.306 3.982-42.82 5.1-2.515-1.118-20.607-9.081-42.4-5.169-21.515-30.317-66.012.978-46.453 31.155-.908 1.257-1.816 2.585-2.794 3.982-27.872 42.4-6.985 71.111-6.985 71.111l4.331-4.261s6.077 29.548 38.28 48.968l1.188-6.427c19.839 21.166 38.14 20.677 55.324 40.026 15.787-18.3 38.769-18.3 56.652-41.214v8.1c33.041-16.066 36.115-50.854 36.115-50.854l3 5.658c0 .14 23.192-28.71-4.68-71.111" data-name="Path 3718"/><path fill="#fdb927" d="M200.691 95.98c1.537-.559 4.261 1.048 5.728 3.912 6.706-1.886 6.287-10.967 6.287-11.6a40.056 40.056 0 0 0-12.015 7.684" data-name="Path 3719"/><path fill="#6189b9" d="M204.602 101.358c16.276 43.729-4.4 71.81-4.4 71.81 12.713-33.39 4.541-61.122-1.048-71.461a54 54 0 0 1-6.287.14 58.894 58.894 0 0 0 7.125-5.169l.768-.7c1.537-.559 4.261 1.048 5.728 3.912 6.706-1.886 6.287-10.967 6.287-11.6a23.341 23.341 0 0 1 6.147-1.537c-.07 0-1.607 14.39-14.32 14.6m8.1-13.063-.21.07Zm-108.27-29.402c-.559-5.518 6.357-10.967 6.357-10.967-2.864-2.934-7.893-.349-7.893-.349 4.54-8.871 14.739-4.541 14.739-4.541-3.842-4.75-12.085-4.471-12.085-4.471 10.129-9.989 22.353 5.309 22.353 5.309-10.828 2.374-23.471 15.019-23.471 15.019m125.807-13.972s6.636-16.486 26.824-12.5c0 0-18.581-12.294-31.5 9.919 0 0-18.372-8.732-45.964 3.213 0 0-26.2-9.081-45.964-3.982 0 0-11.526-19.978-27.8-11.735-16.206 8.243-7.754 27.243-4.89 32.2 0 0-26.894 27.383-16.765 61.262l5.379-6.706s7.754 36.883 27.662 48.479l1.251-9.078s20.816 25.078 45.265 35.765c2.305 1.118 15.3 7.544 15.717 10.688v-17.538s-16.975 1.4-21.515-6.427c-3.074-5.309-22.563-40.166-12.923-76.56 0 0-9.36-1.4-11.177-17.254a33.284 33.284 0 0 0-15.717-2.724s15.577-4.89 30.107.768c14.6 5.658 18.441 20.048 28.361 13.691l2.934-40.445 2.794 40.445c9.849 6.357 13.761-8.033 28.361-13.691s30.107-.768 30.107-.768a45.5 45.5 0 0 0-16.206-6.357c-8.382-1.676-20.607 3.7-20.607 3.7s1.676-11.456 7.265-17.6c4.82-5.309 15.647-6.427 19-16.765m-50.78 94.722c1.886-.279 31.225-1.4 13.2 16.9 12.574-16.625-10.2-16.7-13.2-16.9" data-name="Path 3720"/><path fill="#fdb927" d="M147.044 88.296c0 .7-.349 9.71 6.287 11.6 1.4-2.794 3.982-4.4 5.588-3.912a67.278 67.278 0 0 0-11.875-7.688" data-name="Path 3721"/><path fill="#bcd1e4" d="M179.385 161.712v8.382l-5.658.279c-5.938.21-13.691 2.585-13.691 2.585-14.39-35.556-6.427-62.519-2.515-72.159-14.25 3.143-16.555-13.971-16.555-13.971 1.467-.279 3.632.279 6.077 1.537 0 .7-.349 9.71 6.287 11.6 1.4-2.794 3.982-4.4 5.518-3.912 1.048.838 2.1 1.607 2.934 2.375 9.71 8.173 17.254 6.5 17.254 6.5s.07 31.015.07 34.857c0 0-28.011-2.235-12.993 16.9 0 0 2.445-6.985 5.029-4.75 3.563 2.864 8.243 9.151 8.243 9.78m-32.343-73.42Zm32.342 92.417c-20.467 0-17.743-4.541-17.743-4.541 2.235-1.4 16.555-1.676 17.673-1.676s15.577.279 17.743 1.676c.07 0 2.794 4.541-17.673 4.541" data-name="Path 3722"/><path fill="#6189b9" d="m119.032 301.491-10.9-3.982v4.61l-8.31 22.912 6.5 2.375 3.912-10.618 2.026.7a1.248 1.248 0 0 1 .489 1.676l-3.423 9.36 6.427 2.305 3.493-9.64a3.865 3.865 0 0 0-.489-3.912s2.165-.349 3.353-3.563l1.537-3.912c1.257-3.842-1.4-7.125-4.61-8.313m-2.375 7.893-.349.908a1.746 1.746 0 0 1-2.235 1.257l-1.816-.7 1.676-4.61 1.816.7a1.857 1.857 0 0 1 .908 2.445m136.006-4.96-2.305-6.5-16.136 5.658 2.724 3.353 8.1 23.192c1.327-.419 14.809-5.169 14.809-5.169l-2.305-6.357-8.173 2.794c-.21-.7-1.327-3.842-1.327-3.842l5.239-1.816-2.235-6.566-5.239 1.816-1.257-3.7m-37.171 23.963-2.1-21.934-8.662.838 2.165 4.331 2.305 23.89 16.9-1.607-.629-6.427m-85.222-20.188-.629-4.89 8.313 1.746-5.853 28.084-6.706-1.4m94.3-22.353-2.515-4.191 8.313-1.746 6.007 27.942-6.776 1.4m-61.611-24.382-17.184-1.746-.768 7.893 4.82-1.188 2.794.279-9.849 21.445 17.184 1.676.559-6.427-7.335-.838m33.6-20.677-17.324-.14.07 8.033 4.68-1.677h2.794l-7.681 22.287h17.254v-6.5l-7.474-.07m92.836-25.42 1.327 2.1a.9.9 0 0 1-.14 1.327l-.908.559a.947.947 0 0 1-1.327-.419l-1.607-2.375-5.379 3.563 2.1 3.143c2.515 3.772 6.287 3.283 8.871 1.537l1.886-1.257c3.283-2.165 4.331-5.8 2.165-9.011l-3.213-4.89c-2.375-3.563-5.588-3.213-7.963-1.607l-1.537.978c-.908.629-1.677.559-2.235-.349l-1.746-2.654a.959.959 0 0 1 .14-1.327l.838-.559a.965.965 0 0 1 1.327.349l1.327 1.956 5.379-3.563-2.1-3.143c-1.956-2.934-5.658-3.353-8.8-1.257l-1.607 1.048c-3.074 2.026-4.82 5.518-2.515 8.941l3 4.541c2.235 3.353 6.5 3 9.011 1.4 2.305-1.467 2.934-.21 3.7.978m-183.221 7.881a6.53 6.53 0 0 1-9.221 1.746l-2.934-1.956a6.484 6.484 0 0 1-1.816-9.221l9.43-14.041a6.538 6.538 0 0 1 9.221-1.816l2.864 1.956a6.542 6.542 0 0 1 1.886 9.221l-1.886 2.864-5.728-3.842 1.188-1.677c.489-.7.419-1.467-.07-1.746l-.908-.629a1.375 1.375 0 0 0-1.676.629s-.419.7-1.188 1.746l-6.846 10.269a1.356 1.356 0 0 0 0 1.746l.908.629c.489.349 1.188.07 1.607-.629l2.1-3.074-.978-.7 2.654-3.982 6.706 4.471" data-name="Path 3723"/></svg>