<?xml version="1.0" standalone="no"?>
<!DOCTYPE svg PUBLIC "-//W3C//DTD SVG 20010904//EN"
 "http://www.w3.org/TR/2001/REC-SVG-20010904/DTD/svg10.dtd">
<svg version="1.0" xmlns="http://www.w3.org/2000/svg"
 width="300.000000pt" height="414.000000pt" viewBox="0 0 300.000000 414.000000"
 preserveAspectRatio="xMidYMid meet">

<g transform="translate(0.000000,414.000000) scale(0.100000,-0.100000)"
fill="#000000" stroke="none">
<path d="M2036 4119 c-48 -11 -103 -44 -116 -69 -15 -28 -12 -84 7 -156 23
-85 16 -94 -83 -119 -146 -38 -241 -103 -287 -197 -14 -29 -28 -60 -31 -69 -3
-13 -30 -17 -163 -23 -472 -20 -927 -127 -1125 -264 -152 -105 -197 -229 -128
-350 65 -113 262 -222 529 -292 l44 -11 -39 -26 c-166 -111 -287 -280 -340
-473 -25 -90 -25 -300 0 -390 99 -369 438 -617 816 -596 356 19 637 247 735
596 46 162 57 238 64 441 6 193 7 196 38 260 18 35 47 78 65 95 30 28 45 33
171 53 158 25 338 74 479 131 328 132 420 348 221 519 -99 85 -308 173 -531
222 -124 28 -128 39 -38 108 81 63 99 90 98 145 0 55 -27 114 -81 179 l-40 49
6 -81 6 -81 -42 -40 c-23 -22 -50 -44 -60 -50 -16 -8 -18 -7 -14 9 3 11 0 51
-6 91 -18 115 -61 176 -61 87 0 -43 -37 -134 -65 -157 -10 -9 -10 -1 2 41 14
47 14 62 -2 164 -13 88 -14 120 -6 153 7 23 16 44 21 47 5 3 19 19 30 35 l21
30 -28 -1 c-15 -1 -46 -5 -67 -10z m9 -46 c-26 -61 -28 -92 -12 -204 25 -173
14 -199 -125 -316 l-83 -70 -133 5 c-153 5 -152 5 -99 92 44 75 127 130 238
159 152 39 160 49 128 158 -10 37 -19 82 -19 99 0 33 28 66 70 83 36 14 43 13
35 -6z m343 -404 c6 -60 -7 -81 -82 -134 -31 -22 -62 -52 -68 -67 -9 -19 -21
-28 -35 -28 -19 0 -22 4 -18 28 2 15 6 45 9 66 4 32 17 50 76 105 64 60 70 69
70 106 l0 40 22 -33 c11 -19 23 -56 26 -83z m-243 -143 c-23 -78 -17 -75 -134
-62 l-105 11 64 55 c94 80 146 137 167 184 l18 41 3 -89 c2 -58 -2 -106 -13
-140z m-347 -91 c596 -27 1094 -206 1152 -413 44 -162 -201 -329 -617 -423
l-103 -23 -67 21 c-91 29 -148 36 -205 25 -27 -5 -48 -7 -48 -3 1 19 31 41 56
41 61 0 310 42 422 71 141 36 267 95 311 144 121 138 -104 271 -585 345 -377
57 -929 51 -1277 -15 -514 -97 -646 -275 -309 -416 85 -35 274 -86 359 -95 29
-4 56 -10 58 -14 3 -4 -43 -24 -101 -44 l-106 -37 -94 26 c-143 38 -297 101
-380 157 -423 283 137 620 1091 657 105 4 219 6 255 5 36 -2 120 -6 188 -9z
m-497 -273 c-51 -60 -65 -95 -86 -209 -20 -108 -49 -157 -122 -203 -57 -37
-77 -37 -245 -4 -298 58 -481 148 -461 225 27 103 493 229 876 237 l78 2 -40
-48z m1109 -49 c162 -46 280 -117 280 -168 0 -74 -206 -161 -498 -211 -198
-33 -214 -32 -125 11 91 45 113 77 124 185 8 82 23 117 68 150 24 18 24 19 5
20 -30 0 -36 11 -17 32 19 21 27 20 163 -19z"/>
<path d="M52 748 c-28 -112 -47 -207 -43 -211 4 -4 39 -7 77 -5 l68 3 26 98
c14 53 27 97 31 97 3 0 11 -41 18 -92 6 -50 14 -95 17 -100 3 -4 23 -8 44 -8
l40 0 61 105 c34 58 62 105 64 105 1 0 -8 -44 -20 -97 -12 -54 -19 -102 -15
-106 4 -4 36 -7 71 -5 l64 3 46 180 c25 99 49 193 53 208 l7 28 -103 -3 -103
-3 -53 -98 c-30 -53 -57 -95 -62 -92 -4 2 -11 37 -14 77 -13 127 -3 118 -121
118 l-103 0 -50 -202z"/>
<path d="M681 745 c-28 -112 -51 -207 -51 -210 0 -3 36 -5 80 -5 65 0 81 3 88
18 5 9 28 96 51 192 23 96 44 183 47 193 5 15 -3 17 -79 17 l-85 0 -51 -205z"/>
<path d="M952 745 c-56 -113 -102 -207 -102 -210 0 -3 36 -5 80 -5 l80 0 79
158 c79 155 80 156 81 112 0 -25 3 -62 6 -82 l6 -37 -45 -3 -46 -3 46 -73 45
-72 76 0 75 0 -7 128 c-3 70 -9 164 -13 210 l-6 82 -126 0 -126 0 -103 -205z"/>
<path d="M1471 913 c-31 -116 -91 -364 -91 -373 0 -6 29 -10 75 -10 l74 0 10
38 c5 20 18 67 27 104 10 37 20 66 22 64 2 -2 7 -35 12 -72 20 -143 15 -134
64 -134 l44 0 57 100 c32 56 59 99 62 97 2 -2 -6 -43 -17 -91 -11 -48 -20 -91
-20 -97 0 -6 28 -9 71 -7 l72 3 48 195 c26 107 48 201 49 208 0 9 -26 12 -98
12 l-97 0 -60 -107 -60 -108 -14 108 -13 107 -104 0 -103 0 -10 -37z"/>
<path d="M2105 938 c-11 -32 -95 -379 -95 -393 0 -13 13 -15 82 -13 l82 3 48
195 c26 107 47 201 48 208 0 9 -22 12 -80 12 -56 0 -82 -4 -85 -12z"/>
<path d="M2437 600 c-9 -10 -35 -24 -59 -30 -57 -16 -68 -26 -68 -64 0 -68 -8
-70 -211 -76 l-182 -5 -12 -35 c-7 -19 -15 -47 -19 -62 -6 -28 -6 -28 49 -28
32 0 55 -4 55 -11 0 -5 -13 -64 -30 -129 -16 -65 -30 -126 -30 -135 0 -13 12
-15 82 -13 l83 3 33 143 34 142 59 0 c50 0 64 4 84 25 14 13 25 36 25 50 0 49
26 92 74 120 51 30 66 50 66 89 0 33 -13 39 -33 16z"/>
<path d="M565 418 c-11 -32 -95 -379 -95 -393 0 -13 12 -15 78 -13 l77 3 15
68 14 67 58 0 c65 0 65 1 43 -80 -8 -30 -15 -56 -15 -57 0 -2 36 -3 80 -3 l79
0 10 38 c15 54 91 371 91 377 0 3 -35 5 -77 3 l-78 -3 -20 -77 -19 -78 -58 0
c-32 0 -58 3 -58 8 0 4 7 32 15 62 25 92 26 90 -60 90 -52 0 -77 -4 -80 -12z"/>
<path d="M1025 233 c-26 -109 -50 -204 -52 -211 -4 -9 34 -12 171 -12 196 0
181 -6 200 73 l6 27 -95 0 c-94 0 -95 0 -95 25 0 24 1 24 101 27 l102 3 12 43
13 42 -100 0 c-99 0 -100 0 -94 23 3 12 6 25 6 30 0 4 45 7 100 7 l99 0 11 43
c6 23 13 50 16 60 5 16 -8 17 -174 17 l-180 0 -47 -197z"/>
<path d="M1475 220 l-105 -210 80 0 80 0 79 158 c62 122 80 150 81 127 0 -16
3 -54 6 -82 l7 -53 -42 0 c-22 0 -41 -4 -41 -9 0 -6 19 -39 41 -75 l41 -66 76
0 75 0 -7 142 c-3 79 -9 173 -13 211 l-6 67 -123 0 -124 0 -105 -210z"/>
</g>
</svg>
