<svg xmlns="http://www.w3.org/2000/svg" width="289.407" height="359.063" data-name="milwaukee bucks"><path fill="#eee1c6" d="M144.862 359.063A144.882 144.882 0 0 1 .001 214.228a143.433 143.433 0 0 1 43.252-103.226c.159-.318.477-.477.636-.636-9.541-14.47-14.947-31.485-10.813-52.158C40.55 20.364 71.239 8.915 72.511 8.438a4.2 4.2 0 0 1 5.407 2.07 5.079 5.079 0 0 1 .477 3.021A71.538 71.538 0 0 1 101.929.17a3.948 3.948 0 0 1 1.431-.162 4.357 4.357 0 0 1 2.226 8.11 75.054 75.054 0 0 0-23.057 21.628 60.772 60.772 0 0 1 13.672-1.908h.954a4.539 4.539 0 0 1 .8 8.9 81.868 81.868 0 0 0-25.444 12.57 79.043 79.043 0 0 0-3.657 23.534 76.041 76.041 0 0 0 13.357 43.248 56.9 56.9 0 0 0 6.043 7.315c-.8-15.742 3.816-40.23 32.28-51.52a5.65 5.65 0 0 1 1.59-.318 4.353 4.353 0 0 1 3.977 2.541 4.549 4.549 0 0 1-1.59 5.883h-.318a37.766 37.766 0 0 0-10.656 10.657 33.962 33.962 0 0 1 7.315-1.431h.8a4.386 4.386 0 0 1 4.134 3.021 4.758 4.758 0 0 1-1.749 5.247l-.318.159c-9.064 5.247-14.152 11.29-15.106 18.128-.954 7.315 3.18 14.311 6.043 18.287 7.633-8.9 12.562-23.852 13.834-29.576a4.626 4.626 0 0 1 4.452-3.339h.477a4.571 4.571 0 0 1 3.975 4.293c.159 18.6-4.929 31.326-10.018 39.435a39.708 39.708 0 0 0 16.7 3.975h1.113a39.26 39.26 0 0 0 16.7-3.975c-5.088-8.11-10.018-20.831-10.018-39.435a4.326 4.326 0 0 1 3.975-4.293h.477a4.626 4.626 0 0 1 4.452 3.339c1.431 5.724 6.361 20.672 13.834 29.576 3.021-3.975 7-10.972 6.043-18.287-.954-6.838-6.043-13.039-15.106-18.128l-.159-.159a4.28 4.28 0 0 1-1.908-5.247 4.112 4.112 0 0 1 4.134-3.021h.8a33.962 33.962 0 0 1 7.315 1.431 38.33 38.33 0 0 0-10.827-10.654h-.159a4.607 4.607 0 0 1-1.749-5.883 4.528 4.528 0 0 1 3.975-2.544 6.763 6.763 0 0 1 1.749.318c28.3 11.29 32.916 35.778 32.28 51.52a56.252 56.252 0 0 0 5.883-7.315 76.56 76.56 0 0 0 13.516-43.252 74.437 74.437 0 0 0-3.819-23.541c-13.355-9.533-25.122-12.555-25.281-12.555a4.5 4.5 0 0 1-3.5-4.77 4.738 4.738 0 0 1 4.293-4.134h.8a59.719 59.719 0 0 1 13.834 1.908A82.947 82.947 0 0 0 183.662 8.12a4.39 4.39 0 0 1-1.908-5.565 4.584 4.584 0 0 1 4.134-2.547 4.4 4.4 0 0 1 1.431.159 71.538 71.538 0 0 1 23.534 13.357 4.225 4.225 0 0 1 .477-3.021 4.491 4.491 0 0 1 3.971-2.383 4.643 4.643 0 0 1 1.431.318c1.272.477 31.962 11.926 39.435 49.771 4.134 20.672-1.272 37.686-10.813 52.156a1.242 1.242 0 0 1 .636.636 143.585 143.585 0 0 1 43.411 103.2c.323 79.984-64.714 144.862-144.539 144.862Z" data-name="Path 3924"/><path fill="#00471b" d="M58.041 104.164s-6.361-29.1-1.59-46.114a30.95 30.95 0 0 0-3.816 4.134c-11.609 15.107 5.406 41.98 5.406 41.98Zm173.484 0s17.014-26.873 5.406-41.98a30.948 30.948 0 0 0-3.816-4.134c4.929 17.015-1.591 46.114-1.591 46.114ZM37.369 59.323c7.156-35.778 36.573-46.432 36.573-46.432-10.654 7.95-21.789 22.898-26.237 43.887 4.452-5.406 8.428-9.7 13.2-12.88 11.924-25.76 32.278-36.255 42.454-39.435a82.119 82.119 0 0 0-30.53 32.916c15.106-5.406 24.17-4.77 24.17-4.77a85.78 85.78 0 0 0-28.146 13.994 80.443 80.443 0 0 0 9.859 72.192 73.337 73.337 0 0 0 16.06 16.7c-1.908-5.088-9.7-44.365 27.509-59.153l-.318.159a41.1 41.1 0 0 0-17.81 24.965c6.679-6.52 13.834-7.156 17.65-7.633h-.159c-34.506 19.877-7.156 46.909-7.156 46.909 10.813-9.223 17.173-29.577 18.6-35.142.159 21.626-7 34.506-11.926 40.707a42.278 42.278 0 0 0 47.068 0c-4.77-6.2-11.926-19.082-11.926-40.707 1.431 5.565 7.792 25.919 18.6 35.142 0 0 27.509-27.032-7-46.909h-.159c3.657.477 10.813.954 17.65 7.633a40.722 40.722 0 0 0-17.969-24.965l-.318-.159c37.209 14.788 29.417 54.065 27.509 59.153a73.338 73.338 0 0 0 16.06-16.7 80.443 80.443 0 0 0 9.876-72.192 85.906 85.906 0 0 0-27.986-13.993s9.064-.636 24.011 4.77a80.636 80.636 0 0 0-30.373-32.917c10.018 3.18 30.213 13.675 42.3 39.435 4.929 3.18 8.9 7.474 13.357 12.88-4.611-20.99-15.583-35.937-26.4-43.888 0 0 29.417 10.654 36.573 46.432 8.428 41.662-24.965 67.581-51.838 90l20.513-8.428c1.272-.477 2.385.8 2.067 2.385l-.636 5.088c-.318 2.862-2.385 17.014-10.177 21.149-1.59.954-4.452 2.067-13.039 2.7l-15.265.954 2.544 8.587-15.106 24.17 7.792-8.11 15.742 56.132-43.411 35.619 13.516-61.22-19.877 24.488-20.195-24.488 13.516 61.22-43.408-35.613 15.9-56.132 7.792 8.11-15.106-24.17 2.544-8.587-15.424-.954c-8.587-.636-11.449-1.749-13.039-2.7-7.792-4.134-9.859-18.287-10.177-21.149l-.477-5.088c-.318-1.59.636-2.862 2.067-2.385l20.354 8.428C62.334 126.903 29.1 100.984 37.369 59.323Zm19.084 65.354a125.846 125.846 0 0 0-35.144 113.059l37.844-10.333a86.1 86.1 0 0 0 170.3-.477l38.8 10.813a125.533 125.533 0 0 0-34.98-112.744l3.339-3.5a130.47 130.47 0 1 1-183.5-.159Zm186.841-10.495-3.021 3.657a135.638 135.638 0 1 1-190.816 0l-3.18-3.657a140.488 140.488 0 1 0 197.018 0Z" data-name="Path 3925"/><path fill="#fff" d="m134.844 306.906-7.951 10.813 3.657 19.241-4.929-.954-2.7-13.834-2.226 13.039-4.611-.8 5.247-29.895 4.611.8-1.431 8.269 5.406-7.633Zm62.81 13.516-3.975-7.474 5.247-2.862 3.975 7.474Zm-9.7-18.128 5.247-2.862 3.5 6.52-5.247 2.7Zm12.562 4.929.636-3.021-4.77-8.428-4.293-1.272-10.654 5.724 14.47 26.555 10.495-5.565 1.272-4.611-4.452-8.11Zm-47.7 25.442.159 4.929-14.629.159-.477-30.372 14.629-.159.159 4.929-10.018.159.159 7.315 9.859-.159.159 4.77-10.018.159.159 8.587Zm22.262-3.5.954 4.77-14.47 2.7-5.724-29.736 14.311-2.7.954 4.77-9.7 1.908 1.272 7.156 9.859-1.908.8 4.611-9.7 1.908 1.749 8.269Zm34.824-48.181 19.559 23.216-2.544 2.067-6.679 5.565-2.7 2.226-19.4-23.375 3.657-3.021 16.378 19.4 4.611-3.657-16.7-19.4Zm54.86-37.368-4.293 14.788-3.343-1.11-4.929-1.431 1.431-4.452 3.5 1.113 1.749-5.724-8.11-2.385-3.021 10.177-3.339-.954-13.039-3.975.954-3.18 3.5-11.449 3.339 1.113 4.77 1.431-1.431 4.452-3.5-.954-1.59 5.565 6.838 2.226 3.18-10.177 3.18.954 10.972 3.339Zm-26.877 18.766 19.4 2.544-2.385 4.293-13.994-1.747 11.608 6.2-2.067 4.293-27.032-14.311 2.226-4.293 7.474 3.975-5.565-7.474 2.385-4.452Zm5.088 20.831 2.7 2.067-7.474 9.382-2.067 2.544-20.99-16.855-2.7-2.067 9.541-11.926 2.7 2.067 4.452 3.657-2.862 3.657-3.339-2.7-3.657 4.611 16.06 12.88 3.657-4.611-3.5-2.862 3.021-3.657Zm-125.147 20.513-10.813 28.3-3.18-1.272-8.11-3.021-3.339-1.272 11.131-28.3 4.293 1.749-9.06 23.692 5.566 2.07 9.064-23.693Zm-70.757-22.262 5.724 8.11-3.975 2.862-8.587-11.926 24.806-17.81 2.7 3.816Zm11.767-31.008-28.94 9.859-1.431-4.452 18.128-6.2-8.428-.318 6.52-5.406-18.287 6.2-1.431-4.452 28.781-9.859 1.59 4.452-6.52 5.406 8.428.159Zm4.134 8.11-27.032 14.152-2.226-4.293 27.032-13.993Zm22.9 28.145-23.218 19.877-3.18-3.18 5.724-8.428-8.428 5.724-3.18-3.18 19.559-23.534 3.18 3.021-7.951 10.018 10.814-7.157 1.113.954-7.156 10.972 9.859-8.11Zm4.77 17.809-5.088-3.18 3.975-6.2 5.088 3.18Zm9.541-6.361.954-1.431-12.88-8.269v.159l-16.38 25.444 3.975 2.544 7.156-11.29 4.929 3.18-7.156 11.29 3.975 2.385 13.834-21.467Z" data-name="Path 3926"/><path fill="#fff" d="M130.71 172.222c-2.226-1.113-6.361-2.862-10.495-4.77a1.115 1.115 0 0 0-1.749.954 6.581 6.581 0 0 0 2.067 6.52c4.611 3.5 8.587 1.59 10.654-.636a1.229 1.229 0 0 0-.477-2.067Z" data-name="Path 3927"/><path fill="#fff" d="M73.942 148.211s1.59 12.562 6.838 15.583c3.5 1.908 12.244 1.749 19.877 2.385-8.428-3.339-20.991-12.244-26.715-17.968Z" data-name="Path 3928"/><path fill="#fff" d="m136.117 223.424 4.134 5.724h9.223l4.134-5.724Z" data-name="Path 3929"/><path fill="#fff" d="M215.623 148.211c-5.724 5.724-18.128 14.629-26.555 17.969 7.474-.636 16.219-.477 19.877-2.385 5.243-3.024 6.678-15.584 6.678-15.584Z" data-name="Path 3930"/><path fill="#fff" d="m153.608 190.19-4.134-13.2-4.611 2.226-4.77-2.226-3.975 13.2a17.082 17.082 0 0 1-7.156 9.064l-2.545 10.813 6.043 8.269h6.52l-6.042-8.746 1.113-5.565a14.886 14.886 0 0 0 10.813 4.77 14.305 14.305 0 0 0 10.813-4.77l.954 5.565-5.883 8.746h6.361l6.043-8.269-2.385-10.813a17.082 17.082 0 0 1-7.156-9.064Z" data-name="Path 3931"/><path fill="#fff" d="m169.35 167.293-10.336 4.77a1.384 1.384 0 0 0-.477 2.226c2.067 2.067 6.043 3.975 10.654.477a6.3 6.3 0 0 0 2.226-6.52 1.654 1.654 0 0 0-2.067-.953Z" data-name="Path 3932"/></svg>