<svg xmlns="http://www.w3.org/2000/svg" width="290.02" height="214.842" data-name="minnesota timberwolves"><path d="M181.843 148.933c0 1.922 1.361 3.763 3.123 3.763 1.682 0 3.123-1.842 3.123-3.763s-1.361-3.763-3.123-3.763-3.123 1.842-3.123 3.763m-88.239 25.143c-.08-2.242-.8-2.963-1.922-3.2v6.566a4.891 4.891 0 0 0 1.121-.561 3.3 3.3 0 0 0 .8-2.8m5.925 8.087a12.561 12.561 0 0 1 3.523 4.564l-.08-10.81a12.65 12.65 0 0 1-3.443 6.246m24.582-16.174-.721 5.285-.48 3.523-2.722-2.322-2.642-2.322-4.084-.08c0 2.082.08 5.365.08 7.367h10.329l-1.281 2.8-2.883 6.166-.721 1.6-1.682-.561-3.761-1.28-.08 9.849 3.283-.08 5.365-3.6 3.043-2.082v10.169l.56-1.281-.241-30.275-1.361-2.883Zm62.3 6.246a2.262 2.262 0 0 0-.48.4c-1.2 1.361-2.482 5.285-2.482 10.81 0 7.367 2.162 11.29 2.963 11.29a1.313 1.313 0 0 0 .881-.561c.961-1.121 2.082-5.685 2.082-10.73 0-5.445-1.281-9.448-2.482-10.73a1.878 1.878 0 0 0-.48-.48m-50.37 27.059 1.441 2.963.561 1.2.4-1.041.961-2.562-3.523-7.046Zm.24-28.666c-.08 1.842-.16 4.8-.16 6.886 1.281-.721 2-2.162 2.082-4.4a2.947 2.947 0 0 0-.881-2 1.787 1.787 0 0 0-1.041-.48M92.723 187.77a4.892 4.892 0 0 0-1.121-.561v8.568a2.077 2.077 0 0 0 1.121-.48 4.863 4.863 0 0 0 1.682-3.923 4.567 4.567 0 0 0-1.682-3.6m-40.757-21.065-1.842-2.322-1.042-1.361-.56 1.121-1.44 2.642v30.828l.08.4Z" data-name="Path 3696"/><path d="M280.331 174.797s7.286-15.214 7.286-15.294a.28.28 0 0 0-.08-.16l-.32-.4c-.32-.32-7.046-8.728-15.214-9.769l-.961-.08-4.484-8.408 1.361-.32a16.134 16.134 0 0 0 3.6-1.121 1.152 1.152 0 0 0 .24-.16c-.08-.08-11.851-19.938-11.851-19.938l1.281-.4a22.229 22.229 0 0 0 2.162-.721 1.152 1.152 0 0 0 .24-.16c-.08-.16-22.1-40.676-22.18-40.837-.16.24-14.573 26.744-14.573 26.744s-11.53-21.219-11.61-21.379c-.08.16-3.683 6.806-3.683 6.806l-.48-3.043a27.352 27.352 0 0 0-2.322-7.767 51.589 51.589 0 0 0-6.406-9.769l-1.842-2.322 2.883.641a21.329 21.329 0 0 1 4.8 1.6s2.642 1.281 2.8 1.361c-.08-.32-.641-3.043-.641-3.043a25.017 25.017 0 0 0-6.886-12.491l-2.469-2.56 4.884 1.121s3.443.961 3.683 1.041c-.24-.32-1.842-3.283-1.842-3.283a30.854 30.854 0 0 0-8.725-10.169l-.641-.48.32-.8c5.285-12.972 8.007-22.981 8.007-29.627 0-5.445-1.842-7.046-2.562-7.527l-.4-.24a.078.078 0 0 1-.08-.08 5.1 5.1 0 0 0-.561.16c-1.521.32-5.2 2.8-13.372 8.327-4.4 2.963-9.288 6.326-12.811 8.488a39.78 39.78 0 0 1-10.169 4.564l-.881.24-.32-.881a23.826 23.826 0 0 1-1.121-6.246s-.08-2.482-.16-2.642c-.24.16-2.242 1.441-2.242 1.441a23.108 23.108 0 0 0-5.285 6.005l-.8 1.2-.881-1.2a32.146 32.146 0 0 0-6.005-6.326s-3.283-2.562-3.523-2.722c.08.48 1.041 4.324 1.041 4.324v.721l-.16 3.2-1.6-1.2c-2.963-2.242-6.566-4.324-6.886-4.564 0 0-2.482-1.441-2.642-1.521 0 .32.16 1.441.16 1.441l.4 3.763-1.842-1.2a40.693 40.693 0 0 0-9.448-4.484s-2.883-.881-3.043-.881c.16.32 1.2 2.963 1.2 2.963a21.385 21.385 0 0 1 1.121 4.484l.32 1.922-1.762-.881A233.15 233.15 0 0 1 97.527 5.285q-4.084-3-6.486-1.682c-2.159 1.122-2.159 4.164-2.159 5.125v.881c.4 9.448 5.525 23.461 7.687 29.066l.32.8-.721.48a43.923 43.923 0 0 0-11.69 10.97s-1.762 2.482-1.842 2.642c.32 0 3.2-.24 3.2-.24l4.644-.08-2.322 1.842a37.448 37.448 0 0 0-8.728 10.249s-1.6 3.043-1.682 3.2c.4-.08 3.523-1.041 3.523-1.041a29.861 29.861 0 0 1 4.644-.961l2.562-.32-1.6 2a33.065 33.065 0 0 0-6.565 13.458 36.127 36.127 0 0 0-.8 4.244l-.4 3.2s-3.6-6.726-3.683-6.886c-.08.16-11.61 21.379-11.61 21.379s-14.973-26.344-15.053-26.5c-.16.24-22.1 40.676-22.18 40.837a.991.991 0 0 1 .24.16 11.168 11.168 0 0 0 2.162.721l1.281.4s-11.773 19.856-11.853 19.933a.992.992 0 0 1 .24.16 11.927 11.927 0 0 0 3.6 1.121l1.361.32-4.564 8.568H2.482c0 .08 4.884 31.388 4.884 31.548l5.925-3.924.16 20.819s-5.2 14.973-5.285 15.134h32.11c-.08-.24-.8-2.482-.8-2.482h219.4l.24.08a26.3 26.3 0 0 0 13.452 2.242c3.523-.4 15.053-3.2 15.053-20.979 0-7.767-4.724-14.093-6.806-16.415l-.48-.561Zm-48.2-60.134-4.4-.561 13.932-25.623 9.529 26.344-4.084.56c2.242 4.724 7.367 16.335 9.448 20.178l-4.324.881 6.406 13.612c-2.963 1.121-5.125 4.724-5.125 4.724l-5.845.08-6.886-17.936-20.658-.08 12.011-22.18Zm-1.6 40.6h-2.722l-1.121-2.4h-4.084l-1.121 2.4h-2.562l5.765-13.052Zm-15.138-63.981 4 19.618-3.363.48 2.562 16.575-4.164.32-.881 8.648h-15.61l2.162-4.164 2.642-4.964-4-.641 6.326-10.65 3.043-5.2-3.363-.4ZM201.14 145.41l.641-2.883h7.367v2.883h-2.642v9.852h-2.644v-9.849h-2.722ZM168.631 28.262c9.849-3.283 24.742-14.173 24.822-14.253 4.564-3.763 6.085-4.964 6.966-4.564a1.389 1.389 0 0 1 .8 1.281s-3.443 18.176-10.81 29.546c0 0 6.406 2.322 9.689 7.687 0 0-6.806-.16-10.169.561 3.523 2.082 11.771 9.689 14.093 13.772a69.625 69.625 0 0 0-13.932-.641c.561.48 4 4.164 4.564 4.644C201.3 71.9 207.225 80.548 206.905 94.4l-.64-3.838a46.33 46.33 0 0 0-15.534-24.182c-1.121-.961-6.886-5.525-7.767-6.326 0 0 4.164-.561 5.685-.8 2.482-.4 7.367-.16 9.849-.08-4.324-4.644-14.493-11.53-14.653-11.61l-.8-.4c4.084-1.361 11.69-.961 12.011-.961a28.676 28.676 0 0 0-7.607-5.365c7.846-11.776 10.488-27.626 10.568-27.626-.08 0 .961-1.762-3.523 2.322-.48.32-5.045 4.244-11.05 9.929l2.322 3.6a116.362 116.362 0 0 1-13.052 2.4l5.925 5.845c-5.445-2.4-10.169-6.166-16.014-6.806 2.242-.881 4.084-1.6 6.005-2.242m27.144 95.766-3.443.24-1.281 12.571h-13.691l4.244-8.087 2.162-4.084-3.283-.48 5.2-8.728 2.562-4.244-2.8-.32 8.728-16.014 2.642 15.774-2.8.4 1.762 12.972Zm-5.045 24.9c0 3.683-2.642 6.646-5.765 6.646s-5.765-2.963-5.765-6.646 2.642-6.646 5.765-6.646 5.765 2.963 5.765 6.646m-31.707-96.639c.24 1.6.8 3.2 1.121 2.722.8-1.361 5.925-3.924 5.925-3.924s-1.842 3.2-1.041 2.722c1.121-.641 3.843.721 3.843.721-7.607 2.963-13.612 6.406-15.934 10.89-.24-2.162 5.845-14.733 6.085-13.132m-11.129 95.126v2.722h-2.8v2.482h4.244l-.641 2.722h-6.246v-12.73h6.085l.48 2.722h-3.923v2.242h2.8Zm-17.3-4.964v13.132l-7.126-7.287v6.969h-2.642v-13.054l7.046 7.126v-6.966h2.722v.08Zm21.7-36.192a3.9 3.9 0 0 0-2.082-1.762 3.02 3.02 0 0 1 .8-1.521c.56-.4.881-.8 1.521-.561 0 0 1.6.8 1.6 4.564 0 2.963-1.6 3.924-1.6 3.924s.641-3.2-.24-4.644m-7.367 18.336c-4.324-.24-6.085-4.644-6.326-8.327s.561-5.125 2.642-5.2 3.043 2.482 3.2 3.6a6.225 6.225 0 0 0 .56 2.082v.08a9.629 9.629 0 0 0 .561-2.082c.08-1.121 1.121-3.683 3.2-3.6s2.8 1.521 2.642 5.2c-.4 3.683-2.162 8.087-6.486 8.247m2.963 7.767c-.56.721-1.441 0-1.441 0a1.621 1.621 0 0 1-1.682.08 1.621 1.621 0 0 1-1.682-.08s-.8.721-1.441 0c-1.121-1.361-.32-3.443-.32-3.443s.24 2.242 1.682 2.4l.961-1.682.8 1.762.8-1.762.961 1.682c1.441-.16 1.682-2.4 1.682-2.4s.8 2.082-.32 3.443m-11.13-21.379s-1.6-.961-1.6-3.924c0-3.843 1.6-4.564 1.6-4.564.641-.24.961.08 1.521.561a3.02 3.02 0 0 1 .8 1.521 3.9 3.9 0 0 0-2.082 1.762c-.881 1.361-.24 4.644-.24 4.644m1.521 12.491s-.8 3.843 1.682 4.084c0 0 .4-.08.4 1.361s-.881 2-1.2 2-2-.8-2-3.924a5.056 5.056 0 0 1 1.121-3.523m1.121-18.657c.32-.8 2.162-.32 2.642.561a1.871 1.871 0 0 1 2.642.08 1.871 1.871 0 0 1 2.642-.08c.4-.881 2.322-1.281 2.642-.561a4.248 4.248 0 0 1-1.121 2.8s-.641-1.441-1.2-1.521c0 0-1.121 1.441-1.521 2l-1.441-1.762-1.441 1.762c-.4-.56-1.521-2-1.521-2-.561.08-1.2 1.521-1.2 1.521a4.248 4.248 0 0 1-1.121-2.8m10.249 22.74c2.482-.24 1.682-4.084 1.682-4.084a5.256 5.256 0 0 1 1.2 3.523c0 3.043-1.682 3.924-2 3.924-.4 0-1.2-.56-1.2-2-.08-1.441.32-1.361.32-1.361m15.774-63.257 1.762-1.2a4.481 4.481 0 0 1-1.762 5.365c-3.283 2.482-5.365-1.121-5.365-1.121l1.441-.961a2.63 2.63 0 0 0 2.883.32 1.948 1.948 0 0 0 1.041-2.4m-5.039 81.911a3.873 3.873 0 0 1 3.924-3.923 5.136 5.136 0 0 1 3.443 1.441l-1.441 2.162a2.5 2.5 0 0 0-1.922-.961c-.48 0-1.2.32-1.2.961 0 2 4.8.721 4.8 5.365a3.926 3.926 0 0 1-4.164 4.244 5.264 5.264 0 0 1-3.763-1.521l1.6-2.4a2.3 2.3 0 0 0 2 1.041c.56 0 1.441-.32 1.441-1.121.16-1.922-4.724-.721-4.724-5.285m-75.58-60.452s2.886-14.978 14.333-23.866c0 0 2.082-.881-10.249-1.121a40.614 40.614 0 0 1 14.013-10.97 43.886 43.886 0 0 0-10.249-.48s3.843-7.447 17.215-9.448l1.041-.16c-.881-1.521-2.963-.881-3.843-2.4-.48-.8 11.69-3.763 11.29-4.564-.56-.961-10.81-3.523-11.37-4.4-.32-.561 3.683-2.242 3.443-2.8-.32-.48-2.562-1.682-4.564-3.123-2-1.361-3.843-2.883-4-2.883-1.762.4.561 17.536.641 18.5a14.4 14.4 0 0 1-1.762.48c-.961-.961-8.888-24.742-7.126-28.906.24-.641 1.281-.24 5.125 2.642 16.094 12.251 30.027 15.294 30.027 15.294a44.485 44.485 0 0 0 0-7.687c6.246 2.4 9.849 9.288 9.849 9.288l.24-.641a32.446 32.446 0 0 0 1.2-6.886c3.043 1.842 5.925 6.726 5.925 6.726s.961 9.849-1.521 15.053c-1.441 2.963-6.166 4.884-10.489 4.564a13.887 13.887 0 0 0 2.963 2.8 16.021 16.021 0 0 0 3.123 1.6s-3.763 2.722-12.331.8c-.8.08 4.244 5.045 11.53 8.087 3.443 1.521 5.2 7.126.641 7.206 0 0 3.683 4.244 4.084 7.287l.56 3.043a6.853 6.853 0 0 0-5.045-2.722 4.925 4.925 0 0 0-1.041-.08h-.16a2.468 2.468 0 0 0-.8.08c-.16 0-.32.08-.48.08a.481.481 0 0 0-.32.08c-.16.08-.32.08-.48.16-.08 0-.16.08-.24.08l-.48.24a.078.078 0 0 0-.08.08 5.578 5.578 0 0 0-1.361 1.2 7.3 7.3 0 0 1 4.164.4c6.966 2.322 6.085 11.851 6.486 13.452a7.841 7.841 0 0 0-4.252-1.285 1.763 1.763 0 0 0-.641.08 2.338 2.338 0 0 0-.721.16h-.08a2.4 2.4 0 0 0-.641.32.28.28 0 0 1-.16.08 2.124 2.124 0 0 0-.48.4l-.16.16-.4.4-.24.24a1.751 1.751 0 0 0-.24.4c-.08.16-.16.24-.24.4-.08.08-.08.16-.16.32-.08.24-.16.4-.24.641v.08a2.724 2.724 0 0 0-.08.8 5.242 5.242 0 0 0 .8 2.8 7.722 7.722 0 0 0 1.361 1.682 4.361 4.361 0 0 1 1.041 1.361c0 .16-.16.24-.721.16a9.8 9.8 0 0 1-6.726-9.208c-.16-4.164.881-6.326 2.322-6.886.08 0 .24-.08.32-.08 2.4-.561 5.605 1.441 5.605 1.441a5.679 5.679 0 0 0-1.121-1.521 7.621 7.621 0 0 0-3.763-2.082 4.924 4.924 0 0 0-2.162 0c-2 .48-3.6 2.242-4.724 4.724a12.318 12.318 0 0 0-.961 3.763 9.2 9.2 0 0 0-.08 1.521 12.263 12.263 0 0 0 .641 4c1.041 3.443 2.082 7.447 3.283 9.929 4.644 9.288 4.8 15.214 4.564 20.578v1.121a3.468 3.468 0 0 0 .08.4c0 .16.08.4.08.561s.08.24.08.4c.08.16.08.32.16.48.08.08.08.24.16.32l.24.48c.08.08.16.16.16.24.08.16.24.24.32.4l.24.24a1.406 1.406 0 0 0 .4.32c.08.08.16.16.24.16.16.08.32.24.48.32.08.08.16.08.24.16a3.9 3.9 0 0 0 .561.24c.08 0 .16.08.24.08.24.08.4.16.641.24.08 0 .08.08.16.08a12.8 12.8 0 0 0 1.682.4.481.481 0 0 1 .32.08c.16 0 .32.08.48.08a55705.25 55705.25 0 0 1 .8.16h2.4c5.605 0 7.607-3.283 7.927-7.687.4-5.045-.48-11.21 4.564-20.178 1.922-3.363-1.6 2.642-1.842 12.251-.24 9.208 0 19.3-11.771 19.538h-1.842a9.64 9.64 0 0 1-7.046-3.6 9.4 9.4 0 0 1-1.2-2.162c-2-4.724-1.361-11.13-2.562-15.053a53.69 53.69 0 0 0-4-9.368c-.961-1.762-1.682-2.8-1.682-2.8a16.234 16.234 0 0 0 1.441 7.687 21.159 21.159 0 0 1 1.682 8.167v.4a7.1 7.1 0 0 0-3.283-1.521c0 .08.08.16.08.24a43.142 43.142 0 0 1 1.521 7.126l.24 1.682a24.394 24.394 0 0 0 2 6.646 7.8 7.8 0 0 1 .4.881h-13.929l-5.122-9.602h.08a10.956 10.956 0 0 0 3.123-.881l-7.447-12.571s.4-.08.881-.16a5.855 5.855 0 0 0 1.521-.561L95.926 87.519l-9.288 17.055-2.4-4.484-1.441-2.883a111.09 111.09 0 0 1 2-11.45m3.685 28.666a10.573 10.573 0 0 0 1.041-.24 8.766 8.766 0 0 0 1.842-.721l-2.8-5.2 7.367-13.612 5.285 16.415-2.722.4 4.724 13.452h-3.6l2.562 11.851h-5.374l-3.2-6.005h.16a11.911 11.911 0 0 0 3.843-1.121l-9.128-15.219Zm10.65 27.865 7.126 7.126v-6.966h2.642v13.132l-7.046-7.287v6.969h-2.725v-12.974Zm-11.85 12.974h-2.727v-12.894h2.727Zm-12.5-63.98 6.406 20.018-3.363.4 5.765 16.415h-4.4l1.842 8.647h-3.843l-10.65-17.936s.641-.08 1.441-.24a9.711 9.711 0 0 0 2.4-.881l-3.198-5.843.08-.16h-.16l-1.682-3.123Zm-10.89 51.006 3.443 7.767 3.523-7.767 2.883 13.132h-2.718l-.961-5.925-2.8 6.085-2.562-6.085-.961 5.845h-2.8l2.963-13.052Zm-37.794-5.445 12.571-21.539-4.244-.961L48.523 88.4l8.408 26.344-4.4.561 6.966 21.539H44.92l-4.4 12.811H23.701l7.206-12.811h-4.8Zm253.667 60.534a12.135 12.135 0 0 1-9.283 9.685c-6.886 1.682-11.931-2.562-13.372-4.084v2h-24.262l.8-2.482 1.521-5.125-.16-27.7-9.689 36.353-.4 1.521h-2.963l-.4-1.521-10.089-39.155-1.842-2.162-1.121 2.082v29.146h.32l5.365-3.6 3.043-2.082v14.809h-21.378l.8-2.562 1.521-4.8v-4.564a18.874 18.874 0 0 1-3.923 8.247 10.571 10.571 0 0 1-16.175 0c-2.963-3.443-4.644-8.808-4.724-15.534l-4 20.1-.32 1.682h-2.883l-.48-1.361-3.924-11.05-3.924 11.05-.48 1.361h-2.883l-.32-1.682-6.726-32.829a29.14 29.14 0 0 1-.24 3.6 12.552 12.552 0 0 1-4 7.367l8.728 18.176 1.361 2.8H100.73l.8-2.482 1.521-5.125v-.8a13.112 13.112 0 0 1-2.8 4.8c-4 4.164-10.409 3.924-14.653 3.763-.721 0-1.361-.08-1.922-.08H71.424l-.16-1.762-1.2-12.251-4 14.973-.4 1.521h-2.968l-.4-1.521-3.684-14.487-1.2 11.69-.16 1.762H34.431l.8-2.562 1.521-4.8-.16-30.908-.32-.56-.08.8-.48 3.523-2.722-2.242-3.763-3.123-.32 33.87 1.922 5.845.8 2.562H16.094l.8-2.562 1.842-5.845-.16-34.271h-.08l-4.084 3.443-2.722 2.242-.48-3.523-1.2-8.968-.32-2.242h28.024l-.32 2.242-.4 3.2h25.221l.24 1.6 1.842 10.65 1.922-10.65.32-1.6h10.73l3.043-.08h1.121c2.4-.08 6.406-.16 8.968-.08s10.73 1.121 12.491 9.769v-2.242l-1.922-4.564-1.121-2.722h24.822v.08h11.05a13.464 13.464 0 0 1 6.886 1.682l-1.441-1.6H156.3l.24 1.682 1.842 12.888 1.6-6.246 1.682-6.726 2.082 6.566 1.922 6.246 1.361-12.811.16-1.762h14.653l-2.8 3.2-1.842 2.082-.4 1.922a15.84 15.84 0 0 1 2.562-3.924 9.135 9.135 0 0 1 6.806-3.443c5.445 0 10.009 6.005 11.851 14.733v-8.968l-2-2.482-2.482-3.123h28.025l.24 1.6 1.842 11.21 1.922-11.21.24-1.6h31.068l-.32 2.242a11.514 11.514 0 0 1 8.167-7.527c8.087-2 13.612 4.244 13.852 4.564l.8.961-.561 1.121-4.324 8.728-2.162 4.4-1.441-4.724-1.521-5.125a2.251 2.251 0 0 0-1.521-.641 1.707 1.707 0 0 0-1.922 1.281 7.726 7.726 0 0 0 .32 4.564 20.431 20.431 0 0 0 4.4 5.045 35.3 35.3 0 0 1 6.806 7.847 15.821 15.821 0 0 1 2.322 13.372" data-name="Path 3697"/><path d="M223.24 150.535h2.883l-1.441-3.123Zm33.87 48.363 3.6-7.206 2.162-4.4 1.441 4.724 1.521 5.045a3.3 3.3 0 0 0 1.682.721 3.709 3.709 0 0 0 2.4-1.521c1.041-1.922.24-4.164-.721-6.085a35.116 35.116 0 0 0-4.564-5.525c-2.482-2.722-5.365-5.685-6.966-8.648a17.312 17.312 0 0 1-2-6.246l-.24 1.6-.48 3.523-2.722-2.322-2.642-2.322-4.084-.08c0 2.082.08 5.365.08 7.367h10.332l-1.281 2.8-2.883 6.166-.721 1.6-1.682-.561-3.763-1.281-.08 9.849 3.283-.08 5.365-3.6 3.043-2.082v3.678l-.08 4.884ZM80.873 168.312l-2.164-4.325a3.366 3.366 0 0 1-.16-.4l-.4.641-1.441 2.4 4.964 32.269-.799-30.585Z" data-name="Path 3698"/><path fill="#8e9090" d="m290.02 159.183-1.2-1.6c-.32-.4-7.447-9.288-16.415-10.489-.16-.32-1.922-3.6-2.722-5.125a11.66 11.66 0 0 0 2.883-1.041l2-1.2-1.2-2s-8.007-13.452-10.329-17.376a9.317 9.317 0 0 0 1.2-.48l2.162-1.121-1.2-2.162-23.863-43.884S229.806 94 226.763 99.449c-.08-.08-11.61-21.379-11.61-21.379s-2.4 4.4-2.722 5.045a25.036 25.036 0 0 0-1.922-5.525 49.645 49.645 0 0 0-4.724-7.607 10.111 10.111 0 0 1 1.361.56l2.242 1.121 4.244 2.082-.962-4.646-.48-2.482a26.321 26.321 0 0 0-5.2-10.89c.561.16 6.646 2 6.646 2l-4.4-7.767a32.538 32.538 0 0 0-8.736-10.326c5.2-12.892 7.847-22.9 7.847-29.627 0-6.326-2.242-8.568-3.6-9.288L203.542 0l-1.361.32c-1.842.4-5.125 2.562-14.013 8.648-4.4 2.963-9.288 6.326-12.811 8.408a40.171 40.171 0 0 1-8.648 4 27.836 27.836 0 0 1-.721-4.724l-.08-2.162-.24-4.084-5.2 3.363a19.972 19.972 0 0 0-5.045 5.445 33.551 33.551 0 0 0-5.525-5.605l-8.247-6.406s2.082 8.408 2.4 9.448c-2.562-1.762-5.045-3.2-5.365-3.443l-6.166-3.6s.48 4.8.561 4.964a45.75 45.75 0 0 0-8.167-3.6l-7.206-2.162 2.8 6.966a10.122 10.122 0 0 1 .56 2 219.166 219.166 0 0 1-22.66-13.852C94.965 1.441 92.082.8 89.76 2.082c-3.2 1.762-3.2 5.685-3.2 6.966v.961c.4 9.368 5.2 22.82 7.527 28.906a52.862 52.862 0 0 0-11.61 10.97L78.15 56.13l4.964-.32a11.838 11.838 0 0 1 1.281-.08 38.538 38.538 0 0 0-7.046 8.97l-1.361 2.64-2.562 4.96 8.167-2.4a11.487 11.487 0 0 1 1.762-.32 37.214 37.214 0 0 0-5.365 12.013c-.16.48-.16 1.041-.32 1.6-.24-.4-2.642-4.8-2.642-4.8s-10.17 18.334-11.691 21.136L48.764 72.785l-2.082 3.843-22.9 42.118 2.162 1.121a9.322 9.322 0 0 0 1.2.48c-1.2 2-11.53 19.377-11.53 19.377l2 1.2a11.66 11.66 0 0 0 2.883 1.041s-2.242 4.244-2.722 5.125H0l.4 2.722 5.365 34.431s4.4-2.963 5.445-3.6c0 3.043.16 16.335.16 16.655-.08.32-6.085 17.536-6.085 17.536h37.874s-.641-2-.8-2.482h216.112a28.293 28.293 0 0 0 14.333 2.322c3.923-.48 16.815-3.523 16.815-23.061 0-8.007-4.484-14.413-6.886-17.215.561-.961 7.287-15.214 7.287-15.214m-2.482 32.509c0 17.776-11.53 20.578-15.053 20.979a27.21 27.21 0 0 1-13.452-2.242l-.24-.08H39.4s.721 2.322.8 2.482H8.247c.08-.16 5.285-15.134 5.285-15.134l-.16-20.819s-5.765 3.843-5.925 3.924c0-.16-4.884-31.468-4.884-31.548h16.574l4.564-8.568-1.361-.32a16.134 16.134 0 0 1-3.6-1.121.99.99 0 0 0-.24-.16c.08-.08 11.851-19.938 11.851-19.938l-1.281-.4a22.233 22.233 0 0 1-2.162-.721.99.99 0 0 0-.24-.16c.08-.08 22.02-40.516 22.18-40.837.08.16 14.573 26.744 14.573 26.744s11.53-21.219 11.61-21.379c.08.16 3.683 6.886 3.683 6.886l.4-3.2a33.254 33.254 0 0 1 .8-4.244 34.651 34.651 0 0 1 6.566-13.452l1.682-2-2.562.315a22.79 22.79 0 0 0-4.644.961s-3.123.961-3.523 1.041c.08-.24 1.682-3.2 1.682-3.2a34.261 34.261 0 0 1 8.724-10.252l2.322-1.842-4.644.08s-2.883.16-3.2.24c.16-.16 1.842-2.642 1.842-2.642a46.811 46.811 0 0 1 11.69-10.97l.721-.48-.32-.8c-2.166-5.606-7.21-19.619-7.691-29.067v-.881c0-.961 0-4 2.162-5.125 1.6-.881 3.683-.32 6.486 1.682a241.5 241.5 0 0 0 24.822 14.973l1.762.881-.24-1.922a17.351 17.351 0 0 0-1.121-4.484s-1.041-2.642-1.2-2.963c.16.08 3.043.881 3.043.881A40.6 40.6 0 0 1 133.8 17.3l1.842 1.2-.4-3.763s-.16-1.121-.16-1.441c.16.08 2.642 1.521 2.642 1.521a82.185 82.185 0 0 1 6.886 4.564l1.6 1.2.16-3.2v-.721s-.961-3.843-1.041-4.324c.24.16 3.523 2.722 3.523 2.722a32.145 32.145 0 0 1 6.005 6.326l.881 1.2.8-1.2c2-3.043 3.843-5.125 5.285-6.005 0 0 2-1.281 2.242-1.441 0 .16.16 2.642.16 2.642a23.828 23.828 0 0 0 1.121 6.246l.32.881.881-.24a41.027 41.027 0 0 0 10.171-4.567c3.523-2.082 8.488-5.525 12.811-8.488C197.7 4.884 201.38 2.4 202.9 2.082l.561-.16.08.08.4.24c.8.48 2.562 2.082 2.562 7.527 0 6.646-2.722 16.655-8.007 29.627l-.32.8.641.48a31.8 31.8 0 0 1 8.808 10.169s1.682 2.963 1.842 3.283c-.24-.08-3.683-1.041-3.683-1.041l-4.884-1.12 2.482 2.562a25.017 25.017 0 0 1 6.886 12.491s.561 2.722.641 3.043c-.16-.08-2.8-1.361-2.8-1.361a27.026 27.026 0 0 0-4.8-1.6l-2.883-.641 1.842 2.322a51.589 51.589 0 0 1 6.406 9.769 26.594 26.594 0 0 1 2.322 7.767l.48 3.043s3.6-6.646 3.683-6.806c.08.16 11.61 21.379 11.61 21.379s14.413-26.5 14.573-26.744c.08.16 22.1 40.676 22.18 40.837a1.152 1.152 0 0 1-.24.16 11.166 11.166 0 0 1-2.162.721l-1.281.4s11.771 19.858 11.851 19.938a1.152 1.152 0 0 1-.24.16 11.926 11.926 0 0 1-3.6 1.121l-1.361.32 4.484 8.408.961.08c8.167 1.041 14.893 9.448 15.214 9.769l.32.4a.28.28 0 0 1 .08.16c0 .08-7.286 15.294-7.286 15.294l.48.48c2.082 2.162 6.806 8.488 6.806 16.255" data-name="Path 3699"/><path fill="#8e9090" d="m86.714 104.894 9.288-17.055 13.612 25.142a5.855 5.855 0 0 1-1.521.56c-.48.08-.881.16-.881.16l7.447 12.571a11.709 11.709 0 0 1-3.123.881h-.08l5.125 9.609h8.648c-3.443-5.365-2.322-16.975-7.126-27.064a61.418 61.418 0 0 1-3.2-8.007 29.333 29.333 0 0 0-2.8 2.562 23.627 23.627 0 0 1 .561-13.132 14.845 14.845 0 0 0-6.085 5.125s-2.322-5.045 1.121-13.052a17.321 17.321 0 0 1 10.249-9.529 8.657 8.657 0 0 1-4.724-6.566c-.8-4.4 2.322-11.45 2.322-11.45 5.045 4.8 11.69 7.046 16.335 10.65 4.484 3.443 5.525 6.646 5.525 6.646h-.08a10.648 10.648 0 0 1 2.162 3.443 6.989 6.989 0 0 1 5.045 2.722l-.561-3.043c-.32-3.043-4.084-7.287-4.084-7.287 4.564-.08 2.8-5.685-.641-7.206-7.287-3.123-12.251-8.007-11.53-8.087 8.568 1.922 12.331-.8 12.331-.8a16.021 16.021 0 0 1-3.123-1.6 16.756 16.756 0 0 1-2.963-2.8c4.244.24 9.048-1.6 10.489-4.564 2.482-5.2 1.521-15.053 1.521-15.053s-2.963-4.884-5.925-6.726a32.446 32.446 0 0 1-1.2 6.886l-.24.641s-3.6-6.886-9.849-9.288a44.241 44.241 0 0 1 0 7.687s-13.932-3.043-30.027-15.294c-3.843-2.883-4.884-3.283-5.125-2.642-1.762 4.164 6.166 27.945 7.126 28.906 0 0 1.762-.32 1.762-.48-.08-.881-2.4-18.016-.641-18.5.16-.08 2 1.521 4 2.883s4.244 2.562 4.564 3.123-3.683 2.242-3.443 2.8c.561.961 10.81 3.443 11.37 4.4.48.8-11.69 3.763-11.29 4.564.881 1.521 2.963.881 3.843 2.4l-1.041.16c-13.292 2.082-17.215 9.448-17.215 9.448a43.886 43.886 0 0 1 10.249.48A39.6 39.6 0 0 0 88.88 61.094c12.331.24 10.169 1.121 10.169 1.121-11.451 8.888-14.335 23.862-14.335 23.862a99.428 99.428 0 0 0-2 11.771l1.441 2.883Z" data-name="Path 3700"/><path fill="#8e9090" d="M139.965 86.478s-3.123-2-5.605-1.441c2 .4 4.564 3.523 5.445 5.925.24 0 .4-.08.641-.08a7.841 7.841 0 0 1 4.244 1.281c-.4-1.521.48-11.05-6.486-13.452a7.3 7.3 0 0 0-4.164-.4c6.326 1.361 5.925 8.087 5.925 8.167m5.685 49.885a3.771 3.771 0 0 1-.961 2.162c11.69-.24 11.53-10.329 11.771-19.537.24-9.689 3.763-15.694 1.842-12.251-5.045 8.968-4.164 15.053-4.564 20.178-.32 4.4-2.322 7.687-7.927 7.687h-1.041a3.075 3.075 0 0 1 .881 1.762m23.221-81.833s-2.722-1.361-3.843-.721c-.8.48 1.041-2.722 1.041-2.722s-5.125 2.562-5.925 3.924c-.32.48-.8-1.121-1.121-2.722-.24-1.6-6.406 10.97-6.085 13.132 2.322-4.484 8.327-7.927 15.934-10.89" data-name="Path 3701"/><path fill="#005083" d="M172.875 31.467a95.8 95.8 0 0 0 13.052-2.4l-2.322-3.6c6.005-5.685 10.569-9.609 11.05-9.929 4.484-4.084 3.523-2.322 3.523-2.322-.08 0-2.8 15.854-10.569 27.625a26.742 26.742 0 0 1 7.607 5.365c-.32 0-7.927-.4-12.011.961l.8.4c.08.08 10.329 6.966 14.653 11.61-2.482-.08-7.367-.32-9.849.08-1.521.24-5.685.8-5.685.8.881.881 6.726 5.445 7.767 6.326a46.817 46.817 0 0 1 15.534 24.182l.641 3.843c.24-13.772-5.685-22.42-12.251-28.105-.561-.48-4-4.164-4.564-4.644a69.685 69.685 0 0 1 13.932.641c-2.322-4.084-10.569-11.69-14.093-13.772 3.363-.721 10.169-.561 10.169-.561-3.283-5.365-9.689-7.687-9.689-7.687 7.287-11.37 10.81-29.546 10.81-29.546a1.55 1.55 0 0 0-.8-1.281c-.881-.4-2.4.8-6.966 4.564-.08.08-15.053 10.97-24.822 14.253-1.922.721-3.763 1.441-5.845 2.242 5.845.721 10.489 4.484 16.014 6.806l-6.086-5.851Z" data-name="Path 3702"/><path fill="#fdd420" d="M164.387 66.697a2.529 2.529 0 0 1-2.8-.32l-1.444.964s2.082 3.523 5.365 1.121a4.476 4.476 0 0 0 1.762-5.365l-1.762 1.2a2.145 2.145 0 0 1-1.121 2.4" data-name="Path 3703"/><path fill="#fff" d="M139.085 104.494a3.021 3.021 0 0 0-.8-1.521c-.561-.4-.881-.8-1.521-.56 0 0-1.6.8-1.6 4.564 0 2.963 1.6 3.924 1.6 3.924s-.641-3.283.24-4.724a4.564 4.564 0 0 1 2.082-1.682m0 26.424c.32 0 1.2-.561 1.2-2s-.4-1.361-.4-1.361c-2.482-.24-1.681-4.084-1.681-4.084a5.256 5.256 0 0 0-1.2 3.523c.08 3.123 1.762 3.924 2.082 3.924m15.053-23.861c0-3.843-1.6-4.564-1.6-4.564-.641-.24-.961.08-1.521.561a3.02 3.02 0 0 0-.8 1.521 3.9 3.9 0 0 1 2.082 1.762c.881 1.441.24 4.724.24 4.724s1.6-1.041 1.6-4m-12.411-.881s1.121 1.441 1.521 2l1.441-1.762 1.441 1.762c.4-.561 1.521-2 1.521-2 .56.08 1.2 1.521 1.2 1.521a4.377 4.377 0 0 0 1.121-2.8c-.32-.8-2.162-.32-2.642.561a1.871 1.871 0 0 0-2.642.08 1.871 1.871 0 0 0-2.642-.08c-.4-.881-2.322-1.281-2.642-.561a4.248 4.248 0 0 0 1.121 2.8s.641-1.441 1.2-1.521m4.8 25.142-.961-1.681-.8 1.762-.8-1.762-.961 1.681c-1.441-.16-1.681-2.4-1.681-2.4s-.8 2.082.32 3.443c.56.721 1.441 0 1.441 0a17.695 17.695 0 0 0 3.363 0s.8.721 1.441 0c1.121-1.361.4-3.443.4-3.443s-.32 2.242-1.762 2.4m3.923-.4c.32 0 2-.8 2-3.924a5.082 5.082 0 0 0-1.2-3.523s.8 3.843-1.682 4.084c0 0-.4-.08-.4 1.361.08 1.441.961 2 1.281 2" data-name="Path 3704"/><path fill="#8e9090" d="m149.014 145.25-.4-2.722h-6.166v12.731h6.246l.721-2.642h-4.244v-2.482h2.722v-2.642h-2.722v-2.242Zm-28.185-2.963h-.08v12.972h2.722v-6.966l7.046 7.287h.08v-13.133h-2.722v6.966Zm43 10.409a2.3 2.3 0 0 1-2-1.041l-1.6 2.4a5.264 5.264 0 0 0 3.763 1.521 3.926 3.926 0 0 0 4.164-4.244c0-4.644-4.8-3.363-4.8-5.365 0-.641.721-.961 1.2-.961a2.5 2.5 0 0 1 1.922.961l1.441-2.162a5.3 5.3 0 0 0-3.443-1.441 3.873 3.873 0 0 0-3.924 3.924c0 4.564 4.884 3.363 4.884 5.365a1.632 1.632 0 0 1-1.6 1.041m-61.975-4.4 7.046 7.287v-13.134h-2.642v6.966l-7.126-7.126v12.972h2.722Zm77.269.641c0 3.683 2.642 6.646 5.765 6.646s5.765-2.963 5.765-6.646-2.642-6.646-5.765-6.646-5.765 2.963-5.765 6.646m8.888 0c0 1.922-1.361 3.763-3.123 3.763-1.682 0-3.123-1.842-3.123-3.763s1.361-3.763 3.123-3.763 3.123 1.842 3.123 3.763m-123.39.56 2.562 6.085h.08l2.8-6.085h.08l.881 5.845h2.722l-2.889-13.053-3.523 7.767-3.443-7.767-2.963 13.052h2.722Zm141.967 5.765v-9.853h2.642v-2.88h-7.447l-.641 2.883h2.722v9.849ZM84.556 142.447h2.722v12.892h-2.722Zm134.36 12.811h2.642l1.121-2.4h4.084l1.121 2.4h2.722l-5.844-13.051Zm7.206-4.724h-2.883l1.441-3.123 1.441 3.123Z" data-name="Path 3705"/><path fill="#fff" d="M137.323 73.026a19.237 19.237 0 0 0-3.2-1.682 7.5 7.5 0 0 0-2.883-.8c-2 .08-3.283 2.322-8.327.48-4.164-1.521-4.4-5.925-4.084-8.408.08-.881-.961-2-1.682-3.043a17.732 17.732 0 0 1-1.6-3.843v-.08s-3.043 7.046-2.242 11.45a8.657 8.657 0 0 0 4.724 6.566 17.534 17.534 0 0 0-10.249 9.529c-3.443 8.007-1.121 13.052-1.121 13.052a14.227 14.227 0 0 1 6.085-5.125 23.711 23.711 0 0 0-.561 13.132 29.334 29.334 0 0 1 2.8-2.562 57.249 57.249 0 0 0 3.2 8.007c4.8 10.009 3.683 21.7 7.126 27.064h5.285a9.4 9.4 0 0 1-.4-.881 23.523 23.523 0 0 1-2-6.646l-.24-1.681a34.619 34.619 0 0 0-1.521-7.126c0-.08-.08-.16-.08-.24a7.1 7.1 0 0 1 3.283 1.521v-.4a20.59 20.59 0 0 0-1.682-8.087 16.085 16.085 0 0 1-1.441-7.687s.721 1.121 1.682 2.8a51.131 51.131 0 0 1 4 9.368c1.2 3.924.561 10.329 2.562 15.053a14.584 14.584 0 0 0 1.2 2.162 9.64 9.64 0 0 0 7.046 3.6h1.843a4.107 4.107 0 0 0 .961-2.162 3.428 3.428 0 0 0-.881-1.842h-1.361a3481.524 3481.524 0 0 1-.8-.16c-.16 0-.32-.08-.48-.08a.481.481 0 0 1-.32-.08 6.646 6.646 0 0 1-1.682-.48c-.08 0-.08 0-.16-.08-.24-.08-.4-.16-.641-.24-.08 0-.16-.08-.24-.08-.16-.08-.4-.16-.561-.24-.08-.08-.16-.08-.24-.16-.16-.08-.32-.24-.48-.32-.08-.08-.16-.16-.24-.16-.16-.08-.24-.24-.4-.4l-.24-.24c-.08-.16-.24-.24-.32-.4-.08-.08-.16-.16-.16-.24l-.24-.48c-.08-.08-.08-.24-.16-.32a1.138 1.138 0 0 1-.16-.48.722.722 0 0 1-.08-.4 1.363 1.363 0 0 1-.08-.561 3.468 3.468 0 0 0-.08-.4v-1.121c.32-5.445.08-11.29-4.564-20.578a68.671 68.671 0 0 1-3.283-9.929 14.854 14.854 0 0 1-.641-4 9.688 9.688 0 0 1 .08-1.521 12.318 12.318 0 0 1 .961-3.763c1.121-2.482 2.722-4.324 4.724-4.724a4.91 4.91 0 0 1 2.162 0 7.622 7.622 0 0 1 3.763 2.082 5.679 5.679 0 0 1 1.121 1.521c0-.08.4-6.806-5.925-8.087a4.123 4.123 0 0 1 1.361-1.2.078.078 0 0 0 .08-.08l.48-.24c.08 0 .16-.08.24-.08a1.138 1.138 0 0 1 .48-.16.481.481 0 0 0 .32-.08c.16 0 .32-.08.48-.08a3 3 0 0 0 .8-.08h.16a4.566 4.566 0 0 1 1.041.08h.08a19.68 19.68 0 0 0-2.4-3.443" data-name="Path 3706"/><path fill="#fff" d="M134.361 85.036a3.467 3.467 0 0 0-.4.08c-1.361.48-2.482 2.642-2.322 6.886a9.8 9.8 0 0 0 6.726 9.208c.48.16.721.08.721-.16 0-.32-.48-.881-1.041-1.361a11.107 11.107 0 0 1-1.361-1.682 5.038 5.038 0 0 1-.8-2.8 2.724 2.724 0 0 1 .08-.8v-.08a2.094 2.094 0 0 1 .24-.641c0-.08.08-.16.16-.32s.16-.24.24-.4.16-.24.24-.4l.24-.24.4-.4.16-.16c.16-.16.32-.24.48-.4.08 0 .08-.08.16-.08a4.753 4.753 0 0 1 .641-.32h.08a2.338 2.338 0 0 1 .721-.16c-.881-2.242-3.363-5.365-5.365-5.765" data-name="Path 3707"/><path d="M117.143 59.573c.721 1.041 1.762 2.162 1.682 3.043-.32 2.482-.08 6.886 4.084 8.408 5.045 1.842 6.326-.4 8.327-.48a7.5 7.5 0 0 1 2.883.8c1.521.641 2.963 1.6 3.2 1.681h.08s-1.041-3.2-5.525-6.646c-4.724-3.6-11.37-5.845-16.335-10.65v.08a11.1 11.1 0 0 0 1.6 3.763m4.644 3.523 1.762 1.2a1.933 1.933 0 0 0 1.121 2.4 2.529 2.529 0 0 0 2.8-.32l1.441.961s-2.082 3.523-5.365 1.121a4.476 4.476 0 0 1-1.762-5.365" data-name="Path 3708"/><path fill="#fdd420" d="M123.551 68.462c3.283 2.482 5.365-1.121 5.365-1.121l-1.441-.961a2.529 2.529 0 0 1-2.8.32 1.933 1.933 0 0 1-1.121-2.4l-1.762-1.2a4.476 4.476 0 0 0 1.762 5.365" data-name="Path 3709"/><path fill="#d95e5c" d="M151.255 116.344c.24-3.683-.56-5.125-2.642-5.2s-3.043 2.482-3.2 3.6a6.225 6.225 0 0 1-.561 2.082v-.08a9.63 9.63 0 0 1-.56-2.082c-.08-1.121-1.121-3.683-3.2-3.6s-2.8 1.521-2.642 5.2c.24 3.683 2 8.087 6.326 8.247v.08c4.484-.16 6.246-4.564 6.486-8.247" data-name="Path 3710"/><path fill="#005083" d="M186.407 170.313a2.477 2.477 0 0 0-1.922 1.041c-1.762 2-2.963 6.806-2.963 12.091 0 6.886 2 13.212 4.884 13.212a2.922 2.922 0 0 0 2.322-1.2c1.6-1.842 2.562-7.287 2.562-12.011 0-5.285-1.121-10.009-2.963-12.091a2.6 2.6 0 0 0-1.922-1.041m.881 23.781a1.313 1.313 0 0 1-.881.561c-.721 0-2.963-3.843-2.963-11.29 0-5.445 1.281-9.448 2.482-10.73a.488.488 0 0 1 .961 0c1.2 1.361 2.482 5.285 2.482 10.73-.08 5.045-1.121 9.609-2.082 10.73m-52.767-25.3h-.16v.16l-.32 10.73v.24h.24c4.964-.08 5.685-4.724 5.845-6.726a4.3 4.3 0 0 0-5.605-4.4m1.521 8.728c.08-2.082.16-5.045.16-6.886a2.224 2.224 0 0 1 1.041.4 2.947 2.947 0 0 1 .881 2c-.08 2.322-.8 3.763-2.082 4.484" data-name="Path 3711"/><path fill="#005083" d="M270.803 176.238c-1.922-1.842-3.6-3.363-4.484-5.045a7.188 7.188 0 0 1-.32-4.564c.32-.961.8-1.281 1.922-1.281a2.209 2.209 0 0 1 1.441.641l1.521 5.125 1.441 4.724 2.162-4.4 4.324-8.728.561-1.121-.8-.961c-.24-.24-5.765-6.486-13.852-4.564a11.514 11.514 0 0 0-8.167 7.527l.32-2.242h-31.069l-.24 1.6-1.922 11.21-1.842-11.21-.24-1.6h-28.025l2.482 3.123 2 2.482v8.968c-1.842-8.728-6.406-14.733-11.851-14.733a9.266 9.266 0 0 0-6.806 3.443 17.486 17.486 0 0 0-2.562 3.923l.4-1.922 1.842-2.082 2.8-3.2h-14.65l-.16 1.762-1.361 12.811-1.922-6.246-2.082-6.566-1.682 6.726-1.6 6.246-1.842-12.892-.24-1.681h-14.973l1.441 1.6a13.9 13.9 0 0 0-6.886-1.682h-11.05v-.08H100.01l1.121 2.722 1.922 4.564v2.242c-1.762-8.568-9.929-9.609-12.491-9.769-2.482-.08-6.566 0-8.968.08h-1.122l-3.043.08H66.7l-.24 1.6-1.922 10.65-2-10.65-.24-1.6H36.989l.4-3.2.32-2.242H9.689l.32 2.242 1.2 8.968.48 3.523 2.722-2.242 4.084-3.443h.08l.16 34.271-1.842 5.845-.8 2.562h15.536l-.8-2.562-1.922-5.845.32-33.87 3.762 3.116 2.722 2.242.48-3.523.08-.8.32.561.16 30.908-1.521 4.8-.8 2.562h22.82l.16-1.762 1.2-11.69 3.683 14.333.4 1.521h2.966l.4-1.521 4-14.973 1.2 12.251.16 1.762h12.256a16.759 16.759 0 0 1 1.922.08c4.244.16 10.65.4 14.653-3.763a12.49 12.49 0 0 0 2.8-4.8v.8l-1.521 5.125-.8 2.482h52.527l-1.361-2.8-8.728-18.176a13 13 0 0 0 4-7.367 14.11 14.11 0 0 0 .24-3.6l6.726 32.829.32 1.682h2.883l.48-1.361 3.924-11.05 3.924 11.05.48 1.361h2.883l.32-1.682 4-20.1c.08 6.806 1.762 12.171 4.724 15.534a10.482 10.482 0 0 0 8.087 3.763 10.6 10.6 0 0 0 8.087-3.763 17.959 17.959 0 0 0 3.843-8.247v4.564l-1.521 4.8-.8 2.562h21.379V190.17l-3.034 2.081-5.365 3.6h-.32v-29.062l1.121-2.082 1.842 2.162 10.089 39.075.4 1.521h2.963l.4-1.521 9.689-36.272.16 27.7-1.521 5.125-.8 2.482h24.262v-2c1.441 1.441 6.486 5.765 13.372 4.084a12.229 12.229 0 0 0 9.288-9.689 16.249 16.249 0 0 0-2.162-13.292 33.163 33.163 0 0 0-6.726-7.847m-236.533-9.446-4.644-3.843-2.322-.08-.32 36.433 2 6.166H18.737l1.922-6.085-.16-36.513-2.722.08-4.644 3.843-1.2-8.968h23.539Zm43.879-2.562.4-.641a3.364 3.364 0 0 0 .16.4l2.162 4.324.8 30.587-4.963-32.268Zm-31.068 2.562 1.441-2.642.561-1.041 1.041 1.361 1.842 2.322-4.8 31.308-.16-.4Zm26.183 36.353-2.322-22.9-6.806 25.223-6.406-24.9-2.242 22.577H37.074l1.682-5.125-.24-31.708-1.6-3.043h9.849l-1.682 3.043v31.628l1.6 4.964 2.082-2.482 5.2-34.191-2.322-2.963h8.968l3.763 21.619 3.843-21.619h8.252l-1.762 2.963 5.2 34.191 2.322 2.722h-8.963Zm25.623-3.123c-4.084 4.244-11.37 3.123-15.214 3.123l-.881-35.312-2.322-4.724c1.842-.08 7.046-.24 9.929-.16 3.2.16 9.849 1.441 10.81 9.208.8 6.406-4.644 9.929-4.724 10.009l-.32.16.32.16a10.327 10.327 0 0 1 5.2 6.646 12.694 12.694 0 0 1-2.8 10.89m.641-17.856a13.02 13.02 0 0 0 3.443-6.246l.08 10.81a13.261 13.261 0 0 0-3.523-4.564m23.621 20.9h-19.775l1.682-5.365-.16-29.627-2.082-4.884h19.7l-1.121 7.847-3.2-2.8-6.566-.08-.24-.08v.24l.16 10.89v.24h9.208l-2.883 6.166-6.326-2.242-.16 14.573 5.845-.08 5.845-3.924.08 9.128Zm1.922-2.722V190.17l-3.04 2.081-5.365 3.6-3.283.08.08-9.849 3.763 1.281 1.681.56.721-1.6 2.883-6.166 1.281-2.8h-10.329c0-2-.08-5.365-.08-7.367l4.084.08 2.642 2.322 2.722 2.322.48-3.523.721-5.285 1.361 2.8.24 30.267-.561 1.361Zm13.372 2.082-.4 1.041-.561-1.2-1.441-2.963-.16-6.566 3.523 7.126Zm6.806-26.023a11.275 11.275 0 0 1-4.484 7.126l9.368 19.538h-9.929l1.281-3.283-6.723-13.53-1.041.16.32 13.372 1.6 3.283h-9.689l1.682-3.6-.24-31.068-2.4-5.125h10.89c2.8 0 5.365.721 6.646 1.922 1.6 1.521 3.683 4.724 2.722 11.21m22.26 29.066-5.685-16.255-5.765 16.255-8.172-39.643-2.242-2.482h8.968l3.2 22.74 4-15.774 4.724 15.294 2.322-22.18h8.648l-2.162 2.482-7.847 39.555Zm25.3-5.445a8.844 8.844 0 0 1-6.566 3.123 8.454 8.454 0 0 1-6.566-3.123c-2.8-3.2-4.244-8.327-4.244-15.053 0-7.847 2.162-15.214 5.525-19.057a7.141 7.141 0 0 1 5.285-2.8c6.005 0 10.89 9.849 10.89 21.86-.08 6.726-1.521 11.931-4.324 15.053m16.655-2.162 5.845-3.924v9.208h-16.813l1.6-5.125-.16-28.986v-2.722l-2.4-3.043h10.651l-1.682 3.123v31.628l2.963-.16Zm45.721 5.2h-19.698l1.6-5.365-.16-29.627-1.682-4.084-1.2 1.922-10.569 39.555-10.249-39.555-2.322-2.722h8.968l3.763 22.74 3.843-22.74h27.144l-1.121 7.847-3.2-2.8-6.566-.08-.24-.08v.24l.16 10.89v.24h9.208l-2.883 6.166-6.326-2.242-.16 14.573 5.845-.08 5.845-3.924v9.128Zm-1.119-10.816-5.365 3.6-3.283.08.08-9.849 3.763 1.281 1.682.561.721-1.6 2.883-6.166 1.281-2.8H245.5c0-2-.08-5.365-.08-7.367l4.084.08 2.642 2.322 2.722 2.322.48-3.523.24-1.6a15.485 15.485 0 0 0 2 6.246c1.6 2.883 4.484 5.925 6.966 8.648 1.922 2.082 3.924 4.164 4.564 5.525.961 1.922 1.762 4.164.721 6.085a3.709 3.709 0 0 1-2.4 1.521 3.3 3.3 0 0 1-1.681-.721l-1.521-5.045-1.441-4.724-2.162 4.4-3.6 7.206v-8.728l-2.966 2.246Zm23.861 4.644c-.8 3.123-2.4 6.966-7.847 8.247-7.046 1.762-11.931-3.924-11.931-3.924l4.324-8.728 1.681 5.525a5.464 5.464 0 0 0 3.2 1.6c1.681.16 3.763-1.441 4.324-2.482 1.521-2.8.32-5.845-.721-7.927-1.682-3.283-8.808-9.128-11.61-14.173a14.056 14.056 0 0 1-1.682-8.408c.48-2.642 2.082-7.447 7.527-8.808 7.046-1.762 11.931 3.924 11.931 3.924l-4.324 8.728-1.681-5.525a4.323 4.323 0 0 0-3.2-1.6 3.491 3.491 0 0 0-3.763 2.642 9.1 9.1 0 0 0 .48 6.085c2.082 4.164 7.687 7.046 11.37 13.052a14.831 14.831 0 0 1 1.922 11.771" data-name="Path 3712"/><path fill="#005083" d="M93.844 186.247a7.614 7.614 0 0 0-4.244-1.2v12.811s2.8.32 4.4-1.041a6.852 6.852 0 0 0 2.322-5.285 6.038 6.038 0 0 0-2.482-5.285m-1.121 9.048a2.807 2.807 0 0 1-1.121.48v-8.568a4.892 4.892 0 0 1 1.121.561 4.615 4.615 0 0 1 1.762 3.6 5.12 5.12 0 0 1-1.762 3.923m2.883-21.3c-.24-4.964-3.363-5.125-5.125-5.2h-.721v10.81s6.085.641 5.845-5.605m-3.843-3.123c1.041.24 1.842.961 1.922 3.2a3.576 3.576 0 0 1-.8 2.8 3.141 3.141 0 0 1-1.121.641Z" data-name="Path 3713"/><path fill="#fff" d="M186.247 163.106a7.141 7.141 0 0 0-5.285 2.8c-3.443 3.924-5.525 11.21-5.525 19.057 0 6.646 1.441 11.851 4.244 15.053a8.716 8.716 0 0 0 6.566 3.123 8.454 8.454 0 0 0 6.566-3.123c2.8-3.2 4.244-8.327 4.244-15.053 0-12.011-4.8-21.86-10.81-21.86m2.482 32.269a3.166 3.166 0 0 1-2.322 1.2c-2.883 0-4.884-6.326-4.884-13.212 0-5.285 1.2-10.009 2.963-12.091a2.6 2.6 0 0 1 1.922-1.041 2.366 2.366 0 0 1 1.922 1.041c1.762 2 2.963 6.806 2.963 12.091 0 4.724-.961 10.169-2.562 12.011m-11.13-32.029h-8.728l-2.322 22.18-4.724-15.294-4 15.854-3.2-22.74h-8.896l2.162 2.482 8.167 39.635 5.765-16.255 5.685 16.255 7.927-39.635Zm-102.892 2.8 1.762-2.963h-8.25l-3.843 21.619-3.763-21.619h-8.968l2.4 2.963-5.283 34.198-2.082 2.48-1.6-4.884v-31.627l1.682-3.123h-9.851l1.6 3.123.16 31.708-1.6 5.044h9.448v.08h8.968l2.242-22.58 6.406 24.9 6.806-25.223 2.322 22.9h8.888l-2.242-2.8Zm21.86 16.335-.32-.16.32-.16c.08 0 5.525-3.6 4.644-10.009-.961-7.767-7.607-9.048-10.81-9.208-2.883-.16-8.087.08-9.929.16l2.322 4.724.881 35.312c3.763 0 11.13 1.121 15.214-3.123a12.743 12.743 0 0 0 2.883-10.81 10.451 10.451 0 0 0-5.2-6.726m-6.813-13.525v-.24h.721c1.762.08 4.884.24 5.125 5.2.24 6.246-5.765 5.605-5.765 5.605v-10.565h-.08Zm4.244 27.785c-1.6 1.361-4.4 1.041-4.4 1.041v-12.812a7.614 7.614 0 0 1 4.244 1.2 7.014 7.014 0 0 1 .16 10.569m149.494 1.2.16-14.573 6.326 2.242 2.883-6.165h-9.208v-.16l-.16-10.89v-.24h.24l6.566.08 3.2 2.8 1.121-7.847h-27.147l-3.843 22.74-3.763-22.74h-8.968l2.322 2.722 10.169 39.555 10.569-39.555 1.281-1.922 1.682 4.084.16 29.627-1.682 5.365h19.778v-9.208l-5.845 4Zm-132.038 0 .16-14.573 6.326 2.242 2.883-6.165h-9.208v-.16l-.16-10.89v-.24h.24l6.566.08 3.2 2.8 1.041-7.847h-19.7l2.082 4.884.16 29.627-1.682 5.365h19.778v-9.208l-5.845 4Zm95.125-31.628 1.6-3.123h-10.573l2.4 3.043v2.722l.16 29.066-1.682 5.045h16.815v-9.208l-5.845 4-2.883.08Zm-64.059-1.119c-1.281-1.2-3.843-1.922-6.646-1.922h-10.89l2.4 5.125.24 31.068-1.682 3.6h9.689l-1.6-3.283-.32-13.372 1.041-.16 6.726 13.532-1.281 3.283h9.923l-9.365-19.539a11.275 11.275 0 0 0 4.484-7.126c.961-6.486-1.121-9.689-2.722-11.21m-8.247 14.736h-.24v-.24l.32-10.73v-.16h.16a4.432 4.432 0 0 1 4 .8 4.672 4.672 0 0 1 1.521 3.6c-.08 2-.8 6.646-5.765 6.726m130.357-7.927a9.054 9.054 0 0 1-.48-6.085 3.642 3.642 0 0 1 3.763-2.642 4.636 4.636 0 0 1 3.2 1.6l1.682 5.525 4.324-8.728s-4.884-5.605-11.931-3.923c-5.445 1.361-6.966 6.085-7.527 8.808a13.393 13.393 0 0 0 1.681 8.408c2.8 5.045 9.929 10.89 11.61 14.173 1.041 2.082 2.242 5.045.721 7.847-.561 1.041-2.642 2.722-4.324 2.482a5.464 5.464 0 0 1-3.2-1.6l-1.681-5.525-4.324 8.728s4.884 5.605 11.931 3.924c5.445-1.361 7.046-5.2 7.847-8.247a14.523 14.523 0 0 0-1.922-11.851c-3.683-5.765-9.288-8.728-11.37-12.892M13.131 166.79l4.644-3.843 2.722-.08.16 36.513-1.922 6.085h10.251l-2-6.165.32-36.433 2.322.08 4.644 3.843 1.2-9.048H11.931Z" data-name="Path 3714"/><path fill="#0e955e" d="m67.26 111.7-.08.16 3.2 5.845a8.669 8.669 0 0 1-2.4.881c-.8.16-1.441.24-1.441.24l10.65 17.936h3.843l-1.842-8.648h4.4l-5.765-16.415 3.363-.48-6.406-20.018-9.368 17.3 1.682 3.123Zm-26.664 37.954 4.4-12.811 14.573.08-6.962-21.544 4.324-.641-8.408-26.259-14.092 25.863 4.244.961-12.572 21.539h4.884l-7.206 12.812Zm53.007-18.817 3.2 6.005h5.365l-2.562-11.851h3.6l-4.724-13.452 2.722-.4-5.285-16.415-7.367 13.612 2.8 5.2a7.344 7.344 0 0 1-1.842.721c-.641.16-1.041.24-1.041.24l9.128 15.294a18.077 18.077 0 0 1-3.843 1.121c-.08-.16-.16-.08-.16-.08m114.592-19.613-3.043 5.2-6.406 10.65 4 .641-2.642 4.964-2.162 4.164h15.618l.881-8.728 4.164-.24-2.562-16.575 3.443-.48-4.084-19.536-10.57 19.46Zm-14.013-16.495-8.648 16.014 2.722.4-2.482 4.244-5.2 8.728 3.2.561-2.082 4.084-4.324 8.087h13.692l1.281-12.571 3.443-.24-1.762-13.212 2.8-.32Zm53.488 60.134 5.845-.08s2.162-3.6 5.125-4.724l-6.406-13.612 4.324-.881c-2.082-3.843-7.206-15.454-9.448-20.178l4.084-.56-9.529-26.264-13.932 25.62 4.4.561-12.091 22.1 20.658.08Z" data-name="Path 3715"/></svg>