<svg xmlns="http://www.w3.org/2000/svg" width="319.2" height="238.26" data-name="orleans pelicans"><path fill="#b4975a" d="m317.356 91.131.971.388V73.468a24.778 24.778 0 0 0-1.456-8.346 29.792 29.792 0 0 0-9.8-13.49 27.7 27.7 0 0 0-6.114-3.688c-1.359-.873-4.173-2.232-11.549-5.144-6.308-2.523-16.5-6.308-29.6-10.19a360.584 360.584 0 0 0-44.546-10.384c-.1-.194-11.646-14.558-28.921-7.085-.582.291-1.165.485-1.747.776-2.62 1.262-4.853 2.329-9.22 1.165-2.62-.679-5.92-2.329-4.561-8.055a6.994 6.994 0 0 1 2.912-3.979 4.22 4.22 0 0 1 3.591-.388c2.329.679 3.3 1.941 2.912 3.882a2.3 2.3 0 0 1-1.359 1.747 2.659 2.659 0 0 1-2.426-.485 1.817 1.817 0 0 0-2.038 3.009c1.941 1.262 3.979 1.65 5.823.776a6.1 6.1 0 0 0 3.494-4.464c.291-1.456.582-6.211-5.532-7.958a7.788 7.788 0 0 0-6.405.776 10.63 10.63 0 0 0-4.658 6.308v.194a20.141 20.141 0 0 0-1.844-2.232L159.455 0l-6.017 6.114a20.141 20.141 0 0 0-1.844 2.232v-.194a10.531 10.531 0 0 0-4.658-6.308 7.788 7.788 0 0 0-6.405-.776c-6.114 1.747-5.823 6.6-5.532 7.958a6.327 6.327 0 0 0 3.494 4.464 6.1 6.1 0 0 0 5.823-.776 1.817 1.817 0 1 0-2.038-3.009 2.439 2.439 0 0 1-2.329.485 2.523 2.523 0 0 1-1.359-1.747c-.291-1.941.582-3.2 2.912-3.882a4.641 4.641 0 0 1 3.591.388A6.7 6.7 0 0 1 148 8.929c1.359 5.823-1.941 7.376-4.561 8.055-4.367 1.165-6.6.1-9.22-1.165a13.749 13.749 0 0 0-1.747-.776c-17.275-7.376-28.824 6.988-28.921 7.085a.1.1 0 0 1-.1.1 387.744 387.744 0 0 0-42.994 10A364.96 364.96 0 0 0 19.41 47.264l-2.329 1.068v.388a12.746 12.746 0 0 0-3.106.971c-3.785 1.747-7.667 3.591-11.258 5.532L0 56.581v9.8A11.392 11.392 0 0 0 1.456 72.3c.194.291.388.679.582.971v10.87A15.73 15.73 0 0 0 .1 91.422a10 10 0 0 0 1.941 6.114v22.613l.194.679A25.552 25.552 0 0 0 16.693 134.9l-.291.1s5.629 9.22 14.461 11.064l-1.65.679s6.211 10 18.246 12.131l-1.747.873a35.745 35.745 0 0 0 19.8 9.9 98.754 98.754 0 0 0 188.085 0 35.745 35.745 0 0 0 19.8-9.9l-1.747-.873c12.034-2.135 18.246-12.131 18.246-12.131l-1.65-.679C297.073 144.121 302.7 135 302.7 135l.582-.776c10-4.27 15.916-14.072 15.916-23.292V99.38a33.9 33.9 0 0 0-1.844-8.249M209.048 21.06c-7.085-1.068-14.461-1.941-21.934-2.426a4.732 4.732 0 0 1 .679-.291 20.249 20.249 0 0 1 21.254 2.717m-77.932-2.717c.194.1.485.194.679.291-7.473.582-14.849 1.456-22.031 2.523 4.076-3.106 11.646-6.988 21.351-2.814" data-name="Path 3678"/><path fill="#002b5c" d="m309.01 83.464 5.241 2.135V73.468a19.847 19.847 0 0 0-1.262-7.085 24.751 24.751 0 0 0-3.591-6.7 30.442 30.442 0 0 0-4.95-5.047 27.363 27.363 0 0 0-5.532-3.4c-1.068-.776-3.785-2.038-11.064-4.95a381.51 381.51 0 0 0-29.212-10.093c-21.351-6.301-53.378-13.871-86.761-14.361a7.106 7.106 0 0 0-5.241-4.658c-.291-4.367-3.494-7.764-4.076-8.443l-3.106-3.2-3.107 3.201c-.679.679-3.785 4.076-4.076 8.443a7.274 7.274 0 0 0-5.241 4.657c-32.9.582-64.345 7.861-85.308 14.072a327.725 327.725 0 0 0-40.47 14.849v2.426s-.291-.194-.485-.291a4.511 4.511 0 0 0-2.038-.485 7.286 7.286 0 0 0-3.009.776 628.212 628.212 0 0 0-11.161 5.44l-.582.291v7.376a7.421 7.421 0 0 0 .873 3.882 3.951 3.951 0 0 0 1.165 1.359v13.49a12.2 12.2 0 0 0-1.938 6.215 5.587 5.587 0 0 0 1.941 4.561v23.486a20.915 20.915 0 0 0 14.655 12.325c.291.1.582.1.776.194h.1a18.785 18.785 0 0 0 5.823.388c-1.941.971-3.979 1.941-5.92 3.009 0 .1 5.92 9.8 20.09 8.346-2.329 1.068-4.658 2.232-7.085 3.4 0 .1 6.794 9.608 21.739 9.414a647.618 647.618 0 0 1-5.532 2.814c0 .1 6.7 6.6 18.051 7.376a94.725 94.725 0 0 0 181.485 0 29.983 29.983 0 0 0 18.051-7.376s-2.038-1.068-5.532-2.814c14.946.291 21.642-9.22 21.739-9.414-2.329-1.165-4.658-2.329-7.085-3.4 14.169 1.359 19.992-8.249 20.09-8.346-1.941-.971-3.979-2.038-5.92-3.009a19.069 19.069 0 0 0 11.743-2.814 22.037 22.037 0 0 0 11.646-18.731V99.089c0-7.085-5.92-15.625-5.92-15.625" data-name="Path 3679"/><path fill="#e31837" d="M222.538 174.789c1.747 1.359 3.591 2.717 5.338 4.076 0-.194-21.06 5.726-36.1-.873-.582-.291-1.068-.485-1.65-.776a31.8 31.8 0 0 1-61.336 0 11.585 11.585 0 0 1-1.553.776c-15.043 6.6-36.1.679-36.1.873 1.747-1.359 3.591-2.717 5.338-4.076a42.781 42.781 0 0 1-18.737-1.747 88.452 88.452 0 0 0 163.628 0 42.133 42.133 0 0 1-18.828 1.747" data-name="Path 3680"/><path fill="#fff" d="M150.72 31.153a7.209 7.209 0 0 1-3.494-3.882C94.139 28.63 41.344 47.652 41.441 48.428c-2.329.874-3.591 2.912-3.591 4.173v1.844a334.963 334.963 0 0 1 112.87-22.613ZM280.865 49.69c.1-.776-55.416-21.06-109.085-22.419a7.56 7.56 0 0 1-3.494 3.882v.776a340.2 340.2 0 0 1 116.073 23.972v-1.844a5.225 5.225 0 0 0-3.494-4.367" data-name="Path 3681"/><path fill="#e31837" d="M165.277 21.545c-3.4-.388-3.979 4.464-4.076 6.114h-1.068c0-4.658 2.232-6.5 2.232-9.705 0-3.106-2.814-6.017-2.814-6.017s-2.912 2.912-2.912 6.017 2.232 4.95 2.232 9.705h-1.063c-.1-1.65-.679-6.5-4.076-6.114-3.688.485-3.3 5.629 0 6.017 0 0-.582-2.329 1.165-2.329 1.359 0 1.65 1.553 1.747 2.426h-1.553v1.747h3.494a3.316 3.316 0 0 1-1.654 2.231 2.071 2.071 0 0 0 1.553 1.068 3.288 3.288 0 0 0 .97 2.135 3.288 3.288 0 0 0 .971-2.135 2.071 2.071 0 0 0 1.553-1.068 3.316 3.316 0 0 1-1.65-2.232h3.494v-1.746h-1.553c.1-.873.485-2.426 1.844-2.426 1.844 0 1.165 2.329 1.165 2.329 3.3-.388 3.688-5.532 0-6.017" data-name="Path 3682"/><path fill="#fff" d="M148.294 57.26V45.808a9.432 9.432 0 0 0-.873-4.173 6.853 6.853 0 0 0-2.426-2.814 8.615 8.615 0 0 0-3.591-1.553 16.74 16.74 0 0 0-4.464-.291 16.565 16.565 0 0 0-4.464.873 10.83 10.83 0 0 0-3.592 2.037 8.779 8.779 0 0 0-2.426 3.2 10.18 10.18 0 0 0-.873 4.27v11.455a2.891 2.891 0 0 0-2.135 2.62 2.24 2.24 0 0 0 2.135 2.232v12.812a8.725 8.725 0 0 0 .873 4.076 7.528 7.528 0 0 0 2.426 2.814 10.749 10.749 0 0 0 3.591 1.456 17.512 17.512 0 0 0 8.929-.582 10.647 10.647 0 0 0 3.591-1.941 9.6 9.6 0 0 0 2.426-3.106 9.432 9.432 0 0 0 .873-4.173V62.112a2.6 2.6 0 0 0 2.232-2.523 2.343 2.343 0 0 0-2.232-2.329m-6.308 17.76a4.626 4.626 0 0 1-.485 2.135 4.3 4.3 0 0 1-1.165 1.456 4.922 4.922 0 0 1-1.553.873 11.282 11.282 0 0 1-1.747.388 12.376 12.376 0 0 1-1.844-.1 4.943 4.943 0 0 1-1.65-.679 3.634 3.634 0 0 1-1.165-1.262 4.511 4.511 0 0 1-.485-2.038V46.972a4.627 4.627 0 0 1 .485-2.135 4.3 4.3 0 0 1 1.165-1.456 4.472 4.472 0 0 1 1.65-.873 10.308 10.308 0 0 1 1.844-.388 10.549 10.549 0 0 1 1.747.1 4.459 4.459 0 0 1 1.553.679 3.227 3.227 0 0 1 1.165 1.359 4.511 4.511 0 0 1 .485 2.038V75.02Zm-115.2 13.1c0 .1 0 .194-.1.1l-.194-.194c-.194-.485-7.764-25.524-8.152-26.689s-.582-1.747-.582-1.844a.851.851 0 0 0-.582-.679 1.163 1.163 0 0 0-1.068.194c-2.232 1.068-4.561 2.135-6.794 3.2v2.039a3.138 3.138 0 0 0 .291 1.553 1.5 1.5 0 0 0 .679.679 1.6 1.6 0 0 0 .971.194v19.12a4.577 4.577 0 0 0-1.941 3.3 1.375 1.375 0 0 0 1.941 1.456v26.98c1.747-.873 3.494-1.65 5.241-2.523V81.328c0-.291 0-.388.1-.388l.1.1s.194.679.582 1.747 7.764 25.718 7.861 25.913a4.072 4.072 0 0 0 .679 1.456c.194.388.582.388 1.165.194l3.491-1.463a1.764 1.764 0 0 0 1.068-.971 2.135 2.135 0 0 0 .388-1.262V81.425a4.091 4.091 0 0 0 1.747-3.008 1.51 1.51 0 0 0-1.747-1.65V58.036a1.938 1.938 0 0 1 .194-.873 5.567 5.567 0 0 1 .393-.676 9.453 9.453 0 0 0 .971-1.456 4.418 4.418 0 0 0 .485-1.941v-1.848c-2.523.971-4.95 2.038-7.473 3.106l.291 33.774Zm250.294.485c-.194-.1-.194-.194-.291-.291-.194-.582-.485-1.844-.97-3.591-.485-1.844-1.068-3.882-1.747-6.308s-1.359-4.853-2.038-7.473-1.359-5.047-2.038-7.279c-.582-2.232-1.165-4.076-1.553-5.532s-.582-2.232-.582-2.329a2.214 2.214 0 0 0-.582-1.165 2.04 2.04 0 0 0-1.068-.679c-2.329-.776-4.658-1.553-7.085-2.232v2.038a5.254 5.254 0 0 0 .291 1.844 3.99 3.99 0 0 0 .776 1.262 5.087 5.087 0 0 0 1.068.971v14.846a1.743 1.743 0 0 0-2.038 1.844 3.648 3.648 0 0 0 2.038 3.009v21.836c1.844.582 3.688 1.165 5.435 1.747V71.138c0-.291 0-.388.1-.291 0 .1.1.1.1.194 0 0 .194.776.582 2.232s.971 3.3 1.553 5.435 1.262 4.561 2.038 7.085c.679 2.523 1.359 4.95 2.038 7.182s1.165 4.173 1.65 5.823.679 2.523.776 2.814a10.024 10.024 0 0 0 .679 2.038 1.619 1.619 0 0 0 1.165 1.068c1.165.485 2.426.873 3.591 1.359.485.194.873.194 1.068-.1a1.246 1.246 0 0 0 .388-.971V84.919a1.555 1.555 0 0 0 1.747-1.65 3.928 3.928 0 0 0-1.747-3.009V65.703a1.5 1.5 0 0 1 .194-.776l.388-.388a2.958 2.958 0 0 0 .971-.679 2.279 2.279 0 0 0 .485-1.553v-1.845c-2.523-.971-4.95-1.941-7.473-2.814v30.959Zm31.25 4.755a27.349 27.349 0 0 0-2.814-4.853 59.113 59.113 0 0 0-3.009-3.882 1.231 1.231 0 0 0 .1-.582 4.542 4.542 0 0 0-2.329-3.591 1.576 1.576 0 0 0-1.456-.1c-.194-.194-.388-.485-.582-.679a28.213 28.213 0 0 1-2.814-3.591 5.113 5.113 0 0 1-1.165-2.912v-9.8a1.326 1.326 0 0 1 .388-1.068 2.035 2.035 0 0 1 1.068-.384 6.359 6.359 0 0 1 1.359 0 5.563 5.563 0 0 1 1.359.388c.388.194.873.485 1.359.776a5.108 5.108 0 0 1 1.359 1.165 7.328 7.328 0 0 1 1.068 1.359 2.848 2.848 0 0 1 .388 1.553v2.328a5.412 5.412 0 0 0 1.068 3.009 6.9 6.9 0 0 0 2.523 2.232c.873.388 1.747.873 2.717 1.262v-4.658a14.519 14.519 0 0 0-.776-4.561 14.256 14.256 0 0 0-2.135-3.979 17.706 17.706 0 0 0-3.3-3.3 19.9 19.9 0 0 0-4.173-2.523 14.969 14.969 0 0 0-4.076-1.262 6.136 6.136 0 0 0-3.3.291 4.529 4.529 0 0 0-2.232 2.038 9.049 9.049 0 0 0-.776 3.979v8.249a10.92 10.92 0 0 0 1.165 4.95 24.485 24.485 0 0 0 2.814 4.464c1.068 1.359 2.329 2.717 3.591 4.076a2.835 2.835 0 0 0-.194.873 4.247 4.247 0 0 0 2.329 3.494 1.753 1.753 0 0 0 1.844-.1 28.766 28.766 0 0 1 2.62 3.688 8.011 8.011 0 0 1 1.068 4.076v11.84a1.677 1.677 0 0 1-.485 1.262 2.214 2.214 0 0 1-1.165.582 4.168 4.168 0 0 1-1.553 0 5.326 5.326 0 0 1-1.65-.485 10.645 10.645 0 0 1-3.2-2.329 5.92 5.92 0 0 1-1.165-1.553 3.577 3.577 0 0 1-.485-1.65v-2.717a4.881 4.881 0 0 0-.776-2.62 5.975 5.975 0 0 0-2.426-1.844l-2.912-1.165v4.756a12.293 12.293 0 0 0 .873 4.561 16.443 16.443 0 0 0 2.329 3.979 18.536 18.536 0 0 0 3.494 3.2 23.1 23.1 0 0 0 4.27 2.426 16.021 16.021 0 0 0 4.173 1.359 8.253 8.253 0 0 0 3.494-.1 4.444 4.444 0 0 0 2.426-1.844 6.822 6.822 0 0 0 .874-3.785V98.409a11.632 11.632 0 0 0-1.165-5.047M95.983 66.187c-.291 2.232-.485 4.464-.776 6.6s-.485 4.076-.679 5.726-.388 3.009-.485 3.979c-.1 1.068-.194 1.553-.291 1.553-.485-3.009-.97-5.629-1.359-7.958s-.873-4.95-1.359-7.861-.97-5.726-1.553-8.54q-.728-4.222-1.456-7.861c-.485-2.426-.873-4.27-1.165-5.726q-.146-.728-1.165-.873a7.865 7.865 0 0 0-2.135 0 6.69 6.69 0 0 0-2.038.776 2.587 2.587 0 0 0-1.262 1.456 58.175 58.175 0 0 0-1.165 6.114c-.485 2.62-.873 5.435-1.456 8.443q-.728 4.513-1.456 9.317c-.485 3.106-.971 6.017-1.359 8.54s-.873 5.435-1.359 8.638l-.291-1.456c-.194-.971-.291-2.232-.485-3.882-.194-1.553-.388-3.4-.679-5.435s-.485-4.076-.776-6.211c-.582-4.95-2.62-22.807-2.62-22.807a228.235 228.235 0 0 0-7.667 2.232v1.844a3.753 3.753 0 0 0 .388 1.65 1.641 1.641 0 0 0 .971.679 2.03 2.03 0 0 1 .582.388 1.564 1.564 0 0 1 .388.679c.582 5.047 1.165 9.705 1.65 14.072a3.455 3.455 0 0 0-1.553 2.717 1.743 1.743 0 0 0 2.044 1.846v.291q.437 3.639.873 6.988c.291 2.232.485 4.27.776 6.114q.291 2.766.582 4.367a11.422 11.422 0 0 1 .194 1.844 1.744 1.744 0 0 0 .388.873c.194.291.582.291.971.194 2.329-.679 4.755-1.262 7.085-1.844a1.591 1.591 0 0 0 1.068-.679 3.545 3.545 0 0 0 .679-1.359c1.743-10.675 3.584-21.254 5.334-31.928 1.747 9.8 3.494 19.6 5.241 29.5a3.373 3.373 0 0 0 .679 1.068 1.272 1.272 0 0 0 1.068.194c2.329-.485 4.756-.971 7.182-1.359a1.4 1.4 0 0 0 .97-.679 2.388 2.388 0 0 0 .388-1.068c0-.1.1-.776.194-1.941s.291-2.717.582-4.658c.194-1.941.485-4.076.776-6.5s.582-4.853.873-7.376v-.291a3.131 3.131 0 0 0 2.135-2.814 2.1 2.1 0 0 0-1.553-2.038q.728-6.842 1.747-14.849a1.829 1.829 0 0 1 .388-.873c.194-.194.388-.485.582-.679a3.883 3.883 0 0 0 .971-1.165 3.717 3.717 0 0 0 .485-1.844V40.47c-2.62.388-5.241.873-7.764 1.359.388.388-1.747 19.119-2.329 24.36m157.515 6.598a3.407 3.407 0 0 0-2.038-3.009c-.291-1.747-.582-3.494-.873-5.144-.388-2.329-.776-4.561-1.068-6.405-.291-1.941-.582-3.494-.776-4.755s-.291-1.941-.291-2.135a4.369 4.369 0 0 0-3.3-3.688q-4.222-1.165-8.443-2.038v1.456c0 1.844.485 3.009 1.553 3.688a.587.587 0 0 1 .291.582 2.687 2.687 0 0 1-.1.873s-.1.582-.291 1.456c-.194.97-.485 2.232-.776 3.785s-.679 3.3-1.068 5.338l-.582 2.912a1.906 1.906 0 0 0-2.426 1.941 3.283 3.283 0 0 0 1.553 2.62 8124.925 8124.925 0 0 1-4.076 21.06c2.038.388 4.076.873 6.017 1.359 0 0 1.747-10.19 1.747-10.384.1-.776.485-1.165 1.165-.971 2.426.582 4.853 1.165 7.182 1.844a3.036 3.036 0 0 1 .971.485c.291.194.388.582.485 1.165 0 .194 1.456 11.161 1.456 11.161 2.135.582 4.27 1.262 6.308 1.844 0 0-2.62-15.528-3.882-23.292a1.7 1.7 0 0 0 1.262-1.748m-6.308 4.853a.575.575 0 0 1-.679.1c-1.941-.485-3.979-1.068-5.92-1.553a1.123 1.123 0 0 1-.679-.485 1.046 1.046 0 0 1-.194-.776s.1-.388.194-1.068.194-1.456.388-2.523c.194-.971.388-2.135.582-3.4s.485-2.523.679-3.882c.582-3.494 1.262-6.988 1.941-10.481h.1c.582 3.785 1.262 7.667 1.844 11.452.291 1.456.485 2.814.679 4.27.194 1.359.388 2.62.582 3.688s.291 2.038.485 2.717c.1.679.194 1.068.194 1.068a1.64 1.64 0 0 1-.194.873m-70.558 1.647c-.194-.1-.388-.291-.582-.388s-.194-.388-.194-.776v-10.77a11.954 11.954 0 0 0-.679-4.27 5.892 5.892 0 0 0-2.232-3.009c-.485-.485-.485-.873-.1-1.262a8.428 8.428 0 0 0 2.232-2.62 7.556 7.556 0 0 0 .873-3.591v-5.047a14.658 14.658 0 0 0-.582-4.27 8.913 8.913 0 0 0-1.842-3.397 9.739 9.739 0 0 0-3.2-2.329 11.563 11.563 0 0 0-4.755-.873c-4.464-.1-8.929-.1-13.3 0v1.844a3.944 3.944 0 0 0 .485 2.038 3.051 3.051 0 0 0 .971.971 1.7 1.7 0 0 1 .485.388 1.828 1.828 0 0 1 .194.776v14.363a2.574 2.574 0 0 0-2.038 2.426 2.391 2.391 0 0 0 2.038 2.329v21.837h6.31v-20.57a.772.772 0 0 1 .873-.873c1.359 0 2.717 0 3.979.1a3.653 3.653 0 0 1 3.009 1.262 5.979 5.979 0 0 1 .971 3.494v13.87a3.275 3.275 0 0 0 .776 2.232 3.769 3.769 0 0 0 2.523.971c1.747.1 3.591.194 5.338.291v-2.426a2.57 2.57 0 0 0-.485-1.65 10.969 10.969 0 0 0-1.068-1.068m-7.182-26.98a5.529 5.529 0 0 1-.971 3.494 3.394 3.394 0 0 1-3.009 1.262h-4.076a.741.741 0 0 1-.485-.194.534.534 0 0 1-.291-.485V42.799c0-.582.388-.873 1.068-.873 1.262 0 2.523 0 3.785.1a3.447 3.447 0 0 1 3.009 1.359 6.207 6.207 0 0 1 .971 3.494v5.435Zm27.366 15.043c-.679.194-.971.776-.971 1.747 0 .291.1 10.87-.1 11.064a.881.881 0 0 1-.679.291c-1.844-.194-3.785-.388-5.629-.582a.982.982 0 0 1-.679-.388 2.833 2.833 0 0 1-.194-.873c0-11.549 0-23.1-.1-34.647a2.088 2.088 0 0 1 .194-.971.969.969 0 0 1 .485-.388 4.836 4.836 0 0 0 1.068-.971 2.356 2.356 0 0 0 .493-1.748v-1.843c-3.591-.291-7.182-.582-10.773-.776v1.844a3.1 3.1 0 0 0 .485 1.747 6.339 6.339 0 0 0 1.068 1.165 1.169 1.169 0 0 1 .485.485 2.088 2.088 0 0 1 .194.971v14.362a2.25 2.25 0 0 0-2.038 2.329 2.6 2.6 0 0 0 2.038 2.523v21.837c5.726.388 11.355.873 16.984 1.553.388.1.873.1 1.262.194a2.212 2.212 0 0 0 1.068-.291 1.306 1.306 0 0 0 .485-1.165V67.547c-.873-.1-1.844-.194-2.717-.291a4.025 4.025 0 0 0-2.426.1M56.581 52.698a.357.357 0 0 0-.291.1h-.1c-6.6 2.135-13.1 4.367-19.6 6.891v1.844a4.256 4.256 0 0 0 .291 1.844 1.4 1.4 0 0 0 .971.679.839.839 0 0 1 .582.291c.194.1.291.388.291.776v14.264a4.076 4.076 0 0 0-1.941 3.2 1.576 1.576 0 0 0 1.941 1.65v21.836c.485-.194 1.068-.388 1.553-.582 2.814-1.068 5.629-2.038 8.443-3.009 1.165-.388 2.426-.776 3.591-1.262.873-.291 1.844-.582 2.717-.873.388-.1.776-.291 1.165-.388h.1c.194 0 .291-.1.485-.194a2.573 2.573 0 0 0 .582-.485 2.044 2.044 0 0 0 .485-1.262V84.434l-2.62.873a8.172 8.172 0 0 0-2.426 1.262 2.84 2.84 0 0 0-.971 2.232c0 .291.1 6.891-.1 7.182a1.3 1.3 0 0 1-.679.582 21.841 21.841 0 0 1-2.333.777c-1.068.388-2.135.776-3.3 1.165-.485.194-.776 0-.776-.582v-14.85a1.135 1.135 0 0 1 .971-1.165c2.426-.873 4.95-1.747 7.473-2.523a1.23 1.23 0 0 0 .971-1.165v-3.493c0-.291-.1-.582-.388-.582a.829.829 0 0 0-.679 0 220.73 220.73 0 0 0-7.376 2.523c-.582.194-.971 0-.971-.582V62.787a1.552 1.552 0 0 1 .873-1.262c1.941-.679 3.979-1.359 5.92-2.038a.209.209 0 0 1 .194.194c.1.194.1 6.794.1 7.085 0 .971.291 1.456.971 1.553a5.963 5.963 0 0 0 2.426-.388l2.62-.873V53.572a.99.99 0 0 0-.485-.776c-.1-.1-.291-.194-.679-.1m168.867-9.509a.356.356 0 0 0-.291-.1h-.1c-6.7-1.359-13.49-2.426-20.284-3.4v1.85a4.25 4.25 0 0 0 .388 2.038 2.853 2.853 0 0 0 .971 1.165l.582.582a1.355 1.355 0 0 1 .291.873v14.267a2.135 2.135 0 0 0-2.038 2.135 3.013 3.013 0 0 0 2.038 2.717v21.837c.582.1 1.068.194 1.65.291 2.912.388 5.823.873 8.735 1.359 1.262.194 2.523.485 3.688.679a28.448 28.448 0 0 0 2.814.485 4.872 4.872 0 0 0 1.165.194h.582a1.38 1.38 0 0 0 .582-.194 1.252 1.252 0 0 0 .485-1.068v-13.3a22.568 22.568 0 0 0-2.717-.485 5.5 5.5 0 0 0-2.523 0c-.679.194-.97.776-.97 1.747 0 .291.1 6.891-.1 7.085a.6.6 0 0 1-.679.194 21.019 21.019 0 0 0-2.426-.388c-1.165-.194-2.232-.388-3.4-.582a.882.882 0 0 1-.776-.97V67.353c0-.582.291-.873.97-.679 2.523.388 5.144.873 7.667 1.359.679.1.971-.1.971-.679v-3.495a.883.883 0 0 0-.388-.776 2.432 2.432 0 0 0-.679-.388c-2.523-.485-5.047-.873-7.57-1.359a.991.991 0 0 1-.97-1.068v-13.2a.587.587 0 0 1 .291-.582.713.713 0 0 1 .582-.194c2.038.291 4.076.679 6.114 1.068.1.1.194.194.194.291.194.291.1 6.891.1 7.182a2.118 2.118 0 0 0 .971 2.038 6.471 6.471 0 0 0 2.523.873 22.568 22.568 0 0 0 2.717.485V44.74a1.488 1.488 0 0 0-.485-1.068 1.741 1.741 0 0 0-.679-.485M107.917 186.531l4.464 4.27c.776.776 1.747 1.747 1.553 3.106a4.26 4.26 0 0 1-.971 1.844 2.841 2.841 0 0 1-1.941.97 4.052 4.052 0 0 1-3.106-1.553l-2.523-2.426-2.62 2.717-1.747-1.747 6.891-7.182Zm-1.359 4.95 2.232 2.135c.582.582 1.359 1.359 2.329.388a1.488 1.488 0 0 0 .485-1.068c0-.485-.291-.679-1.068-1.456l-2.038-1.941Zm13.3 5.435 8.055 4.853-.971 1.553-5.825-3.495-1.165 1.941 5.629 3.4-.873 1.553-5.726-3.4-1.262 2.038 6.211 3.688-.971 1.553-8.243-5.047Zm14.072 7.473 2.329.776-2.523 7.861 5.241 1.747-.582 1.747-7.667-2.523Z" data-name="Path 3683"/><path fill="#fff" d="m146.188 218.127 1.515-9.978 2.494.378-1.514 9.98Z" data-name="Path 3684"/><path fill="#fff" d="M169.063 215.453a4.42 4.42 0 0 1-1.262 2.232 6.37 6.37 0 0 1-4.658 1.747c-3.591.194-6.114-1.65-6.308-5.144-.194-3.785 2.814-5.435 6.017-5.629 1.165-.1 4.464.1 5.92 2.912l-2.717.485a3.416 3.416 0 0 0-3.106-1.456 3.382 3.382 0 0 0-3.4 3.688 3.522 3.522 0 0 0 3.785 3.4 3.2 3.2 0 0 0 3.106-2.038Zm8.929-8.735 2.62-.776 7.473 8.249-2.717.776-1.359-1.553-4.95 1.456-.291 2.038-2.62.776Zm2.426 2.426-.291-.291c-.1-.1-.1-.194-.194-.388v.776l-.485 3.688 3.4-.971-2.426-2.814Zm10-6.988 2.135-1.262 7.085 2.232c.873.291 1.068.388 1.941.679a18.21 18.21 0 0 1-1.165-1.747l-2.62-4.464 2.038-1.262 5.144 8.638-2.139 1.259-7.182-2.329c-.776-.291-1.068-.388-1.941-.679a7.6 7.6 0 0 1 .97 1.456l2.814 4.755-2.038 1.262-5.047-8.54Zm20.672-6.017c1.262.485 2.523-.291 3.494-1.262.485-.388 1.747-1.844.873-2.717a1.094 1.094 0 0 0-1.553.194c-.388.194-2.038 1.456-2.426 1.747-.776.485-2.814 1.844-4.367.194a2.7 2.7 0 0 1-.679-1.262c-.291-1.553.776-3.106 1.941-4.173a6.653 6.653 0 0 1 3.2-1.941 4.449 4.449 0 0 1 2.329 0l-1.262 2.135a1.735 1.735 0 0 0-1.262 0 4.6 4.6 0 0 0-1.747 1.165c-.776.776-1.456 1.747-.776 2.426.485.485.971.194 1.65-.194.388-.194 2.038-1.456 2.523-1.65.971-.679 2.717-1.747 4.27-.1 2.232 2.329-.388 5.047-1.359 6.017a5.724 5.724 0 0 1-5.92 1.844l1.068-2.426Zm-63.281-48.33s-36.1-12.034-20.381-50.466c0 0-38.141 1.553-90.451 22.71 0 0-3.688 1.553-5.823 2.329a12.137 12.137 0 0 1-10.481-.194s47.845-25.04 109.278-30.766c8.152-.776 9.22.485 6.988 3.494-1.65 2.329-23.68 30.28 10.87 52.893" data-name="Path 3685"/><path fill="#b4975a" d="M115.782 108.212c-30.959 3.979-61.142 14.752-61.142 14.752 5.144 9.123 19.119 5.338 19.119 5.338 26.2-7.376 37.85-9.9 41.635-10.676a52.689 52.689 0 0 1 .388-9.414m.194 15.043a325.89 325.89 0 0 0-48.622 13.587s6.891 7.861 20.575 3.979c11.452-3.3 26.2-7.958 30.571-9.414a38.255 38.255 0 0 1-2.523-8.152m4.853 12.52c-4.658 1.553-28.048 9.026-37.85 12.811 0 0 5.629 7.57 21.933 1.165 11.355-4.464 17.663-7.085 20.381-8.249a33.366 33.366 0 0 1-4.464-5.726m8.055 9.026c-4.076 1.747-19.216 8.346-27.951 12.617 0 0 11.064 5.435 24.845-3.106l8.638-5.629a63.9 63.9 0 0 1-5.532-3.882m9.8 6.017c-2.814 1.747-14.266 8.929-19.9 13.1 0 0 9.511 3.979 19.313-5.241 3.2-3.009 4.95-4.658 5.823-5.629a47.067 47.067 0 0 1-5.241-2.232" data-name="Path 3686"/><path fill="#fff" d="M171.101 147.809s36.1-12.034 20.381-50.466c0 0 38.141 1.553 90.451 22.71 0 0 3.688 1.553 5.823 2.329a12.113 12.113 0 0 0 10.481-.194s-47.845-25.04-109.279-30.766c-8.152-.776-9.22.485-6.988 3.494 1.747 2.329 23.68 30.28-10.87 52.893" data-name="Path 3687"/><path fill="#b4975a" d="M203.128 108.212c30.959 3.979 61.142 14.752 61.142 14.752-5.144 9.123-19.119 5.338-19.119 5.338-26.2-7.376-37.85-9.9-41.635-10.676a44.965 44.965 0 0 0-.388-9.414m-.194 15.043a325.89 325.89 0 0 1 48.623 13.587s-6.891 7.861-20.575 3.979c-11.452-3.3-26.2-7.958-30.571-9.414a38.254 38.254 0 0 0 2.523-8.152m-4.755 12.52c4.658 1.553 28.048 9.026 37.85 12.811 0 0-5.629 7.57-21.934 1.165-11.355-4.464-17.663-7.085-20.381-8.249a38.982 38.982 0 0 0 4.464-5.726m-8.152 9.026c4.076 1.747 19.216 8.346 27.951 12.617 0 0-11.064 5.435-24.845-3.106l-8.638-5.629a51.826 51.826 0 0 0 5.532-3.882m-9.705 6.017c2.814 1.747 14.266 8.929 19.9 13.1 0 0-9.511 3.979-19.313-5.241-3.2-3.009-4.95-4.658-5.823-5.629a56.334 56.334 0 0 0 5.241-2.232" data-name="Path 3688"/><path fill="#fff" d="M189.054 168.771a29.6 29.6 0 1 1-29.6-29.6 29.594 29.594 0 0 1 29.6 29.6" data-name="Path 3689"/><path fill="#b4975a" d="M182.941 174.885a23.438 23.438 0 1 1-23.487-23.486 23.505 23.505 0 0 1 23.486 23.486" data-name="Path 3690"/><path fill="#002b5c" d="M159.455 136.939a31.833 31.833 0 1 0 31.833 31.833 31.851 31.851 0 0 0-31.833-31.833m26.786 26.689a27.5 27.5 0 0 1-14.364 17.857c.582-3.882 2.232-7.764 3.979-11.743 2.523-5.823 5.338-12.131 4.173-18.925a28.753 28.753 0 0 1 6.211 12.811m-40.761-18.246a27 27 0 0 1 12.034-3.785v42.9a34.423 34.423 0 0 1-6.308-1.165c-.194-5.338-2.426-10.287-4.561-15.043-3.494-8.055-6.6-15.043-1.165-22.9m5.435 41.926a29.356 29.356 0 0 0 6.5 1.068v7.57a26.354 26.354 0 0 1-10-2.717 9.862 9.862 0 0 0 3.494-5.92m10.579 1.165a28.455 28.455 0 0 0 6.5-1.068 11.268 11.268 0 0 0 3.494 5.92 26.848 26.848 0 0 1-10 2.717Zm6.308-5.241a27.972 27.972 0 0 1-6.308 1.262v-42.9a27 27 0 0 1 12.034 3.785c5.435 7.861 2.329 14.752-1.165 22.807-2.232 4.853-4.367 9.8-4.561 15.043m-28.824-32.318c-1.262 6.7 1.553 13.1 4.173 18.925 1.747 4.076 3.494 7.958 4.076 11.84a27.176 27.176 0 0 1-14.364-18.051 25.966 25.966 0 0 1 6.114-12.714m-6.308 22.71a30.807 30.807 0 0 0 14.56 12.418 1.231 1.231 0 0 1-.1.582c-.291 2.038-2.038 3.688-3.2 4.658a27.791 27.791 0 0 1-11.258-17.663m42.314 17.566c-1.165-.971-2.912-2.62-3.2-4.658a1.231 1.231 0 0 0-.1-.582 31.112 31.112 0 0 0 14.461-12.423 26.592 26.592 0 0 1-11.161 17.663" data-name="Path 3691"/><path fill="#002b5c" d="M168.965 95.595s-.194.971-.873.971c-.582 0-4.464-1.844-6.308-2.814-.776-.388-1.844-1.068-2.232-1.262 0 0-1.65.873-2.426 1.262-1.844.971-5.629 2.814-6.308 2.814-.582 0-.873-.971-.873-.971s-10 6.017-10 22.807c0 12.423 6.5 18.149 6.5 18.149l.873 3.494h24.36l.873-3.494s6.5-5.629 6.5-18.149c-.1-16.79-10.093-22.807-10.093-22.807" data-name="Path 3692"/><path fill="#fff" d="M173.721 114.132a18.366 18.366 0 0 0-4.367-11.937s-.1 1.456-2.523-.194a12.843 12.843 0 0 0-14.752 0c-2.426 1.65-2.523.194-2.523.194a18.158 18.158 0 0 0-4.367 11.937c0 4.27 1.068 6.405 1.456 6.988 2.135 5.435 7.085 9.317 12.811 9.317s10.579-3.785 12.714-9.123c.194-.1 1.553-2.232 1.553-7.182" data-name="Path 3693"/><path fill="#002b5c" d="M164.793 125.875a3.549 3.549 0 0 1 .873-4.561s5.241 1.068 5.338-5.823a4.6 4.6 0 0 1 .582-2.232s-1.359-1.262-4.27.971-4.561 8.443-6.114 6.988-.97-9.608-1.844-9.9c-.776.291-.194 8.443-1.844 9.9-1.553 1.456-3.2-4.755-6.114-6.988s-4.27-.971-4.27-.971a3.488 3.488 0 0 1 .582 2.232c.1 6.988 5.338 5.823 5.338 5.823a3.541 3.541 0 0 1 .873 4.464v.1c-6.308-6.7-9.9-5.823-8.152 1.747 1.747 7.376 8.541 39.209 9.608 46.584-.194 6.6-.873 9.026-1.165 9.511l-.679 1.359.776 1.553a25.112 25.112 0 0 1 2.329 4.464l2.62 6.6 2.523-6.6a25.113 25.113 0 0 1 2.329-4.464l.776-1.456-.679-1.456c-.194-.485-.971-2.814-1.068-9.22.873-6.6 7.861-39.4 9.608-46.973 2.038-7.473-1.65-8.443-7.958-1.65" data-name="Path 3694"/><path fill="#e31837" d="M155.185 159.066c-2.232-11.84-4.076-20.575-5.435-26.98-1.068-4.853 1.844-2.912 3.4.1Zm8.54 0c2.232-11.84 4.076-20.575 5.435-26.98 1.068-4.853-1.844-2.912-3.4.1Zm-12.034-40.179a.837.837 0 0 1-.582-1.068 1.34 1.34 0 0 1 .291-.388 10.625 10.625 0 0 0-1.068-.971s-.776 3.4 2.329 3.106c0 0-.1-.291-.291-.776a.613.613 0 0 1-.679.1m16.984-2.329a5.088 5.088 0 0 0-1.068.971c.1.1.291.291.291.388a.88.88 0 0 1-.582 1.068.852.852 0 0 1-.679-.1 4.289 4.289 0 0 0-.291.776c3.009.291 2.329-3.106 2.329-3.106m-7.764 46.876c.971-18.343 2.426-31.25 2.426-32.9a9.3 9.3 0 0 0-.291-2.135l-1.068 3.494-.291-6.114a14.441 14.441 0 0 0-2.135-2.038h-.095a14.442 14.442 0 0 0-2.135 2.038l-.291 6.114-1.068-3.494a9.3 9.3 0 0 0-.291 2.135c0 1.65 1.456 14.558 2.426 32.9.971 18.246-1.262 21.642-1.262 21.642a33.91 33.91 0 0 1 2.717 5.241 39.487 39.487 0 0 1 2.717-5.241c-.1 0-2.329-3.4-1.359-21.642" data-name="Path 3695"/></svg>