<svg xmlns="http://www.w3.org/2000/svg" width="442.569" height="358.887" data-name="new york knicks"><path fill="#fff" d="m220.7 358.887-29.388-38.146a95.889 95.889 0 0 1-65.782-85.244l-18.294-23.549a247.131 247.131 0 0 0-34.643 19.267L18.1 176.526l22.965-50.6L0 72.403h65.393l12.65-27.636 32.5-13.04 3.5-9.731 26.274 11.872 6.228-21.8 4.282-1.362A220.01 220.01 0 0 1 220.117.003h8.758c.778 0 4.476.389 4.476.389a217.658 217.658 0 0 1 58 10.12l4.282 1.362 5.641 20.829 9.536-7.006 53.326 18.684 12.651 28.022h65.782l-41.454 53.521 22.576 49.823-55.467 57.024s-20.241-14.791-34.253-20.241l-16.737 21.408a96.711 96.711 0 0 1-67.534 87.387Z" data-name="Path 3888"/><path fill="#b3b2b1" d="M220.7 332.419 409.872 88.558H32.696Z" data-name="Path 3889"/><path fill="#006bb6" d="M409.872 88.557 220.7 332.418 32.696 88.557Zm-392.551-7.59 203.379 264.1 204.741-264.1Z" data-name="Path 3890"/><path fill="#006bb6" d="m382.626 105.49-.389-.195-12.067-8.174 4.476-8.563.195-.389-.195-.195-16.737-36.589v-.195l-.195-.195-44.763-15.955h-.389l-.195.195-11.872 9.144h-.195v.195l-1.946 5.06a400.573 400.573 0 0 0-46.125-7.4c-2.725-.195-10.12-.778-21.992-1.752l-1.168-.195h-1.557l-9.147 8.953v-8.948s-25.106 1.168-41.649 3.5c-16.348 2.335-32.5 6.423-32.5 6.423l-3.114-6.423-.195-.195-.195-.195-21.217-9.727-.584-.195-.195.584-2.335 6.812-.584-1.362-.195-.584-.584.389-30.357 12.066-.195.195h-.195l-55.856 123 45.736 45.931 2.335-1.168c1.168-.778 3.114-1.946 5.449-3.309 5.644-3.309 13.234-7.785 16.932-9.536l.584-.389c4.671-2.335 7.2-3.309 29.388-13.04l1.946-.778s2.53-.973 7.006-2.53c12.261-3.892 44.179-13.429 75.124-13.429h3.892c21.214.584 45.541 5.06 62.473 8.563 16.154 3.5 28.415 6.812 31.918 7.785l2.335.778a320.472 320.472 0 0 1 51.38 26.858l2.335 1.168 46.514-47.682Z" data-name="Path 3891"/><path fill="#ff671b" d="m377.37 109.772-44.568-29.778-7.59-21.8 13.623 5.06 5.644 13.626 21.019 6.617-12.261-27.052-39.7-14.013-7.4 5.644 13.234 43.011 42.427 29.972 10.7 27.052-17.711-7.979-6.033-16.932-21.6-6.423 11.677 38.34c3.5 1.168 7.006 2.53 10.51 3.892 9.536 3.892 19.073 8.369 28.415 12.845 6.423 3.309 12.65 6.812 18.878 10.51l9.147-9.536Z" data-name="Path 3892"/><path fill="#ff671b" d="m76.291 130.012 14.791-13.234 3.5 4.087-14.6 42.233c8.174-3.5 16.154-6.812 24.522-9.731l10.51-34.837-9.14-15.181 18.878-18.1 11.288-37.172-13.624-6.228-12.261 35.032-19.851 16.932 17.905-45.152-19.267 7.788L35.81 173.024l8.369 8.369c5.06-2.919 9.926-5.644 14.986-8.174Z" data-name="Path 3893"/><path fill="#ff671b" d="m210.969 46.714-16.154.973-7.785 87.58c7.006-.584 14.013-1.168 21.019-1.362Z" data-name="Path 3894"/><path fill="#ff671b" d="m259.43 116.972-19.073-1.168-3.114-53.52 16.154.584-1.946-14.791-21.6-1.362-9.536 9.536v66.95l10.12 10.51a269.138 269.138 0 0 1 30.945 2.335Z" data-name="Path 3895"/><path fill="#ff671b" d="m151.999 81.36 6.812 33.28-4.282 25.106c6.617-1.168 13.234-2.335 19.851-3.114l10.51-87.972-15.18 2.335-5.06 28.609-5.449-26.663-17.906 4.282-24.522 92.056c7.006-2.335 14.4-4.282 21.6-6.033Z" data-name="Path 3896"/><path fill="#ff671b" d="m283.758 112.302 5.255-7.2 7.785 6.423 7.2 32.5c7.4 1.946 14.986 4.087 22.187 6.423l-13.234-47.683-13.818-11.288 7.785-10.51L300.3 56.64l-16.543-3.7 6.617 24.522-10.314 13.626-7.785-40.092L256.9 49.05s7.59 58.97 11.483 87.969a426.508 426.508 0 0 1 20.824 3.5Z" data-name="Path 3897"/><path fill="#b3b2b1" d="M189.367 151.815s6.419-3.9 19.267-5.26l-.389-10.12c-7.006.195-14.013.584-21.019 1.362.584 3.893 1.56 9.926 2.141 14.018Z" data-name="Path 3898"/><path fill="#b3b2b1" d="M230.237 145.971a142.092 142.092 0 0 1 15.764 3.5 74.156 74.156 0 0 1 13.04 4.671l2.335-15.57c-10.51-1.168-20.241-1.946-30.75-2.335-.194 3.312-.194 7.593-.389 9.734Z" data-name="Path 3899"/><path fill="#b3b2b1" d="M162.704 170.688c5.839-4.476 9.536-9.147 15.764-13.04a3036.295 3036.295 0 0 0-3.892-18.489c-6.812.778-13.623 1.946-20.241 3.309 2.53 8.563 5.84 19.656 8.369 28.22Z" data-name="Path 3900"/><path fill="#b3b2b1" d="M264.296 157.648a75.638 75.638 0 0 1 15.57 12.26l.973.778 8.369-27.247c-7.2-1.557-14.013-2.919-21.214-3.892Z" data-name="Path 3901"/><path fill="#b3b2b1" d="m290.18 181.197 19.657 4.476 16.348-32.5c-7.4-2.53-14.986-4.476-22.576-6.423Z" data-name="Path 3902"/><path fill="#b3b2b1" d="M132.731 185.673c5.06-1.946 12.261-4.282 18.878-6.228l-12.65-33.669c-7.785 1.946-14.6 3.7-21.992 6.228 4.866 11.292 10.12 22.965 15.764 33.669Z" data-name="Path 3903"/><path fill="#b3b2b1" d="M103.344 197.935c.973-.973 12.261-5.839 19.851-9.147-5.839-10.315-12.845-21.992-18.489-32.5-8.563 2.919-15.959 6.033-24.133 9.536Z" data-name="Path 3904"/><path fill="#b3b2b1" d="M75.513 212.531c3.5-2.336 7.4-4.282 11.483-6.812l-25.885-30.555c-5.06 2.53-9.926 5.255-14.791 8.174Z" data-name="Path 3905"/><path fill="#b3b2b1" d="M319.957 189.761a301.79 301.79 0 0 1 46.125 23.938c4.087-3.7 25.69-26.468 28.8-29.582a358.847 358.847 0 0 0-56.631-26.858Z" data-name="Path 3906"/><path fill="#b3b2b1" d="m227.318 145.387-7.59-.195-.195-18.1 7.785 8.174Z" data-name="Path 3907"/><path fill="#006bb6" d="M221.479 141.884a87.385 87.385 0 1 0 .007 0Z" data-name="Path 3908"/><path fill="#ff671b" d="M226.928 148.501a177.708 177.708 0 0 0-19.657 8.758c-4.282-2.725-6.812-3.309-9.926-5.255 9.148-3.503 19.269-3.893 29.583-3.503Z" data-name="Path 3909"/><path fill="#ff671b" d="M289.597 185.674c-20.63-20.824-51.575-19.268-77.849-26.663 0 0 15.57-7.2 23.355-9.342 21.603 3.698 42.427 16.348 54.494 36.005Z" data-name="Path 3910"/><path fill="#ff671b" d="M173.602 188.788a101.144 101.144 0 0 0-6.621 100.619c-20.435-16.932-32.5-50.407-23.355-82.52 7.4-10.509 17.131-19.656 29.976-18.099Z" data-name="Path 3911"/><path fill="#ff671b" d="M194.816 210.585c10.7 31.723 13.04 66.755 40.87 98.868-21.8 4.282-43.011-2.336-59.943-13.04-21.214-30.752-19.267-76.68 1.946-106.652 10.121 3.114 15.765 16.543 17.127 20.824Z" data-name="Path 3912"/><path fill="#ff671b" d="M180.025 186.452a83.305 83.305 0 0 1 10.9-12.65c44.763 12.65 87.58 59.165 94.975 104.9-2.141 3.309-7.2 8.174-10.7 11.677a81.469 81.469 0 0 1-35.226 18.1c-21.019-21.8-27.831-50.018-35.227-77.849-5.649-21.407-9.542-37.56-24.722-44.178Z" data-name="Path 3913"/><path fill="#ff671b" d="M284.731 186.257c-21.6-19.073-51.769-16.543-77.07-25.5a110.109 110.109 0 0 0-13.818 10.12c44.958 14.013 85.633 58 95.364 103.344a79.841 79.841 0 0 0 13.04-34.448c.976-19.262.976-36.778-17.516-53.516Z" data-name="Path 3914"/><path fill="#ff671b" d="M187.226 172.245a96.8 96.8 0 0 0-10.9 13.04h-.195c-11.872-2.725-21.214 3.5-28.609 11.288a74.87 74.87 0 0 1 19.073-26.858c7.202.195 12.651.195 20.631 2.53Z" data-name="Path 3915"/><path fill="#ff671b" d="M190.343 169.52a100.978 100.978 0 0 1 13.429-10.12l-11.486-5.644c-7.785 3.114-15.959 7.2-21.6 12.261a102.071 102.071 0 0 1 19.657 3.5Z" data-name="Path 3916"/><path fill="#006bb6" d="m209.024 34.453-3.5 3.5-6.033.389-2.335-1.946-2.919 2.335-6.617.584-2.919-2.725 3.887-25.881 5.06-.584-2.725 22.965 3.5-.389 2.923-22.965 4.866-.389-1.946 22.771 3.5-.389 1.75-22.577a25.727 25.727 0 0 1 5.255-.389Z" data-name="Path 3917"/><path fill="#006bb6" d="M225.371 8.374v16.348h3.114l-.195-16.348s3.309.195 4.866.389l.584 18.1-3.118 3.114h-.973l.195 7.785-5.449-.195v-7.785h-1.168l-3.309-3.5.195-18.1c1.95.192 5.258.192 5.258.192Z" data-name="Path 3918"/><path fill="#006bb6" d="m184.89 11.293-.778 5.449-6.228 1.168-.973 6.033c2.335-.195 3.5-.584 6.228-.973-.389 2.335-.584 3.309-.973 5.449l-6.033.778-1.168 6.036 6.228-.778s-.584 3.892-.778 5.839a92.873 92.873 0 0 0-12.846 1.939s4.476-21.8 5.839-28.609Z" data-name="Path 3919"/><path fill="#006bb6" d="m162.117 43.211-6.228 1.168 2.919-11.872-1.946-4.282-5.252 16.927-6.033 1.367c2.53-9.147 5.06-18.489 7.59-27.636 2.141-.778 3.7-1.168 5.644-1.946a49.306 49.306 0 0 0 2.335 4.671l1.557-5.839s3.892-.973 5.839-1.557Z" data-name="Path 3920"/><path fill="#006bb6" d="m242.692 14.601 1.752 17.905 3.114.195-1.752-17.711Zm8.171-1.167c.584 7.4 1.946 14.6 2.725 21.408l-2.919 4.087-8.758-.584-3.309-3.5c-.389-7.59-.973-15.18-1.362-22.771.778-.973 2.141-1.946 3.114-2.919l7.4.584Z" data-name="Path 3921"/><path fill="#006bb6" d="M279.667 15.964c1.168 4.282 3.309 13.04 3.309 13.04l2.141.389.973-1.362-2.723-10.899 5.449 1.557 2.919 10.51-1.168 1.946 2.335 2.53 3.7 12.845-6.035-1.362-2.53-8.953-3.7-.778 1.946 8.953-6.228-1.168c-2.136-9.732-6.028-28.61-6.028-28.61a48.46 48.46 0 0 1 5.64 1.362Z" data-name="Path 3922"/><path fill="#006bb6" d="m261.571 17.521.973 7.2 3.309.389-1.362-7.2Zm8.563-.389 1.946 10.51-.973 1.752 1.946 2.53 1.946 10.51-6.033-.973-1.752-8.758-3.5-.389 1.168 8.563-5.839-.778-3.892-29 11.288 1.946Z" data-name="Path 3923"/></svg>