<svg xmlns="http://www.w3.org/2000/svg" width="551.455" height="399.74" data-name="orlando magic"><path fill="#c2ccd2" d="M222.657 278.396c29.43-4.583 59.1-3.136 84.913 7.719l3.136-7c-41.733-13.268-94.563-12.785-133.4 8.684l11.1-25.812c-49.452 13.268-82.26 41.251-115.791 69.716 24.36-57.408 77.19-104.448 136.776-121.816l-2.9 9.649c52.347-17.127 109.76-20.5 156.077-12.785l-10.855-14.233 26.777 7 17.13-25.816 6.754 31.843 26.294 8.443s-19.057 7.961-18.334 8.443c99.387 40.768 67.545 176.823-26.777 177.305-47.764.482-84.913-42.7-83.225-87.808-24.604-15.926-48.727-23.641-77.675-33.532Z" data-name="Path 3767"/><path fill="#c2ccd2" d="M203.841 97.232v-.241a14.329 14.329 0 0 1 4.825-9.408 17.69 17.69 0 0 1 9.167-2.895s2.895-.241 5.548-.241l8.684-.724v61.514l-7.478.482c-4.583.241-7.237.483-12.3.724l-8.443.724Zm-41.733-1.689a41.354 41.354 0 0 1 9.408-27.5 40.1 40.1 0 0 1 26.294-12.062c20.263-1.689 40.768-2.895 61.032-3.377l14.956-.241v172.481l-.241 14.715-14.956-.241c-2.654 0-22.676.724-26.294.724h-.482l-15.921 1.689v-.482l-10.132.482c-1.447 0-25.571 2.412-26.535 2.654l-17.127 2.895Z" data-name="Path 3768"/><path fill="#c2ccd2" d="M532.156 279.602s-20.022-6.272-22.917-7c-.241 0-.241 0-.241-.241-9.167-2.654-17.369-4.825-23.158-6.513l-10.614-2.654a40.384 40.384 0 0 1-33.531-41.97V109.052c0-10.855 3.377-20.987 11.338-27.259a28.035 28.035 0 0 1 18.092-5.79 55.076 55.076 0 0 1 10.614 1.206c1.447.482 5.307 1.447 11.579 3.136 6.031 1.689 13.75 4.1 21.47 6.272 15.439 4.342 30.636 8.684 30.636 8.684l5.79 1.689v76.229l-48.729-15.2-.724-4.825s-1.447-8.926-2.895-17.127v85.4l.241.482s-.241.241 1.447.724c0 0 3.136.724 5.066 1.206 1.447-5.548 2.895-11.579 2.895-11.579l1.93-8.443 40.768 12.062.241 68.992Z" data-name="Path 3769"/><path fill="#c2ccd2" d="M.241 118.943a29.452 29.452 0 0 1 8.926-20.5 40.367 40.367 0 0 1 14.956-9.649c22.435-7.237 54.277-12.062 55.724-12.3l8.444-1.219a41.49 41.49 0 0 1 11.82-4.583c10.855-2.171 44.387-8.443 45.834-8.684l17.369-3.377V234.01l-.241 13.027-13.026 1.447c-.965 0-25.329 4.342-26.535 4.583l-18.092 4.1v-28.464L55 240.765v28.71l-11.1 2.65c-.241 0-3.86 1.206-7.719 2.412-4.1 1.206-8.684 2.654-12.062 3.618a20.213 20.213 0 0 0-4.1 1.447L0 286.84V118.943Z" data-name="Path 3770"/><path fill="#c2ccd2" d="M424.567 252.584h-.482c-.241 0-.482-.241-.724-.241a19.057 19.057 0 0 1-3.136-.724 72.129 72.129 0 0 1-8.684-1.447c-6.031-.965-12.544-2.171-13.026-2.171l-6.031-.482-7-.724V60.323l15.921 1.206c1.689.241 5.066.724 10.132 1.689 4.825.724 10.614 1.689 14.474 2.412a39.553 39.553 0 0 1 5.79.965l11.1 2.895v186.954Z" data-name="Path 3771"/><path fill="#c2ccd2" d="M367.878 244.141c-1.689-.241-11.82-1.206-22.193-2.171-10.132-.724-20.987-1.447-28.224-1.93l-7.478-.241c-10.855-.482-20.263-3.86-27.018-10.614-6.754-7-9.891-16.4-9.891-27.259V85.17c0-9.167 2.654-17.851 9.167-23.882 7.961-7.478 17.61-8.2 23.641-8.2h6.513c1.93 0 4.583.241 8.443.482h4.342l-.241.241c4.342.241 9.408.724 16.4 1.206 22.676 1.689 28.707 2.412 32.084 3.136a12.141 12.141 0 0 1 3.136.965l8.443 4.1v60.79l-48.243-6.272-1.206-5.55s-1.206-6.031-2.412-11.579h-2.171l.241 21.952v4.827h3.377a36.014 36.014 0 0 1 6.272.482c2.895.241 6.513.483 10.132.724 7.478.724 15.68 1.689 19.781 2.171a10.815 10.815 0 0 1 2.895.241l11.579 2.654-.241 113.861Z" data-name="Path 3772"/><path d="M215.178 135.105a46.847 46.847 0 0 1 5.79-.482V95.547a19.648 19.648 0 0 1-2.171.241q-2.533 0-2.895.724c-.482.241-.482.241-.724 1.206Zm-48.246-39.558c-.241-19.54 11.82-33.29 31.6-34.737 20.022-1.689 40.527-2.895 60.79-3.377l9.891-.241v177.541l-10.132-.241c-2.654 0-25.571.724-27.259 1.206l-10.855.965v-65.374a46.848 46.848 0 0 0-5.79.482v55.724l-.241 9.408-9.167.241c-1.93 0-25.329 2.412-27.018 2.895l-11.579 1.689Z" data-name="Path 3773"/><path d="M533.845 275.02s-17.61-5.548-22.435-6.754c-.483-.241-.724-.241-.965-.482-9.89-2.895-18.816-5.307-24.847-6.754l-9.408-2.412c-19.057-4.342-29.913-18.092-29.671-37.391V109.294c0-10.373 2.895-18.334 9.408-23.641a24.137 24.137 0 0 1 14.956-4.827 45.9 45.9 0 0 1 9.649 1.206c3.136.724 63.444 18.092 63.444 18.092l2.412.482v66.1l-39.8-12.3-.241-1.93s-3.136-19.3-4.342-27.5c-2.412-.724-4.342-1.206-5.548-1.447l-1.206-.482-1.206-.482v98.9a4.781 4.781 0 0 0 .724 2.654 6.269 6.269 0 0 0 4.342 3.136s5.307 1.447 10.132 2.654c1.447-6.513 3.619-16.4 3.619-16.4l.965-3.377 32.566 9.891v58.86Z" data-name="Path 3774"/><path d="M5.066 118.942c.48-14.232 12.544-22.917 20.505-25.57 21.952-7 53.553-11.82 55.242-12.062l9.408-1.689a40.92 40.92 0 0 1 11.1-4.342c10.855-2.171 44.145-8.443 45.834-8.926l11.579-1.93v169.345l-.241 8.684-8.684 1.206c-1.93 0-25.329 4.1-27.018 4.583l-12.3 2.654V113.876h-.245c-3.377.965-4.1 1.689-4.825 5.548v104.213l-47.767 11.338V125.697a1.191 1.191 0 0 1-.724.241 11.031 11.031 0 0 0-4.825 2.171 3.486 3.486 0 0 0-1.446 3.375V257.65l-.241 7.719-7.478 1.689c-1.689.482-22.676 7-24.123 7.478l-13.51 5.066v-160.66Z" data-name="Path 3775"/><path d="M425.532 247.76c-1.689-.482-25.088-4.342-26.777-4.583l-6.031-.482-2.895-.241V65.63l10.855.965c2.654.241 27.018 4.342 29.671 5.066l7.478 1.93v176.822Z" data-name="Path 3776"/><path d="M326.386 196.137a12.234 12.234 0 0 0 .482 2.171c.241.241.724.724 3.136.965a16.248 16.248 0 0 1 2.412.241v-33.29a41.869 41.869 0 0 0-4.342-.241l-1.689-.241Zm42.216 43.18c-4.583-.965-36.185-3.377-50.659-4.1l-7.719-.482c-9.89-.241-18.092-3.377-23.641-9.167-5.548-5.548-8.443-13.991-8.443-23.641V85.17c0-8.443 2.412-15.439 7.478-20.5 6.513-6.031 14.956-6.754 20.5-6.754h6.272c4.1 0 11.82.724 28.465 1.93 22.917 1.689 28.948 2.412 31.843 2.895a16.626 16.626 0 0 1 1.93.724l5.789 2.895v52.341l-39.557-5.307-.482-2.171s-1.93-9.408-3.136-15.2h-2.171c-.241 0-6.272-.482-6.272-.482h-.965a2.612 2.612 0 0 0-1.447.241v36.908l8.2-.241h.241c1.93 0 10.614.724 19.3 1.447a471.596 471.596 0 0 1 18.816 1.93l7.719 1.689-.241 104.212Z" data-name="Path 3777"/><path fill="#fff" d="M226.278 89.995v49.694c-4.1.241-12.062.724-16.645.965V97.236c.482-2.895 1.447-6.272 8.684-6.754-.003-.004 4.339-.487 7.961-.487Zm33.049-25.571v-1.688c-20.263.482-40.286 1.447-60.308 3.136-17.131 1.689-26.78 12.064-26.541 29.43v139.914l5.066-.965c1.689-.241 26.294-2.654 27.742-2.895h4.1v-65.132c4.1-.241 12.062-.965 16.645-1.206v65.374l5.066-.483c1.206-.241 24.123-1.206 27.5-1.206h.241l2.895.241h1.689V62.736h-4.583Z" data-name="Path 3778"/><path fill="#fff" d="m541.082 223.878-23.158-6.754-.241 1.689s-2.895 12.544-4.1 18.092c-9.167-2.654-13.268-3.86-15.439-4.342a12.118 12.118 0 0 1-7.961-5.79 14.168 14.168 0 0 1-1.447-5.307v-99.629a8.933 8.933 0 0 1 .965-3.618c.483-.724 1.206-.965 2.654-.965a16.6 16.6 0 0 1 3.136.482h.482c.241 0 4.1 1.206 10.855 3.136.965 5.79 4.583 28.224 4.583 28.224v1.206l29.43 8.926v-54.277l-1.206-.482s-57.413-16.4-60.549-16.886a35.634 35.634 0 0 0-8.443-1.206 18.426 18.426 0 0 0-11.579 3.618c-5.066 3.86-7.478 10.614-7.478 19.3v111.929c-.243 16.887 8.684 27.987 25.329 32.087h.965c1.93.482 17.851 4.825 33.772 9.167l23.4 7.237 5.548 1.689Z" data-name="Path 3779"/><path fill="#fff" d="M102.282 80.828a31.164 31.164 0 0 0-15.68 8.443v-3.613l-5.066.724c-1.447.241-33.049 5.307-54.277 12.062-6.754 2.412-16.4 9.89-16.645 20.5v153.181l6.031-2.412c1.206-.482 23.4-7.237 24.847-7.719l2.171-.482 1.206-.241V131.487c0-6.513 6.031-9.408 10.132-10.855a75.707 75.707 0 0 1 7.719-1.447v109.036l36.908-8.684V118.943c.965-6.031 3.618-8.925 9.167-10.373.965-.241 4.1-.724 7-1.206v137.019l5.548-1.447c1.206-.241 26.053-4.583 27.742-4.583l2.412-.241h1.689V70.938l-5.307.965s-34.745 6.513-45.597 8.925Z" data-name="Path 3780"/><path fill="#fff" d="m400.198 71.9-3.136-.241-1.689-.241v165.969l1.447.241 2.654.241c1.206.241 26.053 4.1 27.5 4.583l5.548 1.206V77.451l-3.377-.965C426.979 76 402.374 71.9 400.198 71.9Z" data-name="Path 3781"/><path fill="#fff" d="M334.829 137.517h-.241l-2.654.241h-1.447v23.158h1.447s3.377.241 5.79.482v44.145c-3.618-.482-8.2-.724-8.2-.724a8.8 8.8 0 0 1-7.478-3.86 10.771 10.771 0 0 1-1.206-4.825V95.784a6.315 6.315 0 0 1 1.206-4.1 7.144 7.144 0 0 1 5.548-1.689h1.93c.724 0 4.825.241 12.062.965.965 4.342 3.618 16.4 3.618 16.4l.241.965 29.671 3.86v-42.7l-2.654-1.206c-1.206-.482-2.412-.965-32.084-3.136-17.61-1.447-25.088-1.93-28.465-1.93h-6.031c-4.825 0-11.579.724-16.4 5.307-4.1 3.86-6.031 9.408-6.031 16.645v116.761c0 16.886 9.649 27.018 26.777 27.5h.965c4.342 0 51.865 3.377 58.378 4.583l5.307.965.241-93.357-3.618-.724c-2.417-.481-33.294-3.376-36.672-3.376Z" data-name="Path 3782"/><path fill="#0b77bd" d="m536.499 227.256-15.439-4.583-4.583 20.022c-9.89-3.136-20.022-5.79-20.022-5.79a16.289 16.289 0 0 1-10.614-8.2 15.847 15.847 0 0 1-1.93-7.237v-99.63a10.77 10.77 0 0 1 1.93-6.272c1.447-1.93 4.583-4.1 10.614-2.171a147.109 147.109 0 0 1 14.233 4.1l4.583 29.189 20.987 6.513v-44.868s-55.483-15.921-57.9-16.645c-14.715-3.618-22.193 2.412-22.193 17.61v111.931c0 15.2 7.478 24.123 22.193 27.742 0-.241 18.575 4.825 34.5 9.408l23.641 7ZM82.26 107.605V90.96s-32.322 5.066-53.553 12.058c-5.548 1.692-13.509 7.964-13.509 16.166v146.669c1.689-.724 23.641-7.478 25.329-7.961V131.728c0-8.926 7.237-13.268 13.509-15.2 3.377-.965 13.509-2.412 13.509-2.412v108.556l27.983-6.754v-97.216c.965-7.719 5.066-12.785 12.544-14.474 7.237-1.206 12.544-1.93 12.544-1.93v136.3c1.447-.482 26.535-4.583 28.224-4.825V76.245s-34.737 6.513-45.593 8.684a27.947 27.947 0 0 0-20.987 22.676Zm317.461 125.923c1.93 0 26.294 4.1 27.983 4.583V81.069c-1.689-.482-26.294-4.583-27.983-4.583ZM176.823 95.543v134.366c1.93-.241 26.535-2.654 28.465-2.654v-65.132c8.443-.724 16.886-1.206 25.329-1.689v65.133c1.93-.241 27.018-1.206 28.707-1.206V67.078c-20.022.482-40.044 1.689-60.067 3.377-14.719 1.448-22.434 10.132-22.434 25.088Zm28.465 1.689c.241-3.136 1.93-10.373 12.544-11.1 4.342-.483 8.443-.724 12.785-.965v58.86c-8.443.482-17.127 1.206-25.571 1.689V97.232Zm129.542 59.586c1.689 0 7.478.482 7.478.482v52.83c-4.342-.241-8.684-.724-13.026-.965-6.272-.482-9.408-3.377-10.855-6.031a13.494 13.494 0 0 1-1.689-7v-73.573c0-13.991-.241-24.364-.241-25.329v-1.447a11.137 11.137 0 0 1 2.412-7c2.171-2.412 5.79-3.618 10.614-3.136 0-.241 7.237.483 15.921 1.206l3.86 17.61 21.47 2.895V72.626c-1.689-.724-59.825-5.307-59.825-4.583h-.965c-4.825-.241-12.3-.483-17.127 3.86-3.136 2.895-4.583 7.478-4.583 13.509v116.514c0 14.956 7.478 22.435 22.676 23.158 0-.482 52.347 3.136 59.825 4.583 0-1.689.241-82.5.241-84.19-1.93-.241-34.014-3.377-35.7-3.377v14.718Z" data-name="Path 3783"/><path fill="#0b77bd" d="M82.26 107.605V90.96s-32.322 5.065-53.553 12.061c-5.548 1.689-13.509 7.961-13.509 16.163v146.668c1.689-.724 23.641-7.478 25.329-7.961V131.728c0-8.684 7.237-13.268 13.509-15.2 3.377-.965 13.509-2.412 13.509-2.412v108.556l27.983-6.754v-97.217a15.667 15.667 0 0 1 12.544-14.474c7.237-1.206 12.544-1.93 12.544-1.93v136.3c1.447-.482 26.535-4.583 28.224-4.825V76.247s-34.737 6.513-45.593 8.684a27.947 27.947 0 0 0-20.987 22.674Zm317.461 125.922c1.93 0 26.294 4.1 27.983 4.583V80.828c-1.689-.482-26.294-4.342-27.983-4.583Zm-64.891-76.712c1.689 0 7.478.482 7.478.482v52.83c-4.342-.241-8.684-.724-13.026-.965-6.272-.482-9.408-3.377-10.855-6.031a14.449 14.449 0 0 1-1.93-7v-73.57c0-13.991-.241-24.364-.241-25.329v-1.448a11.136 11.136 0 0 1 2.412-7c2.171-2.412 5.79-3.618 10.614-3.136 0-.241 7.237.483 15.921 1.206l3.86 17.61 21.47 2.895V72.626c-1.93-.724-59.825-5.307-59.825-4.583h-1.206c-4.342-.241-12.062-.483-16.886 3.86-3.136 2.895-4.583 7.478-4.583 13.509v116.514c0 14.715 7.478 22.435 22.676 23.158 0-.482 52.347 3.136 59.825 4.583v-84.19c-1.689-.241-33.772-3.377-35.7-3.377Z" data-name="Path 3784"/><path d="M179.959 44.644a.857.857 0 0 1-.482.724c-.241.482-.965.724-1.93.965a11.9 11.9 0 0 0-3.618.724h-.488c-.482 0-.482-.241-.482-.241a.236.236 0 0 0-.241-.241v-27.5s0-.241.482-.724a3.369 3.369 0 0 1 1.93-.965c.965 0 2.171-.482 3.136-.482.241 0 .482-.241.724-.241a1.056 1.056 0 0 1 .724.241.236.236 0 0 1 .241.241Zm9.649-33.772a4.8 4.8 0 0 0-2.895-1.93 5.194 5.194 0 0 0-2.654-.482 18.621 18.621 0 0 0-3.618.482c-2.895.482-6.031 1.206-8.926 1.447a16.146 16.146 0 0 0-5.79 2.171 9.259 9.259 0 0 0-2.654 2.654 9.978 9.978 0 0 0-1.206 4.583v29.189a6.315 6.315 0 0 0 1.206 4.1 4.8 4.8 0 0 0 2.895 1.93h2.175c1.447 0 2.654-.241 3.86-.241 3.136-.724 6.031-1.206 9.167-1.689a32.558 32.558 0 0 0 5.79-1.93 13.761 13.761 0 0 0 2.654-2.654 7.443 7.443 0 0 0 1.206-4.342V14.972a5.575 5.575 0 0 0-1.206-4.1Z" data-name="Path 3785"/><path d="M327.11 5.081a6.417 6.417 0 0 0-2.654-2.412 16.6 16.6 0 0 0-6.03-1.447 225.093 225.093 0 0 0-17.851-.724h-1.93v44.145h1.689c2.654.241 5.307.241 7.961.482h1.69V7.976c1.206 0 2.412.241 3.618.241 4.342.482 3.618 1.93 3.86 2.171v34.979h1.447c2.654.241 5.066.482 7.719.724l1.689.241V9.182a5.2 5.2 0 0 0-1.206-4.1Z" data-name="Path 3786"/><path d="M352.68 41.028a13.6 13.6 0 0 1-1.689.241 1.808 1.808 0 0 1-1.206-.241 21.235 21.235 0 0 1-4.1-.483V11.354c1.206 0 2.412.241 3.618.241a8.138 8.138 0 0 1 2.895.965c.724.482.965.724.965 1.93v25.329c-.241.965-.241.965-.483 1.209Zm10.373-31.846a10 10 0 0 0-2.894-2.654 13.629 13.629 0 0 0-5.79-1.689c-2.412-.483-14.715-1.93-17.851-2.171l-1.93-.24v44.628h1.447c6.031.724 12.062 1.447 17.851 2.171a10.818 10.818 0 0 0 2.654.241 10.706 10.706 0 0 0 3.136-.482 6.927 6.927 0 0 0 3.136-1.93 7.227 7.227 0 0 0 1.447-4.342V13.528a9.029 9.029 0 0 0-1.206-4.342Z" data-name="Path 3787"/><path d="M214.938 21.485a2.382 2.382 0 0 1-.482 1.447 14.207 14.207 0 0 1-3.136 1.206 14.238 14.238 0 0 0-3.377.482V12.077a21.114 21.114 0 0 0 3.861-.483h1.689c.965 0 1.447 0 1.447.241.241.241 0 0 .241.482v7.478a5.433 5.433 0 0 0-.241 1.689Zm11.338 23.882V30.652a4.739 4.739 0 0 0-2.171-4.1c-.241 0-.241-.241-.724-.241a5.578 5.578 0 0 0 2.653-4.58V10.388a7.226 7.226 0 0 0-1.447-4.342 6.151 6.151 0 0 0-2.895-1.93 14.6 14.6 0 0 0-3.618-.485 9.05 9.05 0 0 0-2.412.241c-5.79.724-11.82 1.447-17.61 2.171l-1.448.244v44.387l1.93-.241a74.97 74.97 0 0 1 7.719-.965l1.451-.237V31.858a24.041 24.041 0 0 0 3.86-.482h1.44a2.307 2.307 0 0 1 1.689.483c.241 0 .241.241.241.965v15.438l2.171-.241c2.412-.241 5.066-.482 7.478-.724l1.689-.241Z" data-name="Path 3788"/><path d="M257.152 35.477v-5.79h-1.689l-6.754.482-2.654 7.961h-2.895V1.222h-1.93c-2.412.241-5.307.483-7.719.724h-1.688v44.628l1.93-.241c7.237-.482 14.715-.965 21.952-1.206h1.447Z" data-name="Path 3789"/><path d="M281.276 20.52h-7.477V8.941c0-.241 0-.482.482-.965a6.848 6.848 0 0 1 3.377-.724h3.618Zm9.649-20.5h-18.092a15.076 15.076 0 0 0-6.034.961 9.116 9.116 0 0 0-2.895 2.171 7.423 7.423 0 0 0-1.447 4.583v36.909h1.93c2.412 0 5.066-.241 7.719-.241h1.693V27.757h7.478v16.4h1.689c2.412 0 5.307 0 7.719.241h1.93V.016Z" data-name="Path 3790"/><path d="M387.418 46.573v.241a1.056 1.056 0 0 1-.724.241.886.886 0 0 1-.724-.241 16.413 16.413 0 0 0-3.618-.482c-.965-.241-1.689-.724-1.689-1.206a.747.747 0 0 1-.241-.482V16.902h1.689c.965.241 2.171.482 3.136.724a3.6 3.6 0 0 1 1.93.724.851.851 0 0 1 .241.965Zm9.89-31.119a6.977 6.977 0 0 0-2.654-2.654 16.5 16.5 0 0 0-5.79-2.412c-2.895-.482-6.031-1.206-8.926-1.689a17.089 17.089 0 0 0-3.377-.241 9.046 9.046 0 0 0-2.654.241 6.582 6.582 0 0 0-3.136 1.689 7.942 7.942 0 0 0-1.447 4.583v29.19a7.443 7.443 0 0 0 1.206 4.342 9.259 9.259 0 0 0 2.654 2.654 23.191 23.191 0 0 0 5.79 1.93c3.136.482 6.031.965 8.926 1.689a24.055 24.055 0 0 0 3.86.482 6.679 6.679 0 0 0 2.171-.241 5.045 5.045 0 0 0 3.136-1.689 6.585 6.585 0 0 0 1.206-4.342v-29.19a9.462 9.462 0 0 0-.965-4.342Z" data-name="Path 3791"/><path fill="#fff" d="m213.008 256.927 5.548-2.654 4.825 4.1-.965-6.031 5.307-3.136-6.031-1.206-1.447-6.031-2.895 5.548-6.031-.724 4.342 4.583Z" data-name="Path 3792"/><path d="M400.444 222.431c5.548-2.412 15.68-6.754 15.68-6.754l.724-.241-.724-.241s-16.4-5.548-19.781-6.513c-.724-3.86-3.136-21.711-3.136-21.711l-.241-.724-6.031 9.649s-3.377 5.548-5.307 8.443c-3.86-1.206-20.746-5.307-20.746-5.307l-.965-.482.724.965s6.754 8.684 10.855 14.233a267.932 267.932 0 0 0-59.1-5.79c-7.478 0-15.2.241-23.4.724a327.725 327.725 0 0 0-89.979 18.092l3.377-10.132-.724.241c-45.352 14.233-95.045 56.931-117 98.9l.482.241c30.878-28.948 73.093-52.347 110.725-60.79l-9.89 22.917.724-.241c17.369-8.443 40.527-12.062 63.685-12.062 23.882 0 47.764 3.86 66.339 10.614l-7 15.439c-16.886-7.719-41.251-12.785-61.755-12.785-3.618 0-7 0-10.373.241v.724c24.123 6.754 48.729 14.474 68.51 30.154a35.635 35.635 0 0 0-.241 5.066c0 41.251 35.7 78.883 77.918 78.883h.965c46.075-.482 80.571-42.939 80.571-87.326-.236-32.321-18.811-65.852-64.886-84.427Z" data-name="Path 3793"/><path fill="#c2ccd2" d="M375.115 298.419c-16.886 0-34.255-6.272-51.382-12.544a69.33 69.33 0 0 0-6.755 29.913 63.528 63.528 0 0 0 1.93 16.4h4.342a194.477 194.477 0 0 0 96.734-26.053 167.153 167.153 0 0 0-11.579-17.369 60.755 60.755 0 0 1-33.29 9.653Z" data-name="Path 3794"/><path fill="#c2ccd2" d="M322.044 338.468h-1.206c10.373 27.018 34.255 44.628 63.2 45.11 9.408-22.917 19.54-47.764 43.18-59.584a147.3 147.3 0 0 0-4.342-12.062 200.089 200.089 0 0 1-100.832 26.536Z" data-name="Path 3795"/><path fill="#c2ccd2" d="M393.69 254.519a81.55 81.55 0 0 0-17.369-5.307c-2.895.482-7 .724-10.132 1.206 17.61 7 30.636 15.439 43.422 30.154a64.134 64.134 0 0 0 16.643-18.579c-11.82-11.579-34.255-25.812-90.462-30.154 23.641 5.548 45.352 13.268 58.137 22.193Z" data-name="Path 3796"/><path fill="#c2ccd2" d="M236.648 246.554h11.1c39.8 0 101.076 4.583 124.958 32.807l-.482.482c-8.2-4.342-24.606-12.062-34.979-12.062h-.724a82.447 82.447 0 0 0-9.649 12.544c15.921 6.031 32.084 11.82 48.005 11.82a55.584 55.584 0 0 0 29.913-8.2c-27.742-30.154-74.3-43.422-118.445-43.422a219 219 0 0 0-49.694 6.031Z" data-name="Path 3797"/><path fill="#c2ccd2" d="M424.808 303.003a96.558 96.558 0 0 0 20.5-17.851 70.893 70.893 0 0 0-15.2-19.3 68.6 68.6 0 0 1-16.886 19.54 105.614 105.614 0 0 1 11.586 17.611Z" data-name="Path 3798"/><path fill="#c2ccd2" d="M390.795 383.333a69.84 69.84 0 0 0 37.632-15.68 72.439 72.439 0 0 0 2.412-19.057 91.865 91.865 0 0 0-1.689-18.092c-21.228 10.131-29.912 32.324-38.355 52.829Z" data-name="Path 3799"/><path fill="#c2ccd2" d="M436.871 352.696v6.272a74.8 74.8 0 0 0 14.956-34.979 87.814 87.814 0 0 0-17.61 3.618 110.9 110.9 0 0 1 2.654 25.088Z" data-name="Path 3800"/><path fill="#c2ccd2" d="M427.945 308.792c1.689 4.1 3.377 8.443 5.066 12.785a90 90 0 0 1 19.54-3.618v-1.447a66.194 66.194 0 0 0-4.342-24.606 123.447 123.447 0 0 1-20.264 16.886Z" data-name="Path 3801"/><path fill="#c2ccd2" d="M452.55 317.959a92.141 92.141 0 0 0-19.781 3.618 117.388 117.388 0 0 0-5.066-12.785 127.384 127.384 0 0 0 20.5-16.886 78.869 78.869 0 0 1 4.342 24.606Z" data-name="Path 3802"/><path fill="#c2ccd2" d="M430.116 265.611a76.276 76.276 0 0 1 15.2 19.54 102.712 102.712 0 0 1-20.5 17.61 165.035 165.035 0 0 0-11.345-17.37 69.291 69.291 0 0 0 16.645-19.78Z" data-name="Path 3803"/><path fill="#c2ccd2" d="M336.035 231.598c55.966 4.342 78.4 18.816 90.462 30.154a64.5 64.5 0 0 1-16.645 18.575 109.1 109.1 0 0 0-43.422-29.913 75.319 75.319 0 0 1 9.891-1.447 136.785 136.785 0 0 1 17.61 5.307l.241-.482c-12.785-8.926-34.497-16.646-58.137-22.194Z" data-name="Path 3804"/><path fill="#c2ccd2" d="M323.25 332.191h-4.342a65.364 65.364 0 0 1-1.93-16.645 68.3 68.3 0 0 1 6.754-29.671c17.127 6.272 34.255 12.544 51.382 12.544a62.843 62.843 0 0 0 33.29-9.649 101.7 101.7 0 0 1 11.579 17.127 194.717 194.717 0 0 1-96.734 26.294Z" data-name="Path 3805"/><path fill="#c2ccd2" d="M384.038 383.574c-28.948-.482-52.83-18.092-63.2-45.11h1.206a200.734 200.734 0 0 0 100.835-26.536 102.385 102.385 0 0 1 4.342 12.062c-23.641 11.82-34.014 36.667-43.183 59.584Z" data-name="Path 3806"/><path fill="#c2ccd2" d="M436.871 358.968v-6.272a110.9 110.9 0 0 0-2.654-25.089 84.49 84.49 0 0 1 17.61-3.618 72.745 72.745 0 0 1-14.956 34.979Z" data-name="Path 3807"/><path fill="#c2ccd2" d="M404.786 283.945a54.794 54.794 0 0 1-29.671 8.2c-16.162 0-32.325-5.79-48.005-11.82a81.071 81.071 0 0 1 9.408-12.544h.965c10.132 0 26.777 7.478 34.979 12.062l.482-.482c-23.882-28.224-85.155-32.807-124.958-32.807h-11.338a208.325 208.325 0 0 1 49.935-5.79c43.904.001 90.703 13.027 118.203 43.181Z" data-name="Path 3808"/><path fill="#c2ccd2" d="M428.427 367.653a69.84 69.84 0 0 1-37.632 15.68c8.443-20.5 17.127-42.7 38.115-52.83a92.231 92.231 0 0 1 1.93 18.092 72.439 72.439 0 0 1-2.413 19.058Z" data-name="Path 3809"/><path fill="#c2ccd2" d="m372.944 228.461 12.3-4.1 9.167 10.373-.965-13.75 11.82-5.066-13.027-4.342-1.927-13.51-6.754 11.1-13.026-3.377 8.684 11.1Z" data-name="Path 3810"/><path fill="#fff" d="m308.294 238.352 8.443-4.342 7 6.513-1.447-9.408 8.2-4.825-9.408-1.447-1.93-9.408-4.342 8.443-9.408-.965 6.513 6.754Z" data-name="Path 3811"/><path fill="#fff" d="m213.008 256.927 5.548-2.654 4.583 4.1-.724-6.031 5.307-3.136L221.45 248l-1.206-6.031-2.895 5.548-6.031-.724 4.1 4.583Z" data-name="Path 3812"/><path fill="#0b77bd" d="M423.603 341.117v-.965l-7.719 13.026 2.171-11.579-.482-.241c-11.58 13.994-15.923 23.882-19.541 36.185v.724l.482-.241a76.012 76.012 0 0 0 22.435-11.82c1.93-4.1 2.654-12.544 2.654-22.917Z" data-name="Path 3813"/><path fill="#0b77bd" d="M397.549 310.722a224.571 224.571 0 0 1-40.768 4.1 44.607 44.607 0 0 1-5.79-.241l28.707-8.684v-.482c-19.057-.965-33.772-1.206-52.347-9.89l-.241-.241-.241.241a42.688 42.688 0 0 0-4.342 19.057 38.923 38.923 0 0 0 1.688 11.821h2.17c8.2 0 42.457-.724 71.163-15.2Z" data-name="Path 3814"/><path fill="#0b77bd" d="M403.822 334.121c-14.474 10.855-25.571 19.54-46.8 23.4 19.781-10.132 33.049-17.369 45.593-30.154l-.482-.483c-22.193 13.026-51.141 18.575-71.4 19.3h-.724l.482.482c16.645 26.535 37.873 28.948 44.869 28.948h2.412v-.241c9.167-14.233 14.956-27.983 26.535-41.009Z" data-name="Path 3815"/><path fill="#fff" fill-rule="evenodd" d="M388.865 245.589a9.143 9.143 0 0 0-3.136-1.447c17.127 5.066 28.707 11.579 35.22 16.645a27.774 27.774 0 0 1-3.377 4.1 88.443 88.443 0 0 0-28.707-19.3Zm52.83 96.251v-1.206a66.971 66.971 0 0 0 1.689-13.75 10 10 0 0 1 3.86-.724 86.338 86.338 0 0 1-5.548 15.68Zm7.237-30.154a42.979 42.979 0 0 0-6.272.965 65.45 65.45 0 0 0-2.171-9.891 37.291 37.291 0 0 0 6.513-5.79 49.287 49.287 0 0 1 1.93 14.715Zm-7.483-28.223c-2.171 1.93-3.86 3.86-5.79 5.548a66.985 66.985 0 0 0-7.237-12.785c1.447-1.93 2.895-3.618 4.1-5.548a61.362 61.362 0 0 1 8.927 12.785Z" data-name="Path 3816"/></svg>