<svg xmlns="http://www.w3.org/2000/svg" width="317.208" height="317.208" data-name="philidephia 76ers"><path fill="#fff" d="M317.208 158.6A158.6 158.6 0 1 1 158.6 0a158.573 158.573 0 0 1 158.6 158.6" data-name="Path 3651"/><path fill="#006bb5" d="M311.403 158.603a152.8 152.8 0 1 1-152.8-152.8 152.815 152.815 0 0 1 152.8 152.8" data-name="Path 3652"/><path fill="#fff" d="m29.4 184.619 3.191 9.961h10.541l-8.607 6.286 3.191 9.768-8.317-6-8.317 6 3.095-9.768-8.607-6.286h10.638Zm258.505 0L291 194.58h10.638l-8.607 6.286 3.095 9.768-8.22-6-8.414 6 3.191-9.768-8.607-6.286h10.541ZM66.536 238.003l3.095 9.961H80.27l-8.607 6.286 3.095 9.768-8.22-6-8.414 6 3.191-9.768-8.607-6.286h10.54Zm187.714 0 3.095 9.961h10.638l-8.607 6.286 3.094 9.769-8.22-6-8.414 6 3.191-9.768-8.607-6.286h10.541Zm-129.88 34.816 3.191 9.961h10.541l-8.607 6.286 3.191 9.768-8.317-6-8.317 6 3.095-9.864-8.607-6.189h10.638Zm70.4 0 3.095 9.961h10.541l-8.51 6.286 3.095 9.768-8.22-6-8.414 6 3.191-9.864-8.607-6.189h10.541Z" data-name="Path 3653"/><path fill="#fff" d="M273.109 159.373A114.5 114.5 0 1 1 158.6 44.873a114.493 114.493 0 0 1 114.5 114.5" data-name="Path 3654"/><path fill="#006bb5" d="M50.869 181.815a110.154 110.154 0 0 0 130.268 85.2c28.723-6 53.771-22.727 69.534-47.485a112.388 112.388 0 0 0 15.667-82.784c-5.706-28.82-22.824-53.384-47.485-69.534A110.066 110.066 0 0 0 50.869 181.815" data-name="Path 3655"/><path fill="#fff" d="M196.031 73.597c.387 4.255-1.644 8.51-5.9 12.476-20.6-15.183-40.328-22.63-59.573-22.63a70.357 70.357 0 0 0-12.089.967 106.169 106.169 0 0 1 19.052-5.9 102.443 102.443 0 0 1 51.063 2.321c3.578 3.191 7.06 7.737 7.447 12.766m-21.47 177.753c21.663-19.922 31.721-62.571 37.717-88.1l.967-3.965c3.095-12.959 8.607-22.63 14.41-28.529 21.76 33.848 18.858 68.761 13.346 90.617a102.275 102.275 0 0 1-61.314 38.877 105.05 105.05 0 0 1-21.179 2.224 66.94 66.94 0 0 0 16.054-11.122m39.356-144.874c8.8-7.35 15.86-13.056 20.889-16.634a103.848 103.848 0 0 1 23.21 41.875c-4.062-5.416-9.284-10.638-14.893-11.8-4.835-.967-9.864.387-14.506 3.675a137.3 137.3 0 0 0-14.7-17.118M57.446 154.639c10.058-26.885 46.711-37.91 60.54-41.972l.58-.193c4.545-1.354 11.025-2.418 18.568-3.772 17.795-3 39.748-6.77 53-16.634a189.719 189.719 0 0 1 16.537 14.12c-29.98 25.531-76.4 68.277-125.916 120.984a104.225 104.225 0 0 1-25.437-67.888c1.257-2.611 2.128-4.545 2.128-4.642" data-name="Path 3656"/><path fill="#fff" d="M210.441 103.093q-8.414-7.833-16.537-14.216c5.029-4.932 7.35-10.155 6.866-15.764a21.524 21.524 0 0 0-3.388-9.381 105.448 105.448 0 0 1 34.139 22.533c-5.222 3.965-12.379 9.574-21.083 16.828m-24.175-13.926c-12.476 8.607-33.075 12.089-49.806 14.893-7.737 1.354-14.313 2.418-19.149 3.868l-.58.193c-13.246 3.966-46.613 13.927-60.346 38.011a101.815 101.815 0 0 1 16.054-43.229 109.477 109.477 0 0 1 27.659-28.916c24.274-10.348 51.643-9.671 86.168 15.183m55.9 35.4c7.157 1.451 14.99 13.539 18.665 20.6a101.573 101.573 0 0 1-12.572 65.182c.58-3.482.967-7.157 1.257-11.025a113.758 113.758 0 0 0-18.181-71.662c3.772-2.708 7.543-3.772 10.831-3.095m-31.818-14.99a122.757 122.757 0 0 1 14.6 17.118c-7.06 6.77-13.056 17.795-16.247 31.431l-.967 3.965c-5.9 24.951-15.764 66.826-36.363 85.685a59.657 59.657 0 0 1-24.274 14.023 102.041 102.041 0 0 1-44.873-16.247 103.767 103.767 0 0 1-17.988-14.893c49.9-53.094 96.42-95.936 126.11-121.081" data-name="Path 3657"/><path fill="#fff" d="m187.037 189.938 2.8-.774c1.644-.484 2.8-1.064 2.8-3.482 0-2.031-.58-5.706-3-5.706-2.611 0-2.611 4.352-2.611 6.77Zm-33.558-1.547c0-8.8-.29-16.441-6.286-16.441-4.835 0-5.706 7.64-5.706 16.441s-.29 16.441 5.706 16.441c5.126 0 6.286-7.64 6.286-16.441" data-name="Path 3658"/><path fill="#fff" d="m187.037 189.938 2.8-.774c1.644-.484 2.8-1.064 2.8-3.482 0-2.031-.58-5.706-3-5.706-2.611 0-2.611 4.352-2.611 6.77Zm-46.227-21.76h.1c2.9-4.449 8.317-6.576 13.636-6.576 12.089 0 19.535 10.445 19.535 24.468 0 16.634-11.315 26.5-25.241 26.5-21.47 0-29.206-17.311-29.206-37.33 0-23.114 10.058-42.165 35.009-42.165 9.768 0 17.7 6.286 17.7 15.86 0 6.189-4.835 9.284-9.381 9.284-6.77 0-8.9-5.609-9.864-10.541-.387-2.128.387-6.77-3.095-6.77-7.253 0-8.414 14.216-8.7 19.439Z" data-name="Path 3659"/><path fill="#fff" d="M153.479 188.391c0-8.8-.29-16.441-6.286-16.441-4.835 0-5.706 7.64-5.706 16.441s-.29 16.441 5.706 16.441c5.126 0 6.286-7.64 6.286-16.441" data-name="Path 3660"/><g data-name="Group 1537"><path fill="#fff" d="M23.593 134.04c4.062.484 5.706 3.385 5.126 8.7l-.484 3.868 2.224.29c2.8.29 3.868.29 4.159-2.031l2.611.29-1.257 10.445-2.611-.29c.193-2.321-.774-2.611-3.578-2.9l-8.124-.967c-2.8-.29-3.868-.29-4.159 2.031l-2.611-.29 1.354-11.508c.677-5.609 3.191-8.124 7.35-7.64Zm2.224 11.122c.387-3.482-.58-5.319-3.095-5.609-2.128-.29-3.675 1.064-4.062 3.675-.193 1.837.387 2.224 2.418 2.418l4.545.58c.101-.388.101-.678.198-1.065Zm13.153-22.63c.87-2.128-.1-2.708-2.708-3.772l-7.539-3.193c-2.611-1.064-3.675-1.354-4.545.774l-2.418-.967 4.062-9.671 2.321.967c-.87 2.128.1 2.708 2.708 3.772l1.934.774 3-7.253-1.934-.774c-2.611-1.064-3.675-1.354-4.545.774l-2.321-.967 4.062-9.671 2.418.967c-.87 2.128.1 2.708 2.708 3.772l7.543 3.191c2.611 1.064 3.675 1.354 4.545-.774l2.418.967-4.062 9.671-2.321-.967c.87-2.128-.1-2.708-2.708-3.772l-3.295-1.353-3 7.253 3.288 1.354c2.611 1.064 3.675 1.354 4.545-.774l2.321.967-4.054 9.671Zm10.158-51.547c-1.354 1.837-.58 2.611 1.644 4.352l6.577 4.93c2.224 1.741 3.191 2.128 4.642.387l2.128 1.547-6.287 8.416-2.224-1.644c1.354-1.837.58-2.611-1.644-4.352l-6.576-4.835c-2.224-1.741-3.191-2.224-4.642-.387l-2.128-1.547 6.286-8.414Zm23.6 1.257-1.644-2.031c1.741-1.547 1.161-2.418-.677-4.545l-5.222-6.286c-1.837-2.128-2.611-2.9-4.449-1.451l-1.643-2.031 8.027-6.77 1.644 2.031c-1.741 1.547-1.161 2.418.58 4.642l5.9 6.963c1.354 1.644 1.934 1.837 3.675.484 2.224-1.837 3.191-5.222 2.321-9.381l2.321-.484 2.321 7.737Zm24.949-19.245-1.064-2.418c1.934-1.257 1.837-2.514 1.837-4.835l-.58-16.247 4.352-2.03 12.089 11.8c1.354 1.354 2.128 2.031 3.965 1.354l1.064 2.418-9.574 4.352-1.064-2.324c.1 0 .1-.1.193-.1 1.354-.58 1.837-1.161 1.451-2.031a1.5 1.5 0 0 0-.58-.774l-2.224-2.224-6.189 2.8.387 3a1.793 1.793 0 0 0 .193.677c.387.87 1.354.967 2.8.387l1.064 2.321-8.12 3.874Zm7.833-14.8-4.545-4.83.387 6.77 4.159-1.934Zm24.564-.87c2.224-.387 2.321-1.451 1.934-4.255l-1.161-8.124c-.387-2.8-.774-3.772-3-3.578l-.387-2.611 10.638-1.547c8.124-1.161 13.056 2.031 13.926 8.8.967 6.77-2.8 11.122-10.928 12.282l-10.638 1.547-.387-2.514Zm7.64-3.772c.29 2.128.677 2.611 2.8 2.321 4.255-.58 6.48-3.868 5.706-8.994-.677-5.126-3.772-7.64-8.027-6.963-2.224.29-2.418.967-2.128 3l1.644 10.638Zm29.3.677c2.321.29 2.611-.774 3-3.578l1.16-8.124c.387-2.8.387-3.868-1.934-4.255l.387-2.611 17.5 2.514 1.934 6.77-2.128.774c-1.741-3.482-4.159-5.512-7.35-6-2.128-.29-2.418.29-2.708 2.321l-.484 3 .967.193c2.224.29 2.9-.29 3.385-2.8l2.224.29-1.354 9.478-2.224-.29c.1-2.514-.677-3.675-2.418-3.965l-.967-.193-.677 4.932c-.29 2.031-.1 2.708 2.031 3 3.095.484 6.77-1.064 9.574-4.449l1.837 1.354-4.255 6.77-17.891-2.611.387-2.514Zm32.979 9.287 1.064-2.418c2.128.87 2.708 0 3.868-2.611l3.288-7.447c1.161-2.611 1.451-3.578-.677-4.545l1.064-2.418 9.574 4.159-1.061 2.418c-2.128-.87-2.708 0-3.868 2.611l-3.675 8.317c-.87 1.934-.774 2.611 1.161 3.482 2.611 1.161 6.093.484 9.381-2.031l1.451 1.837-5.9 5.512-15.67-6.866Zm53.867 15.57c-2.611 3.191-5.9 3.095-10.058-.29l-3-2.418-1.354 1.741c-1.741 2.224-2.321 3.095-.58 4.642l-1.644 2.031-8.22-6.576 1.644-2.031c1.837 1.354 2.611.677 4.449-1.451l5.126-6.383c1.741-2.224 2.321-3.095.58-4.642l1.644-2.031 8.994 7.253c4.255 3.385 5.029 6.866 2.418 10.155Zm-10.638-4.159c2.708 2.224 4.835 2.321 6.383.387 1.354-1.644 1.064-3.675-.967-5.319-1.451-1.161-2.128-.774-3.385.774l-2.9 3.578a3.375 3.375 0 0 1 .872.581Zm12.282 23.21c1.354 1.837 2.321 1.451 4.642-.193l6.673-4.739c2.321-1.644 3.095-2.418 1.837-4.255l2.128-1.451 6 8.607-2.128 1.451c-1.354-1.837-2.321-1.451-4.642.193l-1.741 1.161 4.545 6.48 1.741-1.161c2.321-1.644 3.095-2.418 1.837-4.255l2.128-1.451 6 8.607-2.131 1.452c-1.354-1.837-2.321-1.451-4.642.193l-6.673 4.739c-2.321 1.644-3.095 2.418-1.837 4.255l-2.128 1.451-6-8.607 2.128-1.451c1.354 1.837 2.321 1.451 4.642-.193l2.9-2.031-4.541-6.475-2.9 2.031c-2.321 1.644-3.095 2.418-1.837 4.255l-2.128 1.451-6-8.607Zm38.1 36.073c-.87-2.128-1.934-1.934-4.545-.87l-7.64 2.9c-2.611 1.064-3.578 1.547-2.8 3.772l-2.418.967-3.772-9.768 2.418-.967c.87 2.128 1.934 1.934 4.545.87l7.64-2.9c2.611-1.064 3.578-1.547 2.8-3.675l2.418-.967 3.772 9.768Zm-13.636 18.181 2.611-.387c.58 2.224 1.934 2.514 4.062 3.191l15.667 4.255.58 4.739-14.893 8.124c-1.644.87-2.514 1.451-2.514 3.385l-2.611.387-1.354-10.445 2.514-.29v.193c.193 1.451.58 2.128 1.451 1.934a1.56 1.56 0 0 0 .87-.29l2.8-1.451-.87-6.77-3-.484c-.193 0-.484-.1-.677 0q-1.451.145-1.161 2.611l-2.514.29-.967-8.994Zm11.9 11.9 6-2.9-6.576-1.644Z" data-name="Path 3661"/></g><g data-name="Group 1539"><path fill="#fff" d="M222.919 172.724a7.265 7.265 0 0 0-5.512 2.514 4.518 4.518 0 0 0-.484-.967l-1.16-2.224-16.444 4.835v8.994h3.482a11.283 11.283 0 0 1 .387 3.868v10.445l-3 .387v9.864h22.824v-9.864l-3-.387v-3.095a37.024 37.024 0 0 1 .87-7.06 9.272 9.272 0 0 0 3 .484c4.062 0 6.963-3.675 6.963-8.9.098-5.316-3.093-8.894-7.926-8.894Z" data-name="Path 3662"/><path fill="#fff" d="M251.542 183.265a6.146 6.146 0 0 1-.29-1.451c0-2.708-1.064-8.994-11.025-8.994-5.512 0-16.344 4.255-16.344 14.12a13.126 13.126 0 0 0 2.611 8.317 7.67 7.67 0 0 0-3.482 6.77c0 3.578 1.741 9.478 13.733 9.478 10.251 0 16.054-5.319 16.054-14.506 0-8.9-.774-11.8-1.257-13.733Zm-120.5-53a3.436 3.436 0 0 0-2.514-1.161c-1.547 0-2.708.967-4.159 2.514-4.835 5.126-11.412 7.833-19.052 7.833-9.961 0-20.406-4.545-28.723-12.572a3.357 3.357 0 0 0-2.418-.967c-4.062 0-5.126 6.48-5.126 6.576v32.688l2.611.387c9.864 1.451 18.375 1.161 26.112-.967-8.317 7.543-27.175 27.852-26.885 47.291 0 3.578 2.224 3.965 3.191 3.965a4.331 4.331 0 0 0 2.514-1.064 2.109 2.109 0 0 1 .484-.387c2.708-2.031 7.06-3.095 11.992-3.095a26.53 26.53 0 0 1 11.122 2.224 4.534 4.534 0 0 0 2.031.58 3.143 3.143 0 0 0 2.418-1.064 4.347 4.347 0 0 0 .87-3.578c-1.354-14.12 1.741-29.5 7.737-38.394l.87-1.354c5.126-7.543 15.764-23.307 17.7-36.266a3.6 3.6 0 0 0-.774-3.191Zm75.82 62.378-.193-2.514a33.466 33.466 0 0 0-.677-4.642l-.1-2.8-.484.774c-2.418-6.673-8.027-10.831-15.087-10.831-10.541 0-17.988 8.317-17.988 20.309 0 9.187 5.416 18.472 17.408 18.472a19.085 19.085 0 0 0 16.441-8.994l.484-.774-.387-8.9Zm-12.766 5.706a2.8 2.8 0 0 1-2.418-1.644l5.9-1.547c-1.74 2.033-2.998 3.097-3.481 3.194Z" data-name="Path 3663"/><path fill="#fff" d="M167.598 163.729a61.49 61.49 0 0 0-1.837-2.611 11.757 11.757 0 0 0 9.768-11.992c0-10.735-8.9-18.955-20.793-18.955-23.791 0-38.007 16.924-38.007 45.163 0 25.628 11.8 40.328 32.3 40.328 16.634 0 28.239-12.185 28.239-29.593-.1-8.607-5.9-16.828-9.671-22.34Z" data-name="Path 3664"/><g data-name="Group 1538"><path fill="#006bb5" d="M194.096 201.447c-3.675 0-5.9-3.385-6.286-6.77l15.86-4.255c-.484-7.737-4.932-14.6-13.346-14.6-8.994 0-14.893 6.963-14.893 17.311 0 8.027 4.642 15.377 14.313 15.377a15.87 15.87 0 0 0 13.83-7.543l-3.095-3.772c-1.548 2.415-3.288 4.252-6.383 4.252Zm-6.963-14.6c0-2.418 0-6.77 2.611-6.77 2.418 0 3 3.675 3 5.706 0 2.418-1.161 3-2.8 3.482l-2.8.774v-3.191Z" data-name="Path 3665"/><path fill="#006bb5" d="M220.21 207.539h-16.733v-4.255l3-.387v-13.152c0-4.642-.58-6.963-3.965-6.963v-3.675l11.9-3.482a22 22 0 0 1 1.934 8.7h.1c1.161-3.578 2.708-8.607 6.576-8.607 3.385 0 4.932 2.611 4.932 5.8 0 3.288-1.451 5.9-3.868 5.9a10.688 10.688 0 0 1-3.965-.967c-2.128-.774-2.9 8.7-2.9 10.638v5.706l3 .387v4.352Z" data-name="Path 3666"/><path fill="#006bb5" d="M248.254 181.815c0 2.611-2.224 3.868-4.642 3.868-2.9 0-4.932-2.321-5.416-5.126-1.257 0-2.128.677-2.128 2.708 0 4.835 13.733 1.354 13.733 13.636 0 9.187-6.673 11.508-13.056 11.508-3.868 0-10.735-.484-10.735-6.48 0-2.708 1.451-4.739 4.159-4.739 4.158 0 4.835 3.772 5.609 6.48a1.255 1.255 0 0 0 1.354.87c2.224 0 3.772-.87 3.772-2.321 0-5.512-14.023-3.385-14.023-15.377 0-7.64 8.994-11.025 13.346-11.025 4.932.1 8.027 1.741 8.027 6m-93.615-20.212c-5.319 0-10.831 2.128-13.636 6.576h-.1l.58-7.737c.29-5.222 1.451-19.439 8.7-19.439 3.482 0 2.708 4.642 3.095 6.77.967 4.932 3.095 10.541 9.864 10.541 4.545 0 9.381-3 9.381-9.284 0-9.574-8.027-15.86-17.7-15.86-24.951 0-35.009 19.052-35.009 42.165 0 20.019 7.737 37.33 29.206 37.33 13.926 0 25.241-9.864 25.241-26.5.01-14.12-7.438-24.564-19.622-24.564Zm-7.35 43.229c-6 0-5.706-7.64-5.706-16.441s.87-16.441 5.706-16.441c6 0 6.286 7.64 6.286 16.441s-1.258 16.439-6.286 16.439Z" data-name="Path 3667"/><path fill="#ec174c" d="M72.242 132.88v29.69c16.634 2.418 36.556.87 50.579-19.729.58-.87.967-.29.58.484-3.965 8.027-13.249 15.377-21.276 21.663-7.737 6.093-28.433 27.756-28.143 46.808 0 1.451.1 1.064 1.354.1 6.286-4.642 18.568-4.835 26.112-1.16 1.064.484 1.161.387.967-1.064-1.451-14.8 1.837-30.947 8.22-40.328 4.352-6.48 16.151-23.21 18.181-36.363.193-1.354-.484-1.161-2.224.677-13.346 14.12-37.427 13.733-53-1.161-.87-.967-1.257-.484-1.354.387" data-name="Path 3668"/></g></g><g data-name="Group 1540" transform="translate(72.629 86.459)"><circle cx="28.529" cy="28.529" r="28.529" fill="#fff" data-name="Ellipse 13"/><path fill="#006bb5" d="m28.432 1.064.967 3h3.288l-2.708 1.934.967 2.9-2.514-1.741-2.514 1.741.967-2.9-2.611-1.934h3.191Zm19.052 11.025.967 3h3.191l-2.611 1.934.967 3-2.514-1.837-2.611 1.837 1.064-3-2.708-1.934h3.288Zm-8.22-8.51.967 3h3.288l-2.611 1.934.967 3-2.611-1.837-2.514 1.837.967-3-2.611-1.934h3.191Zm11.315 18.955.967 3h3.191l-2.611 1.934.967 3-2.514-1.837-2.514 1.837.967-3-2.708-1.934h3.191Zm-1.354 11.025.967 3.095h3.191l-2.611 1.934.967 2.9-2.514-1.837-2.514 1.837.87-3-2.611-1.837h3.287Zm-6.093 8.9.87 3h3.288l-2.611 1.934.967 2.9-2.514-1.837-2.611 1.837.967-2.9-2.611-1.934h3.288Zm-9.671 4.932.967 3h3.288l-2.611 1.934.967 3-2.611-1.837-2.514 1.837.967-3-2.611-1.934h3.191ZM9.09 11.122l-.967 3H4.932l2.611 1.934-.967 3 2.514-1.837 2.611 1.837-.967-3 2.611-1.934h-3.288Zm8.027-7.543-.967 3h-3.288l2.611 1.934-.967 3 2.611-1.837 2.514 1.837-.967-3 2.611-1.934h-3.191Zm-11.7 17.6-.967 3H1.257l2.611 1.934-.967 3 2.514-1.837 2.514 1.837-.87-3 2.611-1.934H6.383Zm.967 11.025-.967 3.095H2.224l2.611 1.837-.967 3 2.514-1.837 2.611 1.837-.967-3 2.611-1.837H7.35Zm6.093 9.091-.87 3h-3.29l2.611 1.934-.967 2.9 2.514-1.837 2.611 1.837-.967-2.9 2.611-1.934h-3.191Zm9.671 5.706-.967 3h-3.29l2.611 1.934-.87 3 2.418-1.837 2.611 1.837-.967-3 2.611-1.934h-3.192Z" data-name="Path 3669"/></g></svg>