<svg xmlns="http://www.w3.org/2000/svg" width="290.474" height="294.872" data-name="phoenix suns"><path fill="#63727a" d="M289.977.81a2.448 2.448 0 0 0-1.89-.809H105.935c-21.707 0-35.055 9.438-39.64 27.775l-66.2 264a2.465 2.465 0 0 0 .4 2.157 2.359 2.359 0 0 0 1.888.944h198.472c11.326 0 22.651-9.168 25.213-20.224L290.381 2.967a2.465 2.465 0 0 0-.4-2.157Z" data-name="Path 3817"/><path d="M2.386 292.445h198.468c10.247 0 20.629-8.359 22.921-18.337L288.089 2.293H105.934c-16.853.135-32.224 5.66-37.347 26.16Z" data-name="Path 3818"/><path fill="#63727a" d="M43.239 185.122h172.177c8.629 0 17.123-6.876 19.146-15.371l36.134-156.404h-157.75c-19.281 0-27.91 6.067-31.82 22.112Zm172.177 2.157H40.546L78.969 34.922c4.989-19.685 17.123-23.6 33.977-23.6h160.447l-36.809 158.969c-2.157 9.3-11.595 16.989-21.168 16.989Z" data-name="Path 3819"/><path fill="#fff" d="m69.126 272.626 4.854 6.607h36.269l14.7-58.246h-14.835L97.44 271.006H84.227l12.674-50.02H78.16l-1.213.944 3.775 5.124Z" data-name="Path 3820"/><path fill="#fff" d="m70.34 241.345 3.506-14.022-4.854-6.607H39.329l-8.09 6.607-4.988 19.553 25.078 10.517-3.367 13.614H34.88l1.483-6.337-13.078-6.067-3.506 14.022 4.719 6.607h29.8l8.09-6.607 4.989-19.685-25.082-10.517 3.367-13.482h13.083l-1.618 6.472Z" data-name="Path 3821"/><path fill="#fff" d="m172.81 227.323-4.854-6.607h-36.134l-14.7 58.246h14.831l12.539-50.022h13.213l-12.536 50.022h18.606l1.213-1.079-3.64-4.989Z" data-name="Path 3822"/><path fill="#fff" d="m218.789 241.345 3.506-14.022-4.854-6.607h-29.665l-8.09 6.607-4.989 19.55 25.078 10.517-3.371 13.618h-13.215l1.618-6.337-13.078-6.067-3.506 14.022 4.719 6.607h29.8l8.09-6.607 4.989-19.685-25.078-10.517 3.371-13.483h13.075l-1.618 6.472Z" data-name="Path 3823"/><path fill="#bec0c2" d="m23.285 258.603 5.393 8.09-1.216 4.719 2.7 3.64h21.032l4.18-3.236 7.011.809-8.09 6.607h-29.8l-4.719-6.607Z" data-name="Path 3824"/><path fill="#bec0c2" d="m47.959 271.003 7.416.809 4.18-16.584-25.349-10.647 4.18-16.449-7.146-.809-4.989 19.55 25.078 10.517Z" data-name="Path 3825"/><path fill="#bec0c2" d="M63.328 224.761H42.834l-4.449 3.371 7.281.809h13.078l-1.618 6.472 7.82-2.427 1.213-4.449Z" data-name="Path 3826"/><path fill="#bec0c2" d="m171.732 258.603 5.393 8.09-1.213 4.719 2.7 3.64h21.033l4.18-3.236 7.011.809-8.09 6.607h-29.8l-4.719-6.607Z" data-name="Path 3827"/><path fill="#bec0c2" d="m196.401 271.003 7.416.809 4.18-16.584-25.348-10.652 4.18-16.449-7.146-.809-4.982 19.555 25.078 10.517Z" data-name="Path 3828"/><path fill="#bec0c2" d="M211.775 224.761h-20.628l-4.315 3.371 7.281.809h13.078l-1.618 6.472 7.82-2.427 1.079-4.449Z" data-name="Path 3829"/><path fill="#bec0c2" d="m76.946 221.93 11.6 2.831-11.735 46.649 2.7 3.64h24.266l6.472 4.18H73.98l-4.854-6.607 11.6-45.572Z" data-name="Path 3830"/><path fill="#bec0c2" d="m110.115 220.986 6.337 3.775-12.674 50.292-6.337-4.047Z" data-name="Path 3831"/><path fill="#bec0c2" d="m138.294 224.761-6.472-4.045-14.7 58.246h14.831l-6.472-3.91Z" data-name="Path 3832"/><path fill="#bec0c2" d="m153.397 275.052 11.73-46.516-2.7-3.775h-24.13l6.2 4.18h13.213l-12.539 50.022h18.606l1.213-1.079Z" data-name="Path 3833"/><path fill="#fff" d="m46.205 203.188-3.91 1.079 1.213-5.124h3.64Zm-7.011-7.011-.4.27 1.213 1.618-3.775 15.371h5.258l.27-.4-1.213-1.483.944-4.045 8.09-2.562 1.618-6.741-1.628-2.028Z" data-name="Path 3834"/><path fill="#fff" d="M82.07 196.177h-3.91l-1.483 6.2-3.775.944 1.753-7.146h-5.124l-.4.27 1.213 1.618-3.775 15.371h3.91l1.618-6.876 3.775-.809-1.888 7.685h5.124l.4-.4-1.213-1.483Z" data-name="Path 3835"/><path fill="#fff" d="M105.125 210.604h-3.64l2.831-11.6h3.64Zm-1.753-14.427-2.562 2.022-3.235 13.078 1.618 2.157h7.011l2.562-2.157 3.236-13.078-1.619-2.022Z" data-name="Path 3836"/><path fill="#fff" d="m171.599 198.199-1.62-2.022h-9.3l-4.18 17.258h3.91l3.506-14.427h3.64l-3.506 14.427h5.124l.4-.4-1.213-1.483Z" data-name="Path 3837"/><path fill="#fff" d="M195.596 196.177h-5.258l-.4.27 1.348 1.618-3.777 15.37h5.123l.4-.4-1.213-1.483Z" data-name="Path 3838"/><path fill="#fff" d="m223.237 211.682-2.022-6.741 6.876-8.764h-3.776l-3.91 5.258-1.348-5.258h-5.123l-.4.27 2.022 1.618 2.022 7.011-6.472 8.359h3.64l3.775-5.124 1.348 5.124h5.124l.4-.4Z" data-name="Path 3839"/><path fill="#fff" d="M136.541 210.604h-4.449l1.079-4.449h3.64l.674-2.831h-3.64l1.079-4.315h4.18l1.079 1.483.4-.27.944-4.045h-11.054l-.4.27 1.213 1.618-3.776 15.37h10.112l.944-4.045-.27-.27Z" data-name="Path 3840"/><path fill="#f9a01b" d="m47.961 182.29 98.291-53.8-66.74 53.8 81.032-46.516-1.348 9.438 13.479-7.55 30.471 28.853 16.179-48.808 23.46-1.483-11.864-29.528 21.168-16.584-27.505-10.786 7.011-29.528L208.27 40.45l-12.135-25.348-18.741 18.606-33.707-15.1-4.584 30.067-30.067 6.607 17.8 10.652-17.935 9.028 15.236 1.348-62.561 48.543 62.965-33.438-67.415 51.37 71.729-37.348-76.717 57.573 84.538-45.033Z" data-name="Path 3841"/><path fill="#e56020" d="M227.821 87.101A48.918 48.918 0 1 1 180.9 36.136a48.918 48.918 0 0 1 46.921 50.965Z" data-name="Path 3842"/><path fill="#b95915" d="M184.944 127.28a48.91 48.91 0 0 1-33.168-82.92 48.96 48.96 0 1 0 62.291 74.83 47.83 47.83 0 0 1-29.123 8.09Z" data-name="Path 3843"/><path d="M227.82 85.617a32.1 32.1 0 0 0-.135-5.124 22.556 22.556 0 0 0-10.112-4.045c-.809 0-1.483-.135-2.292-.135a57.855 57.855 0 0 0-2.157-9.573 6.046 6.046 0 0 0 1.483.135c3.506.27 6.876.674 10.247 1.213a31.792 31.792 0 0 0-1.618-3.775c-3.64-.539-7.55-.944-11.46-1.213a57.532 57.532 0 0 0-4.449-9.168 12.843 12.843 0 0 0 6.472-3.236c-.944-.944-1.888-1.753-2.831-2.7a10.334 10.334 0 0 1-5.932 2.562c-.4-.539-.809-1.079-1.079-1.483a55.444 55.444 0 0 0-11.465-11.052 46.339 46.339 0 0 0-11.6-1.888h-.539a48 48 0 0 1 19.415 14.427 96.934 96.934 0 0 1-16.854-3.91c-1.753-.539-3.371-.944-4.989-1.483a69.309 69.309 0 0 0-23.191-2.7 49.86 49.86 0 0 0-11.46 9.034c6.2-2.562 18.606-6.876 33.707-2.7 1.618.4 3.236.809 4.989 1.348 6.607 2.022 14.157 4.18 20.629 4.18a64.253 64.253 0 0 1 4.584 8.494 36.609 36.609 0 0 0-3.775-.135c-31.55-.539-58.381 8.764-73.347 23.865a47.135 47.135 0 0 0 .944 8.764c4.18-6.067 10.517-11.6 18.606-16.18 15.1-8.494 35.325-12.944 56.763-12.674.809 0 1.483.135 2.292.135a58.583 58.583 0 0 1 2.427 9.573c-13.887.674-22.786 9.168-33.168 18.472-9.168 8.225-20.494 16.449-36.943 21.438a47.19 47.19 0 0 0 5.124 5.258c15.505-6.2 25.752-15.91 34.516-23.73 9.977-8.9 18.472-17.393 30.876-17.8a45.721 45.721 0 0 1 0 10.517c-1.618 19.146-12.809 35.46-27.91 43.55a50.029 50.029 0 0 0 11.191-2.427c1.213-1.079 2.427-2.157 3.506-3.236a59.459 59.459 0 0 0 17.393-37.483 48.092 48.092 0 0 0 0-10.786c.674.135 1.348.135 1.888.27a18.407 18.407 0 0 1 10.247 5.393Z" data-name="Path 3844"/></svg>