<svg xmlns="http://www.w3.org/2000/svg" width="391.896" height="334.129" data-name="portland trail blazers"><path d="M260.371 45.544a60.444 60.444 0 0 0-8.623-10.381 49.816 49.816 0 0 0-4.353-3.935L278.705 0h-91l-35.163 35.163-.084.084a77.712 77.712 0 0 0-8.623 10.381 71.664 71.664 0 0 0-6.45 11.972 70.168 70.168 0 0 0 0 54.586 67.768 67.768 0 0 0 6.446 11.888 60.444 60.444 0 0 0 8.623 10.381 39.929 39.929 0 0 0 4.353 4.019L125.581 169.7h91l35.246-35.33a68.925 68.925 0 0 0 14.986-22.186 70.168 70.168 0 0 0 0-54.586 61.9 61.9 0 0 0-6.446-12.056Z" data-name="Path 3865"/><path fill="#fff" d="M247.728 39.265c-1.34-1.423-2.846-2.763-4.27-4.019L205.282 73.59a12.242 12.242 0 0 1 5.191 3.014 11.928 11.928 0 0 1 0 16.66l-70.827 70.828h8.372l66.553-66.641a17.763 17.763 0 0 0 .167-24.949l4.1-4.1a23.42 23.42 0 0 1-.052 33.122l-.032.032-62.456 62.539h8.288l58.353-58.353a29.51 29.51 0 0 0 .084-41.525l4.1-4.1a35.194 35.194 0 0 1-.042 49.772l-.042.042-54.167 54.167h8.299l50.065-50.065a41.106 41.106 0 0 0 .084-58.1l4.186-4.186a47.044 47.044 0 0 1-.167 66.474L189.46 164.1h8.372l41.693-41.777a52.778 52.778 0 0 0 .123-74.64l-.039-.039 4.186-4.186a58.716 58.716 0 0 1-.167 83.051L206.121 164.1h8.288l33.4-33.4a64.805 64.805 0 0 0-.084-91.423Z" data-name="Path 3866"/><path fill="#cf0a2c" d="M156.724 130.521a47.537 47.537 0 0 0 4.27 3.935l38.177-38.177a11.328 11.328 0 0 1-5.191-3.014 11.773 11.773 0 0 1-.01-16.65l.01-.01 70.828-70.912h-8.288l-66.726 66.726a17.686 17.686 0 0 0-.084 24.949l-4.186 4.1a23.346 23.346 0 0 1 .029-33.016l.139-.137 62.54-62.622h-8.288L181.505 64.13a29.434 29.434 0 0 0-.084 41.525l-4.186 4.1a35.347 35.347 0 0 1 .084-49.814l54.335-54.248h-8.283l-50.153 50.149a41.106 41.106 0 0 0-.084 58.1l-4.186 4.186a47.12 47.12 0 0 1 .084-66.474l45.962-45.961h-8.288l-41.777 41.86a52.854 52.854 0 0 0-.167 74.679l-4.1 4.186a58.716 58.716 0 0 1 .069-83.036l.014-.014 37.672-37.675h-8.288l-33.572 33.572a64.527 64.527 0 0 0 .167 91.255Z" data-name="Path 3867"/><path d="M88.074 312.194h-4.439v-4.52h13.9v4.52h-4.52v21.935h-4.941Z" data-name="Path 3868"/><path d="M103.897 307.674h10.967l3.265 3.265v9.209l-2.763 2.6 2.93 11.3h-4.939l-2.763-10.8h-1.841v10.881h-4.94v-26.455Zm8.2 11.888 1-1.172v-5.777l-1-1.172h-3.26v8.121Z" data-name="Path 3869"/><path d="M128.092 307.674h7.116l4.019 26.455h-4.856l-.67-6.112h-4.27l-.753 6.112h-4.688Zm1.758 16.242h3.181l-1.59-13.144Z" data-name="Path 3870"/><path d="M144.836 330.362h2.931v-18.921h-2.931v-3.767h10.8v3.767h-2.846v18.921h2.846v3.767h-10.8Z" data-name="Path 3871"/><path d="M162.502 307.674h5.022v22.1h5.611v4.354h-10.633Z" data-name="Path 3872"/><path d="M190.129 307.674h10.8l3.181 3.265v7.033l-2.6 2.6 2.6 2.6v7.7l-3.181 3.181h-10.8Zm7.786 11.051 1.256-1.256v-4.69l-1.088-1h-3.016v7.033h2.846Zm.167 11.47 1.088-1v-5.442l-1.256-1.172h-2.93v7.535h3.1Z" data-name="Path 3873"/><path d="M211.478 307.674h4.856v22.1h5.777v4.354h-10.633Z" data-name="Path 3874"/><path d="M231.487 307.674h7.2l4.018 26.455h-4.856l-.753-6.112h-4.186l-.753 6.112h-4.688Zm1.926 16.242h3.181l-1.67-13.144Z" data-name="Path 3875"/><path d="m248.315 330.53 6.781-18.335h-6.613v-4.52h11.972v3.516l-6.7 18.419h6.7v4.52h-12.14Z" data-name="Path 3876"/><path d="M267.319 307.674h11.637v4.352h-6.613v6.447h6.029v4.354h-6.028v6.952h6.7v4.354h-11.725Z" data-name="Path 3877"/><path d="M286.241 307.674h10.967l3.265 3.265v9.209l-2.6 2.6 2.846 11.386h-4.939l-2.679-10.8h-1.921v10.8h-4.939Zm8.2 11.888 1-1.172v-5.777l-1-1.172h-3.265v8.121Z" data-name="Path 3878"/><path d="M307.004 330.947v-4.768h4.855v2.763l1.173 1.172h1.757l1-1.172v-5.024l-.836-.836h-5.185l-2.68-2.848v-9.295l3.182-3.265h7.283l3.182 3.265v4.688h-4.941v-2.763l-1-1.089h-1.674l-1.172 1.089v4.939l.921.753h5.19l2.68 2.763v9.627l-3.182 3.182h-7.368Z" data-name="Path 3879"/><path d="M53.414 206.288c0-15.321-8.288-20.428-24.446-20.428H0l12.642 12.642v92.344H28.3v-46.047h.837c15.823 0 24.028-4.856 24.446-19.423v-19.088ZM28.3 198.502h3.516c3.6 0 5.944 1.172 5.944 5.191v22.772c0 3.851-1.088 5.777-6.614 5.777h-2.681v-33.74Z" data-name="Path 3880"/><path d="M75.768 204.864c0-5.274 1.674-6.446 4.856-6.446 3.1 0 4.688 1.172 4.688 6.446v66.893c0 5.358-1.674 6.446-4.688 6.446-3.181 0-4.856-1.088-4.856-6.446Zm4.688 85.9c9.712 0 20.428-3.935 20.428-17.581v-69.661c0-13.73-10.8-17.665-20.428-17.665-9.544 0-20.344 3.935-20.344 17.665v69.655c0 13.645 10.8 17.584 20.344 17.584Z" data-name="Path 3881"/><path d="M267.236 204.361h.921l3.014 40.353h-7.448Zm-5.023 52.911h10.3l3.349 33.489h15.739l-11.888-104.9h-23.528l-11.888 104.9h14.149Z" data-name="Path 3882"/><path d="M376.324 270.422c0 6.781-1.926 7.786-5.944 7.786h-3.767v-79.7h3.767c3.935 0 5.944 1.088 5.944 7.786Zm15.572 1.34v-62.126c0-18.5-6.53-23.777-22.019-23.777h-18.921v104.9h22.186c12.307 0 18.753-9.042 18.753-19Z" data-name="Path 3883"/><path d="M123.148 198.422h3.767c3.516 0 5.944 1.172 5.944 5.191v21.679c0 3.851-1.172 6.781-6.7 6.781h-3.011Zm.251 46.214c7.284-.335 9.628 2.177 9.628 8.456v37.674h15.153s.335-11.3 0-41.609c-.084-9.46-6.028-10.884-6.028-10.884 6.865-2.93 6.028-6.363 6.028-14.149l-.084-20.344c0-13.563-7.367-17.916-19.926-17.916h-20.673v104.9h15.823v-46.13Z" data-name="Path 3884"/><path d="M237.682 278.203h-19.925v-92.344h-15.74v104.9h35.665Z" data-name="Path 3885"/><path d="M166.269 198.5v92.26h15.656V198.5h13.479v-12.641h-51.4l12.725 12.641Z" data-name="Path 3886"/><path d="m312.445 232.575 17.665 58.186h14.232v-104.9h-14.148v58.856l-17.749-58.856h-14.149v104.9h14.149Z" data-name="Path 3887"/></svg>