<svg xmlns="http://www.w3.org/2000/svg" width="296.79" height="338.056" data-name="sacramento kings"><path fill="#fff" d="m296.789 0-42.475 42.642-35.5-35.454-35.662 35.458-35.439-35.458-35.426 35.454-35.45-35.454-35.418 35.474L0 .85v188.81a148.4 148.4 0 1 0 296.79 0Z" data-name="Path 3747"/><path fill="#63727a" d="M13.248 215.524a135.814 135.814 0 0 0 20.664 49.71c6.173-10.825 18.519-24.271 42.771-29.983-1.862-6.223-3.522-12.847-4.932-19.725Z" data-name="Path 3748"/><path fill="#63727a" d="M43.587 278.026a137.547 137.547 0 0 0 103.733 48.685 127.78 127.78 0 0 1-10.956-6.3c-16.861-10.9-40.049-32.118-55.02-71.448-23.565 5.139-33.54 18.493-37.757 29.061" data-name="Path 3749"/><path fill="#63727a" d="M95.863 246.907a126.447 126.447 0 0 0 47.753 61.02 107.432 107.432 0 0 0 36.089 15.15 137.794 137.794 0 0 0 59.634-30.77c-13.434-1.471-27.216-9.2-41.756-17.359-22.711-12.741-50.989-28.608-89.167-28.608-4.126 0-8.335.2-12.553.564" data-name="Path 3750"/><path fill="#5a2d81" d="M153.273 146.042h-49.1v58.455h20.4v-46.891h15.321v46.891h19.439v-50.271c0-4.452-2.724-8.184-6.06-8.184" data-name="Path 3751"/><path fill="#5a2d81" d="M167.926 146.042v50.143c0 4.464 2.7 8.312 6.028 8.312h49.047v-35.49l-19.582-.024v23.934h-15.316v-35.593h34.9v-11.282Z" data-name="Path 3752"/><path fill="#5a2d81" d="m49.893 146.042-11.091 23.604h-6.41v-23.6H12.088v58.451h20.3v-23.521h6.409l11.096 23.521h20.284l-14.308-29.188 14.308-29.267Z" data-name="Path 3753"/><path fill="#5a2d81" d="M75.578 146.042h21.015v58.455H75.578z" data-name="Rectangle 4"/><path fill="#5a2d81" d="M284.756 161.851v-15.809h-53.888v26.706c0 4.452 2.7 8.069 6.024 8.069h27.456v12.739h-33.48v10.94h53.916v-26.83c0-4.154-2.3-8.053-5.381-8.053h-28.31v-12.241h14.161v4.479Z" data-name="Path 3754"/><path fill="#5a2d81" d="M227.425 86.757h-17.206l35.49-35.506-26.893-26.849-35.66 35.455-35.439-35.455-62.31 62.355h-17.2l35.43-35.561-26.796-26.794-35.422 35.455L12.092 30.74v104.575h272.66V29.39Z" data-name="Path 3755"/><path fill="#fff" d="M71.655 124.081a2.757 2.757 0 0 0 2.744 2.752h15.325v-4.114h-12.49v-13.355h12.49v-4.106H71.655Z" data-name="Path 3756"/><path fill="#fff" d="M59.165 117.084h-6.914v-7.716h6.914Zm-12.489-11.826v21.575h5.575v-5.643h6.914v5.643h5.575v-18.827a2.814 2.814 0 0 0-3.062-2.748Z" data-name="Path 3757"/><path fill="#fff" d="M269.023 122.687h-6.89v-13.323h6.89Zm2.863-17.429h-12.64a2.738 2.738 0 0 0-2.736 2.732v16.091a2.755 2.755 0 0 0 2.736 2.752h12.64a2.764 2.764 0 0 0 2.736-2.76V107.99a2.738 2.738 0 0 0-2.736-2.732" data-name="Path 3758"/><path fill="#fff" d="M21.674 115.352a2.754 2.754 0 0 0 2.752 2.745h9.737v4.622H21.674v4.114h18.069v-10.1a2.735 2.735 0 0 0-2.45-2.728l-.155-.012h-9.893v-4.629h12.5v-4.106H21.674Z" data-name="Path 3759"/><path fill="#fff" d="M133.652 117.084h-6.91v-7.716h6.91Zm2.819-11.826h-15.308v21.575h5.579v-5.643h6.91v5.643h5.583v-18.827a2.765 2.765 0 0 0-2.764-2.748" data-name="Path 3760"/><path fill="#fff" d="M232.207 109.36h6.258v17.473h5.568V109.36h6.251v-4.1h-18.077Z" data-name="Path 3761"/><path fill="#fff" d="M174.375 105.258h-27.738v21.575h5.579v-17.465h6.838v17.465h5.657v-17.465h6.834v17.465h5.575v-18.827a2.758 2.758 0 0 0-2.744-2.748" data-name="Path 3762"/><path fill="#fff" d="M223.808 105.258h-15.316v21.575h5.571v-17.465h6.918v17.465h5.575v-18.827a2.757 2.757 0 0 0-2.752-2.748" data-name="Path 3763"/><path fill="#fff" d="M184.716 124.081a2.752 2.752 0 0 0 2.745 2.752h15.308v-4.114h-12.474v-4.626h12.474v-4.1h-12.474v-4.63h12.474v-4.105h-18.053Z" data-name="Path 3764"/><path fill="#fff" d="M108.631 114.88h-6.919v-5.515h6.919Zm2.6 4.1h2.982v-10.978a2.826 2.826 0 0 0-3.062-2.744h-15v21.575h5.571v-7.85h4.047l3.336 7.851h5.426Z" data-name="Path 3765"/><path fill="#63727a" d="M105.433 232.076c29.049-.592 57.78 6.683 94.437 27.571 27.095 15.44 39 20.122 47.121 18.124 7.49-1.843 14.431-6.262 26.682-32.158a134.771 134.771 0 0 0 9.67-30.081H86.265c1.37 5.969 2.716 11.909 4.523 17.37a131.693 131.693 0 0 1 14.645-.822" data-name="Path 3766"/></svg>