<svg xmlns="http://www.w3.org/2000/svg" width="472.556" height="253.092" data-name="san antonio spurs"><path fill="#c4ced4" d="M457.585 82.869c1.5-5.234 3.863-13.458 3.863-13.458l-17.7-7.228c-.748-.249-1.5-.623-2.368-.872l3.115-8.972-16.823-5.483c1.371-4.486 2.119-7.1 2.119-7.228l1.999-6.728-6.6-2.243C362.5 9.471 304.309 0 236.519 0 168.6 0 110.409 9.471 47.727 30.78l-6.6 2.243 1.994 6.729c0 .125.748 2.742 2.118 7.228l-16.827 5.358 3.115 8.972c-.748.249-1.5.623-2.243.872L11.465 69.41s2.368 8.225 3.988 13.458C10.468 84.613 0 88.352 0 88.352l38.007 115.891s10.094-3.614 15.7-5.608a1317.126 1317.126 0 0 0 5.109 13.334l20.063-8.349 1.869-.748 2.118 6.6 7.352-3.24a359.639 359.639 0 0 1 49.6-16.7c-8.972 13.334-18.443 27.415-18.443 27.415s52.338-17.072 57.572-18.817c1.869 4.486 22.8 54.955 22.8 54.955s15.2-52.214 16.574-57.074C222.562 197.14 284 212.966 284 212.966s-17.446-20.063-30.281-34.892c59.192.5 112.776 21.309 128.727 28.163l7.352 3.115 1.994-6.48 1.869.748 20.063 8.349s2.742-7.352 5.109-13.334a9966.51 9966.51 0 0 1 15.7 5.608l38.006-115.891c.5 0-9.969-3.738-14.954-5.483" data-name="Path 3445"/><path d="M448.115 87.604c.125-.5 3.988-13.708 3.988-13.708l-11.215-4.611c-2.866-1.122-5.857-2.368-8.723-3.489l3.115-8.972-16.574-5.109c2.617-8.6 4.112-13.957 4.112-13.957C365.12 18.069 308.172 7.352 236.52 7.352s-128.6 10.717-186.3 30.406c0 0 1.62 5.358 4.112 13.957l-16.574 5.358 3.115 8.972c-2.866 1.122-5.857 2.243-8.723 3.489l-11.215 4.611s3.863 13.207 3.985 13.707c-.872.374-15.2 5.483-15.2 5.483l33.148 101.064s14.7-5.358 15.328-5.483l4.985 12.96 12.709-5.234 9.346-3.738c1.122 3.614 1.869 5.982 2.118 6.729a386.713 386.713 0 0 1 67.542-21.181c-7.851 11.714-18.194 27.041-18.194 27.041s45.111-14.7 45.858-14.954c.374.872 18.318 43.989 18.318 43.989s13.085-44.986 13.334-45.858c1.122.249 52.214 13.458 52.214 13.458s-16.7-19.315-26.792-30.9c69.41-3.365 133.712 23.3 145.924 28.537.249-.748 1-3.115 2.118-6.729l9.346 3.738 12.711 5.234 4.985-12.96c.623.249 15.328 5.483 15.328 5.483l33.274-101.32c0-.125-14.331-5.234-15.2-5.608" data-name="Path 3446"/><path fill="none" stroke="#000" stroke-miterlimit="3.864" stroke-width=".225" d="M448.115 87.604c.125-.5 3.988-13.708 3.988-13.708l-11.215-4.611c-2.866-1.122-5.857-2.368-8.723-3.489l3.115-8.972-16.574-5.109c2.617-8.6 4.112-13.957 4.112-13.957C365.12 18.069 308.172 7.352 236.52 7.352s-128.6 10.717-186.3 30.406c0 0 1.62 5.358 4.112 13.957l-16.574 5.358 3.115 8.972c-2.866 1.122-5.857 2.243-8.723 3.489l-11.215 4.611s3.863 13.207 3.985 13.707c-.872.374-15.2 5.483-15.2 5.483l33.148 101.064s14.7-5.358 15.328-5.483l4.985 12.96 12.709-5.234 9.346-3.738c1.122 3.614 1.869 5.982 2.118 6.729a386.713 386.713 0 0 1 67.542-21.181c-7.851 11.714-18.194 27.041-18.194 27.041s45.111-14.7 45.858-14.954c.374.872 18.318 43.989 18.318 43.989s13.085-44.986 13.334-45.858c1.122.249 52.214 13.458 52.214 13.458s-16.7-19.315-26.792-30.9c69.41-3.365 133.712 23.3 145.924 28.537.249-.748 1-3.115 2.118-6.729l9.346 3.738 12.711 5.234 4.985-12.96c.623.249 15.328 5.483 15.328 5.483l33.274-101.32c0-.125-14.331-5.234-15.2-5.608Z" data-name="Path 3447"/><path fill="#fff" d="m36.387 80.003-1.745.748c.748 2.742 4.112 14.081 4.112 14.081s-11.962 4.237-14.828 5.358c1.122 3.614 24.923 75.766 26.169 79.629 2.991-1.122 14.829-5.358 14.829-5.358s3.738 9.72 4.735 12.461l1.994-.748c56.45-23.3 108.913-34.144 164.865-34.144s108.29 10.841 164.865 34.144c0 0 1 .374 1.869.748 1.122-2.866 4.735-12.461 4.735-12.461s11.838 4.237 14.829 5.358c1.246-3.738 24.923-76.015 26.169-79.629-2.866-1-14.829-5.358-14.829-5.358s3.365-11.34 4.112-14.081l-1.742-.748c-61.56-25.048-132.591-38.88-199.758-38.88-67.542 0-138.696 13.832-200.381 38.88" data-name="Path 3448"/><path fill="#c4ced4" d="M419.079 171.719c-4.237-1.5-14.58-5.234-14.58-5.234s-3.24 8.6-4.735 12.337c-55.7-22.555-107.792-33.148-163.245-33.148s-107.543 10.593-163.246 33.149c-1.371-3.614-4.735-12.337-4.735-12.337s-10.343 3.738-14.58 5.234c-2.243-6.854-20.188-61.436-22.306-67.916 4.237-1.5 14.7-5.234 14.7-5.234s-2.986-10.216-4.108-14.33c60.065-23.801 128.976-36.886 194.524-36.886 65.173 0 133.961 13.085 194.025 37.011-1.122 3.988-4.112 14.331-4.112 14.331s10.468 3.738 14.7 5.234c-2.243 6.48-20.063 60.937-22.306 67.79" data-name="Path 3449"/><path fill="#fff" d="m339.45 134.583 9.346-52.961.125-1.869a12.346 12.346 0 0 0-2.118-6.854 11.546 11.546 0 0 0-7.477-4.735L279.76 58.07l-4.112 24.424s-7.975 46.855-8.349 49.223c3.365.623 23.8 3.988 27.166 4.611.623-3.489 4.237-24.424 4.237-24.424l16.819 2.866-.374 2.118s-2.368 14.081-2.368 14.954c-.374 3.24.249 4.237 1.246 5.608a7.5 7.5 0 0 0 4.735 2.991c-.249 0 28.163 6.854 28.163 6.854Zm-18.318-41.87-21.811-3.614.623-3.738 21.811 3.609Zm-188.168 40.5-15.951-49.1a11.606 11.606 0 0 0-14.58-7.477L57.696 91.218a11.4 11.4 0 0 0-6.729 5.732 10.816 10.816 0 0 0-1.246 5.234 12.234 12.234 0 0 0 .623 3.614l15.951 49.1a11.555 11.555 0 0 0 14.58 7.477.435.435 0 0 1-.249.125c.374-.125 3.738-1.246 44.986-14.58a11.524 11.524 0 0 0 7.352-14.7m-53.959-20.07-1.246-3.614 19.689-6.48 1.247 3.614Zm7.6 22.8-1.244-3.61 19.689-6.48 1.246 3.61Z" data-name="Path 3450"/><path fill="#fff" d="m198.635 95.579-5.109-26.294a11.456 11.456 0 0 0-4.86-7.352 11.976 11.976 0 0 0-8.723-1.869s-55.578 10.592-59.441 11.215c.5 2.742 11.215 59.441 11.215 59.441l1.5 7.975 1.122 5.982s23.8-4.486 27.041-5.109c-.623-3.489-4.611-24.424-4.611-24.424l32.4-6.106a12.221 12.221 0 0 0 7.477-4.86 11.077 11.077 0 0 0 1.994-6.854v-1.745Zm-48.973-2.368-.748-3.738 21.688-4.112.748 3.738-21.688 4.112Z" data-name="Path 3451"/><path fill="#fff" d="M181.563 122.247c.125 1.869 1.62 22.929 1.62 22.929s-25.3 1-28.661 1.246c2.742 1.994 23.178 16.325 23.178 16.325s-14.206 21.184-16.075 23.926c3.115-1 26.792-8.723 26.792-8.723l10.842 26.047c.872-3.115 8.1-27.664 8.1-27.664s26.668 6.854 30.281 7.726l-19.689-22.8s20.935-17.945 23.428-19.938c-2.866 0-16.2-.249-16.2-.249l3.365-3.738h22.178l26.169-46.481V57.697H253.84l-10.094 17.82s-1.122 8.972-1.371 10.841c-1 1.745-8.723 15.577-11.34 20.188h-3.738c3.863-6.854 8.972-15.826 8.972-15.826V57.697h-23.8l-9.721 17.7s-1 8.972-1.246 10.966c-.748 1.745-19.938 35.889-19.938 35.889" data-name="Path 3452"/><path d="m257.454 63.803-7.726 13.583-1.371 10.966-13.586 24.3h-17.942l13.334-23.677V63.803h-13.832l-7.352 13.458-1.246 11.091-19.562 34.643 3.24 8.225h12.212l-5.486 14.083-10.343-11.215 1.122 16.449-17.945.748 14.331 9.969-10.218 15.2 16.449-5.358 6.729 16.2 5.109-17.693 18.318 4.735-11.838-13.709 14.58-11.963-14.954.872 16.2-18.318h21.309l23.677-41.871V63.803Z" data-name="Path 3453"/><path fill="#fff" d="M421.821 96.701a11.334 11.334 0 0 0-6.73-5.73l-44.737-14.58a10.963 10.963 0 0 0-8.848.748 11.334 11.334 0 0 0-5.732 6.729l-15.951 49.1a11.579 11.579 0 0 0-.623 3.614 11.159 11.159 0 0 0 1.246 5.234 11.335 11.335 0 0 0 6.729 5.732l44.737 14.58a10.963 10.963 0 0 0 8.848-.748 11.335 11.335 0 0 0 5.732-6.729l15.951-49.1a11.269 11.269 0 0 0-.623-8.848m-34.519 38.754-19.689-6.48 1.246-3.614 19.689 6.48Zm7.6-22.68-19.689-6.48 1.246-3.614 19.689 6.48Z" data-name="Path 3454"/><path fill="#c4ced4" d="m259.323 67.541-4.735 8.474h6.48l4.486-8.474Z" data-name="Path 3455"/><path fill="none" stroke="#000" stroke-miterlimit="3.864" stroke-width=".225" d="m259.323 67.541-4.735 8.474h6.48l4.486-8.474Z" data-name="Path 3456"/><path fill="#c4ced4" d="M225.179 67.541h-6.729l-4.611 8.474h6.978Z" data-name="Path 3457"/><path fill="none" stroke="#000" stroke-miterlimit="3.864" stroke-width=".225" d="M225.179 67.541h-6.729l-4.611 8.474h6.978Z" data-name="Path 3458"/><path fill="#c4ced4" d="M237.266 115.892h-34.144l14.206-24.923h-6.729l-17.072 30.281h18.941l-13.832 31.652-6.231-6.729.623 8.6-9.346.374 7.477 5.234-5.234 7.851 8.474-2.742 3.489 8.474 2.742-9.221 9.471 2.492-6.106-7.1 7.6-6.231-10.592.623h-.748l21.932-33.147h19.066l16.699-30.411h-6.6Zm-40.624 45.983a2.368 2.368 0 1 1 2.368-2.368 2.291 2.291 0 0 1-2.368 2.368" data-name="Path 3459"/><path fill="none" stroke="#000" stroke-miterlimit="3.864" stroke-width=".225" d="M237.266 115.892h-34.144l14.206-24.923h-6.729l-17.072 30.281h18.941l-13.832 31.652-6.231-6.729.623 8.6-9.346.374 7.477 5.234-5.234 7.851 8.474-2.742 3.489 8.474 2.742-9.221 9.471 2.492-6.106-7.1 7.6-6.231-10.592.623h-.748l21.932-33.147h19.066l16.699-30.411h-6.6Zm-40.624 45.983a2.368 2.368 0 1 1 2.368-2.368 2.291 2.291 0 0 1-2.368 2.368Z" data-name="Path 3460"/><path fill="#c4ced4" d="M219.072 79.38h-6.106l-.872 7.228h6.355Z" data-name="Path 3461"/><path fill="none" stroke="#000" stroke-miterlimit="3.864" stroke-width=".225" d="M219.072 79.38h-6.106l-.872 7.228h6.355Z" data-name="Path 3462"/><path fill="#c4ced4" d="M252.719 86.608h6.355l.5-7.228h-5.982Z" data-name="Path 3463"/><path fill="none" stroke="#000" stroke-miterlimit="3.864" stroke-width=".225" d="M252.719 86.608h6.355l.5-7.228h-5.982Z" data-name="Path 3464"/><path fill="#fff" d="M75.893 52.837c.872 3.115 2.617 3.489 6.729 2.368l5.358-1.5c5.857-1.62 7.1-2.617 5.982-6.48-1.122-4.237-2.866-4.237-9.72-2.368-4.735 1.246-5.358 1.371-5.608.125-.249-.748.374-1.246 1.371-1.62l4.86-1.371c1.994-.5 2.243-.125 2.617.872l4.486-1.246-.125-.5c-.623-2.492-1.62-4.112-6.729-2.742l-6.231 1.62c-5.608 1.5-5.358 3.614-4.611 6.231 1 3.614 1.869 4.112 8.6 2.368 5.732-1.5 6.231-1.62 6.6-.374.249 1.122-.623 1.5-1.62 1.745l-5.483 1.5c-1.246.374-1.869.374-2.368-1.122l-4.486 1.246.374 1.246Zm31.777-4.362 4.985-1.122.748-2.866 9.1-1.994 2.118 2.368 4.985-1.122-11.215-12.96-5.863 1.247-4.86 16.449Zm8.474-13.583 4.112 4.86-5.732 1.246 1.62-6.106Zm26.418 6.6 4.611-.748-1.745-10.717h.125l10.218 9.471 6.978-1.122-2.368-14.829-4.486.748 1.745 10.717h-.125l-10.222-9.466-6.976 1.12Zm47.852-5.857 5.109-.249 1.246-2.742 9.346-.5 1.618 2.622 5.109-.249-9.1-14.58-5.982.374-7.352 15.328Zm10.468-12.088 3.24 5.483-5.857.249 2.617-5.732Zm25.172 10.468h4.486V23.178h.125l8.6 10.841h7.1V19.066h-4.612v10.841l-8.6-10.841h-7.1Zm34.518-10.966 6.48.249-.623 11.34 4.611.249.623-11.34 6.48.374.125-3.738-17.446-.872Zm30.655 7.975c-.5 4.362 1.869 5.608 5.982 6.106l7.352.748c4.112.374 6.729-.374 7.1-4.735l.5-4.486c.5-4.362-1.869-5.608-5.982-6.106l-7.352-.748c-4.112-.374-6.729.374-7.1 4.735l-.5 4.486m5.109-2.492c.249-1.869.748-2.991 3.115-2.742l5.358.5c2.368.249 2.742 1.371 2.492 3.24l-.125 1.62c-.249 2.118-.748 2.991-2.991 2.742l-5.857-.623c-2.118-.249-2.492-1.122-2.368-3.24l.374-1.5ZM325.493 40.5l4.486.748 1.994-10.717 6.6 12.212 6.978 1.246 2.617-14.7-4.486-.872-1.869 10.717h-.12l-6.6-12.212-6.982-1.256Z" data-name="Path 3465"/><path fill="#fff" d="m360.227 46.971 3.097-14.63 4.51.955-3.096 14.63Z" data-name="Path 3466"/><path fill="#fff" d="M380.199 46.357c-1.122 4.237 1 5.857 4.985 6.978l7.1 1.869c3.988 1.122 6.6.748 7.726-3.489l1.246-4.362c1.122-4.237-1-5.857-4.985-6.978l-7.1-1.869c-3.988-1.122-6.6-.748-7.726 3.489l-1.246 4.362m5.358-1.745c.5-1.745 1.246-2.742 3.614-2.118l5.234 1.371c2.368.623 2.492 1.869 1.994 3.614l-.374 1.62c-.623 2.118-1.246 2.742-3.365 2.243l-5.732-1.5c-2.118-.623-2.368-1.5-1.745-3.614l.374-1.62Z" data-name="Path 3467"/><path d="m88.352 127.48-17.072 5.608a5.448 5.448 0 0 1-6.854-3.489l-.623-2.118-7.726-23.553a5.448 5.448 0 0 1 3.489-6.855l44.737-14.58a5.448 5.448 0 0 1 6.854 3.489l4.237 13.209-14.456 4.737-1.122-3.489a2.187 2.187 0 0 0-2.741-1.366l-22.057 7.223a2.187 2.187 0 0 0-1.371 2.742l1.994 6.106a2.187 2.187 0 0 0 2.742 1.371l5.234-1.745 28.163-9.221a5.448 5.448 0 0 1 6.854 3.489l.872 2.617 7.6 23.428a5.448 5.448 0 0 1-3.489 6.854l-44.737 14.58a5.448 5.448 0 0 1-6.852-3.491l-4.486-13.708 14.455-4.735 1.246 3.863a2.187 2.187 0 0 0 2.742 1.371l22.057-7.228a2.187 2.187 0 0 0 1.371-2.742l-1.994-6.106a2.412 2.412 0 0 0-2.866-1.62l-16.2 5.358Zm301.817 1.62a2.472 2.472 0 0 1 1.371 2.991l-1.994 6.106a2.187 2.187 0 0 1-2.742 1.371l-22.057-7.228a2.187 2.187 0 0 1-1.371-2.742l1.246-3.863-14.455-4.611-4.486 13.708a5.448 5.448 0 0 0 3.489 6.854l44.737 14.58a5.448 5.448 0 0 0 6.854-3.489l7.6-23.428.872-2.617a5.448 5.448 0 0 0-3.489-6.854l-28.163-9.221-5.234-1.745a2.187 2.187 0 0 1-1.369-2.739l1.994-6.106a2.187 2.187 0 0 1 2.742-1.371l22.057 7.228a2.187 2.187 0 0 1 1.371 2.742l-1.246 3.489 14.455 4.735 4.237-13.209a5.448 5.448 0 0 0-3.489-6.854l-44.612-14.58a5.448 5.448 0 0 0-6.854 3.489l-7.726 23.552-.623 2.118a5.448 5.448 0 0 0 3.489 6.854l17.072 5.608Zm-51.841-54.827-53.46-9.1-10.468 61.56 15.078 2.492 4.237-24.424 19.44 3.24 7.477 1.246a2.11 2.11 0 0 1 1.745 2.492l-3.24 18.443c-.623 3.863 1.62 4.112 2.492 4.362 1.121.249 12.835 2.243 12.835 2.243-.374-.374-1.121-1.745-.5-4.362l3.738-21.683a4.511 4.511 0 0 0-2.492-4.86c2.492-.249 3.614-2.243 3.988-4.237l.374-1.869 3.24-19.315a5.386 5.386 0 0 0-4.484-6.228Zm-12.211 13.829-1 6.231a2.077 2.077 0 0 1-2.489 1.74l-26.792-4.486 1.745-10.592 26.792 4.611a2.077 2.077 0 0 1 1.744 2.496Zm-133.462 8.723-5.109-26.294a5.334 5.334 0 0 0-6.355-4.362l-53.336 10.095 11.589 61.31 14.954-2.866-4.486-24.175 38.381-7.352a5.423 5.423 0 0 0 4.362-6.355Zm-18.568-4.86-26.792 5.108-1.994-10.468 26.792-5.109a2.2 2.2 0 0 1 2.492 1.745l1.243 6.232a2.2 2.2 0 0 1-1.741 2.492Z" data-name="Path 3468"/></svg>