<svg xmlns="http://www.w3.org/2000/svg" width="307.578" height="307.578" data-name="toronto raptors"><path fill="#cd1141" d="M307.578 153.789A153.789 153.789 0 1 1 153.789 0a153.811 153.811 0 0 1 153.789 153.789" data-name="Path 3644"/><path fill="#070b0c" d="M153.789 299.555A145.762 145.762 0 0 1 49.575 51.868a144.306 144.306 0 0 1 102.59-43.844h1.624a145.818 145.818 0 0 1 1.624 291.626 9.824 9.824 0 0 0-1.624-.1" data-name="Path 3645"/><path fill="#fff" d="m168.117 53.683-5.062 5.059h-14.23l-5.063-5.063V25.505l5.063-5.063h14.137l5.063 5.063v28.178Zm-14.805-24.931-1.528 1.528v18.627l1.528 1.528h5.158l1.528-1.528V30.281l-1.528-1.528Zm97.145 91.318-6.782-2.388-6.113-12.8 2.388-6.782 25.313-12.131 6.782 2.388 6.113 12.8-2.388 6.782Zm16.048-24.071-2.006-.669-16.716 8.024-.764 2.006 2.2 4.681 2.006.669 16.812-8.024.764-2.006ZM92.751 74.985l.1 7.164-9.843 10.221-7.26.1-20.155-19.682-.1-7.26 9.839-10.125 7.26-.1Zm-28.179-6.782v2.2l13.373 12.988h2.2l3.63-3.725v-2.2L70.399 64.477h-2.2Zm155.8-31.522-14.9 35.247-6.209-2.579-1.63-25.027-8.692 20.633-6.686-2.866 14.9-35.247 8.31 3.534.1 21.97 7.928-18.627Zm-98.578 8.024-1.719 5.922 10.7 10.507-7.451 3.248-9.934-9.552-3.63 1.624 5.063 11.654-6.782 2.961-15.29-35.153 16.43-7.164 6.973 2.77 5.636 13.182Zm-15.669 3.537 6.018-2.675a17.22 17.22 0 0 0 .764-2.006l-2.1-4.776-2.006-.764-6.018 2.675 3.342 7.546Zm144.236 22.731-4.967-4.872-21.11 21.492-5.731-5.636 21.11-21.492-4.967-4.872 5.729-5.921 15.763 15.47ZM45.85 92.847l-2.866 6.4 27.51 12.322-3.248 7.355-27.509-12.322-2.866 6.4-7.546-3.439L38.4 89.504Zm210.147 97.909-3.821 7.164-2.675-1.433-.764 1.433-2.293 4.585.669 2.006 3.725 2.006-.478-.287 2.1-.573 4.49-8.6 7.069-2.1 11.558 6.018 2.1 6.878-6.591 12.609-6.973 2.1-5.731-3.057 3.725-7.164 2.961 1.528 3.152-5.922-.669-2.1-3.057-1.624-2.1.669-4.394 8.406-7.164 2.2-11.558-6.018-2.292-7.069 6.591-12.609 6.973-2.006 5.445 2.961ZM59.032 217.12l-6.018-1.242-9.743 11.364-3.725-7.164 8.788-10.6-1.815-3.536-11.272 5.827-3.439-6.591 34.006-17.671 8.31 15.857-2.293 7.069-12.8 6.686Zm-4.585-15.378 3.057 5.827a17.825 17.825 0 0 0 2.1.669l4.585-2.388.669-2.1-3.057-5.827-7.354 3.819Zm54.734 61.707-5.54 13.277-6.686-2.77 14.71-35.438 16.239 6.686 2.675 6.973-5.349 12.9-5.349 2.866-10.7-4.49Zm2.866-6.782 5.445 2.293 2.006-.86 2.006-4.872-.764-2.006-5.445-2.293-3.248 7.737Zm55.307.191-6.973.1.286 30.084-8.024.1-.287-30.089-6.973.1-.1-8.31 21.97-.191Zm44.608 12.513-2.866 6.591-13.277 5.063-6.591-2.961-10.03-26.364 2.961-6.591 13.277-5.067 6.591 2.961 9.934 26.364Zm-22.737-18.054-.86 2.006 6.591 17.385 2.006.86 4.872-1.815.86-2.006-6.589-17.385-2.006-.86Zm50.817-19.009.1 6.209 13.277 6.973-6.209 5.254-12.227-6.209-2.961 2.579 8.215 9.648-5.636 4.776-24.836-29.23 13.66-11.558 7.451.669 9.17 10.889Zm-13.943 7.834 5.063-4.3.191-2.1-3.343-4.012-2.1-.191-5.063 4.3 5.254 6.3ZM77.563 263.735l-6.018-5.54 2.77-5.636-8.215-7.546-5.445 3.248-6.018-5.54 34.674-20.824 6.018 5.54-17.767 36.3Zm.191-18.149 5.254-10.6-10.221 6.113Z" data-name="Path 3646"/><g fill="#a0a0a3" data-name="Group 1536"><path d="M183.684 230.875c.1.191.191.382.287.382a8.608 8.608 0 0 0 1.242-.191l.86-.382 2.388-.955 6.018-2.866 1.051-.573.573-.287.669-.478 1.051-.669 1.242-.669 1.624-1.051 2.866-2.006 1.433-1.051 2.006-1.433 1.815-1.337.86-.669 1.242-1.146 1.242-1.242 2.006-2.2 2.388-2.292 2.675-3.152 1.528-2.006.478-.669 1.624-2.006 3.152-4.489.86-1.433 2.1-4.107 1.146-2.2 2.006-4.107 1.051-2.484 1.146-3.821s1.433-5.063 2.2-7.642a.928.928 0 0 0-.1-.86 13.673 13.673 0 0 1-1.146-2.006c-.191-.382-.478-.669-.669-1.051-.191-.287-.764-.955-.955-1.242a2.575 2.575 0 0 0-.764-.669c-.669-.573-1.242-1.242-1.719-1.624a3.351 3.351 0 0 1-.764-.478 21.858 21.858 0 0 0-5.349-3.152 19.14 19.14 0 0 0-2.484-.955c-.573-.191-1.528-.382-2.1-.573-.382-.1-.669-.1-.86.1-.287.191-.287.573-.287.955-.1 1.051-.191 2.2-.287 3.248s-.191 2.2-.287 3.248c-.1.955-.1 2.006-.287 2.961-.191 1.337-.287 2.579-.573 3.916l-1.433 7.164a6.237 6.237 0 0 1-.478 1.91 13.234 13.234 0 0 0-.955 3.152 52.452 52.452 0 0 1-2.006 6.591 27.447 27.447 0 0 1-2.293 5.158c-.1.1-.1.191-.191.382-.478 1.146-.955 2.2-1.433 3.343-.287.669-.764 1.337-1.051 2.1a17.4 17.4 0 0 1-1.433 2.579c-.86 1.337-1.719 2.579-2.484 3.916a15.911 15.911 0 0 1-1.719 2.675c-.191.191-.287.478-.478.669a17.977 17.977 0 0 1-1.528 2.2c-1.051 1.337-2.1 2.675-3.248 3.916-.669.764-1.433 1.528-2.2 2.292-.669.669-1.337 1.433-2.006 2.1a.954.954 0 0 1-.478.382 12.484 12.484 0 0 0-1.146 1.051 16.6 16.6 0 0 1-2.77 2.388 6.132 6.132 0 0 0-1.242.955 16.259 16.259 0 0 1-3.63 2.484m53.874-64.477a.333.333 0 0 0 .1-.191 3.378 3.378 0 0 1 .1-.573l.573-5.254.382-4.872v-5.636l-.573-5.54s-.669-4.967-1.146-7.546a2.331 2.331 0 0 0-1.528-1.719c-.287-.1-.478-.287-.764-.287l-1.719-.573c-1.242-.287-2.388-.764-3.725-.955-1.528-.287-2.961-.382-4.49-.573-1.242-.1-2.484-.191-3.725-.191h-2.579c-.573 0-1.051 0-1.337.382-.287.287-.1.955 0 1.528.191 1.242.382 1.815.573 2.961a79.856 79.856 0 0 1 1.337 10.7c.1 1.624.191 3.248.191 4.872v1.242a1.8 1.8 0 0 0 .191.764c.1.191.382.287.669.382s.573.1.955.191c.287.1.86.191 1.242.287 1.433.478 2.961.955 4.394 1.528.955.382 1.91.955 2.866 1.433.1.1.191.1.287.191.573.382 1.146.86 1.624 1.242a14.758 14.758 0 0 1 3.63 3.248 2.231 2.231 0 0 0 .669.669c.382.382 1.051 1.624 1.528 2.2.1 0 .191.1.287.1m-36.967-58.937a5.875 5.875 0 0 0 1.337-.1c.287 0 .573 0 .669-.382a1.029 1.029 0 0 0-.191-.764c-.1-.287-1.051-1.91-1.051-1.91l-.955-1.433-3.916-5.636-.764-.955-.764-1.051-1.242-1.433-3.152-3.439-1.337-1.337-4.872-4.489-4.012-3.057-1.433-.764-4.685-2.861-3.247-1.819-.669-.287-2.675-.955-4.012-1.528-.287-.1-1.242-.287-.382-.1-1.146-.287-2.388-.478h-1.146l-2.1-.382-2.484-.191-.86-.1h-1.624l-2.675.1-2.579.287h-2.006l-1.815.191-1.815.382-1.433.382-2.293.478h-.478l-2.1.764-1.242.382-.764.478-1.815.478-.86.478-1.051.669-2.77 1.146-3.439 1.337-1.146.573-2.388 1.337-2.1 1.337-2.006 1.051-.764.382-2.2 1.146-.382.191-2.484 1.91-2.006 1.337-.382.287-2.292 1.824-.86.669s-1.242 1.051-1.242 1.242l.86-.287 1.624-.573h.287l2.293-.955h.287l2.484-.955 1.337-.382 1.337-.478 1.815-.669 4.49-1.719h.382l2.293-.764 1.815-.764.287.191 3.534.1 2.293.191h.1l4.49.382 6.3.287v.191l2.2 1.91h.191l2.292 2.2.191-.1 3.152.1.191-.1 7.833.478v.192l3.434 2h.191l6.113 2.961v.287l3.534-1.337 5.158 1.719.86 1.433 1.91.1 1.815 2.006h.191l1.433 1.624v.1h.191l4.012.955 1.528 2.293 3.725 1.337a54.255 54.255 0 0 0 6.018 1.242 27.333 27.333 0 0 0 5.54.1m34.77 23.689a14.075 14.075 0 0 0-.573-1.815l-.191-.669-.191-.764-.669-2.006-.669-1.719-1.91-4.3-.86-2.1-1.051-2.388-1.337-2.1-.287-.573-.86-1.719-.86-1.337-.382-.478-5.54-7.546s-.573-.669-.86-.955c-.1-.191-.191-.287-.382-.287a42.747 42.747 0 0 1-2.484 3.63c-.669.764-2.2 2.1-2.2 2.1s-1.242.955-1.433 1.146a11.7 11.7 0 0 1-1.146.764l-1.242.764a6.93 6.93 0 0 1-1.146.478c-.191.1-.382.1-.478.287-.1.1-.1.191-.1.478 0 .191.1.287.191.478.478 1.051.955 2.2 1.528 3.248a44.037 44.037 0 0 1 2.1 4.872c.191.573.478 1.051.669 1.624.478 1.433.955 2.866 1.337 4.3.191.669.382 1.242.573 1.91s.287 1.337.478 1.91a.7.7 0 0 0 .86.573h1.242c1.528 0 2.961-.1 4.489-.1.382 0 3.439.287 3.439.287s1.051.1 1.624.191c1.146.191 2.293.478 3.439.669a16.812 16.812 0 0 1 2.866.955c.382.191.86.287 1.337.478a.988.988 0 0 1 .382.1c.287-.191.287-.287.287-.382" data-name="Path 3647"/><path d="M215.778 97.813a3.437 3.437 0 0 0-.478-.86l-.287-.478-.764-.955-.573-.764-1.051-.955a1.782 1.782 0 0 0-.382-.287c-1.815-1.433-5.349-4.3-5.349-4.3l-.955-.764-1.815-1.624-9.266-5.54-7.26-3.439-3.916-1.528-1.433-.478-4.771-1.622-3.343-.86-3.248-.669h-.478l-.287.287.1.1a1.175 1.175 0 0 0 .478.191c1.051.382 2.006.764 3.057 1.146l2.006.86a3.349 3.349 0 0 1 1.337.573c1.528.86 3.057 1.815 4.681 2.675a18.054 18.054 0 0 1 2.579 1.91 9.085 9.085 0 0 0 1.91 1.433 6.178 6.178 0 0 1 .86.764c.191.1.287.287.478.382a30.729 30.729 0 0 1 2.675 2.293 35.335 35.335 0 0 0 2.675 2.675 31.664 31.664 0 0 1 2.484 2.579c.573.764 1.242 1.528 1.91 2.293 1.337 1.337 2.388 2.866 3.63 4.3a2 2 0 0 1 .382.573 31.566 31.566 0 0 0 2.484 3.725 12.137 12.137 0 0 1 1.719 2.579 15.548 15.548 0 0 0 1.051 1.624 1.143 1.143 0 0 0 .764.478 1.175 1.175 0 0 0 .478-.191l.669-.287s.86-.382 1.146-.478a3.945 3.945 0 0 0 1.051-.669c.191-.191 1.051-.764 1.528-1.242s1.528-1.624 1.528-1.624l.669-.955 1.242-2.1c-.1-.1.191-.573.1-.764m-3.821 30.758c-.478-1.528-.86-2.961-1.433-4.489-.478-1.242-.764-2.484-1.337-3.725a9.244 9.244 0 0 1-.764-2.293 5.844 5.844 0 0 1-.478-1.146 39.294 39.294 0 0 0-2.579-5.349c0-.1-.1-.191-.191-.382a1.677 1.677 0 0 0-.382-.478c-.191-.1-.382 0-.86 0-.764.1-1.815.191-2.2.191s-1.91.1-3.152.191l-.287-.1h-1.531l-4.012-.478c-1.433-.191-4.776-1.051-4.776-1.051l-2.484-.86-3.057-1.051-.191.1-4.68-.388-.191.1-2.675-2.006h-.287l-1.624-1.528-.1-.287-1.815-.287-.191.1-1.528-.478-.191-.191-3.439.287-3.152-1.242-10.889.573-.191-.1-2.006.191-.191.191-5.349.382-.191-.1-7.642 4.394-.1.287-.382.287-.191-.1-3.821-.382-.191.1h-6.782l-.191-.1-1.91-.1-.573-.382-7.069 5.54v.1l-2.484 2.006-2.77-1.337-.191.1-1.051-.287s-5.158 1.337-5.063 1.337l-4.776-.764-.287-.287-.86.955-1.91.955-.1.191-3.821 2.961-5.445 3.916-6.113 4.585-2.77 2.006-.1 1.146-1.146 2.675-.478 2.292-.764 4.681-.478 2.006-.191 2.388-.669 5.063-.271 10.984.287.669.191 3.057s0 .573.191.573l13.468-13.946 4.394-1.815 3.725-.191 2.293-2.579.191-.478.287.1 6.113-.669.287-.191h2.293l.382.1.764-.955 2.77-1.719 2.964-2.013 8.215.1.1.191 3.248.287 2.484-.478 4.585-4.681h.1l3.63-3.439 5.445-.669.191-.191.287.191 2.866 1.337.191-.191 2.484-.287.1-.1 2.388-.382.191-.1 2.579 2.2.1-.191 5.254-.1.478-.287 4.2.191.191.1.669-.191.1-.191 1.719-.764h.191l1.91-.86.191-.191 2.1-.764.191-.287 5.827-2.2.1-.1 1.051-.287.191-.191.287.287 1.719.86h.447l1.91 1.051.1-.191.573-.287h.1l.955-.478v-.1l1.337-.287 3.439.86.764-.191.669.382 2.579.382 2.484.955 1.433-.1.478.287.382-.191s4.872-.573 7.355-.764c1.624-.1 3.152-.287 4.776-.478.86-.1 1.815-.191 2.675-.287.287.1.573-.1.382-.669" data-name="Path 3648"/><path d="M215.496 153.694c0-.382-.1-.573-.1-.86-.1-.955-.1-1.91-.191-2.866 0-.287-.1-.669-.1-.955-.1-1.146-.1-2.388-.191-3.534-.191-1.528-.382-2.961-.573-4.394l-.573-3.439c-.191-1.242-.382-2.293-.669-3.439-.287-1.242-.478-1.337-1.719-1.242a.351.351 0 0 0-.287.1 8.361 8.361 0 0 1-1.528.191c-2.388.287-4.681.478-7.069.764l-6.878 2.388-9.934-.287-1.051-.382v.191l-2.961 2.2h-.382l-2.293 2.2-.1.287-5.922.764-5.445 4.2h-.573l-2.866 1.719-1.146.1-1.146.955-.287-.191-5.54-.382-.94 1.04v.191l-4.776 5.254-.1.287h-.191l-6.113 6.973h-1.72l-.1.191-5.063.86h-.382a.962.962 0 0 0-.1.287l-8.31 4.585-3.725-.478-.764.287-3.725-.191-3.63 3.916-2.2.478-1.242-.1-1.337.573-.764-.1v.191l-4.585 3.534-.478.1-7.164 5.54.1.287-4.394 10.7.191.478-7.26.669-2.388 2.1-.191.764 3.248 4.489 2.388 3.63 2.1 2.675 3.343 3.63s0 .287.1.287.478 0 .478.1l2.006.669 2.484.764a.094.094 0 0 0 .1.1h.287l4.107 1.624h.287l.191.287h.382l.955.669 1.719-.955h.1l.764-.478 6.209 1.528 4.585-2.293 10.125-1.051 4.2-6.687 1.815-1.815h.191l1.433-1.337v-.191l2.579-2.388 1.242-1.242.287-.191 1.433-1.433 1.146-1.146.287-.1-.287-1.051 1.146-4.3 2.293-.669.1-.1.669-.191v-.382l3.057-4.967.287-.1 1.242-2.484 2.1-1.146.287-.382.382.1 1.242-.669h.1l2.2-.955.191-.287 7.451-3.439h.478l.1-.382.287-.191.764-2.579 2.388-1.051 2.675-.287 2.484-1.719 3.534.191.382.287.191-.191 4.967-2.2v-.669l1.13-2.284 2.388-.669.1-.191 3.343-.669 1.242-1.528h.191l.764-.764 2.293.287.1.1 1.242.191.764.1s3.343-1.528 4.776-2.1l1.719-.573a21.5 21.5 0 0 1 2.293-.764 5.386 5.386 0 0 0 1.146-.382l1.528-.287 1.815-.287 1.146-.1s.573-.1.764-.1a.964.964 0 0 0 .764-.287c.287-.191.191-.478.287-.669a1.745 1.745 0 0 1-.191-.86" data-name="Path 3649"/><path d="M215.495 160.189a1.722 1.722 0 0 0-.191-.955 1.032 1.032 0 0 0-.669-.287c-.191 0-1.051.1-1.051.1l-1.433.191c-.191 0-.287.1-.478.1a25.607 25.607 0 0 0-2.579.669 13.556 13.556 0 0 0-2.77.955c-.955.382-2.006.764-2.961 1.242-.382.191-3.534 1.719-4.967 2.484l-1.91 2.006-.1.382-.287-.1-1.146.1-.1.1-3.821 1.242v.382l-.382.382v.287l-1.809 3.138h-.287v.287s-.382.573-.764 1.242l-8.024 5.158h-.191l-1.234 1.053-.86 3.343-.764.764-3.152 11.558.382 1.337-4.585 2.2h-.764l-.86 4.012-.191.1-1.146 3.63.1.191-.478 3.152-.191.191.191.287-4.49 7.069-.382.1L160.1 220v.382l-3.821 5.349-4.012 2.388.191.382-.191 1.624.382.573-.573.191-2.866 1.719-.287-.1-4.3 2.484-.478.764a9.651 9.651 0 0 0 1.624.287l2.77.191 1.91.1h6.5l5.922-.764 3.534-.669 2.675-.764 2.866-.86 3.725-1.433.287-.191 1.051-.573s2.961-1.624 4.3-2.579a72.361 72.361 0 0 0 6.686-5.445 21.816 21.816 0 0 0 2.1-2.1l2.006-2.006c.1-.1.287-.191.287-.382a3.643 3.643 0 0 1 1.051-1.337 6.181 6.181 0 0 0 .764-.86 10.411 10.411 0 0 1 1.719-1.815 10.224 10.224 0 0 0 1.337-1.528c.669-.955 1.337-2.006 2.006-3.057.86-1.337 1.91-2.675 2.675-4.107.86-1.528 1.624-3.057 2.484-4.585a30.259 30.259 0 0 0 2.006-3.916c.955-2.2 1.91-4.49 2.77-6.686a65.567 65.567 0 0 0 2.292-7.355c.478-1.815.764-3.725 1.433-5.54.1-.191.1-.478.191-.764.287-1.528.478-3.057.764-4.585.191-1.433.382-2.866.669-4.3.191-.955.287-2.006.382-2.961.1-1.337.191-2.77.191-4.107v-.478a.652.652 0 0 0 .382-.382" data-name="Path 3650"/></g></svg>