<svg xmlns="http://www.w3.org/2000/svg" width="589.398" height="255.403"><g data-name="utah jazz"><path fill="#fff" d="m497.463 224.926 61.206-140.044H275.056l-11.838 26.951-8.315-26.951h-56.67s-37.53 85.386-48.36 110.07a77.621 77.621 0 0 0 1.763-15.364v-2.015c4.03-9.571 37.278-85.638 44.078-101h155.66L384.874 0H199.997l-60.7 139.036a75.541 75.541 0 1 0-2.015 84.63l-12.846 29.721h30.981l18.386-41.811h34.759l12.594 41.811h326.682l12.342-28.462Zm-311.571-42.064 8.312-18.891 5.541 18.891Zm108.559 32.744-30.982-102.513h76.067c-22.669 51.13-36.522 82.867-45.086 102.513Zm117.374 9.319h-35.767l48.612-111.581h36.018c-26.194 59.695-40.803 92.943-48.863 111.582Z" data-name="Path 3845"/><path fill="#0d2240" d="M4.541 183.114a71.519 71.519 0 0 0 21.41 47.6 66.577 66.577 0 0 0 23.173-47.6Z" data-name="Path 3846"/><path fill="#ffa400" d="M55.42 183.114a74.288 74.288 0 0 1-24.684 51.887 71.753 71.753 0 0 0 41.811 15.868v-67.755Z" data-name="Path 3847"/><path fill="#0d2240" d="M4.541 176.817h44.582a67.317 67.317 0 0 0-23.173-48.36 71.7 71.7 0 0 0-21.409 48.36Z" data-name="Path 3848"/><path fill="#ffa400" d="M30.736 124.427a72.992 72.992 0 0 1 24.684 52.39h16.876v-68.51a73.657 73.657 0 0 0-41.56 16.12Z" data-name="Path 3849"/><path fill="#0d2240" d="M146.599 183.114h-44.582a66.577 66.577 0 0 0 23.173 47.6 72.7 72.7 0 0 0 21.409-47.6Z" data-name="Path 3850"/><path fill="#2b5134" d="M95.72 183.114H78.592v67.5a68.551 68.551 0 0 0 41.811-15.868 72.235 72.235 0 0 1-24.683-51.632Z" data-name="Path 3851"/><path fill="#2b5134" d="M120.403 124.427a73.729 73.729 0 0 0-41.811-16.12v68.51H95.72a72.992 72.992 0 0 1 24.683-52.39Z" data-name="Path 3852"/><path fill="#0d2240" d="m202.767 4.534-62.969 144.577a79.772 79.772 0 0 0-14.861-20.654 67.779 67.779 0 0 0-23.173 48.36h44.835l45.586-104.78h133.5l29.47-67.5Z" data-name="Path 3853"/><path fill="#2b5134" d="m348.1 72.037 29.466-67.503h-12.59l-29.47 67.5Z" data-name="Path 3854"/><path fill="#0d2240" d="M224.428 248.854h53.146L229.718 89.416h-28.714l-70.022 159.438h21.158s7.808-17.883 18.387-41.811h41.308Zm-45.338-61.458c5.289-11.838 10.579-24.432 15.868-36.27l11.083 36.27Z" data-name="Path 3855"/><path fill="#2b5134" d="m282.361 232.734 7.3-16.876L251.38 89.416h-12.594Z" data-name="Path 3856"/><path fill="#0d2240" d="m467.993 229.207 61.458-139.791h-89.417l-8.564 19.394h36.27c-18.638 42.316-61.457 139.792-61.457 139.792h138.532l8.564-19.394Z" data-name="Path 3857"/><path fill="#2b5134" d="m373.036 220.392 57.176-130.976h-12.59l-57.18 130.976Z" data-name="Path 3858"/><path fill="#2b5134" d="m494.44 220.392 57.176-130.976h-12.594l-57.176 130.976Z" data-name="Path 3859"/><path fill="#0d2240" d="M408.047 89.416h-130.22l-8.564 19.394h77.074c-18.639 42.316-61.454 139.792-61.454 139.792h112.333l8.312-19.394h-58.687Z" data-name="Path 3860"/><path fill="#0d2240" d="M401.246 61.71h-16.372l25.188-57.176h-12.344l-26.193 58.94c-2.015 4.534 0 8.312 4.786 8.312h24.18a14.858 14.858 0 0 0 12.09-8.312l26.2-58.939h-12.09Z" data-name="Path 3861"/><path fill="#0d2240" d="M492.174 4.534h-42.567l-4.534 10.327h16.624l-25.188 57.176h12.09l25.188-57.176h13.853Z" data-name="Path 3862"/><path fill="#0d2240" d="M509.3 21.41 502 50.88h-11.59Zm13.602-16.876h-12.09l-45.59 67.5h11.334l6.8-10.327h16.126l-2.267 10.327h12.09Z" data-name="Path 3863"/><path fill="#0d2240" d="m577.307 4.534-12.593 28.462h-16.373l12.594-28.462h-12.342l-29.721 67.503h12.09l12.594-28.714h16.624l-12.594 28.714h12.086l29.721-67.5Z" data-name="Path 3864"/></g></svg>