<svg xmlns="http://www.w3.org/2000/svg" width="357.652" height="357.652" data-name="washington wizards"><path fill="rgba(255,255,255,0)" d="M0 0h357.652v357.652H0Z"/><path fill="#c4ced4" d="M178.826 33.879a144.947 144.947 0 1 0 144.947 144.947A144.946 144.946 0 0 0 178.826 33.879" data-name="Path 3724"/><path fill="#e31837" d="M318.394 178.339c0-75.023-64.126-139.5-139.149-139.5-74.953 0-139.987 64.894-139.987 139.848 0 68.876 54.766 129.649 121.686 139.149a140.412 140.412 0 0 0 17.254 1.048h.14a137.888 137.888 0 0 0 36.673-4.89c58.607-16.765 103.384-73 103.384-135.656" data-name="Path 3725"/><path fill="#fff" d="M318.185 171.561H39.468c-.14 2.375-.21 4.75-.21 7.195a133.6 133.6 0 0 0 5.309 37.023c32.831 0 235.059 0 268.449-.07a133.531 133.531 0 0 0 5.379-37.372c0-2.235-.07-4.541-.21-6.776" data-name="Path 3726"/><path fill="#002b5c" d="M160.942 317.835a140.412 140.412 0 0 0 17.254 1.048h.14a137.888 137.888 0 0 0 36.673-4.89c36.6-10.548 67.9-36.464 86.13-69.784H56.442c21.305 38.629 60.214 67.339 104.5 73.626" data-name="Path 3727"/><path fill="#fff" d="M178.197 69.993s-1.118-19.7-1.118-20.607a3.073 3.073 0 0 1 1.048-1.816c-.7 0-3.423.21-6.287.279-.7.14-1.956.21-1.676 3.074l1.188 21.725 6.985-.349.489-.14a6.543 6.543 0 0 1-.629-2.165m70.343 3.842 2.515-4.4-10.338-6.007a.068.068 0 0 1-.07-.07l-5.868-3.423a1.2 1.2 0 0 0-1.676.489c-.21.349-2.375 4.121-2.375 4.121l-.978 1.676a2.6 2.6 0 0 1 3.074-.419l3.632 2.1-9.36 16.206 6.566 3.842a5.686 5.686 0 0 1 .629-2.305s5.169-9.011 8.173-14.25l2.794 1.607c1.607.908 1.607 3.493 1.607 3.493l1.677-2.654ZM228.422 57.07l-9.64-3.283c-3.074-1.048-5.309-1.327-6.636-.838s-2.445 2.1-3.353 4.82l-3.493 10.2a12.639 12.639 0 0 0-.768 3 4.119 4.119 0 0 0 1.048 3.7 14.615 14.615 0 0 0 5.1 2.585l4.331 1.537c3.143 1.118 5.379 1.4 6.636.908q1.991-.733 3.353-4.82s1.676-4.75 1.956-5.518a1.907 1.907 0 0 0-1.118-2.375l-8.173-2.865c-.978-.349-1.537.419-1.886.978-.349.629-1.537 4.121-1.537 4.121l-.419 1.118a2.214 2.214 0 0 1 2.165-.489l3 1.048q-.733 1.676-1.467 1.886a5.886 5.886 0 0 1-3-.559s-1.048-.419-1.327-.559a1.9 1.9 0 0 1-.978-1.816 10.333 10.333 0 0 1 .489-1.816l1.956-5.658c.559-1.537 1.048-2.375 1.607-2.515a5.938 5.938 0 0 1 3.074.559l7.4 2.585a3.044 3.044 0 0 1 1.607 2.235l.489-1.467L230.165 60c.419-1.676-.489-2.445-1.746-2.934m-73.905-7.055s2.235.7 2.585 2.445v.07l1.257 6.147-4.89 1.048a2.286 2.286 0 0 0-1.744 1.75l-2.1-10.408-8.382 1.746a4.1 4.1 0 0 1 2.1 2.515v.07l4.4 21.305 4.89-.978c.978-.21 1.676-.419 1.816-1.188l-1.816-8.522 6.776-1.4 1.956 9.291 4.89-.978c.978-.21 1.676-.419 1.816-1.188l-4.89-23.471-8.662 1.746Zm113.583 37.861a4.113 4.113 0 0 0 .14-3.912c-.489-1.048-1.816-2.375-3.912-4.052l-3.632-2.864c-2.585-2.026-4.61-3-5.938-3-1.4.07-3 1.188-4.75 3.423l-6.636 8.452a15.687 15.687 0 0 0-1.677 2.585 4.2 4.2 0 0 0-.21 3.842 13.96 13.96 0 0 0 3.982 4.121l3.632 2.864c2.585 2.026 4.61 3.074 6.007 3s3-1.188 4.75-3.423l6.636-8.452a16.5 16.5 0 0 0 1.607-2.585m-8.732.14-3.7 4.68c-.978 1.257-1.816 1.886-2.445 1.886a5.929 5.929 0 0 1-2.654-1.467l.559.419a15.419 15.419 0 0 1-1.607-1.4 1.716 1.716 0 0 1-.279-2.026 14.736 14.736 0 0 1 1.048-1.607l3.7-4.68c.978-1.257 1.746-1.886 2.375-1.886.559 0 1.467.559 2.794 1.537l-.489-.419a12.9 12.9 0 0 1 1.607 1.467 1.7 1.7 0 0 1 .279 2.026c-.279.349-.629.838-1.188 1.467M143.131 67.549c-1.607-3.074-4.89-4.121-8.313-2.724l-3.842 1.607c-1.4.559-2.305.489-2.864-.349a2.3 2.3 0 0 0-.21-.419c-.14-.559-.629-1.537 1.467-2.375l6.846-2.864c1.467-.629 3.7.838 3.7.838l-2.165-5.239a2.513 2.513 0 0 0-3.143-1.4l-8.451 3.497c-3 1.257-4.89 2.515-5.518 3.772s-.419 3.213.7 5.868l.978 2.235a6.98 6.98 0 0 0 .559.978 5.344 5.344 0 0 0 3.213 2.235 9 9 0 0 0 5.728-.7l3.283-1.4q1.886-.838 2.724.419a1.18 1.18 0 0 1 .21.7s.349 1.118-2.235 2.235l-6.636 2.724c-1.467.489-3.632-.908-3.632-.908l2.165 5.239a2.513 2.513 0 0 0 3.143 1.4l.629-.279 4.541-1.886 3.283-1.4c3.074-1.257 4.89-2.515 5.518-3.772s.349-3.074-.7-5.658c.21.07-.629-1.886-.978-2.375m140.686 34.159-1.188-1.467s.349 2.165-1.048 3.213h.07l-7.335 5.728 4.75-12.923a.887.887 0 0 0-.21-.978c-.559-.7-3.632-4.68-3.632-4.68l-1.257-1.607s.349 2.305-1.048 3.423l-17.184 13.482 3.074 3.912c.629.768 1.118 1.327 1.886 1.118 0 0 4.331-3.423 9.151-7.195l-4.4 11.316c-.768 1.816-2.026.7-2.026.7l.838 1.188 3.074 3.912c.629.768 1.118 1.257 1.886 1.118l18.86-14.746-4.261-5.518Zm-86.06-52.6-1.886-.21a3.872 3.872 0 0 1 1.607 3v-.07l-1.049 9.294-5.937-12.433a1.082 1.082 0 0 0-.838-.559c-.838-.07-5.868-.7-5.868-.7l-2.026-.21s1.886 1.4 1.676 3.143l-2.444 21.659 4.96.559c.978.14 1.676.14 2.1-.559 0 0 .629-5.449 1.257-11.6l5.029 11.037c.768 1.816-.908 1.956-.908 1.956l1.467.21 4.96.559c.978.14 1.676.14 2.1-.559l2.654-23.82-6.846-.7ZM93.465 77.049l-.7.908-3.912 4.4a.068.068 0 0 1-.07.07c-.559.629-.908 1.118-.838 1.676l9.919 15.3-13.971-7.544c-1.746-.7-1.048-2.654-1.048-2.654l-1.4 1.607-2.864 3.283a.068.068 0 0 1-.07.07c-.7.838-1.118 1.676-.7 2.515l9.989 14.041-13.964-7.2a2.345 2.345 0 0 1-1.048-2.934l-1.466 1.679-3.283 3.7a.068.068 0 0 1-.07.07c-.768.838-.978 2.1-.21 2.654l.07.07 21.725 10.2 5.1-5.8c.7-.768.908-1.188.559-2.026l-4.121-7.614 8.382 4.121 5.449-6.147a2.673 2.673 0 0 0 .489-2.654L93.886 79.56a3.443 3.443 0 0 1-.419-2.515m12.012-7.124-4.121 2.864a2.029 2.029 0 0 0-1.118 2.026l6.985 21.166c.419 1.327-1.188 3.7-1.188 3.7l7.265-5.1a1.656 1.656 0 0 0 .559-1.956l-1.048-3 5.518-3.842 2.165 1.327a1.5 1.5 0 0 1 .349 2.165l7.963-5.588-23.329-13.762Zm5.1 13.9-1.327-3.632 3.353 2.165Zm-45.057 43.732 3.283 10.059h10.548l-8.592 6.217 3.283 10.059-8.522-6.217-8.592 6.217 3.283-10.059-8.591-6.217H62.24Zm226.606 1.327-3.283 10.059h-10.547l8.592 6.217-3.283 10.059 8.522-6.217 8.593 6.217-3.283-10.059 8.592-6.217h-10.619ZM179.522 284.864h-5.029a2.026 2.026 0 0 0-2.026.978l-6.424 21.379c-.419 1.327-3.074 2.375-3.074 2.375h8.871a1.719 1.719 0 0 0 1.607-1.257l.908-3.074h6.776l.978 2.375a1.518 1.518 0 0 1-.978 1.956h9.57Zm-3.56 14.457 1.048-3.772 1.4 3.772Zm38.909 3.7-5.309-5.868a4.046 4.046 0 0 0 2.585-1.607c.629-.978.629-2.934.14-5.728 0 0-.978-4.89-1.188-5.658a3.669 3.669 0 0 0-2.1-2.724 8.265 8.265 0 0 0-4.191 0l-17.53 3.285s2.235.838 2.585 2.515l3.912 21.375 4.89-.908c.978-.21 1.676-.349 1.886-1.118l-1.329-7.264 3.423-.7 5.868 7.195 8.732-1.607a6.877 6.877 0 0 1-2.375-1.188m-9.5-14.32a7.628 7.628 0 0 1 .279 2.794 1.116 1.116 0 0 1-.978.838l-4.052.768c-.908.14-1.607 1.118-2.165 2.305l-1.188-6.427 6.566-1.257c.7-.21 1.257.14 1.537.978m29.201-15.079a3.682 3.682 0 0 0-2.654-2.165 7.911 7.911 0 0 0-4.052.908l-16.486 7.125s2.305.419 3.074 1.886l7.614 17.673a4.036 4.036 0 0 1-.349 2.864l16.066-6.916c2.165-.978 3.423-1.956 3.842-3.074.349-1.118 0-3-1.188-5.588l-4.75-10.408a82.765 82.765 0 0 0-1.118-2.305m-4.61 5.658c.279.489 4.4 9.57 4.331 10.059a1.212 1.212 0 0 1-.768 1.048l-6.357 2.724-3.7-8.522a39.568 39.568 0 0 0-1.467-3.283l6.217-2.654a1.342 1.342 0 0 1 1.746.629m-64.126 10.478 1.048-4.68s-18.3-3.982-18.581-4.052c-1.537-.14-2.1.838-2.445 2.026l-.7 3.283-.349 1.327a3.988 3.988 0 0 1 2.864-.768l8.452 1.886-14.111 11.871-.908 3.912 18.372 4.052c1.188.279 2.026.279 2.375-.908l1.327-6.077a3.817 3.817 0 0 1-2.864 1.048l-8.871-1.956Zm-29.967 10.758s6.427-18.651 6.776-19.489a2.953 2.953 0 0 1 1.607-1.257c-.629-.279-3.213-1.118-5.938-2.1-.7-.14-1.886-.559-2.724 2.165l-7.125 20.537 6.636 2.305.559.07a6.033 6.033 0 0 1 .21-2.235m-1.188-23.471-.978-.559-4.96-3.143a.068.068 0 0 1-.07-.07c-.7-.419-1.257-.7-1.746-.559l-10.967 10.688 3.982-12.853c.279-1.257 2.235-1.257 2.235-1.257l-1.746-1.118-3.632-2.305a.068.068 0 0 1-.07-.07c-.908-.559-1.816-.838-2.585-.279l-11.249 10.405 4.96-12.5a2.288 2.288 0 0 1 2.724-1.467l-1.886-1.188-4.191-2.654a.068.068 0 0 1-.07-.07c-.978-.629-2.235-.629-2.654.21-.07.14-.07.07-.07.07l-7.754 22.353 6.5 4.121c.908.559 1.327.7 2.1.21l6.916-5.239-2.794 8.941 6.916 4.4a2.718 2.718 0 0 0 2.724.07l16.057-15.157a3.082 3.082 0 0 1 2.305-.978m125.458-8.732c-2.166-2.654-5.658-3-8.662-.908l-3.423 2.375c-1.257.838-2.165.908-2.864.279 0 0-.21-.279-.279-.349-.279-.489-.908-1.4.908-2.654l6.147-4.261c1.327-.908 3.842.07 3.842.07s-2.026-2.864-3.213-4.68a2.532 2.532 0 0 0-3.423-.7l-7.474 5.169q-4.086 2.829-4.61 4.82c-.349 1.327.279 3.213 1.886 5.588l1.4 2.026c.21.279.489.559.7.838a5.565 5.565 0 0 0 3.632 1.537 9.173 9.173 0 0 0 5.449-1.886l2.934-2.026c1.118-.768 2.026-.838 2.794-.14a1.429 1.429 0 0 1 .349.629s.629 1.048-1.746 2.654l-5.868 4.052c-1.327.768-3.7-.14-3.7-.14s2.026 2.864 3.213 4.68a2.532 2.532 0 0 0 3.423.7l.559-.419 4.052-2.794 2.934-2.026q4.086-2.829 4.61-4.82c.349-1.327-.279-3.074-1.886-5.379a20.3 20.3 0 0 0-1.677-2.235" data-name="Path 3728"/><path fill="#c4ced4" d="M264.327 132.513a97.6 97.6 0 0 0-23.611-28.64 117.133 117.133 0 0 0-5.588-4.261 96.809 96.809 0 0 0-56.163-18.023h-.14a97.279 97.279 0 0 0-97.1 92.068c-.07 1.676-.14 3.353-.14 5.029v.14a97.092 97.092 0 0 0 7.614 37.791 118.009 118.009 0 0 0 1.956 4.331 98.528 98.528 0 0 0 22.214 29.828 97.168 97.168 0 0 0 7.195 5.938 96.521 96.521 0 0 0 58.118 19.35h.14a97 97 0 0 0 97.167-97.1v-.14a97.092 97.092 0 0 0-7.614-37.791c-1.188-2.934-2.585-5.728-4.052-8.522" data-name="Path 3729"/><path fill="#fff" d="M266.004 142.013a89.487 89.487 0 0 0-3.982-8.243 94.231 94.231 0 0 0-22.982-27.872c-1.746-1.467-3.563-2.794-5.449-4.121a94.179 94.179 0 0 0-54.7-17.533h-.07a94.679 94.679 0 0 0-94.512 89.623c-.07 1.607-.14 3.213-.14 4.89v.14a94.9 94.9 0 0 0 7.4 36.813l1.886 4.191a94.411 94.411 0 0 0 21.655 28.989c2.235 2.026 4.54 3.982 6.985 5.8a94.612 94.612 0 0 0 56.591 18.854h.14a94.5 94.5 0 0 0 94.582-94.512v-.21a93.64 93.64 0 0 0-7.4-36.813" data-name="Path 3730"/><path fill="#002b5c" d="m161.152 135.447 2.165-7.963.489-1.886-10.059-5.658s-5.868-4.052-19 3.563c-15.368 9.081-27.872 20.816-34.368 33.251a79.629 79.629 0 0 0-7.894 23.82 86.46 86.46 0 0 0 14.809 46.1c-2.585-24.589 21.236-51.552 39.817-69.994a62.933 62.933 0 0 0 14.041-21.236m61.821-11.94c-13.133-7.614-19-3.563-19-3.563l-10.059 5.658.489 1.886 2.165 7.963a64.743 64.743 0 0 0 13.971 21.305c18.581 18.372 42.262 45.2 39.887 69.714a85.682 85.682 0 0 0 14.669-46.663 80.6 80.6 0 0 0-7.754-23.052c-6.5-12.434-19-24.169-34.368-33.25" data-name="Path 3731"/><path fill="#e31837" d="M191.4 108.763c34.508 3.912 57.21 23.471 68.876 40.865a86.56 86.56 0 0 0-54.139-53.3c-5.518 1.676-11.735 5.169-14.739 12.434m-25.008 0c-3.074-7.335-9.291-10.827-14.879-12.434a86.432 86.432 0 0 0-54.274 53.718c11.6-17.463 34.368-37.372 69.155-41.284m5.658-.978 6.846-10.059 6.846 10.059c2.724-7.544 7.055-11.666 11.456-13.9a87.447 87.447 0 0 0-18.3-1.956 88.623 88.623 0 0 0-18.372 1.956c4.4 2.235 8.732 6.357 11.526 13.9" data-name="Path 3732"/><path fill="#002b5c" d="M178.896 137.123c-.978.7-32.831 23.611-46.872 46.383-18.93 30.666-16.486 48.339-11.6 58.4a86.061 86.061 0 0 0 44.776 21.725l7.335-104.781 6.147-6.147.07-.07.07.07 6.147 6.147 7.4 104.571-.07.07a85.656 85.656 0 0 0 45.056-21.934c4.82-10.129 7.125-27.732-11.666-58.188-13.958-22.635-45.816-45.546-46.793-46.246" data-name="Path 3733"/><path fill="#c4ced4" d="m185.043 158.848-6.148-6.147.07 118.472 13.412-7.684h.14Zm12.224-43.938a104.264 104.264 0 0 0-11.316-1.4l-2.724-.14-.07-.14-.07-.14-1.118-2.235-.07-.14-3.143-6.357-.978 2.026-2.026 4.121-.07.14-.07.14-1.048 2.235-.07.21v.07l-2.724.14a100.147 100.147 0 0 0-11.316 1.4c-1.676.279-3.353.559-4.96.908l5.309 2.864 5.309 2.864 1.607.908 1.607.908-.978 3.563-.07.21-.489 1.676-2.934 10.688 6.706-4.96 4.541-3.353 1.327-.978 1.327-.978v-.07h.139v.07l1.327.978 1.327.978 11.246 8.313-2.934-10.688-.279-.908-.279-.908-.978-3.563 1.048-.559 2.235-1.187 7.125-3.842 3.423-1.886c-1.537-.419-3.213-.7-4.89-.978" data-name="Path 3734"/></svg>